999
dxfrw 0.6.3
  0
SECTION
  2
HEADER
  9
$ACADVER
  1
AC1021
  9
$DWGCODEPAGE
  3
ANSI_1252
  9
$INSBASE
 10
0
 20
0
 30
0
  9
$EXTMIN
 10
10000000000
 20
10000000000
 30
0
  9
$EXTMAX
 10
-10000000000
 20
-10000000000
 30
0
  9
$LIMMIN
 10
0
 20
0
  9
$LIMMAX
 10
420
 20
297
  9
$ORTHOMODE
 70
    0
  9
$REGENMODE
 70
    1
  9
$FILLMODE
 70
    1
  9
$QTEXTMODE
 70
    0
  9
$MIRRTEXT
 70
    0
  9
$LTSCALE
 40
1
  9
$ATTMODE
 70
    0
  9
$TEXTSIZE
 40
2.5
  9
$TRACEWID
 40
15.68
  9
$TEXTSTYLE
  7
STANDARD
  9
$CLAYER
  8
schematic
  9
$CELTYPE
  6
BYLAYER
  9
$CECOLOR
 62
  256
  9
$CELTSCALE
 40
1
  9
$DISPSILH
 70
    0
  9
$DIMSCALE
 40
1
  9
$DIMASZ
 40
2.5
  9
$DIMEXO
 40
0.625
  9
$DIMDLI
 40
3.75
  9
$DIMRND
 40
0
  9
$DIMDLE
 40
0
  9
$DIMEXE
 40
1.25
  9
$DIMTP
 40
0
  9
$DIMTM
 40
0
  9
$DIMTXT
 40
2.5
  9
$DIMCEN
 40
2.5
  9
$DIMTSZ
 40
0
  9
$DIMTOL
 70
    0
  9
$DIMLIM
 70
    0
  9
$DIMTIH
 70
    0
  9
$DIMTOH
 70
    0
  9
$DIMSE1
 70
    0
  9
$DIMSE2
 70
    0
  9
$DIMTAD
 70
    1
  9
$DIMZIN
 70
    8
  9
$DIMBLK
  1

  9
$DIMASO
 70
    1
  9
$DIMSHO
 70
    1
  9
$DIMPOST
  1

  9
$DIMAPOST
  1

  9
$DIMALT
 70
    0
  9
$DIMALTD
 70
    3
  9
$DIMALTF
 40
0.03937
  9
$DIMLFAC
 40
1
  9
$DIMTOFL
 70
    1
  9
$DIMTVP
 40
0
  9
$DIMTIX
 70
    0
  9
$DIMSOXD
 70
    0
  9
$DIMSAH
 70
    0
  9
$DIMBLK1
  1

  9
$DIMBLK2
  1

  9
$DIMSTYLE
  2
Standard
  9
$DIMCLRD
 70
    0
  9
$DIMCLRE
 70
    0
  9
$DIMCLRT
 70
    0
  9
$DIMTFAC
 40
1
  9
$DIMGAP
 40
0.625
  9
$DIMJUST
 70
    0
  9
$DIMSD1
 70
    0
  9
$DIMSD2
 70
    0
  9
$DIMTOLJ
 70
    0
  9
$DIMTZIN
 70
    8
  9
$DIMALTZ
 70
    0
  9
$DIMALTTZ
 70
    0
  9
$DIMUPT
 70
    0
  9
$DIMDEC
 70
    2
  9
$DIMTDEC
 70
    2
  9
$DIMALTU
 70
    2
  9
$DIMALTTD
 70
    3
  9
$DIMTXSTY
  7
STANDARD
  9
$DIMAUNIT
 70
    0
  9
$DIMADEC
 70
    0
  9
$DIMALTRND
 40
0
  9
$DIMAZIN
 70
    0
  9
$DIMDSEP
 70
   44
  9
$DIMATFIT
 70
    3
  9
$DIMFRAC
 70
    0
  9
$DIMLDRBLK
  1
STANDARD
  9
$DIMLUNIT
 70
    2
  9
$DIMLWD
 70
   -2
  9
$DIMLWE
 70
   -2
  9
$DIMTMOVE
 70
    0
  9
$DIMFXL
 40
1
  9
$DIMFXLON
 70
    0
  9
$DIMJOGANG
 40
0.7854
  9
$DIMTFILL
 70
    0
  9
$DIMTFILLCLR
 70
    0
  9
$DIMARCSYM
 70
    0
  9
$DIMLTYPE
  6

  9
$DIMLTEX1
  6

  9
$DIMLTEX2
  6

  9
$LUNITS
 70
    2
  9
$LUPREC
 70
    4
  9
$SKETCHINC
 40
1
  9
$FILLETRAD
 40
0
  9
$AUNITS
 70
    0
  9
$AUPREC
 70
    2
  9
$MENU
  1
.
  9
$ELEVATION
 40
0
  9
$PELEVATION
 40
0
  9
$THICKNESS
 40
0
  9
$LIMCHECK
 70
    0
  9
$CHAMFERA
 40
0
  9
$CHAMFERB
 40
0
  9
$CHAMFERC
 40
0
  9
$CHAMFERD
 40
0
  9
$SKPOLY
 70
    0
  9
$USRTIMER
 70
    1
  9
$ANGBASE
 50
0
  9
$ANGDIR
 70
    0
  9
$PDMODE
 70
   34
  9
$PDSIZE
 40
0
  9
$PLINEWID
 40
0
  9
$SPLFRAME
 70
    0
  9
$SPLINETYPE
 70
    2
  9
$SPLINESEGS
 70
    8
  9
$HANDSEED
  5
20000
  9
$SURFTAB1
 70
    6
  9
$SURFTAB2
 70
    6
  9
$SURFTYPE
 70
    6
  9
$SURFU
 70
    6
  9
$SURFV
 70
    6
  9
$UCSBASE
  2

  9
$UCSNAME
  2

  9
$UCSORG
 10
0
 20
0
 30
0
  9
$UCSXDIR
 10
1
 20
0
 30
0
  9
$UCSYDIR
 10
0
 20
1
 30
0
  9
$UCSORTHOREF
  2

  9
$UCSORTHOVIEW
 70
    0
  9
$UCSORGTOP
 10
0
 20
0
 30
0
  9
$UCSORGBOTTOM
 10
0
 20
0
 30
0
  9
$UCSORGLEFT
 10
0
 20
0
 30
0
  9
$UCSORGRIGHT
 10
0
 20
0
 30
0
  9
$UCSORGFRONT
 10
0
 20
0
 30
0
  9
$UCSORGBACK
 10
0
 20
0
 30
0
  9
$PUCSBASE
  2

  9
$PUCSNAME
  2

  9
$PUCSORG
 10
0
 20
0
 30
0
  9
$PUCSXDIR
 10
1
 20
0
 30
0
  9
$PUCSYDIR
 10
0
 20
1
 30
0
  9
$PUCSORTHOREF
  2

  9
$PUCSORTHOVIEW
 70
    0
  9
$PUCSORGTOP
 10
0
 20
0
 30
0
  9
$PUCSORGBOTTOM
 10
0
 20
0
 30
0
  9
$PUCSORGLEFT
 10
0
 20
0
 30
0
  9
$PUCSORGRIGHT
 10
0
 20
0
 30
0
  9
$PUCSORGFRONT
 10
0
 20
0
 30
0
  9
$PUCSORGBACK
 10
0
 20
0
 30
0
  9
$USERI1
 70
    0
  9
$USERI2
 70
    0
  9
$USERI3
 70
    0
  9
$USERI4
 70
    0
  9
$USERI5
 70
    0
  9
$USERR1
 40
0
  9
$USERR2
 40
0
  9
$USERR3
 40
0
  9
$USERR4
 40
0
  9
$USERR5
 40
0
  9
$WORLDVIEW
 70
    1
  9
$SHADEDGE
 70
    3
  9
$SHADEDIF
 70
   70
  9
$TILEMODE
 70
    1
  9
$MAXACTVP
 70
   64
  9
$PINSBASE
 10
17.03901703461551
 20
20.05907584428795
 30
0
  9
$PLIMCHECK
 70
    0
  9
$PEXTMIN
 10
0
 20
0
 30
0
  9
$PEXTMAX
 10
0
 20
0
 30
0
  9
$GRIDMODE
 70
    1
  9
$SNAPSTYLE
 70
    0
  9
$PLIMMIN
 10
0
 20
0
  9
$PLIMMAX
 10
297
 20
210
  9
$UNITMODE
 70
    0
  9
$VISRETAIN
 70
    1
  9
$PLINEGEN
 70
    0
  9
$PSLTSCALE
 70
    1
  9
$TREEDEPTH
 70
 3020
  9
$CMLSTYLE
  2
Standard
  9
$CMLJUST
 70
    0
  9
$CMLSCALE
 40
20
  9
$PROXYGRAPHICS
 70
    1
  9
$MEASUREMENT
 70
    1
  9
$CELWEIGHT
370
   -1
  9
$ENDCAPS
280
    0
  9
$JOINSTYLE
280
    0
  9
$LWDISPLAY
290
    0
  9
$INSUNITS
 70
    0
  9
$HYPERLINKBASE
  1

  9
$STYLESHEET
  1

  9
$XEDIT
290
    1
  9
$CEPSNTYPE
380
    0
  9
$PSTYLEMODE
290
    1
  9
$EXTNAMES
290
    1
  9
$PSVPSCALE
 40
0.6228938402028142
  9
$OLESTARTUP
290
    0
  9
$SORTENTS
280
  127
  9
$INDEXCTL
280
    0
  9
$HIDETEXT
280
    1
  9
$XCLIPFRAME
290
    0
  9
$HALOGAP
280
    0
  9
$OBSCOLOR
 70
  257
  9
$OBSLTYPE
280
    0
  9
$INTERSECTIONDISPLAY
280
    0
  9
$INTERSECTIONCOLOR
 70
  257
  9
$DIMASSOC
280
    0
  9
$PROJECTNAME
  1

  9
$CAMERADISPLAY
290
    0
  9
$LENSLENGTH
 40
50
  9
$CAMERAHEIGHT
 40
0
  9
$STEPSPERSEC
 40
2
  9
$STEPSIZE
 40
50
  9
$3DDWFPREC
 40
2
  9
$PSOLWIDTH
 40
5
  9
$PSOLHEIGHT
 40
80
  9
$LOFTANG1
 40
1.570796326794897
  9
$LOFTANG2
 40
1.570796326794897
  9
$LOFTMAG1
 40
0
  9
$LOFTMAG2
 40
0
  9
$LOFTPARAM
 70
    7
  9
$LOFTNORMALS
280
    1
  9
$LATITUDE
 40
1
  9
$LONGITUDE
 40
1
  9
$NORTHDIRECTION
 40
0
  9
$TIMEZONE
 70
-8000
  9
$LIGHTGLYPHDISPLAY
280
    1
  9
$TILEMODELIGHTSYNCH
280
    1
  9
$SOLIDHIST
280
    1
  9
$SHOWHIST
280
    1
  9
$DWFFRAME
280
    2
  9
$DGNFRAME
280
    0
  9
$REALWORLDSCALE
290
    1
  9
$INTERFERECOLOR
 62
    1
  9
$CSHADOW
280
    0
  9
$SHADOWPLANELOCATION
 40
0
  0
ENDSEC
  0
SECTION
  2
CLASSES
  0
ENDSEC
  0
SECTION
  2
TABLES
  0
TABLE
  2
VPORT
  5
8
330
0
100
AcDbSymbolTable
 70
    1
  0
VPORT
  5
31
330
2
100
AcDbSymbolTableRecord
100
AcDbViewportTableRecord
  2
*ACTIVE
 70
    0
 10
0
 20
0
 11
1
 21
1
 12
232.6792899408284
 22
150.2573964497041
 13
0
 23
0
 14
10
 24
10
 15
10
 25
10
 16
0
 26
0
 36
1
 17
0
 27
0
 37
0
 40
304.0295857988166
 41
2.064739884393064
 42
50
 43
0
 44
0
 50
0
 51
0
 71
    0
 72
  100
 73
    1
 74
    3
 75
    0
 76
    1
 77
    0
 78
    0
281
    0
 65
    1
110
0
120
0
130
0
111
1
121
0
131
0
112
0
122
1
132
0
 79
    0
146
0
348
10020
 60
    7
 61
    5
292
1
282
    1
141
0
142
0
 63
  250
421
3358443
  0
ENDTAB
  0
TABLE
  2
LTYPE
  5
5
330
0
100
AcDbSymbolTable
 70
    4
  0
LTYPE
  5
14
330
5
100
AcDbSymbolTableRecord
100
AcDbLinetypeTableRecord
  2
ByBlock
 70
    0
  3

 72
   65
 73
    0
 40
0
  0
LTYPE
  5
15
330
5
100
AcDbSymbolTableRecord
100
AcDbLinetypeTableRecord
  2
ByLayer
 70
    0
  3

 72
   65
 73
    0
 40
0
  0
LTYPE
  5
16
330
5
100
AcDbSymbolTableRecord
100
AcDbLinetypeTableRecord
  2
Continuous
 70
    0
  3
Solid line
 72
   65
 73
    0
 40
0
  0
LTYPE
  5
32
330
5
100
AcDbSymbolTableRecord
100
AcDbLinetypeTableRecord
  2
DOT
 70
    0
  3
Dot . . . . . . . . . . . . . . . . . . . . . .
 72
   65
 73
    2
 40
6.35
 49
0
 74
    0
 49
-6.35
 74
    0
  0
LTYPE
  5
33
330
5
100
AcDbSymbolTableRecord
100
AcDbLinetypeTableRecord
  2
DOTTINY
 70
    0
  3
Dot (.15x) .....................................
 72
   65
 73
    2
 40
0.9525
 49
0
 74
    0
 49
-0.9525
 74
    0
  0
LTYPE
  5
34
330
5
100
AcDbSymbolTableRecord
100
AcDbLinetypeTableRecord
  2
DOT2
 70
    0
  3
Dot (.5x) .....................................
 72
   65
 73
    2
 40
3.175
 49
0
 74
    0
 49
-3.175
 74
    0
  0
LTYPE
  5
35
330
5
100
AcDbSymbolTableRecord
100
AcDbLinetypeTableRecord
  2
DOTX2
 70
    0
  3
Dot (2x) .  .  .  .  .  .  .  .  .  .  .  .  .
 72
   65
 73
    2
 40
12.7
 49
0
 74
    0
 49
-12.7
 74
    0
  0
LTYPE
  5
36
330
5
100
AcDbSymbolTableRecord
100
AcDbLinetypeTableRecord
  2
DASHED
 70
    0
  3
Dashed _ _ _ _ _ _ _ _ _ _ _ _ _ _ _ _ _
 72
   65
 73
    2
 40
19.05
 49
12.7
 74
    0
 49
-6.35
 74
    0
  0
LTYPE
  5
37
330
5
100
AcDbSymbolTableRecord
100
AcDbLinetypeTableRecord
  2
DASHEDTINY
 70
    0
  3
Dashed (.15x) _ _ _ _ _ _ _ _ _ _ _ _ _ _ _ _ _
 72
   65
 73
    2
 40
2.8575
 49
1.905
 74
    0
 49
-0.9525
 74
    0
  0
LTYPE
  5
38
330
5
100
AcDbSymbolTableRecord
100
AcDbLinetypeTableRecord
  2
DASHED2
 70
    0
  3
Dashed (.5x) _ _ _ _ _ _ _ _ _ _ _ _ _ _ _ _ _
 72
   65
 73
    2
 40
9.524999999999999
 49
6.35
 74
    0
 49
-3.175
 74
    0
  0
LTYPE
  5
39
330
5
100
AcDbSymbolTableRecord
100
AcDbLinetypeTableRecord
  2
DASHEDX2
 70
    0
  3
Dashed (2x) ____  ____  ____  ____  ____  ___
 72
   65
 73
    2
 40
38.09999999999999
 49
25.4
 74
    0
 49
-12.7
 74
    0
  0
LTYPE
  5
3A
330
5
100
AcDbSymbolTableRecord
100
AcDbLinetypeTableRecord
  2
DASHDOT
 70
    0
  3
Dash dot __ . __ . __ . __ . __ . __ . __ . __
 72
   65
 73
    4
 40
25.4
 49
12.7
 74
    0
 49
-6.35
 74
    0
 49
0
 74
    0
 49
-6.35
 74
    0
  0
LTYPE
  5
3B
330
5
100
AcDbSymbolTableRecord
100
AcDbLinetypeTableRecord
  2
DASHDOTTINY
 70
    0
  3
Dash dot (.15x) _._._._._._._._._._._._._._._.
 72
   65
 73
    4
 40
3.81
 49
1.905
 74
    0
 49
-0.9525
 74
    0
 49
0
 74
    0
 49
-0.9525
 74
    0
  0
LTYPE
  5
3C
330
5
100
AcDbSymbolTableRecord
100
AcDbLinetypeTableRecord
  2
DASHDOT2
 70
    0
  3
Dash dot (.5x) _._._._._._._._._._._._._._._.
 72
   65
 73
    4
 40
12.7
 49
6.35
 74
    0
 49
-3.175
 74
    0
 49
0
 74
    0
 49
-3.175
 74
    0
  0
LTYPE
  5
3D
330
5
100
AcDbSymbolTableRecord
100
AcDbLinetypeTableRecord
  2
DASHDOTX2
 70
    0
  3
Dash dot (2x) ____  .  ____  .  ____  .  ___
 72
   65
 73
    4
 40
50.8
 49
25.4
 74
    0
 49
-12.7
 74
    0
 49
0
 74
    0
 49
-12.7
 74
    0
  0
LTYPE
  5
3E
330
5
100
AcDbSymbolTableRecord
100
AcDbLinetypeTableRecord
  2
DIVIDE
 70
    0
  3
Divide ____ . . ____ . . ____ . . ____ . . ____
 72
   65
 73
    6
 40
31.75
 49
12.7
 74
    0
 49
-6.35
 74
    0
 49
0
 74
    0
 49
-6.35
 74
    0
 49
0
 74
    0
 49
-6.35
 74
    0
  0
LTYPE
  5
3F
330
5
100
AcDbSymbolTableRecord
100
AcDbLinetypeTableRecord
  2
DIVIDETINY
 70
    0
  3
Divide (.15x) __..__..__..__..__..__..__..__.._
 72
   65
 73
    6
 40
4.7625
 49
1.905
 74
    0
 49
-0.9525
 74
    0
 49
0
 74
    0
 49
-0.9525
 74
    0
 49
0
 74
    0
 49
-0.9525
 74
    0
  0
LTYPE
  5
40
330
5
100
AcDbSymbolTableRecord
100
AcDbLinetypeTableRecord
  2
DIVIDE2
 70
    0
  3
Divide (.5x) __..__..__..__..__..__..__..__.._
 72
   65
 73
    6
 40
15.875
 49
6.35
 74
    0
 49
-3.175
 74
    0
 49
0
 74
    0
 49
-3.175
 74
    0
 49
0
 74
    0
 49
-3.175
 74
    0
  0
LTYPE
  5
41
330
5
100
AcDbSymbolTableRecord
100
AcDbLinetypeTableRecord
  2
DIVIDEX2
 70
    0
  3
Divide (2x) ________  .  .  ________  .  .  _
 72
   65
 73
    6
 40
63.5
 49
25.4
 74
    0
 49
-12.7
 74
    0
 49
0
 74
    0
 49
-12.7
 74
    0
 49
0
 74
    0
 49
-12.7
 74
    0
  0
LTYPE
  5
42
330
5
100
AcDbSymbolTableRecord
100
AcDbLinetypeTableRecord
  2
BORDER
 70
    0
  3
Border __ __ . __ __ . __ __ . __ __ . __ __ .
 72
   65
 73
    6
 40
44.45
 49
12.7
 74
    0
 49
-6.35
 74
    0
 49
12.7
 74
    0
 49
-6.35
 74
    0
 49
0
 74
    0
 49
-6.35
 74
    0
  0
LTYPE
  5
43
330
5
100
AcDbSymbolTableRecord
100
AcDbLinetypeTableRecord
  2
BORDERTINY
 70
    0
  3
Border (.15x) __.__.__.__.__.__.__.__.__.__.__.
 72
   65
 73
    6
 40
6.6675
 49
1.905
 74
    0
 49
-0.9525
 74
    0
 49
1.905
 74
    0
 49
-0.9525
 74
    0
 49
0
 74
    0
 49
-0.9525
 74
    0
  0
LTYPE
  5
44
330
5
100
AcDbSymbolTableRecord
100
AcDbLinetypeTableRecord
  2
BORDER2
 70
    0
  3
Border (.5x) __.__.__.__.__.__.__.__.__.__.__.
 72
   65
 73
    6
 40
22.225
 49
6.35
 74
    0
 49
-3.175
 74
    0
 49
6.35
 74
    0
 49
-3.175
 74
    0
 49
0
 74
    0
 49
-3.175
 74
    0
  0
LTYPE
  5
45
330
5
100
AcDbSymbolTableRecord
100
AcDbLinetypeTableRecord
  2
BORDERX2
 70
    0
  3
Border (2x) ____  ____  .  ____  ____  .  ___
 72
   65
 73
    6
 40
88.89999999999999
 49
25.4
 74
    0
 49
-12.7
 74
    0
 49
25.4
 74
    0
 49
-12.7
 74
    0
 49
0
 74
    0
 49
-12.7
 74
    0
  0
LTYPE
  5
46
330
5
100
AcDbSymbolTableRecord
100
AcDbLinetypeTableRecord
  2
CENTER
 70
    0
  3
Center ____ _ ____ _ ____ _ ____ _ ____ _ ____
 72
   65
 73
    4
 40
50.8
 49
31.75
 74
    0
 49
-6.35
 74
    0
 49
6.35
 74
    0
 49
-6.35
 74
    0
  0
LTYPE
  5
47
330
5
100
AcDbSymbolTableRecord
100
AcDbLinetypeTableRecord
  2
CENTERTINY
 70
    0
  3
Center (.15x) ___ _ ___ _ ___ _ ___ _ ___ _ ___
 72
   65
 73
    4
 40
7.619999999999999
 49
4.7625
 74
    0
 49
-0.9525
 74
    0
 49
0.9525
 74
    0
 49
-0.9525
 74
    0
  0
LTYPE
  5
48
330
5
100
AcDbSymbolTableRecord
100
AcDbLinetypeTableRecord
  2
CENTER2
 70
    0
  3
Center (.5x) ___ _ ___ _ ___ _ ___ _ ___ _ ___
 72
   65
 73
    4
 40
28.575
 49
19.05
 74
    0
 49
-3.175
 74
    0
 49
3.175
 74
    0
 49
-3.175
 74
    0
  0
LTYPE
  5
49
330
5
100
AcDbSymbolTableRecord
100
AcDbLinetypeTableRecord
  2
CENTERX2
 70
    0
  3
Center (2x) ________  __  ________  __  _____
 72
   65
 73
    4
 40
101.6
 49
63.5
 74
    0
 49
-12.7
 74
    0
 49
12.7
 74
    0
 49
-12.7
 74
    0
  0
ENDTAB
  0
TABLE
  2
LAYER
  5
2
330
0
100
AcDbSymbolTable
 70
    1
  0
LAYER
  5
10
330
2
100
AcDbSymbolTableRecord
100
AcDbLayerTableRecord
  2
0
 70
    0
 62
    7
  6
CONTINUOUS
370
   35
390
F
  0
LAYER
  5
4A
330
2
100
AcDbSymbolTableRecord
100
AcDbLayerTableRecord
  2
Contour
 70
    0
 62
    7
  6
CONTINUOUS
370
   -3
390
F
  0
LAYER
  5
4B
330
2
100
AcDbSymbolTableRecord
100
AcDbLayerTableRecord
  2
frame-title
 70
    0
 62
    7
  6
CONTINUOUS
370
   35
390
F
  0
LAYER
  5
4C
330
2
100
AcDbSymbolTableRecord
100
AcDbLayerTableRecord
  2
hatch
 70
    0
 62
  113
  6
CONTINUOUS
370
   25
390
F
  0
LAYER
  5
4D
330
2
100
AcDbSymbolTableRecord
100
AcDbLayerTableRecord
  2
help-lines
 70
    0
 62
    5
  6
CONTINUOUS
370
   25
390
F
  0
LAYER
  5
4E
330
2
100
AcDbSymbolTableRecord
100
AcDbLayerTableRecord
  2
labels
 70
    0
 62
    7
  6
CONTINUOUS
370
   25
390
F
  0
LAYER
  5
4F
330
2
100
AcDbSymbolTableRecord
100
AcDbLayerTableRecord
  2
schematic
 70
    0
 62
    7
  6
CONTINUOUS
370
   25
390
F
  0
ENDTAB
  0
TABLE
  2
STYLE
  5
3
330
0
100
AcDbSymbolTable
 70
    3
  0
STYLE
  5
50
330
2
100
AcDbSymbolTableRecord
100
AcDbTextStyleTableRecord
  2
iso
 70
    0
 40
0
 41
1
 50
0
 71
    0
 42
1
  3
iso
  4

  0
STYLE
  5
51
330
2
100
AcDbSymbolTableRecord
100
AcDbTextStyleTableRecord
  2
standard
 70
    0
 40
0
 41
1
 50
0
 71
    0
 42
1
  3
standard
  4

  0
ENDTAB
  0
TABLE
  2
VIEW
  5
6
330
0
100
AcDbSymbolTable
 70
    0
  0
ENDTAB
  0
TABLE
  2
UCS
  5
7
330
0
100
AcDbSymbolTable
 70
    0
  0
ENDTAB
  0
TABLE
  2
APPID
  5
9
330
0
100
AcDbSymbolTable
 70
    1
  0
APPID
  5
12
330
9
100
AcDbSymbolTableRecord
100
AcDbRegAppTableRecord
  2
ACAD
 70
    0
  0
APPID
  5
52
330
9
100
AcDbSymbolTableRecord
100
AcDbRegAppTableRecord
  2
LibreCad
 70
    0
  0
ENDTAB
  0
TABLE
  2
DIMSTYLE
  5
A
330
0
100
AcDbSymbolTable
 70
    1
100
AcDbDimStyleTable
 71
    1
  0
DIMSTYLE
105
53
330
A
100
AcDbSymbolTableRecord
100
AcDbDimStyleTableRecord
  2
Standard
 70
    0
 40
1
 41
2.5
 42
0.625
 43
0.38
 44
1.25
 45
0
 46
0
 47
0
 48
0
 49
1
140
2.5
141
0.09
142
0
143
25.4
144
1
145
0
146
1
147
0.625
148
0
 71
    0
 72
    0
 73
    0
 74
    1
 75
    0
 76
    0
 77
    0
 78
    8
 79
    0
170
    0
171
    2
172
    0
173
    0
174
    0
175
    0
176
    0
177
    0
178
    0
179
    0
271
    2
272
    4
273
    2
274
    2
275
    0
276
    0
277
    2
278
   44
279
    0
280
    0
281
    0
282
    0
283
    1
284
    0
285
    0
286
    0
288
    0
289
    3
340
STANDARD
341

371
   -2
372
   -2
  0
ENDTAB
  0
TABLE
  2
BLOCK_RECORD
  5
1
330
0
100
AcDbSymbolTable
 70
    2
  0
BLOCK_RECORD
  5
1F
330
1
100
AcDbSymbolTableRecord
100
AcDbBlockTableRecord
  2
*Model_Space
 70
    0
280
    1
281
    0
  0
BLOCK_RECORD
  5
1E
330
1
100
AcDbSymbolTableRecord
100
AcDbBlockTableRecord
  2
*Paper_Space
 70
    0
280
    1
281
    0
  0
BLOCK_RECORD
  5
54
330
1
100
AcDbSymbolTableRecord
100
AcDbBlockTableRecord
  2
*D3
 70
    0
280
    1
281
    0
  0
BLOCK_RECORD
  5
57
330
1
100
AcDbSymbolTableRecord
100
AcDbBlockTableRecord
  2
*D7
 70
    0
280
    1
281
    0
  0
BLOCK_RECORD
  5
5A
330
1
100
AcDbSymbolTableRecord
100
AcDbBlockTableRecord
  2
*D9
 70
    0
280
    1
281
    0
  0
BLOCK_RECORD
  5
5D
330
1
100
AcDbSymbolTableRecord
100
AcDbBlockTableRecord
  2
*D8
 70
    0
280
    1
281
    0
  0
BLOCK_RECORD
  5
60
330
1
100
AcDbSymbolTableRecord
100
AcDbBlockTableRecord
  2
*D5
 70
    0
280
    1
281
    0
  0
BLOCK_RECORD
  5
63
330
1
100
AcDbSymbolTableRecord
100
AcDbBlockTableRecord
  2
*D6
 70
    0
280
    1
281
    0
  0
BLOCK_RECORD
  5
66
330
1
100
AcDbSymbolTableRecord
100
AcDbBlockTableRecord
  2
*D2
 70
    0
280
    1
281
    0
  0
BLOCK_RECORD
  5
69
330
1
100
AcDbSymbolTableRecord
100
AcDbBlockTableRecord
  2
*D4
 70
    0
280
    1
281
    0
  0
BLOCK_RECORD
  5
6C
330
1
100
AcDbSymbolTableRecord
100
AcDbBlockTableRecord
  2
*D1
 70
    0
280
    1
281
    0
  0
BLOCK_RECORD
  5
6F
330
1
100
AcDbSymbolTableRecord
100
AcDbBlockTableRecord
  2
a3
 70
    0
280
    1
281
    0
  0
BLOCK_RECORD
  5
72
330
1
100
AcDbSymbolTableRecord
100
AcDbBlockTableRecord
  2
a3-0
 70
    0
280
    1
281
    0
  0
BLOCK_RECORD
  5
75
330
1
100
AcDbSymbolTableRecord
100
AcDbBlockTableRecord
  2
eca-logo-0
 70
    0
280
    1
281
    0
  0
BLOCK_RECORD
  5
78
330
1
100
AcDbSymbolTableRecord
100
AcDbBlockTableRecord
  2
eca-logo-1
 70
    0
280
    1
281
    0
  0
BLOCK_RECORD
  5
7B
330
1
100
AcDbSymbolTableRecord
100
AcDbBlockTableRecord
  2
mcp2014x-connector
 70
    0
280
    1
281
    0
  0
BLOCK_RECORD
  5
7E
330
1
100
AcDbSymbolTableRecord
100
AcDbBlockTableRecord
  2
Terminal-in
 70
    0
280
    1
281
    0
  0
BLOCK_RECORD
  5
81
330
1
100
AcDbSymbolTableRecord
100
AcDbBlockTableRecord
  2
rjconnector
 70
    0
280
    1
281
    0
  0
BLOCK_RECORD
  5
84
330
1
100
AcDbSymbolTableRecord
100
AcDbBlockTableRecord
  2
r1
 70
    0
280
    1
281
    0
  0
BLOCK_RECORD
  5
87
330
1
100
AcDbSymbolTableRecord
100
AcDbBlockTableRecord
  2
Diode-Power
 70
    0
280
    1
281
    0
  0
BLOCK_RECORD
  5
8A
330
1
100
AcDbSymbolTableRecord
100
AcDbBlockTableRecord
  2
junction
 70
    0
280
    1
281
    0
  0
BLOCK_RECORD
  5
8D
330
1
100
AcDbSymbolTableRecord
100
AcDbBlockTableRecord
  2
ln1
 70
    0
280
    1
281
    0
  0
BLOCK_RECORD
  5
90
330
1
100
AcDbSymbolTableRecord
100
AcDbBlockTableRecord
  2
buzzer
 70
    0
280
    1
281
    0
  0
BLOCK_RECORD
  5
93
330
1
100
AcDbSymbolTableRecord
100
AcDbBlockTableRecord
  2
Switch-button-mk
 70
    0
280
    1
281
    0
  0
BLOCK_RECORD
  5
96
330
1
100
AcDbSymbolTableRecord
100
AcDbBlockTableRecord
  2
Switch-button-mk-0
 70
    0
280
    1
281
    0
  0
ENDTAB
  0
ENDSEC
  0
SECTION
  2
BLOCKS
  0
BLOCK
  5
20
330
1F
100
AcDbEntity
  8
0
100
AcDbBlockBegin
  2
*Model_Space
 70
    0
 10
0
 20
0
 30
0
  3
*Model_Space
  1

  0
ENDBLK
  5
21
330
1F
100
AcDbEntity
  8
0
100
AcDbBlockEnd
  0
BLOCK
  5
1C
330
1B
100
AcDbEntity
  8
0
100
AcDbBlockBegin
  2
*Paper_Space
 70
    0
 10
0
 20
0
 30
0
  3
*Paper_Space
  1

  0
ENDBLK
  5
1D
330
1F
100
AcDbEntity
  8
0
100
AcDbBlockEnd
  0
BLOCK
  5
55
330
54
100
AcDbEntity
  8
0
100
AcDbBlockBegin
  2
*D3
 70
    1
 10
0
 20
0
  3
*D3
  1

  0
LINE
  5
99
100
AcDbEntity
  8
schematic
  6
CONTINUOUS
 62
    7
370
    0
100
AcDbLine
 10
61.27305841213327
 20
161.0871618747713
 11
61.27305841213327
 21
158.6117505992333
  0
SOLID
  5
9A
100
AcDbEntity
  8
schematic
  6
CONTINUOUS
 62
    7
370
    0
100
AcDbTrace
 10
61.27305841213327
 20
161.0871618747713
 30
0
 11
61.68934306990611
 21
158.5871618747713
 31
0
 12
60.85677375436043
 22
158.5871618747713
 32
0
 13
60.85677375436043
 23
158.5871618747713
 33
0
  0
ENDBLK
  5
56
330
54
100
AcDbEntity
  8
0
100
AcDbBlockEnd
  0
BLOCK
  5
58
330
57
100
AcDbEntity
  8
0
100
AcDbBlockBegin
  2
*D7
 70
    1
 10
0
 20
0
  3
*D7
  1

  0
LINE
  5
9B
100
AcDbEntity
  8
schematic
  6
CONTINUOUS
 62
    7
370
    0
100
AcDbLine
 10
251.3719699022247
 20
161.0871618747713
 11
251.3719699022247
 21
158.6117505992333
  0
SOLID
  5
9C
100
AcDbEntity
  8
schematic
  6
CONTINUOUS
 62
    7
370
    0
100
AcDbTrace
 10
251.3719699022247
 20
161.0871618747713
 30
0
 11
251.7882545599975
 21
158.5871618747713
 31
0
 12
250.9556852444518
 22
158.5871618747713
 32
0
 13
250.9556852444518
 23
158.5871618747713
 33
0
  0
ENDBLK
  5
59
330
57
100
AcDbEntity
  8
0
100
AcDbBlockEnd
  0
BLOCK
  5
5B
330
5A
100
AcDbEntity
  8
0
100
AcDbBlockBegin
  2
*D9
 70
    1
 10
0
 20
0
  3
*D9
  1

  0
LINE
  5
9D
100
AcDbEntity
  8
schematic
  6
CONTINUOUS
 62
    7
370
    0
100
AcDbLine
 10
345.904896731493
 20
161.0871618747713
 11
345.904896731493
 21
158.6117505992333
  0
SOLID
  5
9E
100
AcDbEntity
  8
schematic
  6
CONTINUOUS
 62
    7
370
    0
100
AcDbTrace
 10
345.904896731493
 20
161.0871618747713
 30
0
 11
346.3211813892659
 21
158.5871618747713
 31
0
 12
345.4886120737202
 22
158.5871618747713
 32
0
 13
345.4886120737202
 23
158.5871618747713
 33
0
  0
ENDBLK
  5
5C
330
5A
100
AcDbEntity
  8
0
100
AcDbBlockEnd
  0
BLOCK
  5
5E
330
5D
100
AcDbEntity
  8
0
100
AcDbBlockBegin
  2
*D8
 70
    1
 10
0
 20
0
  3
*D8
  1

  0
LINE
  5
9F
100
AcDbEntity
  8
schematic
  6
CONTINUOUS
 62
    7
370
    0
100
AcDbLine
 10
339.804776088203
 20
161.0871618747713
 11
339.804776088203
 21
158.8769732358981
  0
SOLID
  5
A0
100
AcDbEntity
  8
schematic
  6
CONTINUOUS
 62
    7
370
    0
100
AcDbTrace
 10
339.804776088203
 20
161.0871618747713
 30
0
 11
340.2210607459759
 21
158.5871618747713
 31
0
 12
339.3884914304302
 22
158.5871618747713
 32
0
 13
339.3884914304302
 23
158.5871618747713
 33
0
  0
ENDBLK
  5
5F
330
5D
100
AcDbEntity
  8
0
100
AcDbBlockEnd
  0
BLOCK
  5
61
330
60
100
AcDbEntity
  8
0
100
AcDbBlockBegin
  2
*D5
 70
    1
 10
0
 20
0
  3
*D5
  1

  0
LINE
  5
A1
100
AcDbEntity
  8
schematic
  6
CONTINUOUS
 62
    7
370
    0
100
AcDbLine
 10
155.8059852414015
 20
161.0871618747713
 11
155.8059852414015
 21
158.6117505992333
  0
SOLID
  5
A2
100
AcDbEntity
  8
schematic
  6
CONTINUOUS
 62
    7
370
    0
100
AcDbTrace
 10
155.8059852414015
 20
161.0871618747713
 30
0
 11
156.2222698991743
 21
158.5871618747713
 31
0
 12
155.3897005836286
 22
158.5871618747713
 32
0
 13
155.3897005836286
 23
158.5871618747713
 33
0
  0
ENDBLK
  5
62
330
60
100
AcDbEntity
  8
0
100
AcDbBlockEnd
  0
BLOCK
  5
64
330
63
100
AcDbEntity
  8
0
100
AcDbBlockBegin
  2
*D6
 70
    1
 10
0
 20
0
  3
*D6
  1

  0
LINE
  5
A3
100
AcDbEntity
  8
schematic
  6
CONTINUOUS
 62
    7
370
    0
100
AcDbLine
 10
245.2718492589346
 20
161.0871618747713
 11
245.2718492589346
 21
158.8769732358981
  0
SOLID
  5
A4
100
AcDbEntity
  8
schematic
  6
CONTINUOUS
 62
    7
370
    0
100
AcDbTrace
 10
245.2718492589346
 20
161.0871618747713
 30
0
 11
245.6881339167074
 21
158.5871618747713
 31
0
 12
244.8555646011617
 22
158.5871618747713
 32
0
 13
244.8555646011617
 23
158.5871618747713
 33
0
  0
ENDBLK
  5
65
330
63
100
AcDbEntity
  8
0
100
AcDbBlockEnd
  0
BLOCK
  5
67
330
66
100
AcDbEntity
  8
0
100
AcDbBlockBegin
  2
*D2
 70
    1
 10
0
 20
0
  3
*D2
  1

  0
LINE
  5
A5
100
AcDbEntity
  8
schematic
  6
CONTINUOUS
 62
    7
370
    0
100
AcDbLine
 10
55.17293776884318
 20
161.0871618747713
 11
55.17293776884318
 21
158.8769732358981
  0
SOLID
  5
A6
100
AcDbEntity
  8
schematic
  6
CONTINUOUS
 62
    7
370
    0
100
AcDbTrace
 10
55.17293776884318
 20
161.0871618747713
 30
0
 11
55.58922242661602
 21
158.5871618747713
 31
0
 12
54.75665311107034
 22
158.5871618747713
 32
0
 13
54.75665311107034
 23
158.5871618747713
 33
0
  0
ENDBLK
  5
68
330
66
100
AcDbEntity
  8
0
100
AcDbBlockEnd
  0
BLOCK
  5
6A
330
69
100
AcDbEntity
  8
0
100
AcDbBlockBegin
  2
*D4
 70
    1
 10
0
 20
0
  3
*D4
  1

  0
LINE
  5
A7
100
AcDbEntity
  8
schematic
  6
CONTINUOUS
 62
    7
370
    0
100
AcDbLine
 10
149.7058645981114
 20
161.0871618747713
 11
149.7058645981114
 21
158.8769732358981
  0
SOLID
  5
A8
100
AcDbEntity
  8
schematic
  6
CONTINUOUS
 62
    7
370
    0
100
AcDbTrace
 10
149.7058645981114
 20
161.0871618747713
 30
0
 11
150.1221492558842
 21
158.5871618747713
 31
0
 12
149.2895799403385
 22
158.5871618747713
 32
0
 13
149.2895799403385
 23
158.5871618747713
 33
0
  0
ENDBLK
  5
6B
330
69
100
AcDbEntity
  8
0
100
AcDbBlockEnd
  0
BLOCK
  5
6D
330
6C
100
AcDbEntity
  8
0
100
AcDbBlockBegin
  2
*D1
 70
    1
 10
0
 20
0
  3
*D1
  1

  0
ENDBLK
  5
6E
330
6C
100
AcDbEntity
  8
0
100
AcDbBlockEnd
  0
BLOCK
  5
70
330
6F
100
AcDbEntity
  8
0
100
AcDbBlockBegin
  2
a3
 70
    0
 10
0
 20
0
  3
a3
  1

  0
HATCH
  5
A9
100
AcDbEntity
  8
hatch
  6
ByLayer
 62
  256
370
   -1
100
AcDbHatch
 10
0
 20
0
 30
0
210
0
220
0
230
1
  2
ansi31
 70
    0
 71
    0
 91
    1
 92
    0
 93
    3
 72
    1
 10
124.999976
 20
287.000024
 11
122.499976
 21
291.330151019
 72
    1
 10
122.499976
 20
291.330151019
 11
127.499976
 21
291.330151019
 72
    1
 10
127.499976
 20
291.330151019
 11
124.999976
 21
287.000024
 97
    0
 75
    0
 76
    1
 52
4.71238898038
 41
0.5
 77
    0
 78
    0
 98
    0
  0
HATCH
  5
AA
100
AcDbEntity
  8
hatch
  6
ByLayer
 62
  256
370
   -1
100
AcDbHatch
 10
0
 20
0
 30
0
210
0
220
0
230
1
  2
ansi31
 70
    0
 71
    0
 91
    1
 92
    0
 93
    3
 72
    1
 10
229.999976
 20
287.000024
 11
227.499976
 21
291.330151019
 72
    1
 10
227.499976
 20
291.330151019
 11
232.499976
 21
291.330151019
 72
    1
 10
232.499976
 20
291.330151019
 11
229.999976
 21
287.000024
 97
    0
 75
    0
 76
    1
 52
4.71238898038
 41
0.5
 77
    0
 78
    0
 98
    0
  0
HATCH
  5
AB
100
AcDbEntity
  8
hatch
  6
ByLayer
 62
  256
370
   -1
100
AcDbHatch
 10
0
 20
0
 30
0
210
0
220
0
230
1
  2
ansi31
 70
    0
 71
    0
 91
    1
 92
    0
 93
    3
 72
    1
 10
315
 20
287.000024
 11
312.5
 21
291.330151019
 72
    1
 10
312.5
 20
291.330151019
 11
317.5
 21
291.330151019
 72
    1
 10
317.5
 20
291.330151019
 11
315
 21
287.000024
 97
    0
 75
    0
 76
    1
 52
4.71238898038
 41
0.5
 77
    0
 78
    0
 98
    0
  0
HATCH
  5
AC
100
AcDbEntity
  8
hatch
  6
ByLayer
 62
  256
370
   -1
100
AcDbHatch
 10
0
 20
0
 30
0
210
0
220
0
230
1
  2
ansi31
 70
    0
 71
    0
 91
    1
 92
    0
 93
    3
 72
    1
 10
315
 20
9.999976
 11
312.5
 21
5.66984898108
 72
    1
 10
312.5
 20
5.66984898108
 11
317.5
 21
5.66984898108
 72
    1
 10
317.5
 20
5.66984898108
 11
315
 21
9.999976
 97
    0
 75
    0
 76
    1
 52
4.71238898038
 41
0.5
 77
    0
 78
    0
 98
    0
  0
HATCH
  5
AD
100
AcDbEntity
  8
hatch
  6
ByLayer
 62
  256
370
   -1
100
AcDbHatch
 10
0
 20
0
 30
0
210
0
220
0
230
1
  2
ansi31
 70
    0
 71
    0
 91
    1
 92
    0
 93
    3
 72
    1
 10
229.999976
 20
9.999976
 11
227.499976
 21
5.66984898108
 72
    1
 10
227.499976
 20
5.66984898108
 11
232.499976
 21
5.66984898108
 72
    1
 10
232.499976
 20
5.66984898108
 11
229.999976
 21
9.999976
 97
    0
 75
    0
 76
    1
 52
4.71238898038
 41
0.5
 77
    0
 78
    0
 98
    0
  0
HATCH
  5
AE
100
AcDbEntity
  8
hatch
  6
ByLayer
 62
  256
370
   -1
100
AcDbHatch
 10
0
 20
0
 30
0
210
0
220
0
230
1
  2
ansi31
 70
    0
 71
    0
 91
    1
 92
    0
 93
    3
 72
    1
 10
124.999976
 20
9.999976
 11
122.499976
 21
5.66984898108
 72
    1
 10
122.499976
 20
5.66984898108
 11
127.499976
 21
5.66984898108
 72
    1
 10
127.499976
 20
5.66984898108
 11
124.999976
 21
9.999976
 97
    0
 75
    0
 76
    1
 52
4.71238898038
 41
0.5
 77
    0
 78
    0
 98
    0
  0
HATCH
  5
AF
100
AcDbEntity
  8
hatch
  6
ByLayer
 62
  256
370
   -1
100
AcDbHatch
 10
0
 20
0
 30
0
210
0
220
0
230
1
  2
ansi31
 70
    0
 71
    0
 91
    1
 92
    0
 93
    3
 72
    1
 10
410
 20
148.5
 11
414.330127019
 21
146
 72
    1
 10
414.330127019
 20
146
 11
414.330127019
 21
151
 72
    1
 10
414.330127019
 20
151
 11
410
 21
148.5
 97
    0
 75
    0
 76
    1
 52
3.14159265359
 41
0.5
 77
    0
 78
    0
 98
    0
  0
HATCH
  5
B0
100
AcDbEntity
  8
hatch
  6
ByLayer
 62
  256
370
   -1
100
AcDbHatch
 10
0
 20
0
 30
0
210
0
220
0
230
1
  2
ansi31
 70
    0
 71
    0
 91
    1
 92
    0
 93
    3
 72
    1
 10
20
 20
148.5
 11
15.6698729811
 21
146
 72
    1
 10
15.6698729811
 20
146
 11
15.6698729811
 21
151
 72
    1
 10
15.6698729811
 20
151
 11
20
 21
148.5
 97
    0
 75
    0
 76
    1
 52
0
 41
0.5
 77
    0
 78
    0
 98
    0
  0
CIRCLE
  5
B1
100
AcDbEntity
  8
help-lines
  6
ByLayer
 62
  256
370
   -1
100
AcDbCircle
 10
15
 20
222.75
 40
3
  0
LINE
  5
B2
100
AcDbEntity
  8
help-lines
  6
ByLayer
 62
  256
370
   -1
100
AcDbLine
 10
20
 20
148.5
 11
15.6698729811
 21
146
  0
LINE
  5
B3
100
AcDbEntity
  8
help-lines
  6
ByLayer
 62
  256
370
   -1
100
AcDbLine
 10
20
 20
148.5
 11
15.6698729811
 21
151
  0
LINE
  5
B4
100
AcDbEntity
  8
help-lines
  6
ByLayer
 62
  256
370
   -1
100
AcDbLine
 10
15.6698729811
 20
146
 11
15.6698729811
 21
151
  0
CIRCLE
  5
B5
100
AcDbEntity
  8
help-lines
  6
ByLayer
 62
  256
370
   -1
100
AcDbCircle
 10
15
 20
74.25
 40
3
  0
MTEXT
  5
B6
100
AcDbEntity
  8
help-lines
  6
ByLayer
 62
  256
370
   -1
100
AcDbMText
 10
15
 20
74.25
 30
0
 40
4
 41
2.666666666666667
 71
    5
 72
    5
  1
A
  7
iso
210
0
220
0
230
1
 50
6.28318530718
 73
    2
 44
0.96
  0
MTEXT
  5
B7
100
AcDbEntity
  8
help-lines
  6
ByLayer
 62
  256
370
   -1
100
AcDbMText
 10
15
 20
222.75
 30
0
 40
4
 41
2.222222222222222
 71
    5
 72
    5
  1
B
  7
iso
210
0
220
0
230
1
 50
6.28318530718
 73
    2
 44
0.96
  0
LINE
  5
B8
100
AcDbEntity
  8
help-lines
  6
ByLayer
 62
  256
370
   -1
100
AcDbLine
 10
2.57e-14
 20
297
 11
0
 21
0
  0
CIRCLE
  5
B9
100
AcDbEntity
  8
help-lines
  6
ByLayer
 62
  256
370
   -1
100
AcDbCircle
 10
415
 20
222.75
 40
3
  0
LINE
  5
BA
100
AcDbEntity
  8
help-lines
  6
ByLayer
 62
  256
370
   -1
100
AcDbLine
 10
410
 20
148.5
 11
414.330127019
 21
146
  0
LINE
  5
BB
100
AcDbEntity
  8
help-lines
  6
ByLayer
 62
  256
370
   -1
100
AcDbLine
 10
410
 20
148.5
 11
414.330127019
 21
151
  0
LINE
  5
BC
100
AcDbEntity
  8
help-lines
  6
ByLayer
 62
  256
370
   -1
100
AcDbLine
 10
414.330127019
 20
146
 11
414.330127019
 21
151
  0
CIRCLE
  5
BD
100
AcDbEntity
  8
help-lines
  6
ByLayer
 62
  256
370
   -1
100
AcDbCircle
 10
415
 20
74.25
 40
3
  0
MTEXT
  5
BE
100
AcDbEntity
  8
help-lines
  6
ByLayer
 62
  256
370
   -1
100
AcDbMText
 10
415
 20
74.25
 30
0
 40
4
 41
2.666666666666667
 71
    5
 72
    5
  1
A
  7
iso
210
0
220
0
230
1
 50
6.28318530718
 73
    2
 44
0.96
  0
MTEXT
  5
BF
100
AcDbEntity
  8
help-lines
  6
ByLayer
 62
  256
370
   -1
100
AcDbMText
 10
415
 20
222.75
 30
0
 40
4
 41
2.222222222222222
 71
    5
 72
    5
  1
B
  7
iso
210
0
220
0
230
1
 50
6.28318530718
 73
    2
 44
0.96
  0
LINE
  5
C0
100
AcDbEntity
  8
help-lines
  6
ByLayer
 62
  256
370
   -1
100
AcDbLine
 10
420
 20
297
 11
2.57e-14
 21
297
  0
LINE
  5
C1
100
AcDbEntity
  8
help-lines
  6
ByLayer
 62
  256
370
   -1
100
AcDbLine
 10
125
 20
0
 11
125
 21
10
  0
LINE
  5
C2
100
AcDbEntity
  8
help-lines
  6
ByLayer
 62
  256
370
   -1
100
AcDbLine
 10
230
 20
2.84e-14
 11
230
 21
10
  0
LINE
  5
C3
100
AcDbEntity
  8
help-lines
  6
ByLayer
 62
  256
370
   -1
100
AcDbLine
 10
124.999976
 20
9.999976
 11
122.499976
 21
5.66984898108
  0
LINE
  5
C4
100
AcDbEntity
  8
help-lines
  6
ByLayer
 62
  256
370
   -1
100
AcDbLine
 10
124.999976
 20
9.999976
 11
127.499976
 21
5.66984898108
  0
LINE
  5
C5
100
AcDbEntity
  8
help-lines
  6
ByLayer
 62
  256
370
   -1
100
AcDbLine
 10
122.499976
 20
5.66984898108
 11
127.499976
 21
5.66984898108
  0
CIRCLE
  5
C6
100
AcDbEntity
  8
help-lines
  6
ByLayer
 62
  256
370
   -1
100
AcDbCircle
 10
177.5
 20
5
 40
3
  0
LINE
  5
C7
100
AcDbEntity
  8
help-lines
  6
ByLayer
 62
  256
370
   -1
100
AcDbLine
 10
229.999976
 20
9.999976
 11
227.499976
 21
5.66984898108
  0
LINE
  5
C8
100
AcDbEntity
  8
help-lines
  6
ByLayer
 62
  256
370
   -1
100
AcDbLine
 10
229.999976
 20
9.999976
 11
232.499976
 21
5.66984898108
  0
LINE
  5
C9
100
AcDbEntity
  8
help-lines
  6
ByLayer
 62
  256
370
   -1
100
AcDbLine
 10
227.499976
 20
5.66984898108
 11
232.499976
 21
5.66984898108
  0
CIRCLE
  5
CA
100
AcDbEntity
  8
help-lines
  6
ByLayer
 62
  256
370
   -1
100
AcDbCircle
 10
72.5
 20
5
 40
3
  0
MTEXT
  5
CB
100
AcDbEntity
  8
help-lines
  6
ByLayer
 62
  256
370
   -1
100
AcDbMText
 10
72.5
 20
5
 30
0
 40
4
 41
0.8888888888888888
 71
    5
 72
    5
  1
1
  7
iso
210
0
220
0
230
1
 50
0
 73
    2
 44
0.96
  0
MTEXT
  5
CC
100
AcDbEntity
  8
help-lines
  6
ByLayer
 62
  256
370
   -1
100
AcDbMText
 10
177.5
 20
5
 30
0
 40
4
 41
1.777777777777778
 71
    5
 72
    5
  1
2
  7
iso
210
0
220
0
230
1
 50
0
 73
    2
 44
0.96
  0
CIRCLE
  5
CD
100
AcDbEntity
  8
help-lines
  6
ByLayer
 62
  256
370
   -1
100
AcDbCircle
 10
278
 20
5
 40
3
  0
MTEXT
  5
CE
100
AcDbEntity
  8
help-lines
  6
ByLayer
 62
  256
370
   -1
100
AcDbMText
 10
278
 20
5
 30
0
 40
4
 41
1.777777777778026
 71
    5
 72
    5
  1
3
  7
iso
210
0
220
0
230
1
 50
0
 73
    2
 44
0.96
  0
LINE
  5
CF
100
AcDbEntity
  8
help-lines
  6
ByLayer
 62
  256
370
   -1
100
AcDbLine
 10
315
 20
9.999976
 11
312.5
 21
5.66984898108
  0
LINE
  5
D0
100
AcDbEntity
  8
help-lines
  6
ByLayer
 62
  256
370
   -1
100
AcDbLine
 10
315
 20
9.999976
 11
317.5
 21
5.66984898108
  0
LINE
  5
D1
100
AcDbEntity
  8
help-lines
  6
ByLayer
 62
  256
370
   -1
100
AcDbLine
 10
312.5
 20
5.66984898108
 11
317.5
 21
5.66984898108
  0
CIRCLE
  5
D2
100
AcDbEntity
  8
help-lines
  6
ByLayer
 62
  256
370
   -1
100
AcDbCircle
 10
363.000024
 20
5
 40
3
  0
MTEXT
  5
D3
100
AcDbEntity
  8
help-lines
  6
ByLayer
 62
  256
370
   -1
100
AcDbMText
 10
363.000024
 20
5
 30
0
 40
4
 41
2.222222222222222
 71
    5
 72
    5
  1
4
  7
iso
210
0
220
0
230
1
 50
0
 73
    2
 44
0.96
  0
LINE
  5
D4
100
AcDbEntity
  8
help-lines
  6
ByLayer
 62
  256
370
   -1
100
AcDbLine
 10
420
 20
0
 11
420
 21
297
  0
LINE
  5
D5
100
AcDbEntity
  8
help-lines
  6
ByLayer
 62
  256
370
   -1
100
AcDbLine
 10
3.55e-14
 20
0
 11
420
 21
0
  0
LINE
  5
D6
100
AcDbEntity
  8
help-lines
  6
ByLayer
 62
  256
370
   -1
100
AcDbLine
 10
125
 20
297
 11
125
 21
287
  0
LINE
  5
D7
100
AcDbEntity
  8
help-lines
  6
ByLayer
 62
  256
370
   -1
100
AcDbLine
 10
230
 20
297
 11
230
 21
287
  0
LINE
  5
D8
100
AcDbEntity
  8
help-lines
  6
ByLayer
 62
  256
370
   -1
100
AcDbLine
 10
124.999976
 20
287.000024
 11
122.499976
 21
291.330151019
  0
LINE
  5
D9
100
AcDbEntity
  8
help-lines
  6
ByLayer
 62
  256
370
   -1
100
AcDbLine
 10
124.999976
 20
287.000024
 11
127.499976
 21
291.330151019
  0
LINE
  5
DA
100
AcDbEntity
  8
help-lines
  6
ByLayer
 62
  256
370
   -1
100
AcDbLine
 10
122.499976
 20
291.330151019
 11
127.499976
 21
291.330151019
  0
CIRCLE
  5
DB
100
AcDbEntity
  8
help-lines
  6
ByLayer
 62
  256
370
   -1
100
AcDbCircle
 10
177.5
 20
292
 40
3
  0
LINE
  5
DC
100
AcDbEntity
  8
help-lines
  6
ByLayer
 62
  256
370
   -1
100
AcDbLine
 10
229.999976
 20
287.000024
 11
227.499976
 21
291.330151019
  0
LINE
  5
DD
100
AcDbEntity
  8
help-lines
  6
ByLayer
 62
  256
370
   -1
100
AcDbLine
 10
229.999976
 20
287.000024
 11
232.499976
 21
291.330151019
  0
LINE
  5
DE
100
AcDbEntity
  8
help-lines
  6
ByLayer
 62
  256
370
   -1
100
AcDbLine
 10
227.499976
 20
291.330151019
 11
232.499976
 21
291.330151019
  0
CIRCLE
  5
DF
100
AcDbEntity
  8
help-lines
  6
ByLayer
 62
  256
370
   -1
100
AcDbCircle
 10
72.5
 20
292
 40
3
  0
MTEXT
  5
E0
100
AcDbEntity
  8
help-lines
  6
ByLayer
 62
  256
370
   -1
100
AcDbMText
 10
72.5
 20
292
 30
0
 40
4
 41
0.8888888888888888
 71
    5
 72
    5
  1
1
  7
iso
210
0
220
0
230
1
 50
0
 73
    2
 44
0.96
  0
MTEXT
  5
E1
100
AcDbEntity
  8
help-lines
  6
ByLayer
 62
  256
370
   -1
100
AcDbMText
 10
177.5
 20
292
 30
0
 40
4
 41
1.777777777777778
 71
    5
 72
    5
  1
2
  7
iso
210
0
220
0
230
1
 50
0
 73
    2
 44
0.96
  0
CIRCLE
  5
E2
100
AcDbEntity
  8
help-lines
  6
ByLayer
 62
  256
370
   -1
100
AcDbCircle
 10
278
 20
292
 40
3
  0
MTEXT
  5
E3
100
AcDbEntity
  8
help-lines
  6
ByLayer
 62
  256
370
   -1
100
AcDbMText
 10
278
 20
292
 30
0
 40
4
 41
1.777777777778026
 71
    5
 72
    5
  1
3
  7
iso
210
0
220
0
230
1
 50
0
 73
    2
 44
0.96
  0
LINE
  5
E4
100
AcDbEntity
  8
help-lines
  6
ByLayer
 62
  256
370
   -1
100
AcDbLine
 10
315
 20
287.000024
 11
312.5
 21
291.330151019
  0
LINE
  5
E5
100
AcDbEntity
  8
help-lines
  6
ByLayer
 62
  256
370
   -1
100
AcDbLine
 10
315
 20
287.000024
 11
317.5
 21
291.330151019
  0
LINE
  5
E6
100
AcDbEntity
  8
help-lines
  6
ByLayer
 62
  256
370
   -1
100
AcDbLine
 10
312.5
 20
291.330151019
 11
317.5
 21
291.330151019
  0
CIRCLE
  5
E7
100
AcDbEntity
  8
help-lines
  6
ByLayer
 62
  256
370
   -1
100
AcDbCircle
 10
363.000024
 20
292
 40
3
  0
MTEXT
  5
E8
100
AcDbEntity
  8
help-lines
  6
ByLayer
 62
  256
370
   -1
100
AcDbMText
 10
363.000024
 20
292
 30
0
 40
4
 41
2.222222222222222
 71
    5
 72
    5
  1
4
  7
iso
210
0
220
0
230
1
 50
0
 73
    2
 44
0.96
  0
ENDBLK
  5
71
330
6F
100
AcDbEntity
  8
0
100
AcDbBlockEnd
  0
BLOCK
  5
73
330
72
100
AcDbEntity
  8
0
100
AcDbBlockBegin
  2
a3-0
 70
    0
 10
0
 20
0
  3
a3-0
  1

  0
HATCH
  5
E9
100
AcDbEntity
  8
hatch
  6
ByLayer
 62
  256
370
   -1
100
AcDbHatch
 10
0
 20
0
 30
0
210
0
220
0
230
1
  2
ansi31
 70
    0
 71
    0
 91
    1
 92
    0
 93
    3
 72
    1
 10
20
 20
148.5
 11
15.6698729811
 21
146
 72
    1
 10
15.6698729811
 20
146
 11
15.6698729811
 21
151
 72
    1
 10
15.6698729811
 20
151
 11
20
 21
148.5
 97
    0
 75
    0
 76
    1
 52
0
 41
0.5
 77
    0
 78
    0
 98
    0
  0
HATCH
  5
EA
100
AcDbEntity
  8
hatch
  6
ByLayer
 62
  256
370
   -1
100
AcDbHatch
 10
0
 20
0
 30
0
210
0
220
0
230
1
  2
ansi31
 70
    0
 71
    0
 91
    1
 92
    0
 93
    3
 72
    1
 10
410
 20
148.5
 11
414.330127019
 21
146
 72
    1
 10
414.330127019
 20
146
 11
414.330127019
 21
151
 72
    1
 10
414.330127019
 20
151
 11
410
 21
148.5
 97
    0
 75
    0
 76
    1
 52
3.14159265359
 41
0.5
 77
    0
 78
    0
 98
    0
  0
HATCH
  5
EB
100
AcDbEntity
  8
hatch
  6
ByLayer
 62
  256
370
   -1
100
AcDbHatch
 10
0
 20
0
 30
0
210
0
220
0
230
1
  2
ansi31
 70
    0
 71
    0
 91
    1
 92
    0
 93
    3
 72
    1
 10
124.999976
 20
9.999976
 11
122.499976
 21
5.66984898108
 72
    1
 10
122.499976
 20
5.66984898108
 11
127.499976
 21
5.66984898108
 72
    1
 10
127.499976
 20
5.66984898108
 11
124.999976
 21
9.999976
 97
    0
 75
    0
 76
    1
 52
4.71238898038
 41
0.5
 77
    0
 78
    0
 98
    0
  0
HATCH
  5
EC
100
AcDbEntity
  8
hatch
  6
ByLayer
 62
  256
370
   -1
100
AcDbHatch
 10
0
 20
0
 30
0
210
0
220
0
230
1
  2
ansi31
 70
    0
 71
    0
 91
    1
 92
    0
 93
    3
 72
    1
 10
229.999976
 20
9.999976
 11
227.499976
 21
5.66984898108
 72
    1
 10
227.499976
 20
5.66984898108
 11
232.499976
 21
5.66984898108
 72
    1
 10
232.499976
 20
5.66984898108
 11
229.999976
 21
9.999976
 97
    0
 75
    0
 76
    1
 52
4.71238898038
 41
0.5
 77
    0
 78
    0
 98
    0
  0
HATCH
  5
ED
100
AcDbEntity
  8
hatch
  6
ByLayer
 62
  256
370
   -1
100
AcDbHatch
 10
0
 20
0
 30
0
210
0
220
0
230
1
  2
ansi31
 70
    0
 71
    0
 91
    1
 92
    0
 93
    3
 72
    1
 10
315
 20
9.999976
 11
312.5
 21
5.66984898108
 72
    1
 10
312.5
 20
5.66984898108
 11
317.5
 21
5.66984898108
 72
    1
 10
317.5
 20
5.66984898108
 11
315
 21
9.999976
 97
    0
 75
    0
 76
    1
 52
4.71238898038
 41
0.5
 77
    0
 78
    0
 98
    0
  0
HATCH
  5
EE
100
AcDbEntity
  8
hatch
  6
ByLayer
 62
  256
370
   -1
100
AcDbHatch
 10
0
 20
0
 30
0
210
0
220
0
230
1
  2
ansi31
 70
    0
 71
    0
 91
    1
 92
    0
 93
    3
 72
    1
 10
315
 20
287.000024
 11
312.5
 21
291.330151019
 72
    1
 10
312.5
 20
291.330151019
 11
317.5
 21
291.330151019
 72
    1
 10
317.5
 20
291.330151019
 11
315
 21
287.000024
 97
    0
 75
    0
 76
    1
 52
4.71238898038
 41
0.5
 77
    0
 78
    0
 98
    0
  0
HATCH
  5
EF
100
AcDbEntity
  8
hatch
  6
ByLayer
 62
  256
370
   -1
100
AcDbHatch
 10
0
 20
0
 30
0
210
0
220
0
230
1
  2
ansi31
 70
    0
 71
    0
 91
    1
 92
    0
 93
    3
 72
    1
 10
229.999976
 20
287.000024
 11
227.499976
 21
291.330151019
 72
    1
 10
227.499976
 20
291.330151019
 11
232.499976
 21
291.330151019
 72
    1
 10
232.499976
 20
291.330151019
 11
229.999976
 21
287.000024
 97
    0
 75
    0
 76
    1
 52
4.71238898038
 41
0.5
 77
    0
 78
    0
 98
    0
  0
HATCH
  5
F0
100
AcDbEntity
  8
hatch
  6
ByLayer
 62
  256
370
   -1
100
AcDbHatch
 10
0
 20
0
 30
0
210
0
220
0
230
1
  2
ansi31
 70
    0
 71
    0
 91
    1
 92
    0
 93
    3
 72
    1
 10
124.999976
 20
287.000024
 11
122.499976
 21
291.330151019
 72
    1
 10
122.499976
 20
291.330151019
 11
127.499976
 21
291.330151019
 72
    1
 10
127.499976
 20
291.330151019
 11
124.999976
 21
287.000024
 97
    0
 75
    0
 76
    1
 52
4.71238898038
 41
0.5
 77
    0
 78
    0
 98
    0
  0
CIRCLE
  5
F1
100
AcDbEntity
  8
help-lines
  6
ByLayer
 62
  256
370
   -1
100
AcDbCircle
 10
15
 20
222.75
 40
3
  0
LINE
  5
F2
100
AcDbEntity
  8
help-lines
  6
ByLayer
 62
  256
370
   -1
100
AcDbLine
 10
20
 20
148.5
 11
15.6698729811
 21
146
  0
LINE
  5
F3
100
AcDbEntity
  8
help-lines
  6
ByLayer
 62
  256
370
   -1
100
AcDbLine
 10
20
 20
148.5
 11
15.6698729811
 21
151
  0
LINE
  5
F4
100
AcDbEntity
  8
help-lines
  6
ByLayer
 62
  256
370
   -1
100
AcDbLine
 10
15.6698729811
 20
146
 11
15.6698729811
 21
151
  0
CIRCLE
  5
F5
100
AcDbEntity
  8
help-lines
  6
ByLayer
 62
  256
370
   -1
100
AcDbCircle
 10
15
 20
74.25
 40
3
  0
MTEXT
  5
F6
100
AcDbEntity
  8
help-lines
  6
ByLayer
 62
  256
370
   -1
100
AcDbMText
 10
15
 20
74.25
 30
0
 40
4
 41
2.666666666666667
 71
    5
 72
    5
  1
A
  7
iso
210
0
220
0
230
1
 50
6.28318530718
 73
    2
 44
0.96
  0
MTEXT
  5
F7
100
AcDbEntity
  8
help-lines
  6
ByLayer
 62
  256
370
   -1
100
AcDbMText
 10
15
 20
222.75
 30
0
 40
4
 41
2.222222222222222
 71
    5
 72
    5
  1
B
  7
iso
210
0
220
0
230
1
 50
6.28318530718
 73
    2
 44
0.96
  0
LINE
  5
F8
100
AcDbEntity
  8
help-lines
  6
ByLayer
 62
  256
370
   -1
100
AcDbLine
 10
1.82076576039e-14
 20
297
 11
0
 21
0
  0
CIRCLE
  5
F9
100
AcDbEntity
  8
help-lines
  6
ByLayer
 62
  256
370
   -1
100
AcDbCircle
 10
415
 20
222.75
 40
3
  0
LINE
  5
FA
100
AcDbEntity
  8
help-lines
  6
ByLayer
 62
  256
370
   -1
100
AcDbLine
 10
410
 20
148.5
 11
414.330127019
 21
146
  0
LINE
  5
FB
100
AcDbEntity
  8
help-lines
  6
ByLayer
 62
  256
370
   -1
100
AcDbLine
 10
410
 20
148.5
 11
414.330127019
 21
151
  0
LINE
  5
FC
100
AcDbEntity
  8
help-lines
  6
ByLayer
 62
  256
370
   -1
100
AcDbLine
 10
414.330127019
 20
146
 11
414.330127019
 21
151
  0
CIRCLE
  5
FD
100
AcDbEntity
  8
help-lines
  6
ByLayer
 62
  256
370
   -1
100
AcDbCircle
 10
415
 20
74.25
 40
3
  0
MTEXT
  5
FE
100
AcDbEntity
  8
help-lines
  6
ByLayer
 62
  256
370
   -1
100
AcDbMText
 10
415
 20
74.25
 30
0
 40
4
 41
2.666666666666667
 71
    5
 72
    5
  1
A
  7
iso
210
0
220
0
230
1
 50
6.28318530718
 73
    2
 44
0.96
  0
MTEXT
  5
FF
100
AcDbEntity
  8
help-lines
  6
ByLayer
 62
  256
370
   -1
100
AcDbMText
 10
415
 20
222.75
 30
0
 40
4
 41
2.222222222222222
 71
    5
 72
    5
  1
B
  7
iso
210
0
220
0
230
1
 50
6.28318530718
 73
    2
 44
0.96
  0
LINE
  5
100
100
AcDbEntity
  8
help-lines
  6
ByLayer
 62
  256
370
   -1
100
AcDbLine
 10
420
 20
297
 11
1.82076576039e-14
 21
297
  0
LINE
  5
101
100
AcDbEntity
  8
help-lines
  6
ByLayer
 62
  256
370
   -1
100
AcDbLine
 10
125
 20
0
 11
125
 21
10
  0
LINE
  5
102
100
AcDbEntity
  8
help-lines
  6
ByLayer
 62
  256
370
   -1
100
AcDbLine
 10
230
 20
0
 11
230
 21
10
  0
LINE
  5
103
100
AcDbEntity
  8
help-lines
  6
ByLayer
 62
  256
370
   -1
100
AcDbLine
 10
124.999976
 20
9.999976
 11
122.499976
 21
5.66984898108
  0
LINE
  5
104
100
AcDbEntity
  8
help-lines
  6
ByLayer
 62
  256
370
   -1
100
AcDbLine
 10
124.999976
 20
9.999976
 11
127.499976
 21
5.66984898108
  0
LINE
  5
105
100
AcDbEntity
  8
help-lines
  6
ByLayer
 62
  256
370
   -1
100
AcDbLine
 10
122.499976
 20
5.66984898108
 11
127.499976
 21
5.66984898108
  0
CIRCLE
  5
106
100
AcDbEntity
  8
help-lines
  6
ByLayer
 62
  256
370
   -1
100
AcDbCircle
 10
177.5
 20
5
 40
3
  0
LINE
  5
107
100
AcDbEntity
  8
help-lines
  6
ByLayer
 62
  256
370
   -1
100
AcDbLine
 10
229.999976
 20
9.999976
 11
227.499976
 21
5.66984898108
  0
LINE
  5
108
100
AcDbEntity
  8
help-lines
  6
ByLayer
 62
  256
370
   -1
100
AcDbLine
 10
229.999976
 20
9.999976
 11
232.499976
 21
5.66984898108
  0
LINE
  5
109
100
AcDbEntity
  8
help-lines
  6
ByLayer
 62
  256
370
   -1
100
AcDbLine
 10
227.499976
 20
5.66984898108
 11
232.499976
 21
5.66984898108
  0
CIRCLE
  5
10A
100
AcDbEntity
  8
help-lines
  6
ByLayer
 62
  256
370
   -1
100
AcDbCircle
 10
72.5
 20
5
 40
3
  0
MTEXT
  5
10B
100
AcDbEntity
  8
help-lines
  6
ByLayer
 62
  256
370
   -1
100
AcDbMText
 10
72.5
 20
5
 30
0
 40
4
 41
0.8888888888888888
 71
    5
 72
    5
  1
1
  7
iso
210
0
220
0
230
1
 50
0
 73
    2
 44
0.96
  0
MTEXT
  5
10C
100
AcDbEntity
  8
help-lines
  6
ByLayer
 62
  256
370
   -1
100
AcDbMText
 10
177.5
 20
5
 30
0
 40
4
 41
1.777777777777778
 71
    5
 72
    5
  1
2
  7
iso
210
0
220
0
230
1
 50
0
 73
    2
 44
0.96
  0
CIRCLE
  5
10D
100
AcDbEntity
  8
help-lines
  6
ByLayer
 62
  256
370
   -1
100
AcDbCircle
 10
278
 20
5
 40
3
  0
MTEXT
  5
10E
100
AcDbEntity
  8
help-lines
  6
ByLayer
 62
  256
370
   -1
100
AcDbMText
 10
278
 20
5
 30
0
 40
4
 41
1.777777777778026
 71
    5
 72
    5
  1
3
  7
iso
210
0
220
0
230
1
 50
0
 73
    2
 44
0.96
  0
LINE
  5
10F
100
AcDbEntity
  8
help-lines
  6
ByLayer
 62
  256
370
   -1
100
AcDbLine
 10
315
 20
9.999976
 11
312.5
 21
5.66984898108
  0
LINE
  5
110
100
AcDbEntity
  8
help-lines
  6
ByLayer
 62
  256
370
   -1
100
AcDbLine
 10
315
 20
9.999976
 11
317.5
 21
5.66984898108
  0
LINE
  5
111
100
AcDbEntity
  8
help-lines
  6
ByLayer
 62
  256
370
   -1
100
AcDbLine
 10
312.5
 20
5.66984898108
 11
317.5
 21
5.66984898108
  0
CIRCLE
  5
112
100
AcDbEntity
  8
help-lines
  6
ByLayer
 62
  256
370
   -1
100
AcDbCircle
 10
363.000024
 20
5
 40
3
  0
MTEXT
  5
113
100
AcDbEntity
  8
help-lines
  6
ByLayer
 62
  256
370
   -1
100
AcDbMText
 10
363.000024
 20
5
 30
0
 40
4
 41
2.222222222222222
 71
    5
 72
    5
  1
4
  7
iso
210
0
220
0
230
1
 50
0
 73
    2
 44
0.96
  0
LINE
  5
114
100
AcDbEntity
  8
help-lines
  6
ByLayer
 62
  256
370
   -1
100
AcDbLine
 10
420
 20
0
 11
420
 21
297
  0
LINE
  5
115
100
AcDbEntity
  8
help-lines
  6
ByLayer
 62
  256
370
   -1
100
AcDbLine
 10
3.5527136788e-14
 20
0
 11
420
 21
0
  0
LINE
  5
116
100
AcDbEntity
  8
help-lines
  6
ByLayer
 62
  256
370
   -1
100
AcDbLine
 10
125
 20
297
 11
125
 21
287
  0
LINE
  5
117
100
AcDbEntity
  8
help-lines
  6
ByLayer
 62
  256
370
   -1
100
AcDbLine
 10
230
 20
297
 11
230
 21
287
  0
LINE
  5
118
100
AcDbEntity
  8
help-lines
  6
ByLayer
 62
  256
370
   -1
100
AcDbLine
 10
124.999976
 20
287.000024
 11
122.499976
 21
291.330151019
  0
LINE
  5
119
100
AcDbEntity
  8
help-lines
  6
ByLayer
 62
  256
370
   -1
100
AcDbLine
 10
124.999976
 20
287.000024
 11
127.499976
 21
291.330151019
  0
LINE
  5
11A
100
AcDbEntity
  8
help-lines
  6
ByLayer
 62
  256
370
   -1
100
AcDbLine
 10
122.499976
 20
291.330151019
 11
127.499976
 21
291.330151019
  0
CIRCLE
  5
11B
100
AcDbEntity
  8
help-lines
  6
ByLayer
 62
  256
370
   -1
100
AcDbCircle
 10
177.5
 20
292
 40
3
  0
LINE
  5
11C
100
AcDbEntity
  8
help-lines
  6
ByLayer
 62
  256
370
   -1
100
AcDbLine
 10
229.999976
 20
287.000024
 11
227.499976
 21
291.330151019
  0
LINE
  5
11D
100
AcDbEntity
  8
help-lines
  6
ByLayer
 62
  256
370
   -1
100
AcDbLine
 10
229.999976
 20
287.000024
 11
232.499976
 21
291.330151019
  0
LINE
  5
11E
100
AcDbEntity
  8
help-lines
  6
ByLayer
 62
  256
370
   -1
100
AcDbLine
 10
227.499976
 20
291.330151019
 11
232.499976
 21
291.330151019
  0
CIRCLE
  5
11F
100
AcDbEntity
  8
help-lines
  6
ByLayer
 62
  256
370
   -1
100
AcDbCircle
 10
72.5
 20
292
 40
3
  0
MTEXT
  5
120
100
AcDbEntity
  8
help-lines
  6
ByLayer
 62
  256
370
   -1
100
AcDbMText
 10
72.5
 20
292
 30
0
 40
4
 41
0.8888888888888888
 71
    5
 72
    5
  1
1
  7
iso
210
0
220
0
230
1
 50
0
 73
    2
 44
0.96
  0
MTEXT
  5
121
100
AcDbEntity
  8
help-lines
  6
ByLayer
 62
  256
370
   -1
100
AcDbMText
 10
177.5
 20
292
 30
0
 40
4
 41
1.777777777777778
 71
    5
 72
    5
  1
2
  7
iso
210
0
220
0
230
1
 50
0
 73
    2
 44
0.96
  0
CIRCLE
  5
122
100
AcDbEntity
  8
help-lines
  6
ByLayer
 62
  256
370
   -1
100
AcDbCircle
 10
278
 20
292
 40
3
  0
MTEXT
  5
123
100
AcDbEntity
  8
help-lines
  6
ByLayer
 62
  256
370
   -1
100
AcDbMText
 10
278
 20
292
 30
0
 40
4
 41
1.777777777778026
 71
    5
 72
    5
  1
3
  7
iso
210
0
220
0
230
1
 50
0
 73
    2
 44
0.96
  0
LINE
  5
124
100
AcDbEntity
  8
help-lines
  6
ByLayer
 62
  256
370
   -1
100
AcDbLine
 10
315
 20
287.000024
 11
312.5
 21
291.330151019
  0
LINE
  5
125
100
AcDbEntity
  8
help-lines
  6
ByLayer
 62
  256
370
   -1
100
AcDbLine
 10
315
 20
287.000024
 11
317.5
 21
291.330151019
  0
LINE
  5
126
100
AcDbEntity
  8
help-lines
  6
ByLayer
 62
  256
370
   -1
100
AcDbLine
 10
312.5
 20
291.330151019
 11
317.5
 21
291.330151019
  0
CIRCLE
  5
127
100
AcDbEntity
  8
help-lines
  6
ByLayer
 62
  256
370
   -1
100
AcDbCircle
 10
363.000024
 20
292
 40
3
  0
MTEXT
  5
128
100
AcDbEntity
  8
help-lines
  6
ByLayer
 62
  256
370
   -1
100
AcDbMText
 10
363.000024
 20
292
 30
0
 40
4
 41
2.222222222222222
 71
    5
 72
    5
  1
4
  7
iso
210
0
220
0
230
1
 50
0
 73
    2
 44
0.96
  0
ENDBLK
  5
74
330
72
100
AcDbEntity
  8
0
100
AcDbBlockEnd
  0
BLOCK
  5
76
330
75
100
AcDbEntity
  8
0
100
AcDbBlockBegin
  2
eca-logo-0
 70
    0
 10
0
 20
0
  3
eca-logo-0
  1

  0
ARC
  5
129
100
AcDbEntity
  8
0
  6
ByLayer
 62
  256
370
   -1
100
AcDbCircle
 10
110.420388752
 20
76.91488935949999
 40
7.01016792418
100
AcDbArc
 50
87.74620047419999
 51
274.031479733
  0
LINE
  5
12A
100
AcDbEntity
  8
0
  6
ByLayer
 62
  256
370
   -1
100
AcDbLine
 10
110.886912
 20
69.94001919999999
 11
115.008423684
 21
69.9454058127
  0
ARC
  5
12B
100
AcDbEntity
  8
0
  6
ByLayer
 62
  256
370
   -1
100
AcDbCircle
 10
123.926518775
 20
77.00278865919999
 40
11.2882077629
100
AcDbArc
 50
141.77912084
 51
217.944755456
  0
LINE
  5
12C
100
AcDbEntity
  8
0
  6
ByLayer
 62
  256
370
   -1
100
AcDbLine
 10
110.65210144
 20
83.92022498999999
 11
114.989564861
 21
83.93583805510001
  0
MTEXT
  5
12D
100
AcDbEntity
  8
0
  6
ByLayer
 62
  256
370
   -1
100
AcDbMText
 10
109.008608924
 20
82.4343709274
 30
0
 40
2.5
 41
1.666666666666667
 71
    1
 72
    1
  1
E\PC\PA
  7
standard
210
0
220
0
230
1
 50
0
 73
    2
 44
1
  0
LINE
  5
12E
100
AcDbEntity
  8
0
  6
ByLayer
 62
  256
370
   -1
100
AcDbLine
 10
113.540949806
 20
72.6336679929
 11
125.540949806
 21
72.6336679929
  0
LINE
  5
12F
100
AcDbEntity
  8
0
  6
ByLayer
 62
  256
370
   -1
100
AcDbLine
 10
113.540949806
 20
81.34970815200001
 11
125.540949806
 21
81.34970815200001
  0
LINE
  5
130
100
AcDbEntity
  8
0
  6
ByLayer
 62
  256
370
   -1
100
AcDbLine
 10
112.649976812
 20
76.8948431818
 11
125.523374438
 21
76.93048210160001
  0
ENDBLK
  5
77
330
75
100
AcDbEntity
  8
0
100
AcDbBlockEnd
  0
BLOCK
  5
79
330
78
100
AcDbEntity
  8
0
100
AcDbBlockBegin
  2
eca-logo-1
 70
    0
 10
0
 20
0
  3
eca-logo-1
  1

  0
ARC
  5
131
100
AcDbEntity
  8
0
  6
ByLayer
 62
  256
370
   -1
100
AcDbCircle
 10
11.1840352802
 20
10.462484617
 40
7.01016792418
100
AcDbArc
 50
87.74620047419999
 51
274.031479733
  0
LINE
  5
132
100
AcDbEntity
  8
0
  6
ByLayer
 62
  256
370
   -1
100
AcDbLine
 10
11.6505585283
 20
3.4876144575
 11
15.7720702125
 21
3.49300107019
  0
ARC
  5
133
100
AcDbEntity
  8
0
  6
ByLayer
 62
  256
370
   -1
100
AcDbCircle
 10
24.6901653037
 20
10.5503839167
 40
11.2882077629
100
AcDbArc
 50
141.77912084
 51
217.944755456
  0
LINE
  5
134
100
AcDbEntity
  8
0
  6
ByLayer
 62
  256
370
   -1
100
AcDbLine
 10
11.4157479686
 20
17.4678202475
 11
15.753211389
 21
17.4834333126
  0
MTEXT
  5
135
100
AcDbEntity
  8
0
  6
ByLayer
 62
  256
370
   -1
100
AcDbMText
 10
9.77225545204
 20
15.9819661849
 30
0
 40
2.5
 41
1.666666666666667
 71
    1
 72
    1
  1
E\PC\PA
  7
standard
210
0
220
0
230
1
 50
0
 73
    2
 44
1
  0
LINE
  5
136
100
AcDbEntity
  8
0
  6
ByLayer
 62
  256
370
   -1
100
AcDbLine
 10
14.3045963348
 20
6.18126325039
 11
26.3045963348
 21
6.18126325039
  0
LINE
  5
137
100
AcDbEntity
  8
0
  6
ByLayer
 62
  256
370
   -1
100
AcDbLine
 10
14.3045963348
 20
14.8973034095
 11
26.3045963348
 21
14.8973034095
  0
LINE
  5
138
100
AcDbEntity
  8
0
  6
ByLayer
 62
  256
370
   -1
100
AcDbLine
 10
13.4136233407
 20
10.4424384393
 11
26.287020966
 21
10.4780773591
  0
ENDBLK
  5
7A
330
78
100
AcDbEntity
  8
0
100
AcDbBlockEnd
  0
BLOCK
  5
7C
330
7B
100
AcDbEntity
  8
0
100
AcDbBlockBegin
  2
mcp2014x-connector
 70
    0
 10
0
 20
0
  3
mcp2014x-connector
  1

  0
LINE
  5
139
100
AcDbEntity
  8
0
  6
ByLayer
 62
  256
370
   -1
100
AcDbLine
 10
0.001768171077685565
 20
6.175801839350044
 11
6.251768171077682
 21
6.175801839350044
  0
LINE
  5
13A
100
AcDbEntity
  8
0
  6
ByLayer
 62
  256
370
   -1
100
AcDbLine
 10
6.251768171077682
 20
6.175801839350044
 11
6.251768171077682
 21
0.003926839350043565
  0
LINE
  5
13B
100
AcDbEntity
  8
0
  6
ByLayer
 62
  256
370
   -1
100
AcDbLine
 10
6.251768171077682
 20
0.003926839350043565
 11
0.001768171077685565
 21
0.003926839350043565
  0
LINE
  5
13C
100
AcDbEntity
  8
0
  6
ByLayer
 62
  256
370
   -1
100
AcDbLine
 10
0.001768171077685565
 20
0.003926839350043565
 11
0.001768171077685565
 21
6.175801839350044
  0
ENDBLK
  5
7D
330
7B
100
AcDbEntity
  8
0
100
AcDbBlockEnd
  0
BLOCK
  5
7F
330
7E
100
AcDbEntity
  8
0
100
AcDbBlockBegin
  2
Terminal-in
 70
    0
 10
0
 20
0
  3
Terminal-in
  1

  0
CIRCLE
  5
13D
100
AcDbEntity
  8
0
  6
ByLayer
 62
  256
370
   -1
100
AcDbCircle
 10
0.00863291037492786
 20
10.74201307537149
 40
3.343779540414038
  0
LINE
  5
13E
100
AcDbEntity
  8
0
  6
ByLayer
 62
  256
370
   -1
100
AcDbLine
 10
0.00863291037492786
 20
0.0666705345713865
 11
0.00863291037492786
 21
7.398233534957427
  0
ENDBLK
  5
80
330
7E
100
AcDbEntity
  8
0
100
AcDbBlockEnd
  0
BLOCK
  5
82
330
81
100
AcDbEntity
  8
0
100
AcDbBlockBegin
  2
rjconnector
 70
    0
 10
0
 20
0
  3
rjconnector
  1

  0
LINE
  5
13F
100
AcDbEntity
  8
0
  6
ByLayer
 62
  256
370
   -1
100
AcDbLine
 10
0
 20
0
 11
0
 21
10
  0
LINE
  5
140
100
AcDbEntity
  8
0
  6
ByLayer
 62
  256
370
   -1
100
AcDbLine
 10
0
 20
10
 11
10
 21
10
  0
LINE
  5
141
100
AcDbEntity
  8
0
  6
ByLayer
 62
  256
370
   -1
100
AcDbLine
 10
10
 20
10
 11
10
 21
0
  0
LINE
  5
142
100
AcDbEntity
  8
0
  6
ByLayer
 62
  256
370
   -1
100
AcDbLine
 10
10
 20
0
 11
0
 21
0
  0
LINE
  5
143
100
AcDbEntity
  8
0
  6
ByLayer
 62
  256
370
   -1
100
AcDbLine
 10
4
 20
9
 11
7
 21
9
  0
LINE
  5
144
100
AcDbEntity
  8
0
  6
ByLayer
 62
  256
370
   -1
100
AcDbLine
 10
7
 20
9
 11
7
 21
7
  0
LINE
  5
145
100
AcDbEntity
  8
0
  6
ByLayer
 62
  256
370
   -1
100
AcDbLine
 10
7
 20
7
 11
9
 21
7
  0
LINE
  5
146
100
AcDbEntity
  8
0
  6
ByLayer
 62
  256
370
   -1
100
AcDbLine
 10
9
 20
7
 11
9
 21
1
  0
LINE
  5
147
100
AcDbEntity
  8
0
  6
ByLayer
 62
  256
370
   -1
100
AcDbLine
 10
9
 20
1
 11
1
 21
1
  0
LINE
  5
148
100
AcDbEntity
  8
0
  6
ByLayer
 62
  256
370
   -1
100
AcDbLine
 10
1
 20
1
 11
1
 21
7
  0
LINE
  5
149
100
AcDbEntity
  8
0
  6
ByLayer
 62
  256
370
   -1
100
AcDbLine
 10
1
 20
7
 11
3
 21
7
  0
LINE
  5
14A
100
AcDbEntity
  8
0
  6
ByLayer
 62
  256
370
   -1
100
AcDbLine
 10
3
 20
7
 11
3
 21
9
  0
LINE
  5
14B
100
AcDbEntity
  8
0
  6
ByLayer
 62
  256
370
   -1
100
AcDbLine
 10
3
 20
9
 11
4
 21
9
  0
ENDBLK
  5
83
330
81
100
AcDbEntity
  8
0
100
AcDbBlockEnd
  0
BLOCK
  5
85
330
84
100
AcDbEntity
  8
0
100
AcDbBlockBegin
  2
r1
 70
    0
 10
0
 20
0
  3
r1
  1

  0
POINT
  5
14C
100
AcDbEntity
  8
0
  6
CONTINUOUS
 62
    7
370
   70
100
AcDbPoint
 10
0
 20
0
  0
POINT
  5
14D
100
AcDbEntity
  8
0
  6
CONTINUOUS
 62
    7
370
   70
100
AcDbPoint
 10
15
 20
0
  0
LINE
  5
14E
100
AcDbEntity
  8
0
  6
CONTINUOUS
 62
    7
370
   25
100
AcDbLine
 10
4.5
 20
6
 11
10.5
 21
6
  0
LINE
  5
14F
100
AcDbEntity
  8
0
  6
CONTINUOUS
 62
    7
370
   25
100
AcDbLine
 10
4.5
 20
-6
 11
10.5
 21
-6
  0
LINE
  5
150
100
AcDbEntity
  8
0
  6
CONTINUOUS
 62
    7
370
   25
100
AcDbLine
 10
10.5
 20
-6
 11
10.5
 21
6
  0
LINE
  5
151
100
AcDbEntity
  8
0
  6
CONTINUOUS
 62
    7
370
   25
100
AcDbLine
 10
4.5
 20
6
 11
4.5
 21
-6
  0
LINE
  5
152
100
AcDbEntity
  8
0
  6
CONTINUOUS
 62
    7
370
   25
100
AcDbLine
 10
15
 20
0
 11
10.5
 21
0
  0
LINE
  5
153
100
AcDbEntity
  8
0
  6
CONTINUOUS
 62
    7
370
   25
100
AcDbLine
 10
4.5
 20
0
 11
0
 21
0
  0
ENDBLK
  5
86
330
84
100
AcDbEntity
  8
0
100
AcDbBlockEnd
  0
BLOCK
  5
88
330
87
100
AcDbEntity
  8
0
100
AcDbBlockBegin
  2
Diode-Power
 70
    0
 10
0
 20
0
  3
Diode-Power
  1

  0
LINE
  5
154
100
AcDbEntity
  8
Contour
  6
ByLayer
 62
  256
370
   25
100
AcDbLine
 10
0
 20
25
 11
-5
 21
15
  0
LINE
  5
155
100
AcDbEntity
  8
Contour
  6
ByLayer
 62
  256
370
   25
100
AcDbLine
 10
-5
 20
15
 11
5
 21
15
  0
LINE
  5
156
100
AcDbEntity
  8
Contour
  6
ByLayer
 62
  256
370
   25
100
AcDbLine
 10
5
 20
15
 11
0
 21
25
  0
LINE
  5
157
100
AcDbEntity
  8
Contour
  6
ByLayer
 62
  256
370
   25
100
AcDbLine
 10
0
 20
25
 11
-5
 21
25
  0
LINE
  5
158
100
AcDbEntity
  8
Contour
  6
ByLayer
 62
  256
370
   25
100
AcDbLine
 10
0
 20
25
 11
5
 21
25
  0
LINE
  5
159
100
AcDbEntity
  8
Contour
  6
ByLayer
 62
  256
370
   25
100
AcDbLine
 10
0
 20
25
 11
0
 21
40
  0
LINE
  5
15A
100
AcDbEntity
  8
Contour
  6
ByLayer
 62
  256
370
   25
100
AcDbLine
 10
0
 20
15
 11
0
 21
0
  0
ENDBLK
  5
89
330
87
100
AcDbEntity
  8
0
100
AcDbBlockEnd
  0
BLOCK
  5
8B
330
8A
100
AcDbEntity
  8
0
100
AcDbBlockBegin
  2
junction
 70
    0
 10
0
 20
0
  3
junction
  1

  0
HATCH
  5
15B
100
AcDbEntity
  8
0
  6
ByLayer
 62
  256
370
   -1
100
AcDbHatch
 10
0
 20
0
 30
0
210
0
220
0
230
1
  2
gost_ceramics
 70
    0
 71
    0
 91
    1
 92
    0
 93
    1
 72
    2
 10
-0.05958860799999854
 20
-0.1342767104000018
 40
1.289183059150252
 50
0
 51
360
 73
    1
 97
    0
 75
    0
 76
    1
 52
0
 41
0.05
 77
    0
 78
    0
 98
    0
  0
CIRCLE
  5
15C
100
AcDbEntity
  8
0
  6
ByLayer
 62
  256
370
   -1
100
AcDbCircle
 10
-0.05958860799999854
 20
-0.1342767104000018
 40
1.289183059150252
  0
ENDBLK
  5
8C
330
8A
100
AcDbEntity
  8
0
100
AcDbBlockEnd
  0
BLOCK
  5
8E
330
8D
100
AcDbEntity
  8
0
100
AcDbBlockBegin
  2
ln1
 70
    0
 10
0
 20
0
  3
ln1
  1

  0
POINT
  5
15D
100
AcDbEntity
  8
0
  6
CONTINUOUS
 62
    7
370
   70
100
AcDbPoint
 10
0
 20
0
  0
POINT
  5
15E
100
AcDbEntity
  8
0
  6
CONTINUOUS
 62
    7
370
   70
100
AcDbPoint
 10
15
 20
0
  0
LINE
  5
15F
100
AcDbEntity
  8
0
  6
CONTINUOUS
 62
    7
370
   25
100
AcDbLine
 10
15
 20
0
 11
11.5
 21
0
  0
LINE
  5
160
100
AcDbEntity
  8
0
  6
CONTINUOUS
 62
    7
370
   25
100
AcDbLine
 10
10.33000000000001
 20
-2.829999999999998
 11
4.670000000000016
 21
2.829999999999998
  0
LINE
  5
161
100
AcDbEntity
  8
0
  6
CONTINUOUS
 62
    7
370
   25
100
AcDbLine
 10
4.670000000000016
 20
-2.829999999999998
 11
10.33000000000001
 21
2.829999999999998
  0
CIRCLE
  5
162
100
AcDbEntity
  8
0
  6
CONTINUOUS
 62
    7
370
   25
100
AcDbCircle
 10
7.5
 20
0
 40
4
  0
LINE
  5
163
100
AcDbEntity
  8
0
  6
CONTINUOUS
 62
    7
370
   25
100
AcDbLine
 10
3.5
 20
0
 11
0
 21
0
  0
ENDBLK
  5
8F
330
8D
100
AcDbEntity
  8
0
100
AcDbBlockEnd
  0
BLOCK
  5
91
330
90
100
AcDbEntity
  8
0
100
AcDbBlockBegin
  2
buzzer
 70
    0
 10
0
 20
0
  3
buzzer
  1

  0
LINE
  5
164
100
AcDbEntity
  8
0
  6
CONTINUOUS
 62
    7
370
   25
100
AcDbLine
 10
0
 20
-4
 11
5
 21
-4
  0
LINE
  5
165
100
AcDbEntity
  8
0
  6
CONTINUOUS
 62
    7
370
   25
100
AcDbLine
 10
5
 20
-6.5
 11
5
 21
2.5
  0
ARC
  5
166
100
AcDbEntity
  8
0
  6
CONTINUOUS
 62
    7
370
   25
100
AcDbCircle
 10
5
 20
-2
 40
4.5
100
AcDbArc
 50
270
 51
90
  0
LINE
  5
167
100
AcDbEntity
  8
0
  6
CONTINUOUS
 62
    7
370
   25
100
AcDbLine
 10
5
 20
0
 11
0
 21
0
  0
ENDBLK
  5
92
330
90
100
AcDbEntity
  8
0
100
AcDbBlockEnd
  0
BLOCK
  5
94
330
93
100
AcDbEntity
  8
0
100
AcDbBlockBegin
  2
Switch-button-mk
 70
    0
 10
0
 20
0
  3
Switch-button-mk
  1

  0
LINE
  5
168
100
AcDbEntity
  8
Contour
  6
ByLayer
 62
  256
370
   -1
100
AcDbLine
 10
0
 20
0
 11
9
 21
0
  0
CIRCLE
  5
169
100
AcDbEntity
  8
Contour
  6
ByLayer
 62
  256
370
   -1
100
AcDbCircle
 10
10
 20
0
 40
1
  0
LINE
  5
16A
100
AcDbEntity
  8
Contour
  6
ByLayer
 62
  256
370
   -1
100
AcDbLine
 10
30
 20
0
 11
21
 21
0
  0
CIRCLE
  5
16B
100
AcDbEntity
  8
Contour
  6
ByLayer
 62
  256
370
   -1
100
AcDbCircle
 10
20
 20
0
 40
1
  0
LINE
  5
16C
100
AcDbEntity
  8
Contour
  6
ByLayer
 62
  256
370
   -1
100
AcDbLine
 10
9
 20
3.125
 11
21
 21
3.125
  0
LINE
  5
16D
100
AcDbEntity
  8
Contour
  6
ByLayer
 62
  256
370
   -1
100
AcDbLine
 10
9
 20
3.75
 11
21
 21
3.75
  0
LINE
  5
16E
100
AcDbEntity
  8
Contour
  6
ByLayer
 62
  256
370
   -1
100
AcDbLine
 10
9
 20
3.75
 11
9
 21
3.125
  0
LINE
  5
16F
100
AcDbEntity
  8
Contour
  6
ByLayer
 62
  256
370
   -1
100
AcDbLine
 10
21
 20
3.75
 11
21
 21
3.125
  0
LINE
  5
170
100
AcDbEntity
  8
Contour
  6
ByLayer
 62
  256
370
   -1
100
AcDbLine
 10
13.125
 20
3.75
 11
13.125
 21
5
  0
LINE
  5
171
100
AcDbEntity
  8
Contour
  6
ByLayer
 62
  256
370
   -1
100
AcDbLine
 10
13.125
 20
5
 11
16.875
 21
5
  0
LINE
  5
172
100
AcDbEntity
  8
Contour
  6
ByLayer
 62
  256
370
   -1
100
AcDbLine
 10
16.875
 20
5
 11
16.875
 21
3.75
  0
ENDBLK
  5
95
330
93
100
AcDbEntity
  8
0
100
AcDbBlockEnd
  0
BLOCK
  5
97
330
96
100
AcDbEntity
  8
0
100
AcDbBlockBegin
  2
Switch-button-mk-0
 70
    0
 10
0
 20
0
  3
Switch-button-mk-0
  1

  0
LINE
  5
173
100
AcDbEntity
  8
Contour
  6
ByLayer
 62
  256
370
   -1
100
AcDbLine
 10
0
 20
0
 11
9
 21
0
  0
CIRCLE
  5
174
100
AcDbEntity
  8
Contour
  6
ByLayer
 62
  256
370
   -1
100
AcDbCircle
 10
10
 20
0
 40
1
  0
LINE
  5
175
100
AcDbEntity
  8
Contour
  6
ByLayer
 62
  256
370
   -1
100
AcDbLine
 10
30
 20
0
 11
21
 21
0
  0
CIRCLE
  5
176
100
AcDbEntity
  8
Contour
  6
ByLayer
 62
  256
370
   -1
100
AcDbCircle
 10
20
 20
0
 40
1
  0
LINE
  5
177
100
AcDbEntity
  8
Contour
  6
ByLayer
 62
  256
370
   -1
100
AcDbLine
 10
9
 20
3.125
 11
21
 21
3.125
  0
LINE
  5
178
100
AcDbEntity
  8
Contour
  6
ByLayer
 62
  256
370
   -1
100
AcDbLine
 10
9
 20
3.75
 11
21
 21
3.75
  0
LINE
  5
179
100
AcDbEntity
  8
Contour
  6
ByLayer
 62
  256
370
   -1
100
AcDbLine
 10
9
 20
3.75
 11
9
 21
3.125
  0
LINE
  5
17A
100
AcDbEntity
  8
Contour
  6
ByLayer
 62
  256
370
   -1
100
AcDbLine
 10
21
 20
3.75
 11
21
 21
3.125
  0
LINE
  5
17B
100
AcDbEntity
  8
Contour
  6
ByLayer
 62
  256
370
   -1
100
AcDbLine
 10
13.125
 20
3.75
 11
13.125
 21
5
  0
LINE
  5
17C
100
AcDbEntity
  8
Contour
  6
ByLayer
 62
  256
370
   -1
100
AcDbLine
 10
13.125
 20
5
 11
16.875
 21
5
  0
LINE
  5
17D
100
AcDbEntity
  8
Contour
  6
ByLayer
 62
  256
370
   -1
100
AcDbLine
 10
16.875
 20
5
 11
16.875
 21
3.75
  0
ENDBLK
  5
98
330
96
100
AcDbEntity
  8
0
100
AcDbBlockEnd
  0
ENDSEC
  0
SECTION
  2
ENTITIES
  0
INSERT
  5
17E
100
AcDbEntity
  8
0
  6
ByLayer
 62
  256
370
   -1
100
AcDbBlockReference
  2
a3-0
 10
-0.5
 20
0.25
 30
0
 41
1
 42
1
 43
0
 50
0
 70
    1
 71
    1
 44
0
 45
0
  0
LINE
  5
17F
100
AcDbEntity
  8
0
  6
ByLayer
 62
  256
370
   -1
100
AcDbLine
 10
20.3926056338
 20
286.019366197
 11
408.897887324
 21
286.019366197
  0
LINE
  5
180
100
AcDbEntity
  8
0
  6
ByLayer
 62
  256
370
   -1
100
AcDbLine
 10
408.897887324
 20
286.019366197
 11
408.897887324
 21
12.5492957746
  0
LINE
  5
181
100
AcDbEntity
  8
0
  6
ByLayer
 62
  256
370
   -1
100
AcDbLine
 10
408.897887324
 20
12.5492957746
 11
20.3926056338
 21
12.5492957746
  0
LINE
  5
182
100
AcDbEntity
  8
0
  6
ByLayer
 62
  256
370
   -1
100
AcDbLine
 10
20.3926056338
 20
12.5492957746
 11
20.3926056338
 21
286.019366197
  0
LINE
  5
183
100
AcDbEntity
  8
frame-title
  6
ByLayer
 62
  256
370
   -1
100
AcDbLine
 10
300.137323944
 20
54.9031690141
 11
408.897887324
 21
54.9031690141
  0
LINE
  5
184
100
AcDbEntity
  8
frame-title
  6
ByLayer
 62
  256
370
   -1
100
AcDbLine
 10
300.132357769
 20
12.5492957746
 11
300.132357769
 21
54.9031690141
  0
INSERT
  5
185
100
AcDbEntity
  8
frame-title
  6
ByLayer
 62
  256
370
   -1
100
AcDbBlockReference
  2
eca-logo-1
 10
299.309070423
 20
35.6065352113
 30
0
 41
1
 42
1
 43
0
 50
0
 70
    1
 71
    1
 44
0
 45
0
  0
LINE
  5
186
100
AcDbEntity
  8
help-lines
  6
ByLayer
 62
  256
370
   -1
100
AcDbLine
 10
-0.3706532681816158
 20
148.6319605408279
 11
15.1698729811
 21
148.6319605408279
  0
LINE
  5
187
100
AcDbEntity
  8
help-lines
  6
ByLayer
 62
  256
370
   -1
100
AcDbLine
 10
413.830127019
 20
148.6864622175099
 11
419.5
 21
148.7268816659979
  0
LINE
  5
188
100
AcDbEntity
  8
help-lines
  6
ByLayer
 62
  256
370
   -1
100
AcDbLine
 10
314.5451730611308
 20
297.224709437482
 11
314.5451730611308
 21
291.580151019
  0
LINE
  5
189
100
AcDbEntity
  8
help-lines
  6
ByLayer
 62
  256
370
   -1
100
AcDbLine
 10
314.4947345867757
 20
0.3389682416326533
 11
314.4947345867757
 21
5.91984898108
  0
MTEXT
  5
18A
100
AcDbEntity
  8
frame-title
  6
ByLayer
 62
  256
370
   -1
100
AcDbMText
 10
333.041577465
 20
52.2050704225
 30
0
 40
3
 41
59.50000154286238
 71
    1
 72
    1
  1
ECA Di Belardi\PVia Dei Crispolti 91-93, Roma\PTel. 0643535861
  7
standard
210
0
220
0
230
1
 50
0
 73
    2
 44
1
  0
LEADER
  5
18B
100
AcDbEntity
  8
schematic
  6
ByLayer
 62
  256
370
   -1
100
AcDbLeader
  3
Standard
 71
    1
 72
    0
 73
    3
 74
    0
 75
    0
 40
1
 41
10
 76
0
 76
0
  0
LWPOLYLINE
  5
18C
100
AcDbEntity
  8
schematic
  6
ByLayer
 62
  256
370
   -1
100
AcDbPolyline
 90
    4
 70
    1
 43
0
 10
34.75139576981707
 20
276.4109994283537
 10
50.39228277439025
 20
276.4109994283537
 10
50.39228277439025
 20
258.2022056021342
 10
34.75139576981707
 20
258.2022056021342
  0
LWPOLYLINE
  5
18D
100
AcDbEntity
  8
schematic
  6
ByLayer
 62
  256
370
   -1
100
AcDbPolyline
 90
    4
 70
    1
 43
0
 10
54.36086604420732
 20
250.7319312118903
 10
108.7538014481707
 20
250.7319312118903
 10
108.7538014481707
 20
218.9832650533537
 10
54.36086604420732
 20
218.9832650533537
  0
LWPOLYLINE
  5
18E
100
AcDbEntity
  8
schematic
  6
ByLayer
 62
  256
370
   -1
100
AcDbPolyline
 90
    4
 70
    1
 43
0
 10
61.83114043445121
 20
202.1751476753049
 10
83.07473323170733
 20
202.1751476753049
 10
83.07473323170733
 20
170.1930354420732
 10
61.83114043445121
 20
170.1930354420732
  0
LWPOLYLINE
  5
18F
100
AcDbEntity
  8
schematic
  6
ByLayer
 62
  256
370
   -1
100
AcDbPolyline
 90
    4
 70
    1
 43
0
 10
87.74365472560974
 20
202.1751476753049
 10
108.2869092987805
 20
202.1751476753049
 10
108.2869092987805
 20
170.1930354420732
 10
87.74365472560974
 20
170.1930354420732
  0
LWPOLYLINE
  5
190
100
AcDbEntity
  8
schematic
  6
ByLayer
 62
  256
370
   -1
100
AcDbPolyline
 90
    4
 70
    1
 43
0
 10
34.75139576981707
 20
152.451133765244
 10
70.93553734756097
 20
152.451133765244
 10
70.93553734756097
 20
101.3264434070122
 10
34.75139576981707
 20
101.3264434070122
  0
INSERT
  5
191
100
AcDbEntity
  8
schematic
  6
ByLayer
 62
  256
370
   -1
100
AcDbBlockReference
  2
rjconnector
 10
62.73995541432606
 20
220.1054354039635
 30
0
 41
0.9
 42
0.9
 43
0
 50
0
 70
    1
 71
    1
 44
0.9
 45
0.9
  0
INSERT
  5
192
100
AcDbEntity
  8
schematic
  6
ByLayer
 62
  256
370
   -1
100
AcDbBlockReference
  2
rjconnector
 10
62.97340148902117
 20
190.457783917683
 30
0
 41
0.9
 42
0.9
 43
0
 50
0
 70
    1
 71
    1
 44
0.9
 45
0.9
  0
INSERT
  5
193
100
AcDbEntity
  8
schematic
  6
ByLayer
 62
  256
370
   -1
100
AcDbBlockReference
  2
rjconnector
 10
73.24502877560656
 20
190.2243378429879
 30
0
 41
0.9
 42
0.9
 43
0
 50
0
 70
    1
 71
    1
 44
0.9
 45
0.9
  0
INSERT
  5
194
100
AcDbEntity
  8
schematic
  6
ByLayer
 62
  256
370
   -1
100
AcDbBlockReference
  2
rjconnector
 10
88.41902363078945
 20
190.457783917683
 30
0
 41
0.9
 42
0.9
 43
0
 50
0
 70
    1
 71
    1
 44
0.9
 45
0.9
  0
INSERT
  5
195
100
AcDbEntity
  8
schematic
  6
ByLayer
 62
  256
370
   -1
100
AcDbBlockReference
  2
rjconnector
 10
98.69065091737484
 20
190.2243378429879
 30
0
 41
0.9
 42
0.9
 43
0
 50
0
 70
    1
 71
    1
 44
0.9
 45
0.9
  0
INSERT
  5
196
100
AcDbEntity
  8
schematic
  6
ByLayer
 62
  256
370
   -1
100
AcDbBlockReference
  2
rjconnector
 10
59.47171036859435
 20
126.0266673018293
 30
0
 41
0.9
 42
0.9
 43
0
 50
0
 70
    1
 71
    1
 44
0.9
 45
0.9
  0
INSERT
  5
197
100
AcDbEntity
  8
schematic
  6
ByLayer
 62
  256
370
   -1
100
AcDbBlockReference
  2
rjconnector
 10
43.36393121463092
 20
112.9536871189025
 30
0
 41
0.9
 42
0.9
 43
0
 50
0
 70
    1
 71
    1
 44
0.9
 45
0.9
  0
INSERT
  5
198
100
AcDbEntity
  8
schematic
  6
ByLayer
 62
  256
370
   -1
100
AcDbBlockReference
  2
rjconnector
 10
53.63555850121629
 20
112.7202410442074
 30
0
 41
0.9
 42
0.9
 43
0
 50
0
 70
    1
 71
    1
 44
0.9
 45
0.9
  0
INSERT
  5
199
100
AcDbEntity
  8
schematic
  6
ByLayer
 62
  256
370
   -1
100
AcDbBlockReference
  2
mcp2014x-connector
 10
55.45621633227083
 20
231.4213962461891
 30
0
 41
0.9
 42
0.9
 43
0
 50
0
 70
    1
 71
    1
 44
0.9
 45
0.9
  0
LINE
  5
19A
100
AcDbEntity
  8
schematic
  6
ByLayer
 62
  256
370
   -1
100
AcDbLine
 10
54.43089986661586
 20
233.7243235518293
 11
49.63464415015244
 21
233.7243235518293
  0
LINE
  5
19B
100
AcDbEntity
  8
schematic
  6
ByLayer
 62
  256
370
   -1
100
AcDbLine
 10
49.63464415015244
 20
233.7243235518293
 11
49.87445693597562
 21
152.4277891577744
  0
LINE
  5
19C
100
AcDbEntity
  8
schematic
  6
ByLayer
 62
  256
370
   -1
100
AcDbLine
 10
44.59857564786586
 20
258.1852277057927
 11
44.59857564786586
 21
152.4277891577744
  0
LINE
  5
19D
100
AcDbEntity
  8
schematic
  6
ByLayer
 62
  256
370
   -1
100
AcDbLine
 10
38.60325600228659
 20
152.4277891577744
 11
38.60325600228659
 21
258.1852277057927
  0
LINE
  5
19E
100
AcDbEntity
  8
schematic
  6
ByLayer
 62
  256
370
   -1
100
AcDbLine
 10
44.59857564786586
 20
246.9140267721037
 11
54.67071265243904
 21
246.9140267721037
  0
LINE
  5
19F
100
AcDbEntity
  8
schematic
  6
ByLayer
 62
  256
370
   -1
100
AcDbLine
 10
38.60325600228659
 20
240.6788943407013
 11
54.43089986661586
 21
240.6788943407013
  0
LWPOLYLINE
  5
1A0
100
AcDbEntity
  8
schematic
  6
ByLayer
 62
  256
370
   -1
100
AcDbPolyline
 90
    4
 70
    1
 43
0
 10
65.78184323543462
 20
222.4419984898919
 10
68.96451487541206
 20
222.4419984898919
 10
68.96451487541206
 20
224.5637795832102
 10
65.78184323543462
 20
224.5637795832102
  0
LWPOLYLINE
  5
1A1
100
AcDbEntity
  8
schematic
  6
ByLayer
 62
  256
370
   -1
100
AcDbPolyline
 90
    4
 70
    1
 43
0
 10
65.87025078098958
 20
193.2675084567654
 10
69.05292242096701
 20
193.2675084567654
 10
69.05292242096701
 20
195.3892895500837
 10
65.87025078098958
 20
195.3892895500837
  0
LWPOLYLINE
  5
1A2
100
AcDbEntity
  8
schematic
  6
ByLayer
 62
  256
370
   -1
100
AcDbPolyline
 90
    4
 70
    1
 43
0
 10
76.12552606536131
 20
193.2675084567654
 10
79.30819770533874
 20
193.2675084567654
 10
79.30819770533874
 20
195.3892895500837
 10
76.12552606536131
 20
195.3892895500837
  0
LWPOLYLINE
  5
1A3
100
AcDbEntity
  8
schematic
  6
ByLayer
 62
  256
370
   -1
100
AcDbPolyline
 90
    4
 70
    1
 43
0
 10
91.33162390080905
 20
193.3559160023203
 10
94.51429554078649
 20
193.3559160023203
 10
94.51429554078649
 20
195.4776970956386
 10
91.33162390080905
 20
195.4776970956386
  0
LWPOLYLINE
  5
1A4
100
AcDbEntity
  8
schematic
  6
ByLayer
 62
  256
370
   -1
100
AcDbPolyline
 90
    4
 70
    1
 43
0
 10
101.5868991851808
 20
193.3559160023203
 10
104.7695708251583
 20
193.3559160023203
 10
104.7695708251583
 20
195.4776970956386
 10
101.5868991851808
 20
195.4776970956386
  0
LINE
  5
1A5
100
AcDbEntity
  8
schematic
  6
DOTTINY
 62
  256
370
   -1
100
AcDbLine
 10
66.66590634146341
 20
222.3533414634147
 11
66.66590634146341
 21
195.3011414634147
  0
LINE
  5
1A6
100
AcDbEntity
  8
schematic
  6
DOTTINY
 62
  256
370
   -1
100
AcDbLine
 10
68.34566634146341
 20
195.3893414634147
 11
68.34566634146341
 21
222.2651414634147
  0
LINE
  5
1A7
100
AcDbEntity
  8
schematic
  6
DOTTINY
 62
  256
370
   -1
100
AcDbLine
 10
76.92122634146342
 20
195.3011414634147
 11
77.00960634146341
 21
208.0316414634147
  0
LINE
  5
1A8
100
AcDbEntity
  8
schematic
  6
DOTTINY
 62
  256
370
   -1
100
AcDbLine
 10
77.00960634146341
 20
208.0316414634147
 11
93.80684634146343
 21
208.0316414634147
  0
LINE
  5
1A9
100
AcDbEntity
  8
schematic
  6
DOTTINY
 62
  256
370
   -1
100
AcDbLine
 10
93.80684634146343
 20
208.0316414634147
 11
93.89504634146341
 21
195.3893414634147
  0
LINE
  5
1AA
100
AcDbEntity
  8
schematic
  6
DOTTINY
 62
  256
370
   -1
100
AcDbLine
 10
92.21564634146341
 20
195.3893414634147
 11
92.21564634146341
 21
206.4404414634147
  0
LINE
  5
1AB
100
AcDbEntity
  8
schematic
  6
DOTTINY
 62
  256
370
   -1
100
AcDbLine
 10
92.21564634146341
 20
206.4404414634147
 11
78.60089634146341
 21
206.4404414634147
  0
LINE
  5
1AC
100
AcDbEntity
  8
schematic
  6
DOTTINY
 62
  256
370
   -1
100
AcDbLine
 10
78.60089634146341
 20
206.4404414634147
 11
78.60089634146341
 21
195.3011414634147
  0
LINE
  5
1AD
100
AcDbEntity
  8
schematic
  6
ByLayer
 62
  256
370
   -1
100
AcDbLine
 10
55.08453022328825
 20
152.4232224103883
 11
55.08453022328825
 21
160.203086419222
  0
LINE
  5
1AE
100
AcDbEntity
  8
schematic
  6
ByLayer
 62
  256
370
   -1
100
AcDbLine
 10
61.18465086657834
 20
160.203086419222
 11
61.18465086657834
 21
152.3348148648334
  0
LEADER
  5
1AF
100
AcDbEntity
  8
schematic
  6
ByLayer
 62
  256
370
   -1
100
AcDbLeader
  3
Standard
 71
    1
 72
    0
 73
    3
 74
    0
 75
    0
 40
1
 41
10
 76
2
 76
2
 10
55.17293776884318
 20
161.0871618747713
 30
0
 10
55.17293776884318
 20
158.8769732358981
 30
0
  0
LEADER
  5
1B0
100
AcDbEntity
  8
schematic
  6
ByLayer
 62
  256
370
   -1
100
AcDbLeader
  3
Standard
 71
    1
 72
    0
 73
    3
 74
    0
 75
    0
 40
1
 41
10
 76
2
 76
2
 10
61.27305841213327
 20
161.0871618747713
 30
0
 10
61.27305841213327
 20
158.6117505992333
 30
0
  0
LWPOLYLINE
  5
1B1
100
AcDbEntity
  8
schematic
  6
ByLayer
 62
  256
370
   -1
100
AcDbPolyline
 90
    4
 70
    1
 43
0
 10
35.94429661064617
 20
102.0972271032451
 10
50.20001333137843
 20
102.0972271032451
 10
50.20001333137843
 20
106.0755666532169
 10
35.94429661064617
 20
106.0755666532169
  0
LWPOLYLINE
  5
1B2
100
AcDbEntity
  8
schematic
  6
ByLayer
 62
  256
370
   -1
100
AcDbPolyline
 90
    4
 70
    1
 43
0
 10
56.05701322439246
 20
102.0972271032451
 10
69.98120164929374
 20
102.0972271032451
 10
69.98120164929374
 20
106.0755666532169
 10
56.05701322439246
 20
106.0755666532169
  0
LWPOLYLINE
  5
1B3
100
AcDbEntity
  8
schematic
  6
ByLayer
 62
  256
370
   -1
100
AcDbPolyline
 90
    4
 70
    1
 43
0
 10
46.19957189501793
 20
115.2478495045407
 10
49.38224353499535
 20
115.2478495045407
 10
49.38224353499535
 20
117.369630597859
 10
46.19957189501793
 20
117.369630597859
  0
LWPOLYLINE
  5
1B4
100
AcDbEntity
  8
schematic
  6
ByLayer
 62
  256
370
   -1
100
AcDbPolyline
 90
    4
 70
    1
 43
0
 10
56.45484717938967
 20
115.2478495045407
 10
59.6375188193671
 20
115.2478495045407
 10
59.6375188193671
 20
117.369630597859
 10
56.45484717938967
 20
117.369630597859
  0
LWPOLYLINE
  5
1B5
100
AcDbEntity
  8
schematic
  6
ByLayer
 62
  256
370
   -1
100
AcDbPolyline
 90
    4
 70
    1
 43
0
 10
62.33394895879242
 20
128.7300002016674
 10
65.51662059876986
 20
128.7300002016674
 10
65.51662059876986
 20
130.8517812949856
 10
62.33394895879242
 20
130.8517812949856
  0
LINE
  5
1B6
100
AcDbEntity
  8
schematic
  6
DOTTINY
 62
  256
370
   -1
100
AcDbLine
 10
62.85332634146341
 20
142.8752414634147
 11
62.85332634146341
 21
130.8575414634147
  0
LINE
  5
1B7
100
AcDbEntity
  8
schematic
  6
DOTTINY
 62
  256
370
   -1
100
AcDbLine
 10
64.64909634146341
 20
130.9952414634147
 11
64.64909634146341
 21
140.5271414634147
  0
LINE
  5
1B8
100
AcDbEntity
  8
schematic
  6
DOTTINY
 62
  256
370
   -1
100
AcDbLine
 10
102.0841463414634
 20
142.8752414634147
 11
62.85332634146341
 21
142.8752414634147
  0
LINE
  5
1B9
100
AcDbEntity
  8
schematic
  6
DOTTINY
 62
  256
370
   -1
100
AcDbLine
 10
64.64909634146341
 20
140.5271414634147
 11
104.0182463414634
 21
140.5271414634147
  0
LINE
  5
1BA
100
AcDbEntity
  8
schematic
  6
DOTTINY
 62
  256
370
   -1
100
AcDbLine
 10
102.0841463414634
 20
193.2950414634147
 11
102.0841463414634
 21
142.8752414634147
  0
LINE
  5
1BB
100
AcDbEntity
  8
schematic
  6
DOTTINY
 62
  256
370
   -1
100
AcDbLine
 10
104.0182463414634
 20
140.5271414634147
 11
104.0182463414634
 21
193.1573414634147
  0
LWPOLYLINE
  5
1BC
100
AcDbEntity
  8
schematic
  6
DASHEDTINY
 62
  256
370
   -1
100
AcDbPolyline
 90
    5
 70
    1
 43
0
 10
28.37195121951219
 20
94.41219512195119
 10
120.1884146341463
 20
94.41219512195119
 10
120.1884146341463
 20
281.3048780487805
 10
28.37195121951219
 20
281.3048780487805
 10
28.37195121951219
 20
281.3048780487805
  0
MTEXT
  5
1BD
100
AcDbEntity
  8
schematic
  6
ByLayer
 62
  256
370
   -1
100
AcDbMText
 10
38.19260313452745
 20
273.6457245617378
 30
0
 40
2.7
 41
8.100000000000001
 71
    1
 72
    1
  1
AMC1\P
  7
standard
210
0
220
0
230
1
 50
0
 73
    2
 44
1
  0
MTEXT
  5
1BE
100
AcDbEntity
  8
schematic
  6
ByLayer
 62
  256
370
   -1
100
AcDbMText
 10
38.04086318597562
 20
262.1134884717988
 30
0
 40
2.7
 41
1.2
 71
    1
 72
    1
  1
+
  7
standard
210
0
220
0
230
1
 50
0
 73
    2
 44
1
  0
MTEXT
  5
1BF
100
AcDbEntity
  8
schematic
  6
ByLayer
 62
  256
370
   -1
100
AcDbMText
 10
43.95872117949696
 20
262.4169683689025
 30
0
 40
2.7
 41
1.2
 71
    1
 72
    1
  1
-
  7
standard
210
0
220
0
230
1
 50
0
 73
    2
 44
1
  0
MTEXT
  5
1C0
100
AcDbEntity
  8
schematic
  6
ByLayer
 62
  256
370
   -1
100
AcDbMText
 10
39.10304282583842
 20
265.3000273913872
 30
0
 40
2.7
 41
6.300000000000001
 71
    1
 72
    1
  1
24V
  7
standard
210
0
220
0
230
1
 50
0
 73
    2
 44
1
  0
MTEXT
  5
1C1
100
AcDbEntity
  8
schematic
  6
ByLayer
 62
  256
370
   -1
100
AcDbMText
 10
73.54801114710367
 20
244.3599144912348
 30
0
 40
2.7
 41
16.80000000000017
 71
    1
 72
    1
  1
MCP2015X
  7
standard
210
0
220
0
230
1
 50
0
 73
    2
 44
1
  0
MTEXT
  5
1C2
100
AcDbEntity
  8
schematic
  6
ByLayer
 62
  256
370
   -1
100
AcDbMText
 10
56.24965701219513
 20
242.0838152629573
 30
0
 40
2.7
 41
1.2
 71
    1
 72
    1
  1
+
  7
standard
210
0
220
0
230
1
 50
0
 73
    2
 44
1
  0
MTEXT
  5
1C3
100
AcDbEntity
  8
schematic
  6
ByLayer
 62
  256
370
   -1
100
AcDbMText
 10
56.55313690929879
 20
248.608633050686
 30
0
 40
2.7
 41
1.2
 71
    1
 72
    1
  1
-
  7
standard
210
0
220
0
230
1
 50
0
 73
    2
 44
1
  0
INSERT
  5
1C4
100
AcDbEntity
  8
schematic
  6
ByLayer
 62
  256
370
   -1
100
AcDbBlockReference
  2
junction
 10
44.56568097370427
 20
246.9394936166159
 30
0
 41
0.9
 42
0.9
 43
0
 50
0
 70
    1
 71
    1
 44
0.9
 45
0.9
  0
INSERT
  5
1C5
100
AcDbEntity
  8
schematic
  6
ByLayer
 62
  256
370
   -1
100
AcDbBlockReference
  2
junction
 10
38.64782298018293
 20
240.7181557259909
 30
0
 41
0.9
 42
0.9
 43
0
 50
0
 70
    1
 71
    1
 44
0.9
 45
0.9
  0
MTEXT
  5
1C6
100
AcDbEntity
  8
schematic
  6
ByLayer
 62
  256
370
   -1
100
AcDbMText
 10
60.04315572599086
 20
165.1516613471799
 30
0
 40
2.7
 41
3.300000000000168
 71
    1
 72
    1
  1
CL
  7
standard
210
0
220
0
230
1
 50
0
 73
    2
 44
1
  0
MTEXT
  5
1C7
100
AcDbEntity
  8
schematic
  6
ByLayer
 62
  256
370
   -1
100
AcDbMText
 10
53.9735577839177
 20
164.9999213986281
 30
0
 40
2.7
 41
3.600000000000001
 71
    1
 72
    1
  1
PE
  7
standard
210
0
220
0
230
1
 50
0
 73
    2
 44
1
  0
MTEXT
  5
1C8
100
AcDbEntity
  8
schematic
  6
ByLayer
 62
  256
370
   -1
100
AcDbMText
 10
38.04086318597562
 20
151.3433260289634
 30
0
 40
2.7
 41
1.5
 71
    1
 72
    1
  1
+\P2\P4
  7
standard
210
0
220
0
230
1
 50
0
 73
    2
 44
1
  0
MTEXT
  5
1C9
100
AcDbEntity
  8
schematic
  6
ByLayer
 62
  256
370
   -1
100
AcDbMText
 10
43.6552412823933
 20
150.8881061833079
 30
0
 40
2.7
 41
1.500000000000168
 71
    1
 72
    1
  1
G\PN\PD
  7
standard
210
0
220
0
230
1
 50
0
 73
    2
 44
1
  0
MTEXT
  5
1CA
100
AcDbEntity
  8
schematic
  6
ByLayer
 62
  256
370
   -1
100
AcDbMText
 10
48.96613948170733
 20
150.8881061833079
 30
0
 40
2.7
 41
1.500000000000168
 71
    1
 72
    1
  1
D\PU\PP
  7
standard
210
0
220
0
230
1
 50
0
 73
    2
 44
1
  0
MTEXT
  5
1CB
100
AcDbEntity
  8
schematic
  6
ByLayer
 62
  256
370
   -1
100
AcDbMText
 10
54.58051757812501
 20
150.8881061833079
 30
0
 40
2.7
 41
1.5
 71
    1
 72
    1
  1
P\PE
  7
standard
210
0
220
0
230
1
 50
0
 73
    2
 44
1
  0
MTEXT
  5
1CC
100
AcDbEntity
  8
schematic
  6
ByLayer
 62
  256
370
   -1
100
AcDbMText
 10
60.95359541730184
 20
150.8881061833079
 30
0
 40
2.7
 41
1.200000000000168
 71
    1
 72
    1
  1
C\PL
  7
standard
210
0
220
0
230
1
 50
0
 73
    2
 44
1
  0
MTEXT
  5
1CD
100
AcDbEntity
  8
schematic
  6
ByLayer
 62
  256
370
   -1
100
AcDbMText
 10
45.93134051067074
 20
100.6621832126525
 30
0
 40
2.7
 41
12.5999994275942
 71
    1
 72
    1
  1
SERIALI\P
  7
standard
210
0
220
0
230
1
 50
0
 73
    2
 44
1
  0
MTEXT
  5
1CE
100
AcDbEntity
  8
schematic
  6
ByLayer
 62
  256
370
   -1
100
AcDbMText
 10
35.91650390625
 20
97.47564429306402
 30
0
 40
2.7
 41
12.30000000000017
 71
    1
 72
    1
  1
CABINA
  7
standard
210
0
220
0
230
1
 50
0
 73
    2
 44
1
  0
MTEXT
  5
1CF
100
AcDbEntity
  8
schematic
  6
ByLayer
 62
  256
370
   -1
100
AcDbMText
 10
59.73967582888721
 20
97.47564429306402
 30
0
 40
2.7
 41
9.300000000000001
 71
    1
 72
    1
  1
VANO
  7
standard
210
0
220
0
230
1
 50
0
 73
    2
 44
1
  0
MTEXT
  5
1D0
100
AcDbEntity
  8
schematic
  6
ByLayer
 62
  256
370
   -1
100
AcDbMText
 10
65.31765497491361
 20
277.0174541756847
 30
0
 40
3.6
 41
41.09999923679248
 71
    1
 72
    1
  1
QUADRO MASTER
  7
standard
210
0
220
0
230
1
 50
0
 73
    2
 44
1
  0
LWPOLYLINE
  5
1D1
100
AcDbEntity
  8
schematic
  6
ByLayer
 62
  256
370
   -1
100
AcDbPolyline
 90
    4
 70
    1
 43
0
 10
129.2843225990854
 20
276.4109994283537
 10
144.9252096036585
 20
276.4109994283537
 10
144.9252096036585
 20
258.2022056021342
 10
129.2843225990854
 20
258.2022056021342
  0
LWPOLYLINE
  5
1D2
100
AcDbEntity
  8
schematic
  6
ByLayer
 62
  256
370
   -1
100
AcDbPolyline
 90
    4
 70
    1
 43
0
 10
148.8937928734756
 20
250.7319312118903
 10
203.286728277439
 20
250.7319312118903
 10
203.286728277439
 20
218.9832650533537
 10
148.8937928734756
 20
218.9832650533537
  0
LWPOLYLINE
  5
1D3
100
AcDbEntity
  8
schematic
  6
ByLayer
 62
  256
370
   -1
100
AcDbPolyline
 90
    4
 70
    1
 43
0
 10
156.3640672637195
 20
202.1751476753049
 10
177.6076600609756
 20
202.1751476753049
 10
177.6076600609756
 20
170.1930354420732
 10
156.3640672637195
 20
170.1930354420732
  0
LWPOLYLINE
  5
1D4
100
AcDbEntity
  8
schematic
  6
ByLayer
 62
  256
370
   -1
100
AcDbPolyline
 90
    4
 70
    1
 43
0
 10
182.276581554878
 20
202.1751476753049
 10
202.8198361280488
 20
202.1751476753049
 10
202.8198361280488
 20
170.1930354420732
 10
182.276581554878
 20
170.1930354420732
  0
LWPOLYLINE
  5
1D5
100
AcDbEntity
  8
schematic
  6
ByLayer
 62
  256
370
   -1
100
AcDbPolyline
 90
    4
 70
    1
 43
0
 10
129.2843225990854
 20
152.451133765244
 10
165.4684641768293
 20
152.451133765244
 10
165.4684641768293
 20
101.3264434070122
 10
129.2843225990854
 20
101.3264434070122
  0
INSERT
  5
1D6
100
AcDbEntity
  8
schematic
  6
ByLayer
 62
  256
370
   -1
100
AcDbBlockReference
  2
rjconnector
 10
157.2728822435944
 20
220.1054354039635
 30
0
 41
0.9
 42
0.9
 43
0
 50
0
 70
    1
 71
    1
 44
0.9
 45
0.9
  0
INSERT
  5
1D7
100
AcDbEntity
  8
schematic
  6
ByLayer
 62
  256
370
   -1
100
AcDbBlockReference
  2
rjconnector
 10
157.5063283182895
 20
190.457783917683
 30
0
 41
0.9
 42
0.9
 43
0
 50
0
 70
    1
 71
    1
 44
0.9
 45
0.9
  0
INSERT
  5
1D8
100
AcDbEntity
  8
schematic
  6
ByLayer
 62
  256
370
   -1
100
AcDbBlockReference
  2
rjconnector
 10
167.7779556048748
 20
190.2243378429879
 30
0
 41
0.9
 42
0.9
 43
0
 50
0
 70
    1
 71
    1
 44
0.9
 45
0.9
  0
INSERT
  5
1D9
100
AcDbEntity
  8
schematic
  6
ByLayer
 62
  256
370
   -1
100
AcDbBlockReference
  2
rjconnector
 10
182.9519504600578
 20
190.457783917683
 30
0
 41
0.9
 42
0.9
 43
0
 50
0
 70
    1
 71
    1
 44
0.9
 45
0.9
  0
INSERT
  5
1DA
100
AcDbEntity
  8
schematic
  6
ByLayer
 62
  256
370
   -1
100
AcDbBlockReference
  2
rjconnector
 10
193.2235777466431
 20
190.2243378429879
 30
0
 41
0.9
 42
0.9
 43
0
 50
0
 70
    1
 71
    1
 44
0.9
 45
0.9
  0
INSERT
  5
1DB
100
AcDbEntity
  8
schematic
  6
ByLayer
 62
  256
370
   -1
100
AcDbBlockReference
  2
rjconnector
 10
154.0046371978626
 20
126.0266673018293
 30
0
 41
0.9
 42
0.9
 43
0
 50
0
 70
    1
 71
    1
 44
0.9
 45
0.9
  0
INSERT
  5
1DC
100
AcDbEntity
  8
schematic
  6
ByLayer
 62
  256
370
   -1
100
AcDbBlockReference
  2
rjconnector
 10
137.8968580438992
 20
112.9536871189025
 30
0
 41
0.9
 42
0.9
 43
0
 50
0
 70
    1
 71
    1
 44
0.9
 45
0.9
  0
INSERT
  5
1DD
100
AcDbEntity
  8
schematic
  6
ByLayer
 62
  256
370
   -1
100
AcDbBlockReference
  2
rjconnector
 10
148.1684853304846
 20
112.7202410442074
 30
0
 41
0.9
 42
0.9
 43
0
 50
0
 70
    1
 71
    1
 44
0.9
 45
0.9
  0
INSERT
  5
1DE
100
AcDbEntity
  8
schematic
  6
ByLayer
 62
  256
370
   -1
100
AcDbBlockReference
  2
mcp2014x-connector
 10
149.9891431615391
 20
231.4213962461891
 30
0
 41
0.9
 42
0.9
 43
0
 50
0
 70
    1
 71
    1
 44
0.9
 45
0.9
  0
LINE
  5
1DF
100
AcDbEntity
  8
schematic
  6
ByLayer
 62
  256
370
   -1
100
AcDbLine
 10
148.9638266958841
 20
233.7243235518293
 11
144.1675709794207
 21
233.7243235518293
  0
LINE
  5
1E0
100
AcDbEntity
  8
schematic
  6
ByLayer
 62
  256
370
   -1
100
AcDbLine
 10
144.1675709794207
 20
233.7243235518293
 11
144.4073837652439
 21
152.4277891577744
  0
LINE
  5
1E1
100
AcDbEntity
  8
schematic
  6
ByLayer
 62
  256
370
   -1
100
AcDbLine
 10
139.1315024771341
 20
258.1852277057927
 11
139.1315024771341
 21
152.4277891577744
  0
LINE
  5
1E2
100
AcDbEntity
  8
schematic
  6
ByLayer
 62
  256
370
   -1
100
AcDbLine
 10
133.1361828315549
 20
152.4277891577744
 11
133.1361828315549
 21
258.1852277057927
  0
LINE
  5
1E3
100
AcDbEntity
  8
schematic
  6
ByLayer
 62
  256
370
   -1
100
AcDbLine
 10
139.1315024771341
 20
246.9140267721037
 11
149.2036394817073
 21
246.9140267721037
  0
LINE
  5
1E4
100
AcDbEntity
  8
schematic
  6
ByLayer
 62
  256
370
   -1
100
AcDbLine
 10
133.1361828315549
 20
240.6788943407013
 11
148.9638266958841
 21
240.6788943407013
  0
LWPOLYLINE
  5
1E5
100
AcDbEntity
  8
schematic
  6
ByLayer
 62
  256
370
   -1
100
AcDbPolyline
 90
    4
 70
    1
 43
0
 10
160.3147700647029
 20
222.4419984898919
 10
163.4974417046803
 20
222.4419984898919
 10
163.4974417046803
 20
224.5637795832102
 10
160.3147700647029
 20
224.5637795832102
  0
LWPOLYLINE
  5
1E6
100
AcDbEntity
  8
schematic
  6
ByLayer
 62
  256
370
   -1
100
AcDbPolyline
 90
    4
 70
    1
 43
0
 10
160.4031776102579
 20
193.2675084567654
 10
163.5858492502353
 20
193.2675084567654
 10
163.5858492502353
 20
195.3892895500837
 10
160.4031776102579
 20
195.3892895500837
  0
LWPOLYLINE
  5
1E7
100
AcDbEntity
  8
schematic
  6
ByLayer
 62
  256
370
   -1
100
AcDbPolyline
 90
    4
 70
    1
 43
0
 10
170.6584528946296
 20
193.2675084567654
 10
173.841124534607
 20
193.2675084567654
 10
173.841124534607
 20
195.3892895500837
 10
170.6584528946296
 20
195.3892895500837
  0
LWPOLYLINE
  5
1E8
100
AcDbEntity
  8
schematic
  6
ByLayer
 62
  256
370
   -1
100
AcDbPolyline
 90
    4
 70
    1
 43
0
 10
185.8645507300774
 20
193.3559160023203
 10
189.0472223700548
 20
193.3559160023203
 10
189.0472223700548
 20
195.4776970956386
 10
185.8645507300774
 20
195.4776970956386
  0
LWPOLYLINE
  5
1E9
100
AcDbEntity
  8
schematic
  6
ByLayer
 62
  256
370
   -1
100
AcDbPolyline
 90
    4
 70
    1
 43
0
 10
196.1198260144491
 20
193.3559160023203
 10
199.3024976544265
 20
193.3559160023203
 10
199.3024976544265
 20
195.4776970956386
 10
196.1198260144491
 20
195.4776970956386
  0
LINE
  5
1EA
100
AcDbEntity
  8
schematic
  6
DOTTINY
 62
  256
370
   -1
100
AcDbLine
 10
161.1988331707317
 20
222.3533414634147
 11
161.1988331707317
 21
195.3011414634147
  0
LINE
  5
1EB
100
AcDbEntity
  8
schematic
  6
DOTTINY
 62
  256
370
   -1
100
AcDbLine
 10
162.8785931707317
 20
195.3893414634147
 11
162.8785931707317
 21
222.2651414634147
  0
LINE
  5
1EC
100
AcDbEntity
  8
schematic
  6
DOTTINY
 62
  256
370
   -1
100
AcDbLine
 10
171.4541531707317
 20
195.3011414634147
 11
171.5425331707317
 21
208.0316414634147
  0
LINE
  5
1ED
100
AcDbEntity
  8
schematic
  6
DOTTINY
 62
  256
370
   -1
100
AcDbLine
 10
171.5425331707317
 20
208.0316414634147
 11
188.3397731707317
 21
208.0316414634147
  0
LINE
  5
1EE
100
AcDbEntity
  8
schematic
  6
DOTTINY
 62
  256
370
   -1
100
AcDbLine
 10
188.3397731707317
 20
208.0316414634147
 11
188.4279731707317
 21
195.3893414634147
  0
LINE
  5
1EF
100
AcDbEntity
  8
schematic
  6
DOTTINY
 62
  256
370
   -1
100
AcDbLine
 10
186.7485731707317
 20
195.3893414634147
 11
186.7485731707317
 21
206.4404414634147
  0
LINE
  5
1F0
100
AcDbEntity
  8
schematic
  6
DOTTINY
 62
  256
370
   -1
100
AcDbLine
 10
186.7485731707317
 20
206.4404414634147
 11
173.1338231707317
 21
206.4404414634147
  0
LINE
  5
1F1
100
AcDbEntity
  8
schematic
  6
DOTTINY
 62
  256
370
   -1
100
AcDbLine
 10
173.1338231707317
 20
206.4404414634147
 11
173.1338231707317
 21
195.3011414634147
  0
LINE
  5
1F2
100
AcDbEntity
  8
schematic
  6
ByLayer
 62
  256
370
   -1
100
AcDbLine
 10
149.6174570525565
 20
152.4232224103883
 11
149.6174570525565
 21
160.203086419222
  0
LINE
  5
1F3
100
AcDbEntity
  8
schematic
  6
ByLayer
 62
  256
370
   -1
100
AcDbLine
 10
155.7175776958466
 20
160.203086419222
 11
155.7175776958466
 21
152.3348148648334
  0
LEADER
  5
1F4
100
AcDbEntity
  8
schematic
  6
ByLayer
 62
  256
370
   -1
100
AcDbLeader
  3
Standard
 71
    1
 72
    0
 73
    3
 74
    0
 75
    0
 40
1
 41
10
 76
2
 76
2
 10
149.7058645981114
 20
161.0871618747713
 30
0
 10
149.7058645981114
 20
158.8769732358981
 30
0
  0
LEADER
  5
1F5
100
AcDbEntity
  8
schematic
  6
ByLayer
 62
  256
370
   -1
100
AcDbLeader
  3
Standard
 71
    1
 72
    0
 73
    3
 74
    0
 75
    0
 40
1
 41
10
 76
2
 76
2
 10
155.8059852414015
 20
161.0871618747713
 30
0
 10
155.8059852414015
 20
158.6117505992333
 30
0
  0
LWPOLYLINE
  5
1F6
100
AcDbEntity
  8
schematic
  6
ByLayer
 62
  256
370
   -1
100
AcDbPolyline
 90
    4
 70
    1
 43
0
 10
130.4772234399145
 20
102.0972271032451
 10
144.7329401606467
 20
102.0972271032451
 10
144.7329401606467
 20
106.0755666532169
 10
130.4772234399145
 20
106.0755666532169
  0
LWPOLYLINE
  5
1F7
100
AcDbEntity
  8
schematic
  6
ByLayer
 62
  256
370
   -1
100
AcDbPolyline
 90
    4
 70
    1
 43
0
 10
150.5899400536607
 20
102.0972271032451
 10
164.514128478562
 20
102.0972271032451
 10
164.514128478562
 20
106.0755666532169
 10
150.5899400536607
 20
106.0755666532169
  0
LWPOLYLINE
  5
1F8
100
AcDbEntity
  8
schematic
  6
ByLayer
 62
  256
370
   -1
100
AcDbPolyline
 90
    4
 70
    1
 43
0
 10
140.7324987242862
 20
115.2478495045407
 10
143.9151703642636
 20
115.2478495045407
 10
143.9151703642636
 20
117.369630597859
 10
140.7324987242862
 20
117.369630597859
  0
LWPOLYLINE
  5
1F9
100
AcDbEntity
  8
schematic
  6
ByLayer
 62
  256
370
   -1
100
AcDbPolyline
 90
    4
 70
    1
 43
0
 10
150.987774008658
 20
115.2478495045407
 10
154.1704456486354
 20
115.2478495045407
 10
154.1704456486354
 20
117.369630597859
 10
150.987774008658
 20
117.369630597859
  0
LWPOLYLINE
  5
1FA
100
AcDbEntity
  8
schematic
  6
ByLayer
 62
  256
370
   -1
100
AcDbPolyline
 90
    4
 70
    1
 43
0
 10
156.8668757880607
 20
128.7300002016674
 10
160.0495474280382
 20
128.7300002016674
 10
160.0495474280382
 20
130.8517812949856
 10
156.8668757880607
 20
130.8517812949856
  0
LINE
  5
1FB
100
AcDbEntity
  8
schematic
  6
DOTTINY
 62
  256
370
   -1
100
AcDbLine
 10
157.3862531707317
 20
142.8752414634147
 11
157.3862531707317
 21
130.8575414634147
  0
LINE
  5
1FC
100
AcDbEntity
  8
schematic
  6
DOTTINY
 62
  256
370
   -1
100
AcDbLine
 10
159.1820231707317
 20
130.9952414634147
 11
159.1820231707317
 21
140.5271414634147
  0
LINE
  5
1FD
100
AcDbEntity
  8
schematic
  6
DOTTINY
 62
  256
370
   -1
100
AcDbLine
 10
196.6170731707317
 20
142.8752414634147
 11
157.3862531707317
 21
142.8752414634147
  0
LINE
  5
1FE
100
AcDbEntity
  8
schematic
  6
DOTTINY
 62
  256
370
   -1
100
AcDbLine
 10
159.1820231707317
 20
140.5271414634147
 11
198.5511731707317
 21
140.5271414634147
  0
LINE
  5
1FF
100
AcDbEntity
  8
schematic
  6
DOTTINY
 62
  256
370
   -1
100
AcDbLine
 10
196.6170731707317
 20
193.2950414634147
 11
196.6170731707317
 21
142.8752414634147
  0
LINE
  5
200
100
AcDbEntity
  8
schematic
  6
DOTTINY
 62
  256
370
   -1
100
AcDbLine
 10
198.5511731707317
 20
140.5271414634147
 11
198.5511731707317
 21
193.1573414634147
  0
LWPOLYLINE
  5
201
100
AcDbEntity
  8
schematic
  6
DASHEDTINY
 62
  256
370
   -1
100
AcDbPolyline
 90
    5
 70
    1
 43
0
 10
122.9048780487805
 20
94.41219512195119
 10
214.7213414634146
 20
94.41219512195119
 10
214.7213414634146
 20
281.3048780487805
 10
122.9048780487805
 20
281.3048780487805
 10
122.9048780487805
 20
281.3048780487805
  0
MTEXT
  5
202
100
AcDbEntity
  8
schematic
  6
ByLayer
 62
  256
370
   -1
100
AcDbMText
 10
132.7255299637957
 20
273.6457245617378
 30
0
 40
2.7
 41
8.100000000000001
 71
    1
 72
    1
  1
AMC1\P
  7
standard
210
0
220
0
230
1
 50
0
 73
    2
 44
1
  0
MTEXT
  5
203
100
AcDbEntity
  8
schematic
  6
ByLayer
 62
  256
370
   -1
100
AcDbMText
 10
132.5737900152439
 20
262.1134884717988
 30
0
 40
2.7
 41
1.2
 71
    1
 72
    1
  1
+
  7
standard
210
0
220
0
230
1
 50
0
 73
    2
 44
1
  0
MTEXT
  5
204
100
AcDbEntity
  8
schematic
  6
ByLayer
 62
  256
370
   -1
100
AcDbMText
 10
138.4916480087652
 20
262.4169683689025
 30
0
 40
2.7
 41
1.2
 71
    1
 72
    1
  1
-
  7
standard
210
0
220
0
230
1
 50
0
 73
    2
 44
1
  0
MTEXT
  5
205
100
AcDbEntity
  8
schematic
  6
ByLayer
 62
  256
370
   -1
100
AcDbMText
 10
133.6359696551067
 20
265.3000273913872
 30
0
 40
2.7
 41
6.300000000000001
 71
    1
 72
    1
  1
24V
  7
standard
210
0
220
0
230
1
 50
0
 73
    2
 44
1
  0
MTEXT
  5
206
100
AcDbEntity
  8
schematic
  6
ByLayer
 62
  256
370
   -1
100
AcDbMText
 10
168.080937976372
 20
244.3599144912348
 30
0
 40
2.7
 41
16.80000000000017
 71
    1
 72
    1
  1
MCP2015X
  7
standard
210
0
220
0
230
1
 50
0
 73
    2
 44
1
  0
MTEXT
  5
207
100
AcDbEntity
  8
schematic
  6
ByLayer
 62
  256
370
   -1
100
AcDbMText
 10
150.7825838414634
 20
242.0838152629573
 30
0
 40
2.7
 41
1.2
 71
    1
 72
    1
  1
+
  7
standard
210
0
220
0
230
1
 50
0
 73
    2
 44
1
  0
MTEXT
  5
208
100
AcDbEntity
  8
schematic
  6
ByLayer
 62
  256
370
   -1
100
AcDbMText
 10
151.0860637385671
 20
248.608633050686
 30
0
 40
2.7
 41
1.2
 71
    1
 72
    1
  1
-
  7
standard
210
0
220
0
230
1
 50
0
 73
    2
 44
1
  0
INSERT
  5
209
100
AcDbEntity
  8
schematic
  6
ByLayer
 62
  256
370
   -1
100
AcDbBlockReference
  2
junction
 10
139.0986078029726
 20
246.9394936166159
 30
0
 41
0.9
 42
0.9
 43
0
 50
0
 70
    1
 71
    1
 44
0.9
 45
0.9
  0
INSERT
  5
20A
100
AcDbEntity
  8
schematic
  6
ByLayer
 62
  256
370
   -1
100
AcDbBlockReference
  2
junction
 10
133.1807498094512
 20
240.7181557259909
 30
0
 41
0.9
 42
0.9
 43
0
 50
0
 70
    1
 71
    1
 44
0.9
 45
0.9
  0
MTEXT
  5
20B
100
AcDbEntity
  8
schematic
  6
ByLayer
 62
  256
370
   -1
100
AcDbMText
 10
154.5760825552591
 20
165.1516613471799
 30
0
 40
2.7
 41
3.300000000000168
 71
    1
 72
    1
  1
CL
  7
standard
210
0
220
0
230
1
 50
0
 73
    2
 44
1
  0
MTEXT
  5
20C
100
AcDbEntity
  8
schematic
  6
ByLayer
 62
  256
370
   -1
100
AcDbMText
 10
148.506484613186
 20
164.9999213986281
 30
0
 40
2.7
 41
3.600000000000001
 71
    1
 72
    1
  1
PE
  7
standard
210
0
220
0
230
1
 50
0
 73
    2
 44
1
  0
MTEXT
  5
20D
100
AcDbEntity
  8
schematic
  6
ByLayer
 62
  256
370
   -1
100
AcDbMText
 10
132.5737900152439
 20
151.3433260289634
 30
0
 40
2.7
 41
1.5
 71
    1
 72
    1
  1
+\P2\P4
  7
standard
210
0
220
0
230
1
 50
0
 73
    2
 44
1
  0
MTEXT
  5
20E
100
AcDbEntity
  8
schematic
  6
ByLayer
 62
  256
370
   -1
100
AcDbMText
 10
138.1881681116616
 20
150.8881061833079
 30
0
 40
2.7
 41
1.500000000000168
 71
    1
 72
    1
  1
G\PN\PD
  7
standard
210
0
220
0
230
1
 50
0
 73
    2
 44
1
  0
MTEXT
  5
20F
100
AcDbEntity
  8
schematic
  6
ByLayer
 62
  256
370
   -1
100
AcDbMText
 10
143.4990663109756
 20
150.8881061833079
 30
0
 40
2.7
 41
1.500000000000168
 71
    1
 72
    1
  1
D\PU\PP
  7
standard
210
0
220
0
230
1
 50
0
 73
    2
 44
1
  0
MTEXT
  5
210
100
AcDbEntity
  8
schematic
  6
ByLayer
 62
  256
370
   -1
100
AcDbMText
 10
149.1134444073933
 20
150.8881061833079
 30
0
 40
2.7
 41
1.5
 71
    1
 72
    1
  1
P\PE
  7
standard
210
0
220
0
230
1
 50
0
 73
    2
 44
1
  0
MTEXT
  5
211
100
AcDbEntity
  8
schematic
  6
ByLayer
 62
  256
370
   -1
100
AcDbMText
 10
155.4865222465701
 20
150.8881061833079
 30
0
 40
2.7
 41
1.200000000000168
 71
    1
 72
    1
  1
C\PL
  7
standard
210
0
220
0
230
1
 50
0
 73
    2
 44
1
  0
MTEXT
  5
212
100
AcDbEntity
  8
schematic
  6
ByLayer
 62
  256
370
   -1
100
AcDbMText
 10
140.464267339939
 20
100.6621832126525
 30
0
 40
2.7
 41
12.5999994275942
 71
    1
 72
    1
  1
SERIALI\P
  7
standard
210
0
220
0
230
1
 50
0
 73
    2
 44
1
  0
MTEXT
  5
213
100
AcDbEntity
  8
schematic
  6
ByLayer
 62
  256
370
   -1
100
AcDbMText
 10
130.4494307355183
 20
97.47564429306402
 30
0
 40
2.7
 41
12.30000000000017
 71
    1
 72
    1
  1
CABINA
  7
standard
210
0
220
0
230
1
 50
0
 73
    2
 44
1
  0
MTEXT
  5
214
100
AcDbEntity
  8
schematic
  6
ByLayer
 62
  256
370
   -1
100
AcDbMText
 10
154.2726026581555
 20
97.47564429306402
 30
0
 40
2.7
 41
9.300000000000001
 71
    1
 72
    1
  1
VANO
  7
standard
210
0
220
0
230
1
 50
0
 73
    2
 44
1
  0
LWPOLYLINE
  5
215
100
AcDbEntity
  8
schematic
  6
ByLayer
 62
  256
370
   -1
100
AcDbPolyline
 90
    4
 70
    1
 43
0
 10
224.8503072599085
 20
276.4109994283537
 10
240.4911942644817
 20
276.4109994283537
 10
240.4911942644817
 20
258.2022056021342
 10
224.8503072599085
 20
258.2022056021342
  0
LWPOLYLINE
  5
216
100
AcDbEntity
  8
schematic
  6
ByLayer
 62
  256
370
   -1
100
AcDbPolyline
 90
    4
 70
    1
 43
0
 10
244.4597775342988
 20
250.7319312118903
 10
298.8527129382622
 20
250.7319312118903
 10
298.8527129382622
 20
218.9832650533537
 10
244.4597775342988
 20
218.9832650533537
  0
LWPOLYLINE
  5
217
100
AcDbEntity
  8
schematic
  6
ByLayer
 62
  256
370
   -1
100
AcDbPolyline
 90
    4
 70
    1
 43
0
 10
251.9300519245427
 20
202.1751476753049
 10
273.1736447217988
 20
202.1751476753049
 10
273.1736447217988
 20
170.1930354420732
 10
251.9300519245427
 20
170.1930354420732
  0
LWPOLYLINE
  5
218
100
AcDbEntity
  8
schematic
  6
ByLayer
 62
  256
370
   -1
100
AcDbPolyline
 90
    4
 70
    1
 43
0
 10
277.8425662157011
 20
202.1751476753049
 10
298.385820788872
 20
202.1751476753049
 10
298.385820788872
 20
170.1930354420732
 10
277.8425662157011
 20
170.1930354420732
  0
LWPOLYLINE
  5
219
100
AcDbEntity
  8
schematic
  6
ByLayer
 62
  256
370
   -1
100
AcDbPolyline
 90
    4
 70
    1
 43
0
 10
224.8503072599085
 20
152.451133765244
 10
261.0344488376524
 20
152.451133765244
 10
261.0344488376524
 20
101.3264434070122
 10
224.8503072599085
 20
101.3264434070122
  0
INSERT
  5
21A
100
AcDbEntity
  8
schematic
  6
ByLayer
 62
  256
370
   -1
100
AcDbBlockReference
  2
rjconnector
 10
252.8388669044175
 20
220.1054354039635
 30
0
 41
0.9
 42
0.9
 43
0
 50
0
 70
    1
 71
    1
 44
0.9
 45
0.9
  0
INSERT
  5
21B
100
AcDbEntity
  8
schematic
  6
ByLayer
 62
  256
370
   -1
100
AcDbBlockReference
  2
rjconnector
 10
253.0723129791126
 20
190.457783917683
 30
0
 41
0.9
 42
0.9
 43
0
 50
0
 70
    1
 71
    1
 44
0.9
 45
0.9
  0
INSERT
  5
21C
100
AcDbEntity
  8
schematic
  6
ByLayer
 62
  256
370
   -1
100
AcDbBlockReference
  2
rjconnector
 10
263.343940265698
 20
190.2243378429879
 30
0
 41
0.9
 42
0.9
 43
0
 50
0
 70
    1
 71
    1
 44
0.9
 45
0.9
  0
INSERT
  5
21D
100
AcDbEntity
  8
schematic
  6
ByLayer
 62
  256
370
   -1
100
AcDbBlockReference
  2
rjconnector
 10
278.5179351208808
 20
190.457783917683
 30
0
 41
0.9
 42
0.9
 43
0
 50
0
 70
    1
 71
    1
 44
0.9
 45
0.9
  0
INSERT
  5
21E
100
AcDbEntity
  8
schematic
  6
ByLayer
 62
  256
370
   -1
100
AcDbBlockReference
  2
rjconnector
 10
288.7895624074663
 20
190.2243378429879
 30
0
 41
0.9
 42
0.9
 43
0
 50
0
 70
    1
 71
    1
 44
0.9
 45
0.9
  0
INSERT
  5
21F
100
AcDbEntity
  8
schematic
  6
ByLayer
 62
  256
370
   -1
100
AcDbBlockReference
  2
rjconnector
 10
249.5706218586858
 20
126.0266673018293
 30
0
 41
0.9
 42
0.9
 43
0
 50
0
 70
    1
 71
    1
 44
0.9
 45
0.9
  0
INSERT
  5
220
100
AcDbEntity
  8
schematic
  6
ByLayer
 62
  256
370
   -1
100
AcDbBlockReference
  2
rjconnector
 10
233.4628427047224
 20
112.9536871189025
 30
0
 41
0.9
 42
0.9
 43
0
 50
0
 70
    1
 71
    1
 44
0.9
 45
0.9
  0
INSERT
  5
221
100
AcDbEntity
  8
schematic
  6
ByLayer
 62
  256
370
   -1
100
AcDbBlockReference
  2
rjconnector
 10
243.7344699913077
 20
112.7202410442074
 30
0
 41
0.9
 42
0.9
 43
0
 50
0
 70
    1
 71
    1
 44
0.9
 45
0.9
  0
INSERT
  5
222
100
AcDbEntity
  8
schematic
  6
ByLayer
 62
  256
370
   -1
100
AcDbBlockReference
  2
mcp2014x-connector
 10
245.5551278223623
 20
231.4213962461891
 30
0
 41
0.9
 42
0.9
 43
0
 50
0
 70
    1
 71
    1
 44
0.9
 45
0.9
  0
LINE
  5
223
100
AcDbEntity
  8
schematic
  6
ByLayer
 62
  256
370
   -1
100
AcDbLine
 10
244.5298113567073
 20
233.7243235518293
 11
239.7335556402439
 21
233.7243235518293
  0
LINE
  5
224
100
AcDbEntity
  8
schematic
  6
ByLayer
 62
  256
370
   -1
100
AcDbLine
 10
239.7335556402439
 20
233.7243235518293
 11
239.9733684260671
 21
152.4277891577744
  0
LINE
  5
225
100
AcDbEntity
  8
schematic
  6
ByLayer
 62
  256
370
   -1
100
AcDbLine
 10
234.6974871379573
 20
258.1852277057927
 11
234.6974871379573
 21
152.4277891577744
  0
LINE
  5
226
100
AcDbEntity
  8
schematic
  6
ByLayer
 62
  256
370
   -1
100
AcDbLine
 10
228.702167492378
 20
152.4277891577744
 11
228.702167492378
 21
258.1852277057927
  0
LINE
  5
227
100
AcDbEntity
  8
schematic
  6
ByLayer
 62
  256
370
   -1
100
AcDbLine
 10
234.6974871379573
 20
246.9140267721037
 11
244.7696241425305
 21
246.9140267721037
  0
LINE
  5
228
100
AcDbEntity
  8
schematic
  6
ByLayer
 62
  256
370
   -1
100
AcDbLine
 10
228.702167492378
 20
240.6788943407013
 11
244.5298113567073
 21
240.6788943407013
  0
LWPOLYLINE
  5
229
100
AcDbEntity
  8
schematic
  6
ByLayer
 62
  256
370
   -1
100
AcDbPolyline
 90
    4
 70
    1
 43
0
 10
255.8807547255261
 20
222.4419984898919
 10
259.0634263655035
 20
222.4419984898919
 10
259.0634263655035
 20
224.5637795832102
 10
255.8807547255261
 20
224.5637795832102
  0
LWPOLYLINE
  5
22A
100
AcDbEntity
  8
schematic
  6
ByLayer
 62
  256
370
   -1
100
AcDbPolyline
 90
    4
 70
    1
 43
0
 10
255.969162271081
 20
193.2675084567654
 10
259.1518339110585
 20
193.2675084567654
 10
259.1518339110585
 20
195.3892895500837
 10
255.969162271081
 20
195.3892895500837
  0
LWPOLYLINE
  5
22B
100
AcDbEntity
  8
schematic
  6
ByLayer
 62
  256
370
   -1
100
AcDbPolyline
 90
    4
 70
    1
 43
0
 10
266.2244375554528
 20
193.2675084567654
 10
269.4071091954302
 20
193.2675084567654
 10
269.4071091954302
 20
195.3892895500837
 10
266.2244375554528
 20
195.3892895500837
  0
LWPOLYLINE
  5
22C
100
AcDbEntity
  8
schematic
  6
ByLayer
 62
  256
370
   -1
100
AcDbPolyline
 90
    4
 70
    1
 43
0
 10
281.4305353909005
 20
193.3559160023203
 10
284.613207030878
 20
193.3559160023203
 10
284.613207030878
 20
195.4776970956386
 10
281.4305353909005
 20
195.4776970956386
  0
LWPOLYLINE
  5
22D
100
AcDbEntity
  8
schematic
  6
ByLayer
 62
  256
370
   -1
100
AcDbPolyline
 90
    4
 70
    1
 43
0
 10
291.6858106752723
 20
193.3559160023203
 10
294.8684823152497
 20
193.3559160023203
 10
294.8684823152497
 20
195.4776970956386
 10
291.6858106752723
 20
195.4776970956386
  0
LINE
  5
22E
100
AcDbEntity
  8
schematic
  6
DOTTINY
 62
  256
370
   -1
100
AcDbLine
 10
256.7648178315549
 20
222.3533414634147
 11
256.7648178315549
 21
195.3011414634147
  0
LINE
  5
22F
100
AcDbEntity
  8
schematic
  6
DOTTINY
 62
  256
370
   -1
100
AcDbLine
 10
258.4445778315549
 20
195.3893414634147
 11
258.4445778315549
 21
222.2651414634147
  0
LINE
  5
230
100
AcDbEntity
  8
schematic
  6
DOTTINY
 62
  256
370
   -1
100
AcDbLine
 10
267.0201378315548
 20
195.3011414634147
 11
267.1085178315549
 21
208.0316414634147
  0
LINE
  5
231
100
AcDbEntity
  8
schematic
  6
DOTTINY
 62
  256
370
   -1
100
AcDbLine
 10
267.1085178315549
 20
208.0316414634147
 11
283.9057578315549
 21
208.0316414634147
  0
LINE
  5
232
100
AcDbEntity
  8
schematic
  6
DOTTINY
 62
  256
370
   -1
100
AcDbLine
 10
283.9057578315549
 20
208.0316414634147
 11
283.9939578315548
 21
195.3893414634147
  0
LINE
  5
233
100
AcDbEntity
  8
schematic
  6
DOTTINY
 62
  256
370
   -1
100
AcDbLine
 10
282.3145578315549
 20
195.3893414634147
 11
282.3145578315549
 21
206.4404414634147
  0
LINE
  5
234
100
AcDbEntity
  8
schematic
  6
DOTTINY
 62
  256
370
   -1
100
AcDbLine
 10
282.3145578315549
 20
206.4404414634147
 11
268.6998078315549
 21
206.4404414634147
  0
LINE
  5
235
100
AcDbEntity
  8
schematic
  6
DOTTINY
 62
  256
370
   -1
100
AcDbLine
 10
268.6998078315549
 20
206.4404414634147
 11
268.6998078315549
 21
195.3011414634147
  0
LINE
  5
236
100
AcDbEntity
  8
schematic
  6
ByLayer
 62
  256
370
   -1
100
AcDbLine
 10
245.1834417133797
 20
152.4232224103883
 11
245.1834417133797
 21
160.203086419222
  0
LINE
  5
237
100
AcDbEntity
  8
schematic
  6
ByLayer
 62
  256
370
   -1
100
AcDbLine
 10
251.2835623566698
 20
160.203086419222
 11
251.2835623566698
 21
152.3348148648334
  0
LEADER
  5
238
100
AcDbEntity
  8
schematic
  6
ByLayer
 62
  256
370
   -1
100
AcDbLeader
  3
Standard
 71
    1
 72
    0
 73
    3
 74
    0
 75
    0
 40
1
 41
10
 76
2
 76
2
 10
245.2718492589346
 20
161.0871618747713
 30
0
 10
245.2718492589346
 20
158.8769732358981
 30
0
  0
LEADER
  5
239
100
AcDbEntity
  8
schematic
  6
ByLayer
 62
  256
370
   -1
100
AcDbLeader
  3
Standard
 71
    1
 72
    0
 73
    3
 74
    0
 75
    0
 40
1
 41
10
 76
2
 76
2
 10
251.3719699022247
 20
161.0871618747713
 30
0
 10
251.3719699022247
 20
158.6117505992333
 30
0
  0
LWPOLYLINE
  5
23A
100
AcDbEntity
  8
schematic
  6
ByLayer
 62
  256
370
   -1
100
AcDbPolyline
 90
    4
 70
    1
 43
0
 10
226.0432081007376
 20
102.0972271032451
 10
240.2989248214699
 20
102.0972271032451
 10
240.2989248214699
 20
106.0755666532169
 10
226.0432081007376
 20
106.0755666532169
  0
LWPOLYLINE
  5
23B
100
AcDbEntity
  8
schematic
  6
ByLayer
 62
  256
370
   -1
100
AcDbPolyline
 90
    4
 70
    1
 43
0
 10
246.1559247144839
 20
102.0972271032451
 10
260.0801131393852
 20
102.0972271032451
 10
260.0801131393852
 20
106.0755666532169
 10
246.1559247144839
 20
106.0755666532169
  0
LWPOLYLINE
  5
23C
100
AcDbEntity
  8
schematic
  6
ByLayer
 62
  256
370
   -1
100
AcDbPolyline
 90
    4
 70
    1
 43
0
 10
236.2984833851094
 20
115.2478495045407
 10
239.4811550250868
 20
115.2478495045407
 10
239.4811550250868
 20
117.369630597859
 10
236.2984833851094
 20
117.369630597859
  0
LWPOLYLINE
  5
23D
100
AcDbEntity
  8
schematic
  6
ByLayer
 62
  256
370
   -1
100
AcDbPolyline
 90
    4
 70
    1
 43
0
 10
246.5537586694811
 20
115.2478495045407
 10
249.7364303094585
 20
115.2478495045407
 10
249.7364303094585
 20
117.369630597859
 10
246.5537586694811
 20
117.369630597859
  0
LWPOLYLINE
  5
23E
100
AcDbEntity
  8
schematic
  6
ByLayer
 62
  256
370
   -1
100
AcDbPolyline
 90
    4
 70
    1
 43
0
 10
252.4328604488839
 20
128.7300002016674
 10
255.6155320888613
 20
128.7300002016674
 10
255.6155320888613
 20
130.8517812949856
 10
252.4328604488839
 20
130.8517812949856
  0
LINE
  5
23F
100
AcDbEntity
  8
schematic
  6
DOTTINY
 62
  256
370
   -1
100
AcDbLine
 10
252.9522378315549
 20
142.8752414634147
 11
252.9522378315549
 21
130.8575414634147
  0
LINE
  5
240
100
AcDbEntity
  8
schematic
  6
DOTTINY
 62
  256
370
   -1
100
AcDbLine
 10
254.7480078315548
 20
130.9952414634147
 11
254.7480078315548
 21
140.5271414634147
  0
LINE
  5
241
100
AcDbEntity
  8
schematic
  6
DOTTINY
 62
  256
370
   -1
100
AcDbLine
 10
292.1830578315549
 20
142.8752414634147
 11
252.9522378315549
 21
142.8752414634147
  0
LINE
  5
242
100
AcDbEntity
  8
schematic
  6
DOTTINY
 62
  256
370
   -1
100
AcDbLine
 10
254.7480078315548
 20
140.5271414634147
 11
294.1171578315549
 21
140.5271414634147
  0
LINE
  5
243
100
AcDbEntity
  8
schematic
  6
DOTTINY
 62
  256
370
   -1
100
AcDbLine
 10
292.1830578315549
 20
193.2950414634147
 11
292.1830578315549
 21
142.8752414634147
  0
LINE
  5
244
100
AcDbEntity
  8
schematic
  6
DOTTINY
 62
  256
370
   -1
100
AcDbLine
 10
294.1171578315549
 20
140.5271414634147
 11
294.1171578315549
 21
193.1573414634147
  0
LWPOLYLINE
  5
245
100
AcDbEntity
  8
schematic
  6
DASHEDTINY
 62
  256
370
   -1
100
AcDbPolyline
 90
    5
 70
    1
 43
0
 10
218.4708627096036
 20
94.41219512195119
 10
310.2873261242378
 20
94.41219512195119
 10
310.2873261242378
 20
281.3048780487805
 10
218.4708627096036
 20
281.3048780487805
 10
218.4708627096036
 20
281.3048780487805
  0
MTEXT
  5
246
100
AcDbEntity
  8
schematic
  6
ByLayer
 62
  256
370
   -1
100
AcDbMText
 10
228.2915146246189
 20
273.6457245617378
 30
0
 40
2.7
 41
8.100000000000001
 71
    1
 72
    1
  1
AMC1\P
  7
standard
210
0
220
0
230
1
 50
0
 73
    2
 44
1
  0
MTEXT
  5
247
100
AcDbEntity
  8
schematic
  6
ByLayer
 62
  256
370
   -1
100
AcDbMText
 10
228.1397746760671
 20
262.1134884717988
 30
0
 40
2.7
 41
1.2
 71
    1
 72
    1
  1
+
  7
standard
210
0
220
0
230
1
 50
0
 73
    2
 44
1
  0
MTEXT
  5
248
100
AcDbEntity
  8
schematic
  6
ByLayer
 62
  256
370
   -1
100
AcDbMText
 10
234.0576326695884
 20
262.4169683689025
 30
0
 40
2.7
 41
1.2
 71
    1
 72
    1
  1
-
  7
standard
210
0
220
0
230
1
 50
0
 73
    2
 44
1
  0
MTEXT
  5
249
100
AcDbEntity
  8
schematic
  6
ByLayer
 62
  256
370
   -1
100
AcDbMText
 10
229.2019543159299
 20
265.3000273913872
 30
0
 40
2.7
 41
6.300000000000001
 71
    1
 72
    1
  1
24V
  7
standard
210
0
220
0
230
1
 50
0
 73
    2
 44
1
  0
MTEXT
  5
24A
100
AcDbEntity
  8
schematic
  6
ByLayer
 62
  256
370
   -1
100
AcDbMText
 10
263.6469226371951
 20
244.3599144912348
 30
0
 40
2.7
 41
16.80000000000017
 71
    1
 72
    1
  1
MCP2015X
  7
standard
210
0
220
0
230
1
 50
0
 73
    2
 44
1
  0
MTEXT
  5
24B
100
AcDbEntity
  8
schematic
  6
ByLayer
 62
  256
370
   -1
100
AcDbMText
 10
246.3485685022866
 20
242.0838152629573
 30
0
 40
2.7
 41
1.2
 71
    1
 72
    1
  1
+
  7
standard
210
0
220
0
230
1
 50
0
 73
    2
 44
1
  0
MTEXT
  5
24C
100
AcDbEntity
  8
schematic
  6
ByLayer
 62
  256
370
   -1
100
AcDbMText
 10
246.6520483993903
 20
248.608633050686
 30
0
 40
2.7
 41
1.2
 71
    1
 72
    1
  1
-
  7
standard
210
0
220
0
230
1
 50
0
 73
    2
 44
1
  0
INSERT
  5
24D
100
AcDbEntity
  8
schematic
  6
ByLayer
 62
  256
370
   -1
100
AcDbBlockReference
  2
junction
 10
234.6645924637957
 20
246.9394936166159
 30
0
 41
0.9
 42
0.9
 43
0
 50
0
 70
    1
 71
    1
 44
0.9
 45
0.9
  0
INSERT
  5
24E
100
AcDbEntity
  8
schematic
  6
ByLayer
 62
  256
370
   -1
100
AcDbBlockReference
  2
junction
 10
228.7467344702744
 20
240.7181557259909
 30
0
 41
0.9
 42
0.9
 43
0
 50
0
 70
    1
 71
    1
 44
0.9
 45
0.9
  0
MTEXT
  5
24F
100
AcDbEntity
  8
schematic
  6
ByLayer
 62
  256
370
   -1
100
AcDbMText
 10
250.1420672160823
 20
165.1516613471799
 30
0
 40
2.7
 41
3.300000000000168
 71
    1
 72
    1
  1
CL
  7
standard
210
0
220
0
230
1
 50
0
 73
    2
 44
1
  0
MTEXT
  5
250
100
AcDbEntity
  8
schematic
  6
ByLayer
 62
  256
370
   -1
100
AcDbMText
 10
244.0724692740092
 20
164.9999213986281
 30
0
 40
2.7
 41
3.600000000000001
 71
    1
 72
    1
  1
PE
  7
standard
210
0
220
0
230
1
 50
0
 73
    2
 44
1
  0
MTEXT
  5
251
100
AcDbEntity
  8
schematic
  6
ByLayer
 62
  256
370
   -1
100
AcDbMText
 10
228.1397746760671
 20
151.3433260289634
 30
0
 40
2.7
 41
1.5
 71
    1
 72
    1
  1
+\P2\P4
  7
standard
210
0
220
0
230
1
 50
0
 73
    2
 44
1
  0
MTEXT
  5
252
100
AcDbEntity
  8
schematic
  6
ByLayer
 62
  256
370
   -1
100
AcDbMText
 10
233.7541527724848
 20
150.8881061833079
 30
0
 40
2.7
 41
1.500000000000168
 71
    1
 72
    1
  1
G\PN\PD
  7
standard
210
0
220
0
230
1
 50
0
 73
    2
 44
1
  0
MTEXT
  5
253
100
AcDbEntity
  8
schematic
  6
ByLayer
 62
  256
370
   -1
100
AcDbMText
 10
239.0650509717988
 20
150.8881061833079
 30
0
 40
2.7
 41
1.500000000000168
 71
    1
 72
    1
  1
D\PU\PP
  7
standard
210
0
220
0
230
1
 50
0
 73
    2
 44
1
  0
MTEXT
  5
254
100
AcDbEntity
  8
schematic
  6
ByLayer
 62
  256
370
   -1
100
AcDbMText
 10
244.6794290682165
 20
150.8881061833079
 30
0
 40
2.7
 41
1.5
 71
    1
 72
    1
  1
P\PE
  7
standard
210
0
220
0
230
1
 50
0
 73
    2
 44
1
  0
MTEXT
  5
255
100
AcDbEntity
  8
schematic
  6
ByLayer
 62
  256
370
   -1
100
AcDbMText
 10
251.0525069073933
 20
150.8881061833079
 30
0
 40
2.7
 41
1.200000000000168
 71
    1
 72
    1
  1
C\PL
  7
standard
210
0
220
0
230
1
 50
0
 73
    2
 44
1
  0
MTEXT
  5
256
100
AcDbEntity
  8
schematic
  6
ByLayer
 62
  256
370
   -1
100
AcDbMText
 10
236.0302520007622
 20
100.6621832126525
 30
0
 40
2.7
 41
12.5999994275942
 71
    1
 72
    1
  1
SERIALI\P
  7
standard
210
0
220
0
230
1
 50
0
 73
    2
 44
1
  0
MTEXT
  5
257
100
AcDbEntity
  8
schematic
  6
ByLayer
 62
  256
370
   -1
100
AcDbMText
 10
226.0154153963414
 20
97.47564429306402
 30
0
 40
2.7
 41
12.30000000000017
 71
    1
 72
    1
  1
CABINA
  7
standard
210
0
220
0
230
1
 50
0
 73
    2
 44
1
  0
MTEXT
  5
258
100
AcDbEntity
  8
schematic
  6
ByLayer
 62
  256
370
   -1
100
AcDbMText
 10
249.8385873189787
 20
97.47564429306402
 30
0
 40
2.7
 41
9.300000000000001
 71
    1
 72
    1
  1
VANO
  7
standard
210
0
220
0
230
1
 50
0
 73
    2
 44
1
  0
LWPOLYLINE
  5
259
100
AcDbEntity
  8
schematic
  6
ByLayer
 62
  256
370
   -1
100
AcDbPolyline
 90
    4
 70
    1
 43
0
 10
319.3832340891768
 20
276.4109994283537
 10
335.02412109375
 20
276.4109994283537
 10
335.02412109375
 20
258.2022056021342
 10
319.3832340891768
 20
258.2022056021342
  0
LWPOLYLINE
  5
25A
100
AcDbEntity
  8
schematic
  6
ByLayer
 62
  256
370
   -1
100
AcDbPolyline
 90
    4
 70
    1
 43
0
 10
338.992704363567
 20
250.7319312118903
 10
393.3856397675304
 20
250.7319312118903
 10
393.3856397675304
 20
218.9832650533537
 10
338.992704363567
 20
218.9832650533537
  0
LWPOLYLINE
  5
25B
100
AcDbEntity
  8
schematic
  6
ByLayer
 62
  256
370
   -1
100
AcDbPolyline
 90
    4
 70
    1
 43
0
 10
346.4629787538109
 20
202.1751476753049
 10
367.706571551067
 20
202.1751476753049
 10
367.706571551067
 20
170.1930354420732
 10
346.4629787538109
 20
170.1930354420732
  0
LWPOLYLINE
  5
25C
100
AcDbEntity
  8
schematic
  6
ByLayer
 62
  256
370
   -1
100
AcDbPolyline
 90
    4
 70
    1
 43
0
 10
372.3754930449695
 20
202.1751476753049
 10
392.9187476181402
 20
202.1751476753049
 10
392.9187476181402
 20
170.1930354420732
 10
372.3754930449695
 20
170.1930354420732
  0
LWPOLYLINE
  5
25D
100
AcDbEntity
  8
schematic
  6
ByLayer
 62
  256
370
   -1
100
AcDbPolyline
 90
    4
 70
    1
 43
0
 10
319.3832340891768
 20
152.451133765244
 10
355.5673756669207
 20
152.451133765244
 10
355.5673756669207
 20
101.3264434070122
 10
319.3832340891768
 20
101.3264434070122
  0
INSERT
  5
25E
100
AcDbEntity
  8
schematic
  6
ByLayer
 62
  256
370
   -1
100
AcDbBlockReference
  2
rjconnector
 10
347.3717937336858
 20
220.1054354039635
 30
0
 41
0.9
 42
0.9
 43
0
 50
0
 70
    1
 71
    1
 44
0.9
 45
0.9
  0
INSERT
  5
25F
100
AcDbEntity
  8
schematic
  6
ByLayer
 62
  256
370
   -1
100
AcDbBlockReference
  2
rjconnector
 10
347.6052398083809
 20
190.457783917683
 30
0
 41
0.9
 42
0.9
 43
0
 50
0
 70
    1
 71
    1
 44
0.9
 45
0.9
  0
INSERT
  5
260
100
AcDbEntity
  8
schematic
  6
ByLayer
 62
  256
370
   -1
100
AcDbBlockReference
  2
rjconnector
 10
357.8768670949663
 20
190.2243378429879
 30
0
 41
0.9
 42
0.9
 43
0
 50
0
 70
    1
 71
    1
 44
0.9
 45
0.9
  0
INSERT
  5
261
100
AcDbEntity
  8
schematic
  6
ByLayer
 62
  256
370
   -1
100
AcDbBlockReference
  2
rjconnector
 10
373.0508619501492
 20
190.457783917683
 30
0
 41
0.9
 42
0.9
 43
0
 50
0
 70
    1
 71
    1
 44
0.9
 45
0.9
  0
INSERT
  5
262
100
AcDbEntity
  8
schematic
  6
ByLayer
 62
  256
370
   -1
100
AcDbBlockReference
  2
rjconnector
 10
383.3224892367346
 20
190.2243378429879
 30
0
 41
0.9
 42
0.9
 43
0
 50
0
 70
    1
 71
    1
 44
0.9
 45
0.9
  0
INSERT
  5
263
100
AcDbEntity
  8
schematic
  6
ByLayer
 62
  256
370
   -1
100
AcDbBlockReference
  2
rjconnector
 10
344.1035486879541
 20
126.0266673018293
 30
0
 41
0.9
 42
0.9
 43
0
 50
0
 70
    1
 71
    1
 44
0.9
 45
0.9
  0
INSERT
  5
264
100
AcDbEntity
  8
schematic
  6
ByLayer
 62
  256
370
   -1
100
AcDbBlockReference
  2
rjconnector
 10
327.9957695339907
 20
112.9536871189025
 30
0
 41
0.9
 42
0.9
 43
0
 50
0
 70
    1
 71
    1
 44
0.9
 45
0.9
  0
INSERT
  5
265
100
AcDbEntity
  8
schematic
  6
ByLayer
 62
  256
370
   -1
100
AcDbBlockReference
  2
rjconnector
 10
338.267396820576
 20
112.7202410442074
 30
0
 41
0.9
 42
0.9
 43
0
 50
0
 70
    1
 71
    1
 44
0.9
 45
0.9
  0
INSERT
  5
266
100
AcDbEntity
  8
schematic
  6
ByLayer
 62
  256
370
   -1
100
AcDbBlockReference
  2
mcp2014x-connector
 10
340.0880546516306
 20
231.4213962461891
 30
0
 41
0.9
 42
0.9
 43
0
 50
0
 70
    1
 71
    1
 44
0.9
 45
0.9
  0
LINE
  5
267
100
AcDbEntity
  8
schematic
  6
ByLayer
 62
  256
370
   -1
100
AcDbLine
 10
339.0627381859757
 20
233.7243235518293
 11
334.2664824695121
 21
233.7243235518293
  0
LINE
  5
268
100
AcDbEntity
  8
schematic
  6
ByLayer
 62
  256
370
   -1
100
AcDbLine
 10
334.2664824695121
 20
233.7243235518293
 11
334.5062952553354
 21
152.4277891577744
  0
LINE
  5
269
100
AcDbEntity
  8
schematic
  6
ByLayer
 62
  256
370
   -1
100
AcDbLine
 10
329.2304139672256
 20
258.1852277057927
 11
329.2304139672256
 21
152.4277891577744
  0
LINE
  5
26A
100
AcDbEntity
  8
schematic
  6
ByLayer
 62
  256
370
   -1
100
AcDbLine
 10
323.2350943216463
 20
152.4277891577744
 11
323.2350943216463
 21
258.1852277057927
  0
LINE
  5
26B
100
AcDbEntity
  8
schematic
  6
ByLayer
 62
  256
370
   -1
100
AcDbLine
 10
329.2304139672256
 20
246.9140267721037
 11
339.3025509717988
 21
246.9140267721037
  0
LINE
  5
26C
100
AcDbEntity
  8
schematic
  6
ByLayer
 62
  256
370
   -1
100
AcDbLine
 10
323.2350943216463
 20
240.6788943407013
 11
339.0627381859757
 21
240.6788943407013
  0
LWPOLYLINE
  5
26D
100
AcDbEntity
  8
schematic
  6
ByLayer
 62
  256
370
   -1
100
AcDbPolyline
 90
    4
 70
    1
 43
0
 10
350.4136815547944
 20
222.4419984898919
 10
353.5963531947718
 20
222.4419984898919
 10
353.5963531947718
 20
224.5637795832102
 10
350.4136815547944
 20
224.5637795832102
  0
LWPOLYLINE
  5
26E
100
AcDbEntity
  8
schematic
  6
ByLayer
 62
  256
370
   -1
100
AcDbPolyline
 90
    4
 70
    1
 43
0
 10
350.5020891003493
 20
193.2675084567654
 10
353.6847607403268
 20
193.2675084567654
 10
353.6847607403268
 20
195.3892895500837
 10
350.5020891003493
 20
195.3892895500837
  0
LWPOLYLINE
  5
26F
100
AcDbEntity
  8
schematic
  6
ByLayer
 62
  256
370
   -1
100
AcDbPolyline
 90
    4
 70
    1
 43
0
 10
360.7573643847211
 20
193.2675084567654
 10
363.9400360246985
 20
193.2675084567654
 10
363.9400360246985
 20
195.3892895500837
 10
360.7573643847211
 20
195.3892895500837
  0
LWPOLYLINE
  5
270
100
AcDbEntity
  8
schematic
  6
ByLayer
 62
  256
370
   -1
100
AcDbPolyline
 90
    4
 70
    1
 43
0
 10
375.9634622201688
 20
193.3559160023203
 10
379.1461338601462
 20
193.3559160023203
 10
379.1461338601462
 20
195.4776970956386
 10
375.9634622201688
 20
195.4776970956386
  0
LWPOLYLINE
  5
271
100
AcDbEntity
  8
schematic
  6
ByLayer
 62
  256
370
   -1
100
AcDbPolyline
 90
    4
 70
    1
 43
0
 10
386.2187375045405
 20
193.3559160023203
 10
389.401409144518
 20
193.3559160023203
 10
389.401409144518
 20
195.4776970956386
 10
386.2187375045405
 20
195.4776970956386
  0
LINE
  5
272
100
AcDbEntity
  8
schematic
  6
DOTTINY
 62
  256
370
   -1
100
AcDbLine
 10
351.2977446608232
 20
222.3533414634147
 11
351.2977446608232
 21
195.3011414634147
  0
LINE
  5
273
100
AcDbEntity
  8
schematic
  6
DOTTINY
 62
  256
370
   -1
100
AcDbLine
 10
352.9775046608232
 20
195.3893414634147
 11
352.9775046608232
 21
222.2651414634147
  0
LINE
  5
274
100
AcDbEntity
  8
schematic
  6
DOTTINY
 62
  256
370
   -1
100
AcDbLine
 10
361.5530646608232
 20
195.3011414634147
 11
361.6414446608231
 21
208.0316414634147
  0
LINE
  5
275
100
AcDbEntity
  8
schematic
  6
DOTTINY
 62
  256
370
   -1
100
AcDbLine
 10
361.6414446608231
 20
208.0316414634147
 11
378.4386846608231
 21
208.0316414634147
  0
LINE
  5
276
100
AcDbEntity
  8
schematic
  6
DOTTINY
 62
  256
370
   -1
100
AcDbLine
 10
378.4386846608231
 20
208.0316414634147
 11
378.5268846608232
 21
195.3893414634147
  0
LINE
  5
277
100
AcDbEntity
  8
schematic
  6
DOTTINY
 62
  256
370
   -1
100
AcDbLine
 10
376.8474846608232
 20
195.3893414634147
 11
376.8474846608232
 21
206.4404414634147
  0
LINE
  5
278
100
AcDbEntity
  8
schematic
  6
DOTTINY
 62
  256
370
   -1
100
AcDbLine
 10
376.8474846608232
 20
206.4404414634147
 11
363.2327346608232
 21
206.4404414634147
  0
LINE
  5
279
100
AcDbEntity
  8
schematic
  6
DOTTINY
 62
  256
370
   -1
100
AcDbLine
 10
363.2327346608232
 20
206.4404414634147
 11
363.2327346608232
 21
195.3011414634147
  0
LINE
  5
27A
100
AcDbEntity
  8
schematic
  6
ByLayer
 62
  256
370
   -1
100
AcDbLine
 10
339.716368542648
 20
152.4232224103883
 11
339.716368542648
 21
160.203086419222
  0
LINE
  5
27B
100
AcDbEntity
  8
schematic
  6
ByLayer
 62
  256
370
   -1
100
AcDbLine
 10
345.8164891859381
 20
160.203086419222
 11
345.8164891859381
 21
152.3348148648334
  0
LEADER
  5
27C
100
AcDbEntity
  8
schematic
  6
ByLayer
 62
  256
370
   -1
100
AcDbLeader
  3
Standard
 71
    1
 72
    0
 73
    3
 74
    0
 75
    0
 40
1
 41
10
 76
2
 76
2
 10
339.804776088203
 20
161.0871618747713
 30
0
 10
339.804776088203
 20
158.8769732358981
 30
0
  0
LEADER
  5
27D
100
AcDbEntity
  8
schematic
  6
ByLayer
 62
  256
370
   -1
100
AcDbLeader
  3
Standard
 71
    1
 72
    0
 73
    3
 74
    0
 75
    0
 40
1
 41
10
 76
2
 76
2
 10
345.904896731493
 20
161.0871618747713
 30
0
 10
345.904896731493
 20
158.6117505992333
 30
0
  0
LWPOLYLINE
  5
27E
100
AcDbEntity
  8
schematic
  6
ByLayer
 62
  256
370
   -1
100
AcDbPolyline
 90
    4
 70
    1
 43
0
 10
320.5761349300059
 20
102.0972271032451
 10
334.8318516507382
 20
102.0972271032451
 10
334.8318516507382
 20
106.0755666532169
 10
320.5761349300059
 20
106.0755666532169
  0
LWPOLYLINE
  5
27F
100
AcDbEntity
  8
schematic
  6
ByLayer
 62
  256
370
   -1
100
AcDbPolyline
 90
    4
 70
    1
 43
0
 10
340.6888515437522
 20
102.0972271032451
 10
354.6130399686535
 20
102.0972271032451
 10
354.6130399686535
 20
106.0755666532169
 10
340.6888515437522
 20
106.0755666532169
  0
LWPOLYLINE
  5
280
100
AcDbEntity
  8
schematic
  6
ByLayer
 62
  256
370
   -1
100
AcDbPolyline
 90
    4
 70
    1
 43
0
 10
330.8314102143777
 20
115.2478495045407
 10
334.0140818543551
 20
115.2478495045407
 10
334.0140818543551
 20
117.369630597859
 10
330.8314102143777
 20
117.369630597859
  0
LWPOLYLINE
  5
281
100
AcDbEntity
  8
schematic
  6
ByLayer
 62
  256
370
   -1
100
AcDbPolyline
 90
    4
 70
    1
 43
0
 10
341.0866854987494
 20
115.2478495045407
 10
344.2693571387268
 20
115.2478495045407
 10
344.2693571387268
 20
117.369630597859
 10
341.0866854987494
 20
117.369630597859
  0
LWPOLYLINE
  5
282
100
AcDbEntity
  8
schematic
  6
ByLayer
 62
  256
370
   -1
100
AcDbPolyline
 90
    4
 70
    1
 43
0
 10
346.9657872781522
 20
128.7300002016674
 10
350.1484589181296
 20
128.7300002016674
 10
350.1484589181296
 20
130.8517812949856
 10
346.9657872781522
 20
130.8517812949856
  0
LINE
  5
283
100
AcDbEntity
  8
schematic
  6
DOTTINY
 62
  256
370
   -1
100
AcDbLine
 10
347.4851646608232
 20
142.8752414634147
 11
347.4851646608232
 21
130.8575414634147
  0
LINE
  5
284
100
AcDbEntity
  8
schematic
  6
DOTTINY
 62
  256
370
   -1
100
AcDbLine
 10
349.2809346608232
 20
130.9952414634147
 11
349.2809346608232
 21
140.5271414634147
  0
LINE
  5
285
100
AcDbEntity
  8
schematic
  6
DOTTINY
 62
  256
370
   -1
100
AcDbLine
 10
386.7159846608232
 20
142.8752414634147
 11
347.4851646608232
 21
142.8752414634147
  0
LINE
  5
286
100
AcDbEntity
  8
schematic
  6
DOTTINY
 62
  256
370
   -1
100
AcDbLine
 10
349.2809346608232
 20
140.5271414634147
 11
388.6500846608232
 21
140.5271414634147
  0
LINE
  5
287
100
AcDbEntity
  8
schematic
  6
DOTTINY
 62
  256
370
   -1
100
AcDbLine
 10
386.7159846608232
 20
193.2950414634147
 11
386.7159846608232
 21
142.8752414634147
  0
LINE
  5
288
100
AcDbEntity
  8
schematic
  6
DOTTINY
 62
  256
370
   -1
100
AcDbLine
 10
388.6500846608232
 20
140.5271414634147
 11
388.6500846608232
 21
193.1573414634147
  0
LWPOLYLINE
  5
289
100
AcDbEntity
  8
schematic
  6
DASHEDTINY
 62
  256
370
   -1
100
AcDbPolyline
 90
    5
 70
    1
 43
0
 10
313.003789538872
 20
94.41219512195119
 10
404.8202529535061
 20
94.41219512195119
 10
404.8202529535061
 20
281.3048780487805
 10
313.003789538872
 20
281.3048780487805
 10
313.003789538872
 20
281.3048780487805
  0
MTEXT
  5
28A
100
AcDbEntity
  8
schematic
  6
ByLayer
 62
  256
370
   -1
100
AcDbMText
 10
322.8244414538872
 20
273.6457245617378
 30
0
 40
2.7
 41
8.100000000000001
 71
    1
 72
    1
  1
AMC1\P
  7
standard
210
0
220
0
230
1
 50
0
 73
    2
 44
1
  0
MTEXT
  5
28B
100
AcDbEntity
  8
schematic
  6
ByLayer
 62
  256
370
   -1
100
AcDbMText
 10
322.6727015053353
 20
262.1134884717988
 30
0
 40
2.7
 41
1.2
 71
    1
 72
    1
  1
+
  7
standard
210
0
220
0
230
1
 50
0
 73
    2
 44
1
  0
MTEXT
  5
28C
100
AcDbEntity
  8
schematic
  6
ByLayer
 62
  256
370
   -1
100
AcDbMText
 10
328.5905594988567
 20
262.4169683689025
 30
0
 40
2.7
 41
1.2
 71
    1
 72
    1
  1
-
  7
standard
210
0
220
0
230
1
 50
0
 73
    2
 44
1
  0
MTEXT
  5
28D
100
AcDbEntity
  8
schematic
  6
ByLayer
 62
  256
370
   -1
100
AcDbMText
 10
323.7348811451981
 20
265.3000273913872
 30
0
 40
2.7
 41
6.300000000000001
 71
    1
 72
    1
  1
24V
  7
standard
210
0
220
0
230
1
 50
0
 73
    2
 44
1
  0
MTEXT
  5
28E
100
AcDbEntity
  8
schematic
  6
ByLayer
 62
  256
370
   -1
100
AcDbMText
 10
358.1798494664634
 20
244.3599144912348
 30
0
 40
2.7
 41
16.80000000000017
 71
    1
 72
    1
  1
MCP2015X
  7
standard
210
0
220
0
230
1
 50
0
 73
    2
 44
1
  0
MTEXT
  5
28F
100
AcDbEntity
  8
schematic
  6
ByLayer
 62
  256
370
   -1
100
AcDbMText
 10
340.8814953315549
 20
242.0838152629573
 30
0
 40
2.7
 41
1.2
 71
    1
 72
    1
  1
+
  7
standard
210
0
220
0
230
1
 50
0
 73
    2
 44
1
  0
MTEXT
  5
290
100
AcDbEntity
  8
schematic
  6
ByLayer
 62
  256
370
   -1
100
AcDbMText
 10
341.1849752286586
 20
248.608633050686
 30
0
 40
2.7
 41
1.2
 71
    1
 72
    1
  1
-
  7
standard
210
0
220
0
230
1
 50
0
 73
    2
 44
1
  0
INSERT
  5
291
100
AcDbEntity
  8
schematic
  6
ByLayer
 62
  256
370
   -1
100
AcDbBlockReference
  2
junction
 10
329.197519293064
 20
246.9394936166159
 30
0
 41
0.9
 42
0.9
 43
0
 50
0
 70
    1
 71
    1
 44
0.9
 45
0.9
  0
INSERT
  5
292
100
AcDbEntity
  8
schematic
  6
ByLayer
 62
  256
370
   -1
100
AcDbBlockReference
  2
junction
 10
323.2796612995427
 20
240.7181557259909
 30
0
 41
0.9
 42
0.9
 43
0
 50
0
 70
    1
 71
    1
 44
0.9
 45
0.9
  0
MTEXT
  5
293
100
AcDbEntity
  8
schematic
  6
ByLayer
 62
  256
370
   -1
100
AcDbMText
 10
344.6749940453506
 20
165.1516613471799
 30
0
 40
2.7
 41
3.300000000000168
 71
    1
 72
    1
  1
CL
  7
standard
210
0
220
0
230
1
 50
0
 73
    2
 44
1
  0
MTEXT
  5
294
100
AcDbEntity
  8
schematic
  6
ByLayer
 62
  256
370
   -1
100
AcDbMText
 10
338.6053961032774
 20
164.9999213986281
 30
0
 40
2.7
 41
3.600000000000001
 71
    1
 72
    1
  1
PE
  7
standard
210
0
220
0
230
1
 50
0
 73
    2
 44
1
  0
MTEXT
  5
295
100
AcDbEntity
  8
schematic
  6
ByLayer
 62
  256
370
   -1
100
AcDbMText
 10
322.6727015053353
 20
151.3433260289634
 30
0
 40
2.7
 41
1.5
 71
    1
 72
    1
  1
+\P2\P4
  7
standard
210
0
220
0
230
1
 50
0
 73
    2
 44
1
  0
MTEXT
  5
296
100
AcDbEntity
  8
schematic
  6
ByLayer
 62
  256
370
   -1
100
AcDbMText
 10
328.287079601753
 20
150.8881061833079
 30
0
 40
2.7
 41
1.500000000000168
 71
    1
 72
    1
  1
G\PN\PD
  7
standard
210
0
220
0
230
1
 50
0
 73
    2
 44
1
  0
MTEXT
  5
297
100
AcDbEntity
  8
schematic
  6
ByLayer
 62
  256
370
   -1
100
AcDbMText
 10
333.597977801067
 20
150.8881061833079
 30
0
 40
2.7
 41
1.500000000000168
 71
    1
 72
    1
  1
D\PU\PP
  7
standard
210
0
220
0
230
1
 50
0
 73
    2
 44
1
  0
MTEXT
  5
298
100
AcDbEntity
  8
schematic
  6
ByLayer
 62
  256
370
   -1
100
AcDbMText
 10
339.2123558974848
 20
150.8881061833079
 30
0
 40
2.7
 41
1.5
 71
    1
 72
    1
  1
P\PE
  7
standard
210
0
220
0
230
1
 50
0
 73
    2
 44
1
  0
MTEXT
  5
299
100
AcDbEntity
  8
schematic
  6
ByLayer
 62
  256
370
   -1
100
AcDbMText
 10
345.5854337366616
 20
150.8881061833079
 30
0
 40
2.7
 41
1.200000000000168
 71
    1
 72
    1
  1
C\PL
  7
standard
210
0
220
0
230
1
 50
0
 73
    2
 44
1
  0
MTEXT
  5
29A
100
AcDbEntity
  8
schematic
  6
ByLayer
 62
  256
370
   -1
100
AcDbMText
 10
330.5631788300305
 20
100.6621832126525
 30
0
 40
2.7
 41
12.5999994275942
 71
    1
 72
    1
  1
SERIALI\P
  7
standard
210
0
220
0
230
1
 50
0
 73
    2
 44
1
  0
MTEXT
  5
29B
100
AcDbEntity
  8
schematic
  6
ByLayer
 62
  256
370
   -1
100
AcDbMText
 10
320.5483422256098
 20
97.47564429306402
 30
0
 40
2.7
 41
12.30000000000017
 71
    1
 72
    1
  1
CABINA
  7
standard
210
0
220
0
230
1
 50
0
 73
    2
 44
1
  0
MTEXT
  5
29C
100
AcDbEntity
  8
schematic
  6
ByLayer
 62
  256
370
   -1
100
AcDbMText
 10
344.3715141482469
 20
97.47564429306402
 30
0
 40
2.7
 41
9.300000000000001
 71
    1
 72
    1
  1
VANO
  7
standard
210
0
220
0
230
1
 50
0
 73
    2
 44
1
  0
LINE
  5
29D
100
AcDbEntity
  8
schematic
  6
DOTTINY
 62
  256
370
   -1
100
AcDbLine
 10
46.5262
 20
108.602
 11
46.5262
 21
115.214
  0
LINE
  5
29E
100
AcDbEntity
  8
schematic
  6
DOTTINY
 62
  256
370
   -1
100
AcDbLine
 10
48.73
 20
115.091
 11
48.73
 21
110.683
  0
LINE
  5
29F
100
AcDbEntity
  8
schematic
  6
DOTTINY
 62
  256
370
   -1
100
AcDbLine
 10
48.73
 20
110.683
 11
81.0535
 21
110.683
  0
LINE
  5
2A0
100
AcDbEntity
  8
schematic
  6
DOTTINY
 62
  256
370
   -1
100
AcDbLine
 10
78.8496
 20
108.602
 11
46.5262
 21
108.602
  0
LINE
  5
2A1
100
AcDbEntity
  8
schematic
  6
DOTTINY
 62
  256
370
   -1
100
AcDbLine
 10
78.9721
 20
80.8086
 11
78.8496
 21
108.602
  0
LINE
  5
2A2
100
AcDbEntity
  8
schematic
  6
DOTTINY
 62
  256
370
   -1
100
AcDbLine
 10
81.0535
 20
110.683
 11
81.0535
 21
83.0125
  0
LINE
  5
2A3
100
AcDbEntity
  8
schematic
  6
DOTTINY
 62
  256
370
   -1
100
AcDbLine
 10
81.0535
 20
83.0125
 11
124.396
 21
83.0125
  0
LINE
  5
2A4
100
AcDbEntity
  8
schematic
  6
DOTTINY
 62
  256
370
   -1
100
AcDbLine
 10
126.478
 20
80.8086
 11
78.9721
 21
80.8086
  0
LINE
  5
2A5
100
AcDbEntity
  8
schematic
  6
DOTTINY
 62
  256
370
   -1
100
AcDbLine
 10
124.396
 20
83.0125
 11
124.396
 21
110.806
  0
LINE
  5
2A6
100
AcDbEntity
  8
schematic
  6
DOTTINY
 62
  256
370
   -1
100
AcDbLine
 10
126.478
 20
108.724
 11
126.478
 21
80.8086
  0
LINE
  5
2A7
100
AcDbEntity
  8
schematic
  6
DOTTINY
 62
  256
370
   -1
100
AcDbLine
 10
124.396
 20
110.806
 11
141.293
 21
110.806
  0
LINE
  5
2A8
100
AcDbEntity
  8
schematic
  6
DOTTINY
 62
  256
370
   -1
100
AcDbLine
 10
143.129
 20
108.724
 11
126.478
 21
108.724
  0
LINE
  5
2A9
100
AcDbEntity
  8
schematic
  6
DOTTINY
 62
  256
370
   -1
100
AcDbLine
 10
141.293
 20
110.806
 11
141.293
 21
115.214
  0
LINE
  5
2AA
100
AcDbEntity
  8
schematic
  6
DOTTINY
 62
  256
370
   -1
100
AcDbLine
 10
143.129
 20
115.214
 11
143.129
 21
108.724
  0
MTEXT
  5
2AB
100
AcDbEntity
  8
schematic
  6
ByLayer
 62
  256
370
   -1
100
AcDbMText
 10
35.59698932926828
 20
125.5515434451219
 30
0
 40
3
 41
29.33333269732688
 71
    1
 72
    1
  1
ECACONSER-PE
  7
standard
210
0
220
0
230
1
 50
0
 73
    2
 44
1
  0
MTEXT
  5
2AC
100
AcDbEntity
  8
schematic
  6
ByLayer
 62
  256
370
   -1
100
AcDbMText
 10
130.3619474085366
 20
125.5515434451219
 30
0
 40
3
 41
29.33333269732688
 71
    1
 72
    1
  1
ECACONSER-PE
  7
standard
210
0
220
0
230
1
 50
0
 73
    2
 44
1
  0
MTEXT
  5
2AD
100
AcDbEntity
  8
schematic
  6
ByLayer
 62
  256
370
   -1
100
AcDbMText
 10
225.7682926829268
 20
125.2308498475609
 30
0
 40
3
 41
29.33333269732688
 71
    1
 72
    1
  1
ECACONSER-PE
  7
standard
210
0
220
0
230
1
 50
0
 73
    2
 44
1
  0
MTEXT
  5
2AE
100
AcDbEntity
  8
schematic
  6
ByLayer
 62
  256
370
   -1
100
AcDbMText
 10
320.3729039634146
 20
125.2308498475609
 30
0
 40
3
 41
29.33333269732688
 71
    1
 72
    1
  1
ECACONSER-PE
  7
standard
210
0
220
0
230
1
 50
0
 73
    2
 44
1
  0
LINE
  5
2AF
100
AcDbEntity
  8
schematic
  6
DOTTINY
 62
  256
370
   -1
100
AcDbLine
 10
153.4518864329268
 20
115.2893483231707
 11
153.2915396341463
 21
110.9599847560975
  0
LINE
  5
2B0
100
AcDbEntity
  8
schematic
  6
DOTTINY
 62
  256
370
   -1
100
AcDbLine
 10
153.2915396341463
 20
110.9599847560975
 11
177.3435594512195
 21
110.9599847560975
  0
LINE
  5
2B1
100
AcDbEntity
  8
schematic
  6
DOTTINY
 62
  256
370
   -1
100
AcDbLine
 10
177.3435594512195
 20
110.9599847560975
 11
177.3435594512195
 21
83.05964176829266
  0
LINE
  5
2B2
100
AcDbEntity
  8
schematic
  6
DOTTINY
 62
  256
370
   -1
100
AcDbLine
 10
177.3435594512195
 20
83.05964176829266
 11
219.8354611280487
 21
83.05964176829266
  0
LINE
  5
2B3
100
AcDbEntity
  8
schematic
  6
DOTTINY
 62
  256
370
   -1
100
AcDbLine
 10
219.8354611280487
 20
83.05964176829266
 11
219.8354611280487
 21
111.120331554878
  0
LINE
  5
2B4
100
AcDbEntity
  8
schematic
  6
DOTTINY
 62
  256
370
   -1
100
AcDbLine
 10
219.8354611280487
 20
111.120331554878
 11
237.1529153963414
 21
111.120331554878
  0
LINE
  5
2B5
100
AcDbEntity
  8
schematic
  6
DOTTINY
 62
  256
370
   -1
100
AcDbLine
 10
237.1529153963414
 20
111.120331554878
 11
237.1529153963414
 21
115.2893483231707
  0
LINE
  5
2B6
100
AcDbEntity
  8
schematic
  6
DOTTINY
 62
  256
370
   -1
100
AcDbLine
 10
238.7563833841463
 20
115.1290015243902
 11
238.7563833841463
 21
108.8754763719512
  0
LINE
  5
2B7
100
AcDbEntity
  8
schematic
  6
DOTTINY
 62
  256
370
   -1
100
AcDbLine
 10
238.7563833841463
 20
108.8754763719512
 11
222.4010099085365
 21
108.8754763719512
  0
LINE
  5
2B8
100
AcDbEntity
  8
schematic
  6
DOTTINY
 62
  256
370
   -1
100
AcDbLine
 10
222.4010099085365
 20
108.8754763719512
 11
222.561356707317
 21
80.81478658536584
  0
LINE
  5
2B9
100
AcDbEntity
  8
schematic
  6
DOTTINY
 62
  256
370
   -1
100
AcDbLine
 10
222.561356707317
 20
80.81478658536584
 11
174.4573170731707
 21
80.81478658536584
  0
LINE
  5
2BA
100
AcDbEntity
  8
schematic
  6
DOTTINY
 62
  256
370
   -1
100
AcDbLine
 10
174.4573170731707
 20
80.81478658536584
 11
174.4573170731707
 21
108.7151295731707
  0
LINE
  5
2BB
100
AcDbEntity
  8
schematic
  6
DOTTINY
 62
  256
370
   -1
100
AcDbLine
 10
174.4573170731707
 20
108.7151295731707
 11
151.5277248475609
 21
108.7151295731707
  0
LINE
  5
2BC
100
AcDbEntity
  8
schematic
  6
DOTTINY
 62
  256
370
   -1
100
AcDbLine
 10
151.5277248475609
 20
108.7151295731707
 11
151.5277248475609
 21
115.2893483231707
  0
LINE
  5
2BD
100
AcDbEntity
  8
schematic
  6
DOTTINY
 62
  256
370
   -1
100
AcDbLine
 10
249.0185785060975
 20
115.1290015243902
 11
249.0185785060975
 21
111.2806783536585
  0
LINE
  5
2BE
100
AcDbEntity
  8
schematic
  6
DOTTINY
 62
  256
370
   -1
100
AcDbLine
 10
249.0185785060975
 20
111.2806783536585
 11
271.3067835365853
 21
111.2806783536585
  0
LINE
  5
2BF
100
AcDbEntity
  8
schematic
  6
DOTTINY
 62
  256
370
   -1
100
AcDbLine
 10
271.3067835365853
 20
111.2806783536585
 11
271.3067835365853
 21
83.21998856707316
  0
LINE
  5
2C0
100
AcDbEntity
  8
schematic
  6
DOTTINY
 62
  256
370
   -1
100
AcDbLine
 10
271.3067835365853
 20
83.21998856707316
 11
314.279725609756
 21
83.21998856707316
  0
LINE
  5
2C1
100
AcDbEntity
  8
schematic
  6
DOTTINY
 62
  256
370
   -1
100
AcDbLine
 10
314.279725609756
 20
83.21998856707316
 11
314.4400724085365
 21
111.2806783536585
  0
LINE
  5
2C2
100
AcDbEntity
  8
schematic
  6
DOTTINY
 62
  256
370
   -1
100
AcDbLine
 10
314.4400724085365
 20
111.2806783536585
 11
331.2764862804877
 21
111.2806783536585
  0
LINE
  5
2C3
100
AcDbEntity
  8
schematic
  6
DOTTINY
 62
  256
370
   -1
100
AcDbLine
 10
331.2764862804877
 20
111.2806783536585
 11
331.1161394817073
 21
115.2893483231707
  0
LINE
  5
2C4
100
AcDbEntity
  8
schematic
  6
DOTTINY
 62
  256
370
   -1
100
AcDbLine
 10
333.2006478658536
 20
115.4496951219512
 11
333.2006478658536
 21
109.0358231707317
  0
LINE
  5
2C5
100
AcDbEntity
  8
schematic
  6
DOTTINY
 62
  256
370
   -1
100
AcDbLine
 10
333.2006478658536
 20
109.0358231707317
 11
316.6849275914633
 21
109.0358231707317
  0
LINE
  5
2C6
100
AcDbEntity
  8
schematic
  6
DOTTINY
 62
  256
370
   -1
100
AcDbLine
 10
316.6849275914633
 20
109.0358231707317
 11
316.5245807926829
 21
80.97513338414632
  0
LINE
  5
2C7
100
AcDbEntity
  8
schematic
  6
DOTTINY
 62
  256
370
   -1
100
AcDbLine
 10
316.5245807926829
 20
80.81478658536584
 11
268.7412347560975
 21
80.81478658536584
  0
LINE
  5
2C8
100
AcDbEntity
  8
schematic
  6
DOTTINY
 62
  256
370
   -1
100
AcDbLine
 10
268.7412347560975
 20
80.81478658536584
 11
268.580887957317
 21
108.8754763719512
  0
LINE
  5
2C9
100
AcDbEntity
  8
schematic
  6
DOTTINY
 62
  256
370
   -1
100
AcDbLine
 10
268.580887957317
 20
108.8754763719512
 11
247.2547637195121
 21
108.8754763719512
  0
LINE
  5
2CA
100
AcDbEntity
  8
schematic
  6
DOTTINY
 62
  256
370
   -1
100
AcDbLine
 10
247.2547637195121
 20
108.8754763719512
 11
247.2547637195121
 21
115.2893483231707
  0
MTEXT
  5
2CB
100
AcDbEntity
  8
schematic
  6
ByLayer
 62
  256
370
   -1
100
AcDbMText
 10
159.8505818041819
 20
277.0174541756847
 30
0
 40
3.6
 41
42.19999923679249
 71
    1
 72
    1
  1
QUADRO SLAVE 1
  7
standard
210
0
220
0
230
1
 50
0
 73
    2
 44
1
  0
MTEXT
  5
2CC
100
AcDbEntity
  8
schematic
  6
ByLayer
 62
  256
370
   -1
100
AcDbMText
 10
255.416566465005
 20
277.0174541756847
 30
0
 40
3.6
 41
42.99999923679249
 71
    1
 72
    1
  1
QUADRO SLAVE 2
  7
standard
210
0
220
0
230
1
 50
0
 73
    2
 44
1
  0
MTEXT
  5
2CD
100
AcDbEntity
  8
schematic
  6
ByLayer
 62
  256
370
   -1
100
AcDbMText
 10
349.9494932942733
 20
277.0174541756847
 30
0
 40
3.6
 41
42.99999923679271
 71
    1
 72
    1
  1
QUADRO SLAVE 3
  7
standard
210
0
220
0
230
1
 50
0
 73
    2
 44
1
  0
MTEXT
  5
2CE
100
AcDbEntity
  8
schematic
  6
CONTINUOUS
 62
  256
370
   -1
100
AcDbMText
 10
33.20121951219512
 20
31.99390243902439
 30
0
 40
4
 41
58.11110941509416
 71
    1
 72
    1
  1
CONNESSIONI IMPIANTI\PIN BATTERIA
  7
standard
210
0
220
0
230
1
 50
0
 73
    2
 44
1
  0
MTEXT
  5
2CF
100
AcDbEntity
  8
labels
  6
ByLayer
 62
  256
370
   -1
100
AcDbMText
 10
56.71508784247496
 20
235.8228955441485
 30
0
 40
2.7
 41
3.300000000000168
 71
    1
 72
    1
  1
62
  7
standard
210
0
220
0
230
1
 50
0
 73
    2
 44
1
  0
MTEXT
  5
2D0
100
AcDbEntity
  8
labels
  6
ByLayer
 62
  256
370
   -1
100
AcDbMText
 10
151.2480146717432
 20
235.8228955441485
 30
0
 40
2.7
 41
3.300000000000168
 71
    1
 72
    1
  1
62
  7
standard
210
0
220
0
230
1
 50
0
 73
    2
 44
1
  0
MTEXT
  5
2D1
100
AcDbEntity
  8
labels
  6
ByLayer
 62
  256
370
   -1
100
AcDbMText
 10
246.8139993325664
 20
235.8228955441485
 30
0
 40
2.7
 41
3.300000000000168
 71
    1
 72
    1
  1
62
  7
standard
210
0
220
0
230
1
 50
0
 73
    2
 44
1
  0
MTEXT
  5
2D2
100
AcDbEntity
  8
labels
  6
ByLayer
 62
  256
370
   -1
100
AcDbMText
 10
341.3469261618347
 20
235.8228955441485
 30
0
 40
2.7
 41
3.300000000000168
 71
    1
 72
    1
  1
62
  7
standard
210
0
220
0
230
1
 50
0
 73
    2
 44
1
  0
MTEXT
  5
2D3
100
AcDbEntity
  8
schematic
  6
ByLayer
 62
  256
370
   -1
100
AcDbMText
 10
44
 20
135
 30
0
 40
2
 41
13.77777777777805
 71
    1
 72
    1
  1
mcp-madre
  7
standard
210
0
220
0
230
1
 50
0
 73
    2
 44
1
  0
MTEXT
  5
2D4
100
AcDbEntity
  8
schematic
  6
ByLayer
 62
  256
370
   -1
100
AcDbMText
 10
61
 20
113
 30
0
 40
2
 41
8.444444444444537
 71
    1
 72
    1
  1
quadro
  7
standard
210
0
220
0
230
1
 50
0
 73
    2
 44
1
  0
MTEXT
  5
2D5
100
AcDbEntity
  8
schematic
  6
ByLayer
 62
  256
370
   -1
100
AcDbMText
 10
37
 20
113
 30
0
 40
2
 41
8.444444444444537
 71
    1
 72
    1
  1
quadro
  7
standard
210
0
220
0
230
1
 50
0
 73
    2
 44
1
  0
MTEXT
  5
2D6
100
AcDbEntity
  8
schematic
  6
ByLayer
 62
  256
370
   -1
100
AcDbMText
 10
138.6310945658039
 20
135.1258392214971
 30
0
 40
2
 41
13.77777777777805
 71
    1
 72
    1
  1
mcp-madre
  7
standard
210
0
220
0
230
1
 50
0
 73
    2
 44
1
  0
MTEXT
  5
2D7
100
AcDbEntity
  8
schematic
  6
ByLayer
 62
  256
370
   -1
100
AcDbMText
 10
155.6310945658039
 20
113.1258392214971
 30
0
 40
2
 41
8.444444444444537
 71
    1
 72
    1
  1
quadro
  7
standard
210
0
220
0
230
1
 50
0
 73
    2
 44
1
  0
MTEXT
  5
2D8
100
AcDbEntity
  8
schematic
  6
ByLayer
 62
  256
370
   -1
100
AcDbMText
 10
131.6310945658039
 20
113.1258392214971
 30
0
 40
2
 41
8.444444444444537
 71
    1
 72
    1
  1
quadro
  7
standard
210
0
220
0
230
1
 50
0
 73
    2
 44
1
  0
MTEXT
  5
2D9
100
AcDbEntity
  8
schematic
  6
ByLayer
 62
  256
370
   -1
100
AcDbMText
 10
234.3947421250816
 20
135.2516784429941
 30
0
 40
2
 41
13.77777777777805
 71
    1
 72
    1
  1
mcp-madre
  7
standard
210
0
220
0
230
1
 50
0
 73
    2
 44
1
  0
MTEXT
  5
2DA
100
AcDbEntity
  8
schematic
  6
ByLayer
 62
  256
370
   -1
100
AcDbMText
 10
251.3947421250816
 20
113.2516784429941
 30
0
 40
2
 41
8.444444444444537
 71
    1
 72
    1
  1
quadro
  7
standard
210
0
220
0
230
1
 50
0
 73
    2
 44
1
  0
MTEXT
  5
2DB
100
AcDbEntity
  8
schematic
  6
ByLayer
 62
  256
370
   -1
100
AcDbMText
 10
227.3947421250816
 20
113.2516784429941
 30
0
 40
2
 41
8.444444444444537
 71
    1
 72
    1
  1
quadro
  7
standard
210
0
220
0
230
1
 50
0
 73
    2
 44
1
  0
MTEXT
  5
2DC
100
AcDbEntity
  8
schematic
  6
ByLayer
 62
  256
370
   -1
100
AcDbMText
 10
138.756933787301
 20
135.1258392214971
 30
0
 40
2
 41
13.77777777777805
 71
    1
 72
    1
  1
mcp-madre
  7
standard
210
0
220
0
230
1
 50
0
 73
    2
 44
1
  0
MTEXT
  5
2DD
100
AcDbEntity
  8
schematic
  6
ByLayer
 62
  256
370
   -1
100
AcDbMText
 10
155.756933787301
 20
113.1258392214971
 30
0
 40
2
 41
8.444444444444537
 71
    1
 72
    1
  1
quadro
  7
standard
210
0
220
0
230
1
 50
0
 73
    2
 44
1
  0
MTEXT
  5
2DE
100
AcDbEntity
  8
schematic
  6
ByLayer
 62
  256
370
   -1
100
AcDbMText
 10
131.756933787301
 20
113.1258392214971
 30
0
 40
2
 41
8.444444444444537
 71
    1
 72
    1
  1
quadro
  7
standard
210
0
220
0
230
1
 50
0
 73
    2
 44
1
  0
MTEXT
  5
2DF
100
AcDbEntity
  8
schematic
  6
ByLayer
 62
  256
370
   -1
100
AcDbMText
 10
329.0258366908856
 20
135.1258392214971
 30
0
 40
2
 41
13.77777777777805
 71
    1
 72
    1
  1
mcp-madre
  7
standard
210
0
220
0
230
1
 50
0
 73
    2
 44
1
  0
MTEXT
  5
2E0
100
AcDbEntity
  8
schematic
  6
ByLayer
 62
  256
370
   -1
100
AcDbMText
 10
346.0258366908856
 20
113.1258392214971
 30
0
 40
2
 41
8.444444444444537
 71
    1
 72
    1
  1
quadro
  7
standard
210
0
220
0
230
1
 50
0
 73
    2
 44
1
  0
MTEXT
  5
2E1
100
AcDbEntity
  8
schematic
  6
ByLayer
 62
  256
370
   -1
100
AcDbMText
 10
322.0258366908856
 20
113.1258392214971
 30
0
 40
2
 41
8.444444444444537
 71
    1
 72
    1
  1
quadro
  7
standard
210
0
220
0
230
1
 50
0
 73
    2
 44
1
  0
LINE
  5
2E2
100
AcDbEntity
  8
schematic
  6
ByLayer
 62
  256
370
   -1
100
AcDbLine
 10
311.8142349313449
 20
77.95355873283621
 11
311.8142349313449
 21
68.14958355478014
  0
LINE
  5
2E3
100
AcDbEntity
  8
schematic
  6
ByLayer
 62
  256
370
   -1
100
AcDbLine
 10
404.1150744125559
 20
57.38912299349906
 11
404.1150744125559
 21
67.67134086316764
  0
LINE
  5
2E4
100
AcDbEntity
  8
schematic
  6
ByLayer
 62
  256
370
   -1
100
AcDbLine
 10
28.45544015094328
 20
77.23619469541748
 11
28.45544015094328
 21
36.58556590835565
  0
LINE
  5
2E5
100
AcDbEntity
  8
schematic
  6
ByLayer
 62
  256
370
   -1
100
AcDbLine
 10
28.13070834179014
 20
72.33610716460322
 11
311.9108210644643
 21
72.64523582769982
  0
LINE
  5
2E6
100
AcDbEntity
  8
schematic
  6
ByLayer
 62
  256
370
   -1
100
AcDbLine
 10
404.0311626672496
 20
62.75311860860878
 11
28.13070834179014
 21
63.06224727170537
  0
LINE
  5
2E7
100
AcDbEntity
  8
schematic
  6
ByLayer
 62
  256
370
   -1
100
AcDbLine
 10
216.6991928307131
 20
47.29668545377903
 11
28.43983700488674
 21
47.29668545377903
  0
LINE
  5
2E8
100
AcDbEntity
  8
schematic
  6
ByLayer
 62
  256
370
   -1
100
AcDbLine
 10
216.6991928307131
 20
50.69710074784157
 11
216.3900641676165
 21
36.7863109084948
  0
LINE
  5
2E9
100
AcDbEntity
  8
schematic
  6
ByLayer
 62
  256
370
   -1
100
AcDbLine
 10
28.52086637183007
 20
72.51892644031878
 11
34.26397598253988
 21
75.34181082524394
  0
LINE
  5
2EA
100
AcDbEntity
  8
schematic
  6
ByLayer
 62
  256
370
   -1
100
AcDbLine
 10
34.26397598253988
 20
75.34181082524394
 11
34.26397598253988
 21
69.50136037367464
  0
LINE
  5
2EB
100
AcDbEntity
  8
schematic
  6
ByLayer
 62
  256
370
   -1
100
AcDbLine
 10
34.26397598253988
 20
69.50136037367464
 11
28.32618469011109
 21
72.51892644031878
  0
LINE
  5
2EC
100
AcDbEntity
  8
schematic
  6
ByLayer
 62
  256
370
   -1
100
AcDbLine
 10
28.61820721268956
 20
63.1742057178079
 11
34.36131682339937
 21
65.99709010273307
  0
LINE
  5
2ED
100
AcDbEntity
  8
schematic
  6
ByLayer
 62
  256
370
   -1
100
AcDbLine
 10
34.36131682339937
 20
65.99709010273307
 11
34.36131682339937
 21
60.15663965116376
  0
LINE
  5
2EE
100
AcDbEntity
  8
schematic
  6
ByLayer
 62
  256
370
   -1
100
AcDbLine
 10
34.36131682339937
 20
60.15663965116376
 11
28.42352553097058
 21
63.1742057178079
  0
LINE
  5
2EF
100
AcDbEntity
  8
schematic
  6
ByLayer
 62
  256
370
   -1
100
AcDbLine
 10
28.52086637183007
 20
47.69701202114926
 11
34.26397598253988
 21
50.51989640607443
  0
LINE
  5
2F0
100
AcDbEntity
  8
schematic
  6
ByLayer
 62
  256
370
   -1
100
AcDbLine
 10
34.26397598253988
 20
50.51989640607443
 11
34.26397598253988
 21
44.67944595450513
  0
LINE
  5
2F1
100
AcDbEntity
  8
schematic
  6
ByLayer
 62
  256
370
   -1
100
AcDbLine
 10
34.26397598253988
 20
44.67944595450513
 11
28.32618469011109
 21
47.69701202114926
  0
LINE
  5
2F2
100
AcDbEntity
  8
schematic
  6
ByLayer
 62
  256
370
   -1
100
AcDbLine
 10
216.92217857896
 20
47.41251003406339
 11
211.2486155135678
 21
44.45232990537206
  0
LINE
  5
2F3
100
AcDbEntity
  8
schematic
  6
ByLayer
 62
  256
370
   -1
100
AcDbLine
 10
211.2486155135678
 20
44.45232990537206
 11
211.1081625006606
 21
50.29109128330158
  0
LINE
  5
2F4
100
AcDbEntity
  8
schematic
  6
ByLayer
 62
  256
370
   -1
100
AcDbLine
 10
211.1081625006606
 20
50.29109128330158
 11
217.1168039582243
 21
47.41719180116029
  0
LINE
  5
2F5
100
AcDbEntity
  8
schematic
  6
ByLayer
 62
  256
370
   -1
100
AcDbLine
 10
312.0566300307523
 20
72.83203277647351
 11
306.3830669653602
 21
69.87185264778219
  0
LINE
  5
2F6
100
AcDbEntity
  8
schematic
  6
ByLayer
 62
  256
370
   -1
100
AcDbLine
 10
306.3830669653602
 20
69.87185264778219
 11
306.242613952453
 21
75.71061402571171
  0
LINE
  5
2F7
100
AcDbEntity
  8
schematic
  6
ByLayer
 62
  256
370
   -1
100
AcDbLine
 10
306.242613952453
 20
75.71061402571171
 11
312.2512554100167
 21
72.83671454357042
  0
LINE
  5
2F8
100
AcDbEntity
  8
schematic
  6
ByLayer
 62
  256
370
   -1
100
AcDbLine
 10
404.1709401666148
 20
62.63905583521004
 11
398.4973771012226
 21
59.67887570651872
  0
LINE
  5
2F9
100
AcDbEntity
  8
schematic
  6
ByLayer
 62
  256
370
   -1
100
AcDbLine
 10
398.4973771012226
 20
59.67887570651872
 11
398.3569240883154
 21
65.51763708444824
  0
LINE
  5
2FA
100
AcDbEntity
  8
schematic
  6
ByLayer
 62
  256
370
   -1
100
AcDbLine
 10
398.3569240883154
 20
65.51763708444824
 11
404.3655655458791
 21
62.64373760230695
  0
MTEXT
  5
2FB
100
AcDbEntity
  8
schematic
  6
ByLayer
 62
  256
370
   -1
100
AcDbMText
 10
190.501775147929
 20
52.72189349112426
 30
0
 40
3
 41
14.66666666666685
 71
    1
 72
    1
  1
DUPLEX\P
  7
standard
210
0
220
0
230
1
 50
0
 73
    2
 44
1
  0
MTEXT
  5
2FC
100
AcDbEntity
  8
schematic
  6
ByLayer
 62
  256
370
   -1
100
AcDbMText
 10
285.0497041420118
 20
76.97396449704142
 30
0
 40
3
 41
15.66666666666667
 71
    1
 72
    1
  1
TRIPLEX
  7
standard
210
0
220
0
230
1
 50
0
 73
    2
 44
1
  0
MTEXT
  5
2FD
100
AcDbEntity
  8
schematic
  6
ByLayer
 62
  256
370
   -1
100
AcDbMText
 10
366.9443786982249
 20
67.48402366863905
 30
0
 40
3
 41
26.00000000000018
 71
    1
 72
    1
  1
QUADRUPLEX
  7
standard
210
0
220
0
230
1
 50
0
 73
    2
 44
1
  0
MTEXT
  5
2FE
100
AcDbEntity
  8
schematic
  6
ByLayer
 62
  256
370
   -1
100
AcDbMText
 10
63
 20
186.7
 30
0
 40
2.7
 41
19.19999942759453
 71
    1
 72
    1
  1
PER16-SMD
  7
standard
210
0
220
0
230
1
 50
0
 73
    2
 44
1
  0
MTEXT
  5
2FF
100
AcDbEntity
  8
schematic
  6
ByLayer
 62
  256
370
   -1
100
AcDbMText
 10
88.20000000000002
 20
186.7
 30
0
 40
2.7
 41
19.19999942759453
 71
    1
 72
    1
  1
PER16-SMD
  7
standard
210
0
220
0
230
1
 50
0
 73
    2
 44
1
  0
MTEXT
  5
300
100
AcDbEntity
  8
schematic
  6
ByLayer
 62
  256
370
   -1
100
AcDbMText
 10
157
 20
187
 30
0
 40
2.7
 41
19.19999942759453
 71
    1
 72
    1
  1
PER16-SMD
  7
standard
210
0
220
0
230
1
 50
0
 73
    2
 44
1
  0
MTEXT
  5
301
100
AcDbEntity
  8
schematic
  6
ByLayer
 62
  256
370
   -1
100
AcDbMText
 10
183
 20
187
 30
0
 40
2.7
 41
19.19999942759453
 71
    1
 72
    1
  1
PER16-SMD
  7
standard
210
0
220
0
230
1
 50
0
 73
    2
 44
1
  0
MTEXT
  5
302
100
AcDbEntity
  8
schematic
  6
ByLayer
 62
  256
370
   -1
100
AcDbMText
 10
253
 20
186
 30
0
 40
2.7
 41
19.19999942759453
 71
    1
 72
    1
  1
PER16-SMD
  7
standard
210
0
220
0
230
1
 50
0
 73
    2
 44
1
  0
MTEXT
  5
303
100
AcDbEntity
  8
schematic
  6
ByLayer
 62
  256
370
   -1
100
AcDbMText
 10
278.4
 20
186
 30
0
 40
2.7
 41
19.19999942759453
 71
    1
 72
    1
  1
PER16-SMD
  7
standard
210
0
220
0
230
1
 50
0
 73
    2
 44
1
  0
MTEXT
  5
304
100
AcDbEntity
  8
schematic
  6
ByLayer
 62
  256
370
   -1
100
AcDbMText
 10
347
 20
188
 30
0
 40
2.7
 41
19.19999942759453
 71
    1
 72
    1
  1
PER16-SMD
  7
standard
210
0
220
0
230
1
 50
0
 73
    2
 44
1
  0
MTEXT
  5
305
100
AcDbEntity
  8
schematic
  6
ByLayer
 62
  256
370
   -1
100
AcDbMText
 10
373
 20
188
 30
0
 40
2.7
 41
19.19999942759453
 71
    1
 72
    1
  1
PER16-SMD
  7
standard
210
0
220
0
230
1
 50
0
 73
    2
 44
1
  0
MTEXT
  5
306
100
AcDbEntity
  8
frame-title
  6
ByLayer
 62
  256
370
   -1
100
AcDbMText
 10
302.654478423
 20
37.8318098028
 30
0
 40
3
 41
53.58333269732749
 71
    1
 72
    1
  1
Schema: MC-POL48MIAE-06\PFoglio: 5 di 18
  7
standard
210
0
220
0
230
1
 50
0
 73
    2
 44
1
  0
ENDSEC
  0
SECTION
  2
OBJECTS
  0
DICTIONARY
  5
C
330
0
100
AcDbDictionary
281
    1
  3
ACAD_GROUP
350
D
  0
DICTIONARY
  5
D
330
C
100
AcDbDictionary
281
    1
  0
ENDSEC
  0
EOF
