999
dxfrw 0.6.3
  0
SECTION
  2
HEADER
  9
$ACADVER
  1
AC1021
  9
$DWGCODEPAGE
  3
ANSI_1252
  9
$INSBASE
 10
0
 20
0
 30
0
  9
$EXTMIN
 10
10000000000
 20
10000000000
 30
0
  9
$EXTMAX
 10
-10000000000
 20
-10000000000
 30
0
  9
$LIMMIN
 10
0
 20
0
  9
$LIMMAX
 10
420
 20
297
  9
$ORTHOMODE
 70
    0
  9
$REGENMODE
 70
    1
  9
$FILLMODE
 70
    1
  9
$QTEXTMODE
 70
    0
  9
$MIRRTEXT
 70
    0
  9
$LTSCALE
 40
1
  9
$ATTMODE
 70
    0
  9
$TEXTSIZE
 40
2.5
  9
$TRACEWID
 40
15.68
  9
$TEXTSTYLE
  7
STANDARD
  9
$CLAYER
  8
schematic
  9
$CELTYPE
  6
BYLAYER
  9
$CECOLOR
 62
  256
  9
$CELTSCALE
 40
1
  9
$DISPSILH
 70
    0
  9
$DIMSCALE
 40
1
  9
$DIMASZ
 40
2.5
  9
$DIMEXO
 40
0.625
  9
$DIMDLI
 40
3.75
  9
$DIMRND
 40
0
  9
$DIMDLE
 40
0
  9
$DIMEXE
 40
1.25
  9
$DIMTP
 40
0
  9
$DIMTM
 40
0
  9
$DIMTXT
 40
2.5
  9
$DIMCEN
 40
2.5
  9
$DIMTSZ
 40
0
  9
$DIMTOL
 70
    0
  9
$DIMLIM
 70
    0
  9
$DIMTIH
 70
    0
  9
$DIMTOH
 70
    0
  9
$DIMSE1
 70
    0
  9
$DIMSE2
 70
    0
  9
$DIMTAD
 70
    1
  9
$DIMZIN
 70
    8
  9
$DIMBLK
  1

  9
$DIMASO
 70
    1
  9
$DIMSHO
 70
    1
  9
$DIMPOST
  1

  9
$DIMAPOST
  1

  9
$DIMALT
 70
    0
  9
$DIMALTD
 70
    3
  9
$DIMALTF
 40
0.03937
  9
$DIMLFAC
 40
1
  9
$DIMTOFL
 70
    1
  9
$DIMTVP
 40
0
  9
$DIMTIX
 70
    0
  9
$DIMSOXD
 70
    0
  9
$DIMSAH
 70
    0
  9
$DIMBLK1
  1

  9
$DIMBLK2
  1

  9
$DIMSTYLE
  2
Standard
  9
$DIMCLRD
 70
    0
  9
$DIMCLRE
 70
    0
  9
$DIMCLRT
 70
    0
  9
$DIMTFAC
 40
1
  9
$DIMGAP
 40
0.625
  9
$DIMJUST
 70
    0
  9
$DIMSD1
 70
    0
  9
$DIMSD2
 70
    0
  9
$DIMTOLJ
 70
    0
  9
$DIMTZIN
 70
    8
  9
$DIMALTZ
 70
    0
  9
$DIMALTTZ
 70
    0
  9
$DIMUPT
 70
    0
  9
$DIMDEC
 70
    2
  9
$DIMTDEC
 70
    2
  9
$DIMALTU
 70
    2
  9
$DIMALTTD
 70
    3
  9
$DIMTXSTY
  7
STANDARD
  9
$DIMAUNIT
 70
    0
  9
$DIMADEC
 70
    0
  9
$DIMALTRND
 40
0
  9
$DIMAZIN
 70
    0
  9
$DIMDSEP
 70
   44
  9
$DIMATFIT
 70
    3
  9
$DIMFRAC
 70
    0
  9
$DIMLDRBLK
  1
STANDARD
  9
$DIMLUNIT
 70
    2
  9
$DIMLWD
 70
   -2
  9
$DIMLWE
 70
   -2
  9
$DIMTMOVE
 70
    0
  9
$DIMFXL
 40
1
  9
$DIMFXLON
 70
    0
  9
$DIMJOGANG
 40
0.7854
  9
$DIMTFILL
 70
    0
  9
$DIMTFILLCLR
 70
    0
  9
$DIMARCSYM
 70
    0
  9
$DIMLTYPE
  6

  9
$DIMLTEX1
  6

  9
$DIMLTEX2
  6

  9
$LUNITS
 70
    2
  9
$LUPREC
 70
    4
  9
$SKETCHINC
 40
1
  9
$FILLETRAD
 40
0
  9
$AUNITS
 70
    0
  9
$AUPREC
 70
    2
  9
$MENU
  1
.
  9
$ELEVATION
 40
0
  9
$PELEVATION
 40
0
  9
$THICKNESS
 40
0
  9
$LIMCHECK
 70
    0
  9
$CHAMFERA
 40
0
  9
$CHAMFERB
 40
0
  9
$CHAMFERC
 40
0
  9
$CHAMFERD
 40
0
  9
$SKPOLY
 70
    0
  9
$USRTIMER
 70
    1
  9
$ANGBASE
 50
0
  9
$ANGDIR
 70
    0
  9
$PDMODE
 70
   34
  9
$PDSIZE
 40
0
  9
$PLINEWID
 40
0
  9
$SPLFRAME
 70
    0
  9
$SPLINETYPE
 70
    2
  9
$SPLINESEGS
 70
    8
  9
$HANDSEED
  5
20000
  9
$SURFTAB1
 70
    6
  9
$SURFTAB2
 70
    6
  9
$SURFTYPE
 70
    6
  9
$SURFU
 70
    6
  9
$SURFV
 70
    6
  9
$UCSBASE
  2

  9
$UCSNAME
  2

  9
$UCSORG
 10
0
 20
0
 30
0
  9
$UCSXDIR
 10
1
 20
0
 30
0
  9
$UCSYDIR
 10
0
 20
1
 30
0
  9
$UCSORTHOREF
  2

  9
$UCSORTHOVIEW
 70
    0
  9
$UCSORGTOP
 10
0
 20
0
 30
0
  9
$UCSORGBOTTOM
 10
0
 20
0
 30
0
  9
$UCSORGLEFT
 10
0
 20
0
 30
0
  9
$UCSORGRIGHT
 10
0
 20
0
 30
0
  9
$UCSORGFRONT
 10
0
 20
0
 30
0
  9
$UCSORGBACK
 10
0
 20
0
 30
0
  9
$PUCSBASE
  2

  9
$PUCSNAME
  2

  9
$PUCSORG
 10
0
 20
0
 30
0
  9
$PUCSXDIR
 10
1
 20
0
 30
0
  9
$PUCSYDIR
 10
0
 20
1
 30
0
  9
$PUCSORTHOREF
  2

  9
$PUCSORTHOVIEW
 70
    0
  9
$PUCSORGTOP
 10
0
 20
0
 30
0
  9
$PUCSORGBOTTOM
 10
0
 20
0
 30
0
  9
$PUCSORGLEFT
 10
0
 20
0
 30
0
  9
$PUCSORGRIGHT
 10
0
 20
0
 30
0
  9
$PUCSORGFRONT
 10
0
 20
0
 30
0
  9
$PUCSORGBACK
 10
0
 20
0
 30
0
  9
$USERI1
 70
    0
  9
$USERI2
 70
    0
  9
$USERI3
 70
    0
  9
$USERI4
 70
    0
  9
$USERI5
 70
    0
  9
$USERR1
 40
0
  9
$USERR2
 40
0
  9
$USERR3
 40
0
  9
$USERR4
 40
0
  9
$USERR5
 40
0
  9
$WORLDVIEW
 70
    1
  9
$SHADEDGE
 70
    3
  9
$SHADEDIF
 70
   70
  9
$TILEMODE
 70
    1
  9
$MAXACTVP
 70
   64
  9
$PINSBASE
 10
17.03901703461551
 20
20.05907584428795
 30
0
  9
$PLIMCHECK
 70
    0
  9
$PEXTMIN
 10
0
 20
0
 30
0
  9
$PEXTMAX
 10
0
 20
0
 30
0
  9
$GRIDMODE
 70
    1
  9
$SNAPSTYLE
 70
    0
  9
$PLIMMIN
 10
0
 20
0
  9
$PLIMMAX
 10
297
 20
210
  9
$UNITMODE
 70
    0
  9
$VISRETAIN
 70
    1
  9
$PLINEGEN
 70
    0
  9
$PSLTSCALE
 70
    1
  9
$TREEDEPTH
 70
 3020
  9
$CMLSTYLE
  2
Standard
  9
$CMLJUST
 70
    0
  9
$CMLSCALE
 40
20
  9
$PROXYGRAPHICS
 70
    1
  9
$MEASUREMENT
 70
    1
  9
$CELWEIGHT
370
   -1
  9
$ENDCAPS
280
    0
  9
$JOINSTYLE
280
    0
  9
$LWDISPLAY
290
    0
  9
$INSUNITS
 70
    0
  9
$HYPERLINKBASE
  1

  9
$STYLESHEET
  1

  9
$XEDIT
290
    1
  9
$CEPSNTYPE
380
    0
  9
$PSTYLEMODE
290
    1
  9
$EXTNAMES
290
    1
  9
$PSVPSCALE
 40
0.6228938402028142
  9
$OLESTARTUP
290
    0
  9
$SORTENTS
280
  127
  9
$INDEXCTL
280
    0
  9
$HIDETEXT
280
    1
  9
$XCLIPFRAME
290
    0
  9
$HALOGAP
280
    0
  9
$OBSCOLOR
 70
  257
  9
$OBSLTYPE
280
    0
  9
$INTERSECTIONDISPLAY
280
    0
  9
$INTERSECTIONCOLOR
 70
  257
  9
$DIMASSOC
280
    0
  9
$PROJECTNAME
  1

  9
$CAMERADISPLAY
290
    0
  9
$LENSLENGTH
 40
50
  9
$CAMERAHEIGHT
 40
0
  9
$STEPSPERSEC
 40
2
  9
$STEPSIZE
 40
50
  9
$3DDWFPREC
 40
2
  9
$PSOLWIDTH
 40
5
  9
$PSOLHEIGHT
 40
80
  9
$LOFTANG1
 40
1.570796326794897
  9
$LOFTANG2
 40
1.570796326794897
  9
$LOFTMAG1
 40
0
  9
$LOFTMAG2
 40
0
  9
$LOFTPARAM
 70
    7
  9
$LOFTNORMALS
280
    1
  9
$LATITUDE
 40
1
  9
$LONGITUDE
 40
1
  9
$NORTHDIRECTION
 40
0
  9
$TIMEZONE
 70
-8000
  9
$LIGHTGLYPHDISPLAY
280
    1
  9
$TILEMODELIGHTSYNCH
280
    1
  9
$SOLIDHIST
280
    1
  9
$SHOWHIST
280
    1
  9
$DWFFRAME
280
    2
  9
$DGNFRAME
280
    0
  9
$REALWORLDSCALE
290
    1
  9
$INTERFERECOLOR
 62
    1
  9
$CSHADOW
280
    0
  9
$SHADOWPLANELOCATION
 40
0
  0
ENDSEC
  0
SECTION
  2
CLASSES
  0
ENDSEC
  0
SECTION
  2
TABLES
  0
TABLE
  2
VPORT
  5
8
330
0
100
AcDbSymbolTable
 70
    1
  0
VPORT
  5
31
330
2
100
AcDbSymbolTableRecord
100
AcDbViewportTableRecord
  2
*ACTIVE
 70
    0
 10
0
 20
0
 11
1
 21
1
 12
230.4849353100022
 22
151.4004598249628
 13
0
 23
0
 14
10
 24
10
 15
10
 25
10
 16
0
 26
0
 36
1
 17
0
 27
0
 37
0
 40
308.1444652908067
 41
2.064739884393064
 42
50
 43
0
 44
0
 50
0
 51
0
 71
    0
 72
  100
 73
    1
 74
    3
 75
    0
 76
    1
 77
    0
 78
    0
281
    0
 65
    1
110
0
120
0
130
0
111
1
121
0
131
0
112
0
122
1
132
0
 79
    0
146
0
348
10020
 60
    7
 61
    5
292
1
282
    1
141
0
142
0
 63
  250
421
3358443
  0
ENDTAB
  0
TABLE
  2
LTYPE
  5
5
330
0
100
AcDbSymbolTable
 70
    4
  0
LTYPE
  5
14
330
5
100
AcDbSymbolTableRecord
100
AcDbLinetypeTableRecord
  2
ByBlock
 70
    0
  3

 72
   65
 73
    0
 40
0
  0
LTYPE
  5
15
330
5
100
AcDbSymbolTableRecord
100
AcDbLinetypeTableRecord
  2
ByLayer
 70
    0
  3

 72
   65
 73
    0
 40
0
  0
LTYPE
  5
16
330
5
100
AcDbSymbolTableRecord
100
AcDbLinetypeTableRecord
  2
Continuous
 70
    0
  3
Solid line
 72
   65
 73
    0
 40
0
  0
LTYPE
  5
32
330
5
100
AcDbSymbolTableRecord
100
AcDbLinetypeTableRecord
  2
DOT
 70
    0
  3
Dot . . . . . . . . . . . . . . . . . . . . . .
 72
   65
 73
    2
 40
6.35
 49
0
 74
    0
 49
-6.35
 74
    0
  0
LTYPE
  5
33
330
5
100
AcDbSymbolTableRecord
100
AcDbLinetypeTableRecord
  2
DOTTINY
 70
    0
  3
Dot (.15x) .....................................
 72
   65
 73
    2
 40
0.9525
 49
0
 74
    0
 49
-0.9525
 74
    0
  0
LTYPE
  5
34
330
5
100
AcDbSymbolTableRecord
100
AcDbLinetypeTableRecord
  2
DOT2
 70
    0
  3
Dot (.5x) .....................................
 72
   65
 73
    2
 40
3.175
 49
0
 74
    0
 49
-3.175
 74
    0
  0
LTYPE
  5
35
330
5
100
AcDbSymbolTableRecord
100
AcDbLinetypeTableRecord
  2
DOTX2
 70
    0
  3
Dot (2x) .  .  .  .  .  .  .  .  .  .  .  .  .
 72
   65
 73
    2
 40
12.7
 49
0
 74
    0
 49
-12.7
 74
    0
  0
LTYPE
  5
36
330
5
100
AcDbSymbolTableRecord
100
AcDbLinetypeTableRecord
  2
DASHED
 70
    0
  3
Dashed _ _ _ _ _ _ _ _ _ _ _ _ _ _ _ _ _
 72
   65
 73
    2
 40
19.05
 49
12.7
 74
    0
 49
-6.35
 74
    0
  0
LTYPE
  5
37
330
5
100
AcDbSymbolTableRecord
100
AcDbLinetypeTableRecord
  2
DASHEDTINY
 70
    0
  3
Dashed (.15x) _ _ _ _ _ _ _ _ _ _ _ _ _ _ _ _ _
 72
   65
 73
    2
 40
2.8575
 49
1.905
 74
    0
 49
-0.9525
 74
    0
  0
LTYPE
  5
38
330
5
100
AcDbSymbolTableRecord
100
AcDbLinetypeTableRecord
  2
DASHED2
 70
    0
  3
Dashed (.5x) _ _ _ _ _ _ _ _ _ _ _ _ _ _ _ _ _
 72
   65
 73
    2
 40
9.524999999999999
 49
6.35
 74
    0
 49
-3.175
 74
    0
  0
LTYPE
  5
39
330
5
100
AcDbSymbolTableRecord
100
AcDbLinetypeTableRecord
  2
DASHEDX2
 70
    0
  3
Dashed (2x) ____  ____  ____  ____  ____  ___
 72
   65
 73
    2
 40
38.09999999999999
 49
25.4
 74
    0
 49
-12.7
 74
    0
  0
LTYPE
  5
3A
330
5
100
AcDbSymbolTableRecord
100
AcDbLinetypeTableRecord
  2
DASHDOT
 70
    0
  3
Dash dot __ . __ . __ . __ . __ . __ . __ . __
 72
   65
 73
    4
 40
25.4
 49
12.7
 74
    0
 49
-6.35
 74
    0
 49
0
 74
    0
 49
-6.35
 74
    0
  0
LTYPE
  5
3B
330
5
100
AcDbSymbolTableRecord
100
AcDbLinetypeTableRecord
  2
DASHDOTTINY
 70
    0
  3
Dash dot (.15x) _._._._._._._._._._._._._._._.
 72
   65
 73
    4
 40
3.81
 49
1.905
 74
    0
 49
-0.9525
 74
    0
 49
0
 74
    0
 49
-0.9525
 74
    0
  0
LTYPE
  5
3C
330
5
100
AcDbSymbolTableRecord
100
AcDbLinetypeTableRecord
  2
DASHDOT2
 70
    0
  3
Dash dot (.5x) _._._._._._._._._._._._._._._.
 72
   65
 73
    4
 40
12.7
 49
6.35
 74
    0
 49
-3.175
 74
    0
 49
0
 74
    0
 49
-3.175
 74
    0
  0
LTYPE
  5
3D
330
5
100
AcDbSymbolTableRecord
100
AcDbLinetypeTableRecord
  2
DASHDOTX2
 70
    0
  3
Dash dot (2x) ____  .  ____  .  ____  .  ___
 72
   65
 73
    4
 40
50.8
 49
25.4
 74
    0
 49
-12.7
 74
    0
 49
0
 74
    0
 49
-12.7
 74
    0
  0
LTYPE
  5
3E
330
5
100
AcDbSymbolTableRecord
100
AcDbLinetypeTableRecord
  2
DIVIDE
 70
    0
  3
Divide ____ . . ____ . . ____ . . ____ . . ____
 72
   65
 73
    6
 40
31.75
 49
12.7
 74
    0
 49
-6.35
 74
    0
 49
0
 74
    0
 49
-6.35
 74
    0
 49
0
 74
    0
 49
-6.35
 74
    0
  0
LTYPE
  5
3F
330
5
100
AcDbSymbolTableRecord
100
AcDbLinetypeTableRecord
  2
DIVIDETINY
 70
    0
  3
Divide (.15x) __..__..__..__..__..__..__..__.._
 72
   65
 73
    6
 40
4.7625
 49
1.905
 74
    0
 49
-0.9525
 74
    0
 49
0
 74
    0
 49
-0.9525
 74
    0
 49
0
 74
    0
 49
-0.9525
 74
    0
  0
LTYPE
  5
40
330
5
100
AcDbSymbolTableRecord
100
AcDbLinetypeTableRecord
  2
DIVIDE2
 70
    0
  3
Divide (.5x) __..__..__..__..__..__..__..__.._
 72
   65
 73
    6
 40
15.875
 49
6.35
 74
    0
 49
-3.175
 74
    0
 49
0
 74
    0
 49
-3.175
 74
    0
 49
0
 74
    0
 49
-3.175
 74
    0
  0
LTYPE
  5
41
330
5
100
AcDbSymbolTableRecord
100
AcDbLinetypeTableRecord
  2
DIVIDEX2
 70
    0
  3
Divide (2x) ________  .  .  ________  .  .  _
 72
   65
 73
    6
 40
63.5
 49
25.4
 74
    0
 49
-12.7
 74
    0
 49
0
 74
    0
 49
-12.7
 74
    0
 49
0
 74
    0
 49
-12.7
 74
    0
  0
LTYPE
  5
42
330
5
100
AcDbSymbolTableRecord
100
AcDbLinetypeTableRecord
  2
BORDER
 70
    0
  3
Border __ __ . __ __ . __ __ . __ __ . __ __ .
 72
   65
 73
    6
 40
44.45
 49
12.7
 74
    0
 49
-6.35
 74
    0
 49
12.7
 74
    0
 49
-6.35
 74
    0
 49
0
 74
    0
 49
-6.35
 74
    0
  0
LTYPE
  5
43
330
5
100
AcDbSymbolTableRecord
100
AcDbLinetypeTableRecord
  2
BORDERTINY
 70
    0
  3
Border (.15x) __.__.__.__.__.__.__.__.__.__.__.
 72
   65
 73
    6
 40
6.6675
 49
1.905
 74
    0
 49
-0.9525
 74
    0
 49
1.905
 74
    0
 49
-0.9525
 74
    0
 49
0
 74
    0
 49
-0.9525
 74
    0
  0
LTYPE
  5
44
330
5
100
AcDbSymbolTableRecord
100
AcDbLinetypeTableRecord
  2
BORDER2
 70
    0
  3
Border (.5x) __.__.__.__.__.__.__.__.__.__.__.
 72
   65
 73
    6
 40
22.225
 49
6.35
 74
    0
 49
-3.175
 74
    0
 49
6.35
 74
    0
 49
-3.175
 74
    0
 49
0
 74
    0
 49
-3.175
 74
    0
  0
LTYPE
  5
45
330
5
100
AcDbSymbolTableRecord
100
AcDbLinetypeTableRecord
  2
BORDERX2
 70
    0
  3
Border (2x) ____  ____  .  ____  ____  .  ___
 72
   65
 73
    6
 40
88.89999999999999
 49
25.4
 74
    0
 49
-12.7
 74
    0
 49
25.4
 74
    0
 49
-12.7
 74
    0
 49
0
 74
    0
 49
-12.7
 74
    0
  0
LTYPE
  5
46
330
5
100
AcDbSymbolTableRecord
100
AcDbLinetypeTableRecord
  2
CENTER
 70
    0
  3
Center ____ _ ____ _ ____ _ ____ _ ____ _ ____
 72
   65
 73
    4
 40
50.8
 49
31.75
 74
    0
 49
-6.35
 74
    0
 49
6.35
 74
    0
 49
-6.35
 74
    0
  0
LTYPE
  5
47
330
5
100
AcDbSymbolTableRecord
100
AcDbLinetypeTableRecord
  2
CENTERTINY
 70
    0
  3
Center (.15x) ___ _ ___ _ ___ _ ___ _ ___ _ ___
 72
   65
 73
    4
 40
7.619999999999999
 49
4.7625
 74
    0
 49
-0.9525
 74
    0
 49
0.9525
 74
    0
 49
-0.9525
 74
    0
  0
LTYPE
  5
48
330
5
100
AcDbSymbolTableRecord
100
AcDbLinetypeTableRecord
  2
CENTER2
 70
    0
  3
Center (.5x) ___ _ ___ _ ___ _ ___ _ ___ _ ___
 72
   65
 73
    4
 40
28.575
 49
19.05
 74
    0
 49
-3.175
 74
    0
 49
3.175
 74
    0
 49
-3.175
 74
    0
  0
LTYPE
  5
49
330
5
100
AcDbSymbolTableRecord
100
AcDbLinetypeTableRecord
  2
CENTERX2
 70
    0
  3
Center (2x) ________  __  ________  __  _____
 72
   65
 73
    4
 40
101.6
 49
63.5
 74
    0
 49
-12.7
 74
    0
 49
12.7
 74
    0
 49
-12.7
 74
    0
  0
ENDTAB
  0
TABLE
  2
LAYER
  5
2
330
0
100
AcDbSymbolTable
 70
    1
  0
LAYER
  5
10
330
2
100
AcDbSymbolTableRecord
100
AcDbLayerTableRecord
  2
0
 70
    0
 62
    7
  6
CONTINUOUS
370
   35
390
F
  0
LAYER
  5
4A
330
2
100
AcDbSymbolTableRecord
100
AcDbLayerTableRecord
  2
Contour
 70
    0
 62
    7
  6
CONTINUOUS
370
   -3
390
F
  0
LAYER
  5
4B
330
2
100
AcDbSymbolTableRecord
100
AcDbLayerTableRecord
  2
frame-title
 70
    0
 62
    7
  6
CONTINUOUS
370
   35
390
F
  0
LAYER
  5
4C
330
2
100
AcDbSymbolTableRecord
100
AcDbLayerTableRecord
  2
hatch
 70
    0
 62
  113
  6
CONTINUOUS
370
   25
390
F
  0
LAYER
  5
4D
330
2
100
AcDbSymbolTableRecord
100
AcDbLayerTableRecord
  2
help-lines
 70
    0
 62
    5
  6
CONTINUOUS
370
   25
390
F
  0
LAYER
  5
4E
330
2
100
AcDbSymbolTableRecord
100
AcDbLayerTableRecord
  2
labels
 70
    0
 62
    7
  6
CONTINUOUS
370
   25
390
F
  0
LAYER
  5
4F
330
2
100
AcDbSymbolTableRecord
100
AcDbLayerTableRecord
  2
schematic
 70
    0
 62
    7
  6
CONTINUOUS
370
   25
390
F
  0
ENDTAB
  0
TABLE
  2
STYLE
  5
3
330
0
100
AcDbSymbolTable
 70
    3
  0
STYLE
  5
50
330
2
100
AcDbSymbolTableRecord
100
AcDbTextStyleTableRecord
  2
iso
 70
    0
 40
0
 41
1
 50
0
 71
    0
 42
1
  3
iso
  4

  0
STYLE
  5
51
330
2
100
AcDbSymbolTableRecord
100
AcDbTextStyleTableRecord
  2
standard
 70
    0
 40
0
 41
1
 50
0
 71
    0
 42
1
  3
standard
  4

  0
ENDTAB
  0
TABLE
  2
VIEW
  5
6
330
0
100
AcDbSymbolTable
 70
    0
  0
ENDTAB
  0
TABLE
  2
UCS
  5
7
330
0
100
AcDbSymbolTable
 70
    0
  0
ENDTAB
  0
TABLE
  2
APPID
  5
9
330
0
100
AcDbSymbolTable
 70
    1
  0
APPID
  5
12
330
9
100
AcDbSymbolTableRecord
100
AcDbRegAppTableRecord
  2
ACAD
 70
    0
  0
APPID
  5
52
330
9
100
AcDbSymbolTableRecord
100
AcDbRegAppTableRecord
  2
LibreCad
 70
    0
  0
ENDTAB
  0
TABLE
  2
DIMSTYLE
  5
A
330
0
100
AcDbSymbolTable
 70
    1
100
AcDbDimStyleTable
 71
    1
  0
DIMSTYLE
105
53
330
A
100
AcDbSymbolTableRecord
100
AcDbDimStyleTableRecord
  2
Standard
 70
    0
 40
1
 41
2.5
 42
0.625
 43
0.38
 44
1.25
 45
0
 46
0
 47
0
 48
0
 49
1
140
2.5
141
0.09
142
0
143
25.4
144
1
145
0
146
1
147
0.625
148
0
 71
    0
 72
    0
 73
    0
 74
    1
 75
    0
 76
    0
 77
    0
 78
    8
 79
    0
170
    0
171
    2
172
    0
173
    0
174
    0
175
    0
176
    0
177
    0
178
    0
179
    0
271
    2
272
    4
273
    2
274
    2
275
    0
276
    0
277
    2
278
   44
279
    0
280
    0
281
    0
282
    0
283
    1
284
    0
285
    0
286
    0
288
    0
289
    3
340
STANDARD
341

371
   -2
372
   -2
  0
ENDTAB
  0
TABLE
  2
BLOCK_RECORD
  5
1
330
0
100
AcDbSymbolTable
 70
    2
  0
BLOCK_RECORD
  5
1F
330
1
100
AcDbSymbolTableRecord
100
AcDbBlockTableRecord
  2
*Model_Space
 70
    0
280
    1
281
    0
  0
BLOCK_RECORD
  5
1E
330
1
100
AcDbSymbolTableRecord
100
AcDbBlockTableRecord
  2
*Paper_Space
 70
    0
280
    1
281
    0
  0
BLOCK_RECORD
  5
54
330
1
100
AcDbSymbolTableRecord
100
AcDbBlockTableRecord
  2
*D4
 70
    0
280
    1
281
    0
  0
BLOCK_RECORD
  5
57
330
1
100
AcDbSymbolTableRecord
100
AcDbBlockTableRecord
  2
*D1
 70
    0
280
    1
281
    0
  0
BLOCK_RECORD
  5
5A
330
1
100
AcDbSymbolTableRecord
100
AcDbBlockTableRecord
  2
*D3
 70
    0
280
    1
281
    0
  0
BLOCK_RECORD
  5
5D
330
1
100
AcDbSymbolTableRecord
100
AcDbBlockTableRecord
  2
*D2
 70
    0
280
    1
281
    0
  0
BLOCK_RECORD
  5
60
330
1
100
AcDbSymbolTableRecord
100
AcDbBlockTableRecord
  2
*D6
 70
    0
280
    1
281
    0
  0
BLOCK_RECORD
  5
63
330
1
100
AcDbSymbolTableRecord
100
AcDbBlockTableRecord
  2
*D5
 70
    0
280
    1
281
    0
  0
BLOCK_RECORD
  5
66
330
1
100
AcDbSymbolTableRecord
100
AcDbBlockTableRecord
  2
*D7
 70
    0
280
    1
281
    0
  0
BLOCK_RECORD
  5
69
330
1
100
AcDbSymbolTableRecord
100
AcDbBlockTableRecord
  2
a3
 70
    0
280
    1
281
    0
  0
BLOCK_RECORD
  5
6C
330
1
100
AcDbSymbolTableRecord
100
AcDbBlockTableRecord
  2
a3-0
 70
    0
280
    1
281
    0
  0
BLOCK_RECORD
  5
6F
330
1
100
AcDbSymbolTableRecord
100
AcDbBlockTableRecord
  2
eca-logo-0
 70
    0
280
    1
281
    0
  0
BLOCK_RECORD
  5
72
330
1
100
AcDbSymbolTableRecord
100
AcDbBlockTableRecord
  2
eca-logo-1
 70
    0
280
    1
281
    0
  0
BLOCK_RECORD
  5
75
330
1
100
AcDbSymbolTableRecord
100
AcDbBlockTableRecord
  2
mcp2014x-connector
 70
    0
280
    1
281
    0
  0
BLOCK_RECORD
  5
78
330
1
100
AcDbSymbolTableRecord
100
AcDbBlockTableRecord
  2
Terminal-in
 70
    0
280
    1
281
    0
  0
BLOCK_RECORD
  5
7B
330
1
100
AcDbSymbolTableRecord
100
AcDbBlockTableRecord
  2
rjconnector
 70
    0
280
    1
281
    0
  0
BLOCK_RECORD
  5
7E
330
1
100
AcDbSymbolTableRecord
100
AcDbBlockTableRecord
  2
r1
 70
    0
280
    1
281
    0
  0
BLOCK_RECORD
  5
81
330
1
100
AcDbSymbolTableRecord
100
AcDbBlockTableRecord
  2
Diode-Power
 70
    0
280
    1
281
    0
  0
BLOCK_RECORD
  5
84
330
1
100
AcDbSymbolTableRecord
100
AcDbBlockTableRecord
  2
junction
 70
    0
280
    1
281
    0
  0
BLOCK_RECORD
  5
87
330
1
100
AcDbSymbolTableRecord
100
AcDbBlockTableRecord
  2
ln1
 70
    0
280
    1
281
    0
  0
BLOCK_RECORD
  5
8A
330
1
100
AcDbSymbolTableRecord
100
AcDbBlockTableRecord
  2
buzzer
 70
    0
280
    1
281
    0
  0
BLOCK_RECORD
  5
8D
330
1
100
AcDbSymbolTableRecord
100
AcDbBlockTableRecord
  2
Switch-button-mk
 70
    0
280
    1
281
    0
  0
BLOCK_RECORD
  5
90
330
1
100
AcDbSymbolTableRecord
100
AcDbBlockTableRecord
  2
Switch-button-mk-0
 70
    0
280
    1
281
    0
  0
BLOCK_RECORD
  5
93
330
1
100
AcDbSymbolTableRecord
100
AcDbBlockTableRecord
  2
vd1
 70
    0
280
    1
281
    0
  0
ENDTAB
  0
ENDSEC
  0
SECTION
  2
BLOCKS
  0
BLOCK
  5
20
330
1F
100
AcDbEntity
  8
0
100
AcDbBlockBegin
  2
*Model_Space
 70
    0
 10
0
 20
0
 30
0
  3
*Model_Space
  1

  0
ENDBLK
  5
21
330
1F
100
AcDbEntity
  8
0
100
AcDbBlockEnd
  0
BLOCK
  5
1C
330
1B
100
AcDbEntity
  8
0
100
AcDbBlockBegin
  2
*Paper_Space
 70
    0
 10
0
 20
0
 30
0
  3
*Paper_Space
  1

  0
ENDBLK
  5
1D
330
1F
100
AcDbEntity
  8
0
100
AcDbBlockEnd
  0
BLOCK
  5
55
330
54
100
AcDbEntity
  8
0
100
AcDbBlockBegin
  2
*D4
 70
    1
 10
0
 20
0
  3
*D4
  1

  0
LINE
  5
96
100
AcDbEntity
  8
schematic
  6
CONTINUOUS
 62
    7
370
    0
100
AcDbLine
 10
296.2944740853664
 20
164.5761814024393
 11
296.2944740853664
 21
157.7567263719515
  0
SOLID
  5
97
100
AcDbEntity
  8
schematic
  6
CONTINUOUS
 62
    7
370
    0
100
AcDbTrace
 10
296.2944740853664
 20
164.5761814024393
 30
0
 11
296.7107587431393
 21
162.0761814024393
 31
0
 12
295.8781894275936
 22
162.0761814024393
 32
0
 13
295.8781894275936
 23
162.0761814024393
 33
0
  0
ENDBLK
  5
56
330
54
100
AcDbEntity
  8
0
100
AcDbBlockEnd
  0
BLOCK
  5
58
330
57
100
AcDbEntity
  8
0
100
AcDbBlockBegin
  2
*D1
 70
    1
 10
0
 20
0
  3
*D1
  1

  0
ENDBLK
  5
59
330
57
100
AcDbEntity
  8
0
100
AcDbBlockEnd
  0
BLOCK
  5
5B
330
5A
100
AcDbEntity
  8
0
100
AcDbBlockBegin
  2
*D3
 70
    1
 10
0
 20
0
  3
*D3
  1

  0
LINE
  5
98
100
AcDbEntity
  8
schematic
  6
CONTINUOUS
 62
    7
370
    0
100
AcDbLine
 10
340.0634908536592
 20
164.8034965701223
 11
340.0634908536592
 21
157.5294112042686
  0
SOLID
  5
99
100
AcDbEntity
  8
schematic
  6
CONTINUOUS
 62
    7
370
    0
100
AcDbTrace
 10
340.0634908536592
 20
164.8034965701223
 30
0
 11
340.479775511432
 21
162.3034965701223
 31
0
 12
339.6472061958863
 22
162.3034965701223
 32
0
 13
339.6472061958863
 23
162.3034965701223
 33
0
  0
ENDBLK
  5
5C
330
5A
100
AcDbEntity
  8
0
100
AcDbBlockEnd
  0
BLOCK
  5
5E
330
5D
100
AcDbEntity
  8
0
100
AcDbBlockBegin
  2
*D2
 70
    1
 10
0
 20
0
  3
*D2
  1

  0
LINE
  5
9A
100
AcDbEntity
  8
schematic
  6
CONTINUOUS
 62
    7
370
    0
100
AcDbLine
 10
384.7991158536589
 20
188.7625152439026
 11
384.7991158536589
 21
184.7617682926831
  0
SOLID
  5
9B
100
AcDbEntity
  8
schematic
  6
CONTINUOUS
 62
    7
370
    0
100
AcDbTrace
 10
384.7991158536589
 20
188.7625152439026
 30
0
 11
385.2154005114318
 21
186.2625152439026
 31
0
 12
384.3828311958861
 22
186.2625152439026
 32
0
 13
384.3828311958861
 23
186.2625152439026
 33
0
  0
ENDBLK
  5
5F
330
5D
100
AcDbEntity
  8
0
100
AcDbBlockEnd
  0
BLOCK
  5
61
330
60
100
AcDbEntity
  8
0
100
AcDbBlockBegin
  2
*D6
 70
    1
 10
0
 20
0
  3
*D6
  1

  0
LINE
  5
9C
100
AcDbEntity
  8
schematic
  6
CONTINUOUS
 62
    7
370
    0
100
AcDbLine
 10
249.1119569359761
 20
164.5761814024393
 11
248.8846417682932
 21
157.7567263719515
  0
SOLID
  5
9D
100
AcDbEntity
  8
schematic
  6
CONTINUOUS
 62
    7
370
    0
100
AcDbTrace
 10
249.1119569359761
 20
164.5761814024393
 30
0
 11
249.4447234414591
 21
162.0637006822892
 31
0
 12
248.6126162793299
 22
162.0914375876935
 32
0
 13
248.6126162793299
 23
162.0914375876935
 33
0
  0
ENDBLK
  5
62
330
60
100
AcDbEntity
  8
0
100
AcDbBlockEnd
  0
BLOCK
  5
64
330
63
100
AcDbEntity
  8
0
100
AcDbBlockBegin
  2
*D5
 70
    1
 10
0
 20
0
  3
*D5
  1

  0
LINE
  5
9E
100
AcDbEntity
  8
schematic
  6
CONTINUOUS
 62
    7
370
    0
100
AcDbLine
 10
272.3141387195127
 20
164.5761814024393
 11
272.3141387195127
 21
157.7567263719515
  0
SOLID
  5
9F
100
AcDbEntity
  8
schematic
  6
CONTINUOUS
 62
    7
370
    0
100
AcDbTrace
 10
272.3141387195127
 20
164.5761814024393
 30
0
 11
272.7304233772855
 21
162.0761814024393
 31
0
 12
271.8978540617398
 22
162.0761814024393
 32
0
 13
271.8978540617398
 23
162.0761814024393
 33
0
  0
ENDBLK
  5
65
330
63
100
AcDbEntity
  8
0
100
AcDbBlockEnd
  0
BLOCK
  5
67
330
66
100
AcDbEntity
  8
0
100
AcDbBlockBegin
  2
*D7
 70
    1
 10
0
 20
0
  3
*D7
  1

  0
LINE
  5
A0
100
AcDbEntity
  8
schematic
  6
CONTINUOUS
 62
    7
370
    0
100
AcDbLine
 10
187.8765366961188
 20
188.6737497231179
 11
187.8765366961188
 21
181.2330948044597
  0
SOLID
  5
A1
100
AcDbEntity
  8
schematic
  6
CONTINUOUS
 62
    7
370
    0
100
AcDbTrace
 10
187.8765366961188
 20
188.6737497231179
 30
0
 11
188.2928213538916
 21
186.1737497231179
 31
0
 12
187.4602520383459
 22
186.1737497231179
 32
0
 13
187.4602520383459
 23
186.1737497231179
 33
0
  0
ENDBLK
  5
68
330
66
100
AcDbEntity
  8
0
100
AcDbBlockEnd
  0
BLOCK
  5
6A
330
69
100
AcDbEntity
  8
0
100
AcDbBlockBegin
  2
a3
 70
    0
 10
0
 20
0
  3
a3
  1

  0
HATCH
  5
A2
100
AcDbEntity
  8
hatch
  6
ByLayer
 62
  256
370
   -1
100
AcDbHatch
 10
0
 20
0
 30
0
210
0
220
0
230
1
  2
ansi31
 70
    0
 71
    0
 91
    1
 92
    0
 93
    3
 72
    1
 10
124.999976
 20
287.000024
 11
122.499976
 21
291.330151019
 72
    1
 10
122.499976
 20
291.330151019
 11
127.499976
 21
291.330151019
 72
    1
 10
127.499976
 20
291.330151019
 11
124.999976
 21
287.000024
 97
    0
 75
    0
 76
    1
 52
4.71238898038
 41
0.5
 77
    0
 78
    0
 98
    0
  0
HATCH
  5
A3
100
AcDbEntity
  8
hatch
  6
ByLayer
 62
  256
370
   -1
100
AcDbHatch
 10
0
 20
0
 30
0
210
0
220
0
230
1
  2
ansi31
 70
    0
 71
    0
 91
    1
 92
    0
 93
    3
 72
    1
 10
229.999976
 20
287.000024
 11
227.499976
 21
291.330151019
 72
    1
 10
227.499976
 20
291.330151019
 11
232.499976
 21
291.330151019
 72
    1
 10
232.499976
 20
291.330151019
 11
229.999976
 21
287.000024
 97
    0
 75
    0
 76
    1
 52
4.71238898038
 41
0.5
 77
    0
 78
    0
 98
    0
  0
HATCH
  5
A4
100
AcDbEntity
  8
hatch
  6
ByLayer
 62
  256
370
   -1
100
AcDbHatch
 10
0
 20
0
 30
0
210
0
220
0
230
1
  2
ansi31
 70
    0
 71
    0
 91
    1
 92
    0
 93
    3
 72
    1
 10
315
 20
287.000024
 11
312.5
 21
291.330151019
 72
    1
 10
312.5
 20
291.330151019
 11
317.5
 21
291.330151019
 72
    1
 10
317.5
 20
291.330151019
 11
315
 21
287.000024
 97
    0
 75
    0
 76
    1
 52
4.71238898038
 41
0.5
 77
    0
 78
    0
 98
    0
  0
HATCH
  5
A5
100
AcDbEntity
  8
hatch
  6
ByLayer
 62
  256
370
   -1
100
AcDbHatch
 10
0
 20
0
 30
0
210
0
220
0
230
1
  2
ansi31
 70
    0
 71
    0
 91
    1
 92
    0
 93
    3
 72
    1
 10
315
 20
9.999976
 11
312.5
 21
5.66984898108
 72
    1
 10
312.5
 20
5.66984898108
 11
317.5
 21
5.66984898108
 72
    1
 10
317.5
 20
5.66984898108
 11
315
 21
9.999976
 97
    0
 75
    0
 76
    1
 52
4.71238898038
 41
0.5
 77
    0
 78
    0
 98
    0
  0
HATCH
  5
A6
100
AcDbEntity
  8
hatch
  6
ByLayer
 62
  256
370
   -1
100
AcDbHatch
 10
0
 20
0
 30
0
210
0
220
0
230
1
  2
ansi31
 70
    0
 71
    0
 91
    1
 92
    0
 93
    3
 72
    1
 10
229.999976
 20
9.999976
 11
227.499976
 21
5.66984898108
 72
    1
 10
227.499976
 20
5.66984898108
 11
232.499976
 21
5.66984898108
 72
    1
 10
232.499976
 20
5.66984898108
 11
229.999976
 21
9.999976
 97
    0
 75
    0
 76
    1
 52
4.71238898038
 41
0.5
 77
    0
 78
    0
 98
    0
  0
HATCH
  5
A7
100
AcDbEntity
  8
hatch
  6
ByLayer
 62
  256
370
   -1
100
AcDbHatch
 10
0
 20
0
 30
0
210
0
220
0
230
1
  2
ansi31
 70
    0
 71
    0
 91
    1
 92
    0
 93
    3
 72
    1
 10
124.999976
 20
9.999976
 11
122.499976
 21
5.66984898108
 72
    1
 10
122.499976
 20
5.66984898108
 11
127.499976
 21
5.66984898108
 72
    1
 10
127.499976
 20
5.66984898108
 11
124.999976
 21
9.999976
 97
    0
 75
    0
 76
    1
 52
4.71238898038
 41
0.5
 77
    0
 78
    0
 98
    0
  0
HATCH
  5
A8
100
AcDbEntity
  8
hatch
  6
ByLayer
 62
  256
370
   -1
100
AcDbHatch
 10
0
 20
0
 30
0
210
0
220
0
230
1
  2
ansi31
 70
    0
 71
    0
 91
    1
 92
    0
 93
    3
 72
    1
 10
410
 20
148.5
 11
414.330127019
 21
146
 72
    1
 10
414.330127019
 20
146
 11
414.330127019
 21
151
 72
    1
 10
414.330127019
 20
151
 11
410
 21
148.5
 97
    0
 75
    0
 76
    1
 52
3.14159265359
 41
0.5
 77
    0
 78
    0
 98
    0
  0
HATCH
  5
A9
100
AcDbEntity
  8
hatch
  6
ByLayer
 62
  256
370
   -1
100
AcDbHatch
 10
0
 20
0
 30
0
210
0
220
0
230
1
  2
ansi31
 70
    0
 71
    0
 91
    1
 92
    0
 93
    3
 72
    1
 10
20
 20
148.5
 11
15.6698729811
 21
146
 72
    1
 10
15.6698729811
 20
146
 11
15.6698729811
 21
151
 72
    1
 10
15.6698729811
 20
151
 11
20
 21
148.5
 97
    0
 75
    0
 76
    1
 52
0
 41
0.5
 77
    0
 78
    0
 98
    0
  0
CIRCLE
  5
AA
100
AcDbEntity
  8
help-lines
  6
ByLayer
 62
  256
370
   -1
100
AcDbCircle
 10
15
 20
222.75
 40
3
  0
LINE
  5
AB
100
AcDbEntity
  8
help-lines
  6
ByLayer
 62
  256
370
   -1
100
AcDbLine
 10
20
 20
148.5
 11
15.6698729811
 21
146
  0
LINE
  5
AC
100
AcDbEntity
  8
help-lines
  6
ByLayer
 62
  256
370
   -1
100
AcDbLine
 10
20
 20
148.5
 11
15.6698729811
 21
151
  0
LINE
  5
AD
100
AcDbEntity
  8
help-lines
  6
ByLayer
 62
  256
370
   -1
100
AcDbLine
 10
15.6698729811
 20
146
 11
15.6698729811
 21
151
  0
CIRCLE
  5
AE
100
AcDbEntity
  8
help-lines
  6
ByLayer
 62
  256
370
   -1
100
AcDbCircle
 10
15
 20
74.25
 40
3
  0
MTEXT
  5
AF
100
AcDbEntity
  8
help-lines
  6
ByLayer
 62
  256
370
   -1
100
AcDbMText
 10
15
 20
74.25
 30
0
 40
4
 41
2.666666666666667
 71
    5
 72
    5
  1
A
  7
iso
210
0
220
0
230
1
 50
6.28318530718
 73
    2
 44
0.96
  0
MTEXT
  5
B0
100
AcDbEntity
  8
help-lines
  6
ByLayer
 62
  256
370
   -1
100
AcDbMText
 10
15
 20
222.75
 30
0
 40
4
 41
2.222222222222222
 71
    5
 72
    5
  1
B
  7
iso
210
0
220
0
230
1
 50
6.28318530718
 73
    2
 44
0.96
  0
LINE
  5
B1
100
AcDbEntity
  8
help-lines
  6
ByLayer
 62
  256
370
   -1
100
AcDbLine
 10
2.57e-14
 20
297
 11
0
 21
0
  0
CIRCLE
  5
B2
100
AcDbEntity
  8
help-lines
  6
ByLayer
 62
  256
370
   -1
100
AcDbCircle
 10
415
 20
222.75
 40
3
  0
LINE
  5
B3
100
AcDbEntity
  8
help-lines
  6
ByLayer
 62
  256
370
   -1
100
AcDbLine
 10
410
 20
148.5
 11
414.330127019
 21
146
  0
LINE
  5
B4
100
AcDbEntity
  8
help-lines
  6
ByLayer
 62
  256
370
   -1
100
AcDbLine
 10
410
 20
148.5
 11
414.330127019
 21
151
  0
LINE
  5
B5
100
AcDbEntity
  8
help-lines
  6
ByLayer
 62
  256
370
   -1
100
AcDbLine
 10
414.330127019
 20
146
 11
414.330127019
 21
151
  0
CIRCLE
  5
B6
100
AcDbEntity
  8
help-lines
  6
ByLayer
 62
  256
370
   -1
100
AcDbCircle
 10
415
 20
74.25
 40
3
  0
MTEXT
  5
B7
100
AcDbEntity
  8
help-lines
  6
ByLayer
 62
  256
370
   -1
100
AcDbMText
 10
415
 20
74.25
 30
0
 40
4
 41
2.666666666666667
 71
    5
 72
    5
  1
A
  7
iso
210
0
220
0
230
1
 50
6.28318530718
 73
    2
 44
0.96
  0
MTEXT
  5
B8
100
AcDbEntity
  8
help-lines
  6
ByLayer
 62
  256
370
   -1
100
AcDbMText
 10
415
 20
222.75
 30
0
 40
4
 41
2.222222222222222
 71
    5
 72
    5
  1
B
  7
iso
210
0
220
0
230
1
 50
6.28318530718
 73
    2
 44
0.96
  0
LINE
  5
B9
100
AcDbEntity
  8
help-lines
  6
ByLayer
 62
  256
370
   -1
100
AcDbLine
 10
420
 20
297
 11
2.57e-14
 21
297
  0
LINE
  5
BA
100
AcDbEntity
  8
help-lines
  6
ByLayer
 62
  256
370
   -1
100
AcDbLine
 10
125
 20
0
 11
125
 21
10
  0
LINE
  5
BB
100
AcDbEntity
  8
help-lines
  6
ByLayer
 62
  256
370
   -1
100
AcDbLine
 10
230
 20
2.84e-14
 11
230
 21
10
  0
LINE
  5
BC
100
AcDbEntity
  8
help-lines
  6
ByLayer
 62
  256
370
   -1
100
AcDbLine
 10
124.999976
 20
9.999976
 11
122.499976
 21
5.66984898108
  0
LINE
  5
BD
100
AcDbEntity
  8
help-lines
  6
ByLayer
 62
  256
370
   -1
100
AcDbLine
 10
124.999976
 20
9.999976
 11
127.499976
 21
5.66984898108
  0
LINE
  5
BE
100
AcDbEntity
  8
help-lines
  6
ByLayer
 62
  256
370
   -1
100
AcDbLine
 10
122.499976
 20
5.66984898108
 11
127.499976
 21
5.66984898108
  0
CIRCLE
  5
BF
100
AcDbEntity
  8
help-lines
  6
ByLayer
 62
  256
370
   -1
100
AcDbCircle
 10
177.5
 20
5
 40
3
  0
LINE
  5
C0
100
AcDbEntity
  8
help-lines
  6
ByLayer
 62
  256
370
   -1
100
AcDbLine
 10
229.999976
 20
9.999976
 11
227.499976
 21
5.66984898108
  0
LINE
  5
C1
100
AcDbEntity
  8
help-lines
  6
ByLayer
 62
  256
370
   -1
100
AcDbLine
 10
229.999976
 20
9.999976
 11
232.499976
 21
5.66984898108
  0
LINE
  5
C2
100
AcDbEntity
  8
help-lines
  6
ByLayer
 62
  256
370
   -1
100
AcDbLine
 10
227.499976
 20
5.66984898108
 11
232.499976
 21
5.66984898108
  0
CIRCLE
  5
C3
100
AcDbEntity
  8
help-lines
  6
ByLayer
 62
  256
370
   -1
100
AcDbCircle
 10
72.5
 20
5
 40
3
  0
MTEXT
  5
C4
100
AcDbEntity
  8
help-lines
  6
ByLayer
 62
  256
370
   -1
100
AcDbMText
 10
72.5
 20
5
 30
0
 40
4
 41
0.8888888888888888
 71
    5
 72
    5
  1
1
  7
iso
210
0
220
0
230
1
 50
0
 73
    2
 44
0.96
  0
MTEXT
  5
C5
100
AcDbEntity
  8
help-lines
  6
ByLayer
 62
  256
370
   -1
100
AcDbMText
 10
177.5
 20
5
 30
0
 40
4
 41
1.777777777777778
 71
    5
 72
    5
  1
2
  7
iso
210
0
220
0
230
1
 50
0
 73
    2
 44
0.96
  0
CIRCLE
  5
C6
100
AcDbEntity
  8
help-lines
  6
ByLayer
 62
  256
370
   -1
100
AcDbCircle
 10
278
 20
5
 40
3
  0
MTEXT
  5
C7
100
AcDbEntity
  8
help-lines
  6
ByLayer
 62
  256
370
   -1
100
AcDbMText
 10
278
 20
5
 30
0
 40
4
 41
1.777777777778026
 71
    5
 72
    5
  1
3
  7
iso
210
0
220
0
230
1
 50
0
 73
    2
 44
0.96
  0
LINE
  5
C8
100
AcDbEntity
  8
help-lines
  6
ByLayer
 62
  256
370
   -1
100
AcDbLine
 10
315
 20
9.999976
 11
312.5
 21
5.66984898108
  0
LINE
  5
C9
100
AcDbEntity
  8
help-lines
  6
ByLayer
 62
  256
370
   -1
100
AcDbLine
 10
315
 20
9.999976
 11
317.5
 21
5.66984898108
  0
LINE
  5
CA
100
AcDbEntity
  8
help-lines
  6
ByLayer
 62
  256
370
   -1
100
AcDbLine
 10
312.5
 20
5.66984898108
 11
317.5
 21
5.66984898108
  0
CIRCLE
  5
CB
100
AcDbEntity
  8
help-lines
  6
ByLayer
 62
  256
370
   -1
100
AcDbCircle
 10
363.000024
 20
5
 40
3
  0
MTEXT
  5
CC
100
AcDbEntity
  8
help-lines
  6
ByLayer
 62
  256
370
   -1
100
AcDbMText
 10
363.000024
 20
5
 30
0
 40
4
 41
2.222222222222222
 71
    5
 72
    5
  1
4
  7
iso
210
0
220
0
230
1
 50
0
 73
    2
 44
0.96
  0
LINE
  5
CD
100
AcDbEntity
  8
help-lines
  6
ByLayer
 62
  256
370
   -1
100
AcDbLine
 10
420
 20
0
 11
420
 21
297
  0
LINE
  5
CE
100
AcDbEntity
  8
help-lines
  6
ByLayer
 62
  256
370
   -1
100
AcDbLine
 10
3.55e-14
 20
0
 11
420
 21
0
  0
LINE
  5
CF
100
AcDbEntity
  8
help-lines
  6
ByLayer
 62
  256
370
   -1
100
AcDbLine
 10
125
 20
297
 11
125
 21
287
  0
LINE
  5
D0
100
AcDbEntity
  8
help-lines
  6
ByLayer
 62
  256
370
   -1
100
AcDbLine
 10
230
 20
297
 11
230
 21
287
  0
LINE
  5
D1
100
AcDbEntity
  8
help-lines
  6
ByLayer
 62
  256
370
   -1
100
AcDbLine
 10
124.999976
 20
287.000024
 11
122.499976
 21
291.330151019
  0
LINE
  5
D2
100
AcDbEntity
  8
help-lines
  6
ByLayer
 62
  256
370
   -1
100
AcDbLine
 10
124.999976
 20
287.000024
 11
127.499976
 21
291.330151019
  0
LINE
  5
D3
100
AcDbEntity
  8
help-lines
  6
ByLayer
 62
  256
370
   -1
100
AcDbLine
 10
122.499976
 20
291.330151019
 11
127.499976
 21
291.330151019
  0
CIRCLE
  5
D4
100
AcDbEntity
  8
help-lines
  6
ByLayer
 62
  256
370
   -1
100
AcDbCircle
 10
177.5
 20
292
 40
3
  0
LINE
  5
D5
100
AcDbEntity
  8
help-lines
  6
ByLayer
 62
  256
370
   -1
100
AcDbLine
 10
229.999976
 20
287.000024
 11
227.499976
 21
291.330151019
  0
LINE
  5
D6
100
AcDbEntity
  8
help-lines
  6
ByLayer
 62
  256
370
   -1
100
AcDbLine
 10
229.999976
 20
287.000024
 11
232.499976
 21
291.330151019
  0
LINE
  5
D7
100
AcDbEntity
  8
help-lines
  6
ByLayer
 62
  256
370
   -1
100
AcDbLine
 10
227.499976
 20
291.330151019
 11
232.499976
 21
291.330151019
  0
CIRCLE
  5
D8
100
AcDbEntity
  8
help-lines
  6
ByLayer
 62
  256
370
   -1
100
AcDbCircle
 10
72.5
 20
292
 40
3
  0
MTEXT
  5
D9
100
AcDbEntity
  8
help-lines
  6
ByLayer
 62
  256
370
   -1
100
AcDbMText
 10
72.5
 20
292
 30
0
 40
4
 41
0.8888888888888888
 71
    5
 72
    5
  1
1
  7
iso
210
0
220
0
230
1
 50
0
 73
    2
 44
0.96
  0
MTEXT
  5
DA
100
AcDbEntity
  8
help-lines
  6
ByLayer
 62
  256
370
   -1
100
AcDbMText
 10
177.5
 20
292
 30
0
 40
4
 41
1.777777777777778
 71
    5
 72
    5
  1
2
  7
iso
210
0
220
0
230
1
 50
0
 73
    2
 44
0.96
  0
CIRCLE
  5
DB
100
AcDbEntity
  8
help-lines
  6
ByLayer
 62
  256
370
   -1
100
AcDbCircle
 10
278
 20
292
 40
3
  0
MTEXT
  5
DC
100
AcDbEntity
  8
help-lines
  6
ByLayer
 62
  256
370
   -1
100
AcDbMText
 10
278
 20
292
 30
0
 40
4
 41
1.777777777778026
 71
    5
 72
    5
  1
3
  7
iso
210
0
220
0
230
1
 50
0
 73
    2
 44
0.96
  0
LINE
  5
DD
100
AcDbEntity
  8
help-lines
  6
ByLayer
 62
  256
370
   -1
100
AcDbLine
 10
315
 20
287.000024
 11
312.5
 21
291.330151019
  0
LINE
  5
DE
100
AcDbEntity
  8
help-lines
  6
ByLayer
 62
  256
370
   -1
100
AcDbLine
 10
315
 20
287.000024
 11
317.5
 21
291.330151019
  0
LINE
  5
DF
100
AcDbEntity
  8
help-lines
  6
ByLayer
 62
  256
370
   -1
100
AcDbLine
 10
312.5
 20
291.330151019
 11
317.5
 21
291.330151019
  0
CIRCLE
  5
E0
100
AcDbEntity
  8
help-lines
  6
ByLayer
 62
  256
370
   -1
100
AcDbCircle
 10
363.000024
 20
292
 40
3
  0
MTEXT
  5
E1
100
AcDbEntity
  8
help-lines
  6
ByLayer
 62
  256
370
   -1
100
AcDbMText
 10
363.000024
 20
292
 30
0
 40
4
 41
2.222222222222222
 71
    5
 72
    5
  1
4
  7
iso
210
0
220
0
230
1
 50
0
 73
    2
 44
0.96
  0
ENDBLK
  5
6B
330
69
100
AcDbEntity
  8
0
100
AcDbBlockEnd
  0
BLOCK
  5
6D
330
6C
100
AcDbEntity
  8
0
100
AcDbBlockBegin
  2
a3-0
 70
    0
 10
0
 20
0
  3
a3-0
  1

  0
HATCH
  5
E2
100
AcDbEntity
  8
hatch
  6
ByLayer
 62
  256
370
   -1
100
AcDbHatch
 10
0
 20
0
 30
0
210
0
220
0
230
1
  2
ansi31
 70
    0
 71
    0
 91
    1
 92
    0
 93
    3
 72
    1
 10
20
 20
148.5
 11
15.6698729811
 21
146
 72
    1
 10
15.6698729811
 20
146
 11
15.6698729811
 21
151
 72
    1
 10
15.6698729811
 20
151
 11
20
 21
148.5
 97
    0
 75
    0
 76
    1
 52
0
 41
0.5
 77
    0
 78
    0
 98
    0
  0
HATCH
  5
E3
100
AcDbEntity
  8
hatch
  6
ByLayer
 62
  256
370
   -1
100
AcDbHatch
 10
0
 20
0
 30
0
210
0
220
0
230
1
  2
ansi31
 70
    0
 71
    0
 91
    1
 92
    0
 93
    3
 72
    1
 10
410
 20
148.5
 11
414.330127019
 21
146
 72
    1
 10
414.330127019
 20
146
 11
414.330127019
 21
151
 72
    1
 10
414.330127019
 20
151
 11
410
 21
148.5
 97
    0
 75
    0
 76
    1
 52
3.14159265359
 41
0.5
 77
    0
 78
    0
 98
    0
  0
HATCH
  5
E4
100
AcDbEntity
  8
hatch
  6
ByLayer
 62
  256
370
   -1
100
AcDbHatch
 10
0
 20
0
 30
0
210
0
220
0
230
1
  2
ansi31
 70
    0
 71
    0
 91
    1
 92
    0
 93
    3
 72
    1
 10
124.999976
 20
9.999976
 11
122.499976
 21
5.66984898108
 72
    1
 10
122.499976
 20
5.66984898108
 11
127.499976
 21
5.66984898108
 72
    1
 10
127.499976
 20
5.66984898108
 11
124.999976
 21
9.999976
 97
    0
 75
    0
 76
    1
 52
4.71238898038
 41
0.5
 77
    0
 78
    0
 98
    0
  0
HATCH
  5
E5
100
AcDbEntity
  8
hatch
  6
ByLayer
 62
  256
370
   -1
100
AcDbHatch
 10
0
 20
0
 30
0
210
0
220
0
230
1
  2
ansi31
 70
    0
 71
    0
 91
    1
 92
    0
 93
    3
 72
    1
 10
229.999976
 20
9.999976
 11
227.499976
 21
5.66984898108
 72
    1
 10
227.499976
 20
5.66984898108
 11
232.499976
 21
5.66984898108
 72
    1
 10
232.499976
 20
5.66984898108
 11
229.999976
 21
9.999976
 97
    0
 75
    0
 76
    1
 52
4.71238898038
 41
0.5
 77
    0
 78
    0
 98
    0
  0
HATCH
  5
E6
100
AcDbEntity
  8
hatch
  6
ByLayer
 62
  256
370
   -1
100
AcDbHatch
 10
0
 20
0
 30
0
210
0
220
0
230
1
  2
ansi31
 70
    0
 71
    0
 91
    1
 92
    0
 93
    3
 72
    1
 10
315
 20
9.999976
 11
312.5
 21
5.66984898108
 72
    1
 10
312.5
 20
5.66984898108
 11
317.5
 21
5.66984898108
 72
    1
 10
317.5
 20
5.66984898108
 11
315
 21
9.999976
 97
    0
 75
    0
 76
    1
 52
4.71238898038
 41
0.5
 77
    0
 78
    0
 98
    0
  0
HATCH
  5
E7
100
AcDbEntity
  8
hatch
  6
ByLayer
 62
  256
370
   -1
100
AcDbHatch
 10
0
 20
0
 30
0
210
0
220
0
230
1
  2
ansi31
 70
    0
 71
    0
 91
    1
 92
    0
 93
    3
 72
    1
 10
315
 20
287.000024
 11
312.5
 21
291.330151019
 72
    1
 10
312.5
 20
291.330151019
 11
317.5
 21
291.330151019
 72
    1
 10
317.5
 20
291.330151019
 11
315
 21
287.000024
 97
    0
 75
    0
 76
    1
 52
4.71238898038
 41
0.5
 77
    0
 78
    0
 98
    0
  0
HATCH
  5
E8
100
AcDbEntity
  8
hatch
  6
ByLayer
 62
  256
370
   -1
100
AcDbHatch
 10
0
 20
0
 30
0
210
0
220
0
230
1
  2
ansi31
 70
    0
 71
    0
 91
    1
 92
    0
 93
    3
 72
    1
 10
229.999976
 20
287.000024
 11
227.499976
 21
291.330151019
 72
    1
 10
227.499976
 20
291.330151019
 11
232.499976
 21
291.330151019
 72
    1
 10
232.499976
 20
291.330151019
 11
229.999976
 21
287.000024
 97
    0
 75
    0
 76
    1
 52
4.71238898038
 41
0.5
 77
    0
 78
    0
 98
    0
  0
HATCH
  5
E9
100
AcDbEntity
  8
hatch
  6
ByLayer
 62
  256
370
   -1
100
AcDbHatch
 10
0
 20
0
 30
0
210
0
220
0
230
1
  2
ansi31
 70
    0
 71
    0
 91
    1
 92
    0
 93
    3
 72
    1
 10
124.999976
 20
287.000024
 11
122.499976
 21
291.330151019
 72
    1
 10
122.499976
 20
291.330151019
 11
127.499976
 21
291.330151019
 72
    1
 10
127.499976
 20
291.330151019
 11
124.999976
 21
287.000024
 97
    0
 75
    0
 76
    1
 52
4.71238898038
 41
0.5
 77
    0
 78
    0
 98
    0
  0
CIRCLE
  5
EA
100
AcDbEntity
  8
help-lines
  6
ByLayer
 62
  256
370
   -1
100
AcDbCircle
 10
15
 20
222.75
 40
3
  0
LINE
  5
EB
100
AcDbEntity
  8
help-lines
  6
ByLayer
 62
  256
370
   -1
100
AcDbLine
 10
20
 20
148.5
 11
15.6698729811
 21
146
  0
LINE
  5
EC
100
AcDbEntity
  8
help-lines
  6
ByLayer
 62
  256
370
   -1
100
AcDbLine
 10
20
 20
148.5
 11
15.6698729811
 21
151
  0
LINE
  5
ED
100
AcDbEntity
  8
help-lines
  6
ByLayer
 62
  256
370
   -1
100
AcDbLine
 10
15.6698729811
 20
146
 11
15.6698729811
 21
151
  0
CIRCLE
  5
EE
100
AcDbEntity
  8
help-lines
  6
ByLayer
 62
  256
370
   -1
100
AcDbCircle
 10
15
 20
74.25
 40
3
  0
MTEXT
  5
EF
100
AcDbEntity
  8
help-lines
  6
ByLayer
 62
  256
370
   -1
100
AcDbMText
 10
15
 20
74.25
 30
0
 40
4
 41
2.666666666666667
 71
    5
 72
    5
  1
A
  7
iso
210
0
220
0
230
1
 50
6.28318530718
 73
    2
 44
0.96
  0
MTEXT
  5
F0
100
AcDbEntity
  8
help-lines
  6
ByLayer
 62
  256
370
   -1
100
AcDbMText
 10
15
 20
222.75
 30
0
 40
4
 41
2.222222222222222
 71
    5
 72
    5
  1
B
  7
iso
210
0
220
0
230
1
 50
6.28318530718
 73
    2
 44
0.96
  0
LINE
  5
F1
100
AcDbEntity
  8
help-lines
  6
ByLayer
 62
  256
370
   -1
100
AcDbLine
 10
1.82076576039e-14
 20
297
 11
0
 21
0
  0
CIRCLE
  5
F2
100
AcDbEntity
  8
help-lines
  6
ByLayer
 62
  256
370
   -1
100
AcDbCircle
 10
415
 20
222.75
 40
3
  0
LINE
  5
F3
100
AcDbEntity
  8
help-lines
  6
ByLayer
 62
  256
370
   -1
100
AcDbLine
 10
410
 20
148.5
 11
414.330127019
 21
146
  0
LINE
  5
F4
100
AcDbEntity
  8
help-lines
  6
ByLayer
 62
  256
370
   -1
100
AcDbLine
 10
410
 20
148.5
 11
414.330127019
 21
151
  0
LINE
  5
F5
100
AcDbEntity
  8
help-lines
  6
ByLayer
 62
  256
370
   -1
100
AcDbLine
 10
414.330127019
 20
146
 11
414.330127019
 21
151
  0
CIRCLE
  5
F6
100
AcDbEntity
  8
help-lines
  6
ByLayer
 62
  256
370
   -1
100
AcDbCircle
 10
415
 20
74.25
 40
3
  0
MTEXT
  5
F7
100
AcDbEntity
  8
help-lines
  6
ByLayer
 62
  256
370
   -1
100
AcDbMText
 10
415
 20
74.25
 30
0
 40
4
 41
2.666666666666667
 71
    5
 72
    5
  1
A
  7
iso
210
0
220
0
230
1
 50
6.28318530718
 73
    2
 44
0.96
  0
MTEXT
  5
F8
100
AcDbEntity
  8
help-lines
  6
ByLayer
 62
  256
370
   -1
100
AcDbMText
 10
415
 20
222.75
 30
0
 40
4
 41
2.222222222222222
 71
    5
 72
    5
  1
B
  7
iso
210
0
220
0
230
1
 50
6.28318530718
 73
    2
 44
0.96
  0
LINE
  5
F9
100
AcDbEntity
  8
help-lines
  6
ByLayer
 62
  256
370
   -1
100
AcDbLine
 10
420
 20
297
 11
1.82076576039e-14
 21
297
  0
LINE
  5
FA
100
AcDbEntity
  8
help-lines
  6
ByLayer
 62
  256
370
   -1
100
AcDbLine
 10
125
 20
0
 11
125
 21
10
  0
LINE
  5
FB
100
AcDbEntity
  8
help-lines
  6
ByLayer
 62
  256
370
   -1
100
AcDbLine
 10
230
 20
0
 11
230
 21
10
  0
LINE
  5
FC
100
AcDbEntity
  8
help-lines
  6
ByLayer
 62
  256
370
   -1
100
AcDbLine
 10
124.999976
 20
9.999976
 11
122.499976
 21
5.66984898108
  0
LINE
  5
FD
100
AcDbEntity
  8
help-lines
  6
ByLayer
 62
  256
370
   -1
100
AcDbLine
 10
124.999976
 20
9.999976
 11
127.499976
 21
5.66984898108
  0
LINE
  5
FE
100
AcDbEntity
  8
help-lines
  6
ByLayer
 62
  256
370
   -1
100
AcDbLine
 10
122.499976
 20
5.66984898108
 11
127.499976
 21
5.66984898108
  0
CIRCLE
  5
FF
100
AcDbEntity
  8
help-lines
  6
ByLayer
 62
  256
370
   -1
100
AcDbCircle
 10
177.5
 20
5
 40
3
  0
LINE
  5
100
100
AcDbEntity
  8
help-lines
  6
ByLayer
 62
  256
370
   -1
100
AcDbLine
 10
229.999976
 20
9.999976
 11
227.499976
 21
5.66984898108
  0
LINE
  5
101
100
AcDbEntity
  8
help-lines
  6
ByLayer
 62
  256
370
   -1
100
AcDbLine
 10
229.999976
 20
9.999976
 11
232.499976
 21
5.66984898108
  0
LINE
  5
102
100
AcDbEntity
  8
help-lines
  6
ByLayer
 62
  256
370
   -1
100
AcDbLine
 10
227.499976
 20
5.66984898108
 11
232.499976
 21
5.66984898108
  0
CIRCLE
  5
103
100
AcDbEntity
  8
help-lines
  6
ByLayer
 62
  256
370
   -1
100
AcDbCircle
 10
72.5
 20
5
 40
3
  0
MTEXT
  5
104
100
AcDbEntity
  8
help-lines
  6
ByLayer
 62
  256
370
   -1
100
AcDbMText
 10
72.5
 20
5
 30
0
 40
4
 41
0.8888888888888888
 71
    5
 72
    5
  1
1
  7
iso
210
0
220
0
230
1
 50
0
 73
    2
 44
0.96
  0
MTEXT
  5
105
100
AcDbEntity
  8
help-lines
  6
ByLayer
 62
  256
370
   -1
100
AcDbMText
 10
177.5
 20
5
 30
0
 40
4
 41
1.777777777777778
 71
    5
 72
    5
  1
2
  7
iso
210
0
220
0
230
1
 50
0
 73
    2
 44
0.96
  0
CIRCLE
  5
106
100
AcDbEntity
  8
help-lines
  6
ByLayer
 62
  256
370
   -1
100
AcDbCircle
 10
278
 20
5
 40
3
  0
MTEXT
  5
107
100
AcDbEntity
  8
help-lines
  6
ByLayer
 62
  256
370
   -1
100
AcDbMText
 10
278
 20
5
 30
0
 40
4
 41
1.777777777778026
 71
    5
 72
    5
  1
3
  7
iso
210
0
220
0
230
1
 50
0
 73
    2
 44
0.96
  0
LINE
  5
108
100
AcDbEntity
  8
help-lines
  6
ByLayer
 62
  256
370
   -1
100
AcDbLine
 10
315
 20
9.999976
 11
312.5
 21
5.66984898108
  0
LINE
  5
109
100
AcDbEntity
  8
help-lines
  6
ByLayer
 62
  256
370
   -1
100
AcDbLine
 10
315
 20
9.999976
 11
317.5
 21
5.66984898108
  0
LINE
  5
10A
100
AcDbEntity
  8
help-lines
  6
ByLayer
 62
  256
370
   -1
100
AcDbLine
 10
312.5
 20
5.66984898108
 11
317.5
 21
5.66984898108
  0
CIRCLE
  5
10B
100
AcDbEntity
  8
help-lines
  6
ByLayer
 62
  256
370
   -1
100
AcDbCircle
 10
363.000024
 20
5
 40
3
  0
MTEXT
  5
10C
100
AcDbEntity
  8
help-lines
  6
ByLayer
 62
  256
370
   -1
100
AcDbMText
 10
363.000024
 20
5
 30
0
 40
4
 41
2.222222222222222
 71
    5
 72
    5
  1
4
  7
iso
210
0
220
0
230
1
 50
0
 73
    2
 44
0.96
  0
LINE
  5
10D
100
AcDbEntity
  8
help-lines
  6
ByLayer
 62
  256
370
   -1
100
AcDbLine
 10
420
 20
0
 11
420
 21
297
  0
LINE
  5
10E
100
AcDbEntity
  8
help-lines
  6
ByLayer
 62
  256
370
   -1
100
AcDbLine
 10
3.5527136788e-14
 20
0
 11
420
 21
0
  0
LINE
  5
10F
100
AcDbEntity
  8
help-lines
  6
ByLayer
 62
  256
370
   -1
100
AcDbLine
 10
125
 20
297
 11
125
 21
287
  0
LINE
  5
110
100
AcDbEntity
  8
help-lines
  6
ByLayer
 62
  256
370
   -1
100
AcDbLine
 10
230
 20
297
 11
230
 21
287
  0
LINE
  5
111
100
AcDbEntity
  8
help-lines
  6
ByLayer
 62
  256
370
   -1
100
AcDbLine
 10
124.999976
 20
287.000024
 11
122.499976
 21
291.330151019
  0
LINE
  5
112
100
AcDbEntity
  8
help-lines
  6
ByLayer
 62
  256
370
   -1
100
AcDbLine
 10
124.999976
 20
287.000024
 11
127.499976
 21
291.330151019
  0
LINE
  5
113
100
AcDbEntity
  8
help-lines
  6
ByLayer
 62
  256
370
   -1
100
AcDbLine
 10
122.499976
 20
291.330151019
 11
127.499976
 21
291.330151019
  0
CIRCLE
  5
114
100
AcDbEntity
  8
help-lines
  6
ByLayer
 62
  256
370
   -1
100
AcDbCircle
 10
177.5
 20
292
 40
3
  0
LINE
  5
115
100
AcDbEntity
  8
help-lines
  6
ByLayer
 62
  256
370
   -1
100
AcDbLine
 10
229.999976
 20
287.000024
 11
227.499976
 21
291.330151019
  0
LINE
  5
116
100
AcDbEntity
  8
help-lines
  6
ByLayer
 62
  256
370
   -1
100
AcDbLine
 10
229.999976
 20
287.000024
 11
232.499976
 21
291.330151019
  0
LINE
  5
117
100
AcDbEntity
  8
help-lines
  6
ByLayer
 62
  256
370
   -1
100
AcDbLine
 10
227.499976
 20
291.330151019
 11
232.499976
 21
291.330151019
  0
CIRCLE
  5
118
100
AcDbEntity
  8
help-lines
  6
ByLayer
 62
  256
370
   -1
100
AcDbCircle
 10
72.5
 20
292
 40
3
  0
MTEXT
  5
119
100
AcDbEntity
  8
help-lines
  6
ByLayer
 62
  256
370
   -1
100
AcDbMText
 10
72.5
 20
292
 30
0
 40
4
 41
0.8888888888888888
 71
    5
 72
    5
  1
1
  7
iso
210
0
220
0
230
1
 50
0
 73
    2
 44
0.96
  0
MTEXT
  5
11A
100
AcDbEntity
  8
help-lines
  6
ByLayer
 62
  256
370
   -1
100
AcDbMText
 10
177.5
 20
292
 30
0
 40
4
 41
1.777777777777778
 71
    5
 72
    5
  1
2
  7
iso
210
0
220
0
230
1
 50
0
 73
    2
 44
0.96
  0
CIRCLE
  5
11B
100
AcDbEntity
  8
help-lines
  6
ByLayer
 62
  256
370
   -1
100
AcDbCircle
 10
278
 20
292
 40
3
  0
MTEXT
  5
11C
100
AcDbEntity
  8
help-lines
  6
ByLayer
 62
  256
370
   -1
100
AcDbMText
 10
278
 20
292
 30
0
 40
4
 41
1.777777777778026
 71
    5
 72
    5
  1
3
  7
iso
210
0
220
0
230
1
 50
0
 73
    2
 44
0.96
  0
LINE
  5
11D
100
AcDbEntity
  8
help-lines
  6
ByLayer
 62
  256
370
   -1
100
AcDbLine
 10
315
 20
287.000024
 11
312.5
 21
291.330151019
  0
LINE
  5
11E
100
AcDbEntity
  8
help-lines
  6
ByLayer
 62
  256
370
   -1
100
AcDbLine
 10
315
 20
287.000024
 11
317.5
 21
291.330151019
  0
LINE
  5
11F
100
AcDbEntity
  8
help-lines
  6
ByLayer
 62
  256
370
   -1
100
AcDbLine
 10
312.5
 20
291.330151019
 11
317.5
 21
291.330151019
  0
CIRCLE
  5
120
100
AcDbEntity
  8
help-lines
  6
ByLayer
 62
  256
370
   -1
100
AcDbCircle
 10
363.000024
 20
292
 40
3
  0
MTEXT
  5
121
100
AcDbEntity
  8
help-lines
  6
ByLayer
 62
  256
370
   -1
100
AcDbMText
 10
363.000024
 20
292
 30
0
 40
4
 41
2.222222222222222
 71
    5
 72
    5
  1
4
  7
iso
210
0
220
0
230
1
 50
0
 73
    2
 44
0.96
  0
ENDBLK
  5
6E
330
6C
100
AcDbEntity
  8
0
100
AcDbBlockEnd
  0
BLOCK
  5
70
330
6F
100
AcDbEntity
  8
0
100
AcDbBlockBegin
  2
eca-logo-0
 70
    0
 10
0
 20
0
  3
eca-logo-0
  1

  0
ARC
  5
122
100
AcDbEntity
  8
0
  6
ByLayer
 62
  256
370
   -1
100
AcDbCircle
 10
110.420388752
 20
76.91488935949999
 40
7.01016792418
100
AcDbArc
 50
87.74620047419999
 51
274.031479733
  0
LINE
  5
123
100
AcDbEntity
  8
0
  6
ByLayer
 62
  256
370
   -1
100
AcDbLine
 10
110.886912
 20
69.94001919999999
 11
115.008423684
 21
69.9454058127
  0
ARC
  5
124
100
AcDbEntity
  8
0
  6
ByLayer
 62
  256
370
   -1
100
AcDbCircle
 10
123.926518775
 20
77.00278865919999
 40
11.2882077629
100
AcDbArc
 50
141.77912084
 51
217.944755456
  0
LINE
  5
125
100
AcDbEntity
  8
0
  6
ByLayer
 62
  256
370
   -1
100
AcDbLine
 10
110.65210144
 20
83.92022498999999
 11
114.989564861
 21
83.93583805510001
  0
MTEXT
  5
126
100
AcDbEntity
  8
0
  6
ByLayer
 62
  256
370
   -1
100
AcDbMText
 10
109.008608924
 20
82.4343709274
 30
0
 40
2.5
 41
1.666666666666667
 71
    1
 72
    1
  1
E\PC\PA
  7
standard
210
0
220
0
230
1
 50
0
 73
    2
 44
1
  0
LINE
  5
127
100
AcDbEntity
  8
0
  6
ByLayer
 62
  256
370
   -1
100
AcDbLine
 10
113.540949806
 20
72.6336679929
 11
125.540949806
 21
72.6336679929
  0
LINE
  5
128
100
AcDbEntity
  8
0
  6
ByLayer
 62
  256
370
   -1
100
AcDbLine
 10
113.540949806
 20
81.34970815200001
 11
125.540949806
 21
81.34970815200001
  0
LINE
  5
129
100
AcDbEntity
  8
0
  6
ByLayer
 62
  256
370
   -1
100
AcDbLine
 10
112.649976812
 20
76.8948431818
 11
125.523374438
 21
76.93048210160001
  0
ENDBLK
  5
71
330
6F
100
AcDbEntity
  8
0
100
AcDbBlockEnd
  0
BLOCK
  5
73
330
72
100
AcDbEntity
  8
0
100
AcDbBlockBegin
  2
eca-logo-1
 70
    0
 10
0
 20
0
  3
eca-logo-1
  1

  0
ARC
  5
12A
100
AcDbEntity
  8
0
  6
ByLayer
 62
  256
370
   -1
100
AcDbCircle
 10
11.1840352802
 20
10.462484617
 40
7.01016792418
100
AcDbArc
 50
87.74620047419999
 51
274.031479733
  0
LINE
  5
12B
100
AcDbEntity
  8
0
  6
ByLayer
 62
  256
370
   -1
100
AcDbLine
 10
11.6505585283
 20
3.4876144575
 11
15.7720702125
 21
3.49300107019
  0
ARC
  5
12C
100
AcDbEntity
  8
0
  6
ByLayer
 62
  256
370
   -1
100
AcDbCircle
 10
24.6901653037
 20
10.5503839167
 40
11.2882077629
100
AcDbArc
 50
141.77912084
 51
217.944755456
  0
LINE
  5
12D
100
AcDbEntity
  8
0
  6
ByLayer
 62
  256
370
   -1
100
AcDbLine
 10
11.4157479686
 20
17.4678202475
 11
15.753211389
 21
17.4834333126
  0
MTEXT
  5
12E
100
AcDbEntity
  8
0
  6
ByLayer
 62
  256
370
   -1
100
AcDbMText
 10
9.77225545204
 20
15.9819661849
 30
0
 40
2.5
 41
1.666666666666667
 71
    1
 72
    1
  1
E\PC\PA
  7
standard
210
0
220
0
230
1
 50
0
 73
    2
 44
1
  0
LINE
  5
12F
100
AcDbEntity
  8
0
  6
ByLayer
 62
  256
370
   -1
100
AcDbLine
 10
14.3045963348
 20
6.18126325039
 11
26.3045963348
 21
6.18126325039
  0
LINE
  5
130
100
AcDbEntity
  8
0
  6
ByLayer
 62
  256
370
   -1
100
AcDbLine
 10
14.3045963348
 20
14.8973034095
 11
26.3045963348
 21
14.8973034095
  0
LINE
  5
131
100
AcDbEntity
  8
0
  6
ByLayer
 62
  256
370
   -1
100
AcDbLine
 10
13.4136233407
 20
10.4424384393
 11
26.287020966
 21
10.4780773591
  0
ENDBLK
  5
74
330
72
100
AcDbEntity
  8
0
100
AcDbBlockEnd
  0
BLOCK
  5
76
330
75
100
AcDbEntity
  8
0
100
AcDbBlockBegin
  2
mcp2014x-connector
 70
    0
 10
0
 20
0
  3
mcp2014x-connector
  1

  0
LINE
  5
132
100
AcDbEntity
  8
0
  6
ByLayer
 62
  256
370
   -1
100
AcDbLine
 10
0.001768171077685565
 20
6.175801839350044
 11
6.251768171077682
 21
6.175801839350044
  0
LINE
  5
133
100
AcDbEntity
  8
0
  6
ByLayer
 62
  256
370
   -1
100
AcDbLine
 10
6.251768171077682
 20
6.175801839350044
 11
6.251768171077682
 21
0.003926839350043565
  0
LINE
  5
134
100
AcDbEntity
  8
0
  6
ByLayer
 62
  256
370
   -1
100
AcDbLine
 10
6.251768171077682
 20
0.003926839350043565
 11
0.001768171077685565
 21
0.003926839350043565
  0
LINE
  5
135
100
AcDbEntity
  8
0
  6
ByLayer
 62
  256
370
   -1
100
AcDbLine
 10
0.001768171077685565
 20
0.003926839350043565
 11
0.001768171077685565
 21
6.175801839350044
  0
ENDBLK
  5
77
330
75
100
AcDbEntity
  8
0
100
AcDbBlockEnd
  0
BLOCK
  5
79
330
78
100
AcDbEntity
  8
0
100
AcDbBlockBegin
  2
Terminal-in
 70
    0
 10
0
 20
0
  3
Terminal-in
  1

  0
CIRCLE
  5
136
100
AcDbEntity
  8
0
  6
ByLayer
 62
  256
370
   -1
100
AcDbCircle
 10
0.00863291037492786
 20
10.74201307537149
 40
3.343779540414038
  0
LINE
  5
137
100
AcDbEntity
  8
0
  6
ByLayer
 62
  256
370
   -1
100
AcDbLine
 10
0.00863291037492786
 20
0.0666705345713865
 11
0.00863291037492786
 21
7.398233534957427
  0
ENDBLK
  5
7A
330
78
100
AcDbEntity
  8
0
100
AcDbBlockEnd
  0
BLOCK
  5
7C
330
7B
100
AcDbEntity
  8
0
100
AcDbBlockBegin
  2
rjconnector
 70
    0
 10
0
 20
0
  3
rjconnector
  1

  0
LINE
  5
138
100
AcDbEntity
  8
0
  6
ByLayer
 62
  256
370
   -1
100
AcDbLine
 10
0
 20
0
 11
0
 21
10
  0
LINE
  5
139
100
AcDbEntity
  8
0
  6
ByLayer
 62
  256
370
   -1
100
AcDbLine
 10
0
 20
10
 11
10
 21
10
  0
LINE
  5
13A
100
AcDbEntity
  8
0
  6
ByLayer
 62
  256
370
   -1
100
AcDbLine
 10
10
 20
10
 11
10
 21
0
  0
LINE
  5
13B
100
AcDbEntity
  8
0
  6
ByLayer
 62
  256
370
   -1
100
AcDbLine
 10
10
 20
0
 11
0
 21
0
  0
LINE
  5
13C
100
AcDbEntity
  8
0
  6
ByLayer
 62
  256
370
   -1
100
AcDbLine
 10
4
 20
9
 11
7
 21
9
  0
LINE
  5
13D
100
AcDbEntity
  8
0
  6
ByLayer
 62
  256
370
   -1
100
AcDbLine
 10
7
 20
9
 11
7
 21
7
  0
LINE
  5
13E
100
AcDbEntity
  8
0
  6
ByLayer
 62
  256
370
   -1
100
AcDbLine
 10
7
 20
7
 11
9
 21
7
  0
LINE
  5
13F
100
AcDbEntity
  8
0
  6
ByLayer
 62
  256
370
   -1
100
AcDbLine
 10
9
 20
7
 11
9
 21
1
  0
LINE
  5
140
100
AcDbEntity
  8
0
  6
ByLayer
 62
  256
370
   -1
100
AcDbLine
 10
9
 20
1
 11
1
 21
1
  0
LINE
  5
141
100
AcDbEntity
  8
0
  6
ByLayer
 62
  256
370
   -1
100
AcDbLine
 10
1
 20
1
 11
1
 21
7
  0
LINE
  5
142
100
AcDbEntity
  8
0
  6
ByLayer
 62
  256
370
   -1
100
AcDbLine
 10
1
 20
7
 11
3
 21
7
  0
LINE
  5
143
100
AcDbEntity
  8
0
  6
ByLayer
 62
  256
370
   -1
100
AcDbLine
 10
3
 20
7
 11
3
 21
9
  0
LINE
  5
144
100
AcDbEntity
  8
0
  6
ByLayer
 62
  256
370
   -1
100
AcDbLine
 10
3
 20
9
 11
4
 21
9
  0
ENDBLK
  5
7D
330
7B
100
AcDbEntity
  8
0
100
AcDbBlockEnd
  0
BLOCK
  5
7F
330
7E
100
AcDbEntity
  8
0
100
AcDbBlockBegin
  2
r1
 70
    0
 10
0
 20
0
  3
r1
  1

  0
POINT
  5
145
100
AcDbEntity
  8
0
  6
CONTINUOUS
 62
    7
370
   70
100
AcDbPoint
 10
0
 20
0
  0
POINT
  5
146
100
AcDbEntity
  8
0
  6
CONTINUOUS
 62
    7
370
   70
100
AcDbPoint
 10
15
 20
0
  0
LINE
  5
147
100
AcDbEntity
  8
0
  6
CONTINUOUS
 62
    7
370
   25
100
AcDbLine
 10
4.5
 20
6
 11
10.5
 21
6
  0
LINE
  5
148
100
AcDbEntity
  8
0
  6
CONTINUOUS
 62
    7
370
   25
100
AcDbLine
 10
4.5
 20
-6
 11
10.5
 21
-6
  0
LINE
  5
149
100
AcDbEntity
  8
0
  6
CONTINUOUS
 62
    7
370
   25
100
AcDbLine
 10
10.5
 20
-6
 11
10.5
 21
6
  0
LINE
  5
14A
100
AcDbEntity
  8
0
  6
CONTINUOUS
 62
    7
370
   25
100
AcDbLine
 10
4.5
 20
6
 11
4.5
 21
-6
  0
LINE
  5
14B
100
AcDbEntity
  8
0
  6
CONTINUOUS
 62
    7
370
   25
100
AcDbLine
 10
15
 20
0
 11
10.5
 21
0
  0
LINE
  5
14C
100
AcDbEntity
  8
0
  6
CONTINUOUS
 62
    7
370
   25
100
AcDbLine
 10
4.5
 20
0
 11
0
 21
0
  0
ENDBLK
  5
80
330
7E
100
AcDbEntity
  8
0
100
AcDbBlockEnd
  0
BLOCK
  5
82
330
81
100
AcDbEntity
  8
0
100
AcDbBlockBegin
  2
Diode-Power
 70
    0
 10
0
 20
0
  3
Diode-Power
  1

  0
LINE
  5
14D
100
AcDbEntity
  8
Contour
  6
ByLayer
 62
  256
370
   25
100
AcDbLine
 10
0
 20
25
 11
-5
 21
15
  0
LINE
  5
14E
100
AcDbEntity
  8
Contour
  6
ByLayer
 62
  256
370
   25
100
AcDbLine
 10
-5
 20
15
 11
5
 21
15
  0
LINE
  5
14F
100
AcDbEntity
  8
Contour
  6
ByLayer
 62
  256
370
   25
100
AcDbLine
 10
5
 20
15
 11
0
 21
25
  0
LINE
  5
150
100
AcDbEntity
  8
Contour
  6
ByLayer
 62
  256
370
   25
100
AcDbLine
 10
0
 20
25
 11
-5
 21
25
  0
LINE
  5
151
100
AcDbEntity
  8
Contour
  6
ByLayer
 62
  256
370
   25
100
AcDbLine
 10
0
 20
25
 11
5
 21
25
  0
LINE
  5
152
100
AcDbEntity
  8
Contour
  6
ByLayer
 62
  256
370
   25
100
AcDbLine
 10
0
 20
25
 11
0
 21
40
  0
LINE
  5
153
100
AcDbEntity
  8
Contour
  6
ByLayer
 62
  256
370
   25
100
AcDbLine
 10
0
 20
15
 11
0
 21
0
  0
ENDBLK
  5
83
330
81
100
AcDbEntity
  8
0
100
AcDbBlockEnd
  0
BLOCK
  5
85
330
84
100
AcDbEntity
  8
0
100
AcDbBlockBegin
  2
junction
 70
    0
 10
0
 20
0
  3
junction
  1

  0
HATCH
  5
154
100
AcDbEntity
  8
0
  6
ByLayer
 62
  256
370
   -1
100
AcDbHatch
 10
0
 20
0
 30
0
210
0
220
0
230
1
  2
gost_ceramics
 70
    0
 71
    0
 91
    1
 92
    0
 93
    1
 72
    2
 10
-0.05958860799999854
 20
-0.1342767104000018
 40
1.289183059150252
 50
0
 51
360
 73
    1
 97
    0
 75
    0
 76
    1
 52
0
 41
0.05
 77
    0
 78
    0
 98
    0
  0
CIRCLE
  5
155
100
AcDbEntity
  8
0
  6
ByLayer
 62
  256
370
   -1
100
AcDbCircle
 10
-0.05958860799999854
 20
-0.1342767104000018
 40
1.289183059150252
  0
ENDBLK
  5
86
330
84
100
AcDbEntity
  8
0
100
AcDbBlockEnd
  0
BLOCK
  5
88
330
87
100
AcDbEntity
  8
0
100
AcDbBlockBegin
  2
ln1
 70
    0
 10
0
 20
0
  3
ln1
  1

  0
POINT
  5
156
100
AcDbEntity
  8
0
  6
CONTINUOUS
 62
    7
370
   70
100
AcDbPoint
 10
0
 20
0
  0
POINT
  5
157
100
AcDbEntity
  8
0
  6
CONTINUOUS
 62
    7
370
   70
100
AcDbPoint
 10
15
 20
0
  0
LINE
  5
158
100
AcDbEntity
  8
0
  6
CONTINUOUS
 62
    7
370
   25
100
AcDbLine
 10
15
 20
0
 11
11.5
 21
0
  0
LINE
  5
159
100
AcDbEntity
  8
0
  6
CONTINUOUS
 62
    7
370
   25
100
AcDbLine
 10
10.33000000000001
 20
-2.829999999999998
 11
4.670000000000016
 21
2.829999999999998
  0
LINE
  5
15A
100
AcDbEntity
  8
0
  6
CONTINUOUS
 62
    7
370
   25
100
AcDbLine
 10
4.670000000000016
 20
-2.829999999999998
 11
10.33000000000001
 21
2.829999999999998
  0
CIRCLE
  5
15B
100
AcDbEntity
  8
0
  6
CONTINUOUS
 62
    7
370
   25
100
AcDbCircle
 10
7.5
 20
0
 40
4
  0
LINE
  5
15C
100
AcDbEntity
  8
0
  6
CONTINUOUS
 62
    7
370
   25
100
AcDbLine
 10
3.5
 20
0
 11
0
 21
0
  0
ENDBLK
  5
89
330
87
100
AcDbEntity
  8
0
100
AcDbBlockEnd
  0
BLOCK
  5
8B
330
8A
100
AcDbEntity
  8
0
100
AcDbBlockBegin
  2
buzzer
 70
    0
 10
0
 20
0
  3
buzzer
  1

  0
LINE
  5
15D
100
AcDbEntity
  8
0
  6
CONTINUOUS
 62
    7
370
   25
100
AcDbLine
 10
0
 20
-4
 11
5
 21
-4
  0
LINE
  5
15E
100
AcDbEntity
  8
0
  6
CONTINUOUS
 62
    7
370
   25
100
AcDbLine
 10
5
 20
-6.5
 11
5
 21
2.5
  0
ARC
  5
15F
100
AcDbEntity
  8
0
  6
CONTINUOUS
 62
    7
370
   25
100
AcDbCircle
 10
5
 20
-2
 40
4.5
100
AcDbArc
 50
270
 51
90
  0
LINE
  5
160
100
AcDbEntity
  8
0
  6
CONTINUOUS
 62
    7
370
   25
100
AcDbLine
 10
5
 20
0
 11
0
 21
0
  0
ENDBLK
  5
8C
330
8A
100
AcDbEntity
  8
0
100
AcDbBlockEnd
  0
BLOCK
  5
8E
330
8D
100
AcDbEntity
  8
0
100
AcDbBlockBegin
  2
Switch-button-mk
 70
    0
 10
0
 20
0
  3
Switch-button-mk
  1

  0
LINE
  5
161
100
AcDbEntity
  8
Contour
  6
ByLayer
 62
  256
370
   -1
100
AcDbLine
 10
0
 20
0
 11
9
 21
0
  0
CIRCLE
  5
162
100
AcDbEntity
  8
Contour
  6
ByLayer
 62
  256
370
   -1
100
AcDbCircle
 10
10
 20
0
 40
1
  0
LINE
  5
163
100
AcDbEntity
  8
Contour
  6
ByLayer
 62
  256
370
   -1
100
AcDbLine
 10
30
 20
0
 11
21
 21
0
  0
CIRCLE
  5
164
100
AcDbEntity
  8
Contour
  6
ByLayer
 62
  256
370
   -1
100
AcDbCircle
 10
20
 20
0
 40
1
  0
LINE
  5
165
100
AcDbEntity
  8
Contour
  6
ByLayer
 62
  256
370
   -1
100
AcDbLine
 10
9
 20
3.125
 11
21
 21
3.125
  0
LINE
  5
166
100
AcDbEntity
  8
Contour
  6
ByLayer
 62
  256
370
   -1
100
AcDbLine
 10
9
 20
3.75
 11
21
 21
3.75
  0
LINE
  5
167
100
AcDbEntity
  8
Contour
  6
ByLayer
 62
  256
370
   -1
100
AcDbLine
 10
9
 20
3.75
 11
9
 21
3.125
  0
LINE
  5
168
100
AcDbEntity
  8
Contour
  6
ByLayer
 62
  256
370
   -1
100
AcDbLine
 10
21
 20
3.75
 11
21
 21
3.125
  0
LINE
  5
169
100
AcDbEntity
  8
Contour
  6
ByLayer
 62
  256
370
   -1
100
AcDbLine
 10
13.125
 20
3.75
 11
13.125
 21
5
  0
LINE
  5
16A
100
AcDbEntity
  8
Contour
  6
ByLayer
 62
  256
370
   -1
100
AcDbLine
 10
13.125
 20
5
 11
16.875
 21
5
  0
LINE
  5
16B
100
AcDbEntity
  8
Contour
  6
ByLayer
 62
  256
370
   -1
100
AcDbLine
 10
16.875
 20
5
 11
16.875
 21
3.75
  0
ENDBLK
  5
8F
330
8D
100
AcDbEntity
  8
0
100
AcDbBlockEnd
  0
BLOCK
  5
91
330
90
100
AcDbEntity
  8
0
100
AcDbBlockBegin
  2
Switch-button-mk-0
 70
    0
 10
0
 20
0
  3
Switch-button-mk-0
  1

  0
LINE
  5
16C
100
AcDbEntity
  8
Contour
  6
ByLayer
 62
  256
370
   -1
100
AcDbLine
 10
0
 20
0
 11
9
 21
0
  0
CIRCLE
  5
16D
100
AcDbEntity
  8
Contour
  6
ByLayer
 62
  256
370
   -1
100
AcDbCircle
 10
10
 20
0
 40
1
  0
LINE
  5
16E
100
AcDbEntity
  8
Contour
  6
ByLayer
 62
  256
370
   -1
100
AcDbLine
 10
30
 20
0
 11
21
 21
0
  0
CIRCLE
  5
16F
100
AcDbEntity
  8
Contour
  6
ByLayer
 62
  256
370
   -1
100
AcDbCircle
 10
20
 20
0
 40
1
  0
LINE
  5
170
100
AcDbEntity
  8
Contour
  6
ByLayer
 62
  256
370
   -1
100
AcDbLine
 10
9
 20
3.125
 11
21
 21
3.125
  0
LINE
  5
171
100
AcDbEntity
  8
Contour
  6
ByLayer
 62
  256
370
   -1
100
AcDbLine
 10
9
 20
3.75
 11
21
 21
3.75
  0
LINE
  5
172
100
AcDbEntity
  8
Contour
  6
ByLayer
 62
  256
370
   -1
100
AcDbLine
 10
9
 20
3.75
 11
9
 21
3.125
  0
LINE
  5
173
100
AcDbEntity
  8
Contour
  6
ByLayer
 62
  256
370
   -1
100
AcDbLine
 10
21
 20
3.75
 11
21
 21
3.125
  0
LINE
  5
174
100
AcDbEntity
  8
Contour
  6
ByLayer
 62
  256
370
   -1
100
AcDbLine
 10
13.125
 20
3.75
 11
13.125
 21
5
  0
LINE
  5
175
100
AcDbEntity
  8
Contour
  6
ByLayer
 62
  256
370
   -1
100
AcDbLine
 10
13.125
 20
5
 11
16.875
 21
5
  0
LINE
  5
176
100
AcDbEntity
  8
Contour
  6
ByLayer
 62
  256
370
   -1
100
AcDbLine
 10
16.875
 20
5
 11
16.875
 21
3.75
  0
ENDBLK
  5
92
330
90
100
AcDbEntity
  8
0
100
AcDbBlockEnd
  0
BLOCK
  5
94
330
93
100
AcDbEntity
  8
0
100
AcDbBlockBegin
  2
vd1
 70
    0
 10
0
 20
0
  3
vd1
  1

  0
LINE
  5
177
100
AcDbEntity
  8
0
  6
CONTINUOUS
 62
    7
370
   25
100
AcDbLine
 10
0
 20
0
 11
10
 21
0
  0
LINE
  5
178
100
AcDbEntity
  8
0
  6
CONTINUOUS
 62
    7
370
   25
100
AcDbLine
 10
7
 20
0
 11
3
 21
-2
  0
LINE
  5
179
100
AcDbEntity
  8
0
  6
CONTINUOUS
 62
    7
370
   25
100
AcDbLine
 10
3
 20
-2
 11
3
 21
2
  0
LINE
  5
17A
100
AcDbEntity
  8
0
  6
CONTINUOUS
 62
    7
370
   25
100
AcDbLine
 10
3
 20
2
 11
7
 21
0
  0
LINE
  5
17B
100
AcDbEntity
  8
0
  6
CONTINUOUS
 62
    7
370
   25
100
AcDbLine
 10
7
 20
-2
 11
7
 21
2
  0
ENDBLK
  5
95
330
93
100
AcDbEntity
  8
0
100
AcDbBlockEnd
  0
ENDSEC
  0
SECTION
  2
ENTITIES
  0
INSERT
  5
17C
100
AcDbEntity
  8
0
  6
ByLayer
 62
  256
370
   -1
100
AcDbBlockReference
  2
a3-0
 10
-0.5
 20
0.25
 30
0
 41
1
 42
1
 43
0
 50
0
 70
    1
 71
    1
 44
0
 45
0
  0
LINE
  5
17D
100
AcDbEntity
  8
0
  6
ByLayer
 62
  256
370
   -1
100
AcDbLine
 10
20.3926056338
 20
286.019366197
 11
408.897887324
 21
286.019366197
  0
LINE
  5
17E
100
AcDbEntity
  8
0
  6
ByLayer
 62
  256
370
   -1
100
AcDbLine
 10
408.897887324
 20
286.019366197
 11
408.897887324
 21
12.5492957746
  0
LINE
  5
17F
100
AcDbEntity
  8
0
  6
ByLayer
 62
  256
370
   -1
100
AcDbLine
 10
408.897887324
 20
12.5492957746
 11
20.3926056338
 21
12.5492957746
  0
LINE
  5
180
100
AcDbEntity
  8
0
  6
ByLayer
 62
  256
370
   -1
100
AcDbLine
 10
20.3926056338
 20
12.5492957746
 11
20.3926056338
 21
286.019366197
  0
LINE
  5
181
100
AcDbEntity
  8
frame-title
  6
ByLayer
 62
  256
370
   -1
100
AcDbLine
 10
300.137323944
 20
54.9031690141
 11
408.897887324
 21
54.9031690141
  0
LINE
  5
182
100
AcDbEntity
  8
frame-title
  6
ByLayer
 62
  256
370
   -1
100
AcDbLine
 10
300.132357769
 20
12.5492957746
 11
300.132357769
 21
54.9031690141
  0
INSERT
  5
183
100
AcDbEntity
  8
frame-title
  6
ByLayer
 62
  256
370
   -1
100
AcDbBlockReference
  2
eca-logo-1
 10
299.309070423
 20
35.6065352113
 30
0
 41
1
 42
1
 43
0
 50
0
 70
    1
 71
    1
 44
0
 45
0
  0
LINE
  5
184
100
AcDbEntity
  8
help-lines
  6
ByLayer
 62
  256
370
   -1
100
AcDbLine
 10
-0.3706532681816158
 20
148.6319605408279
 11
15.1698729811
 21
148.6319605408279
  0
LINE
  5
185
100
AcDbEntity
  8
help-lines
  6
ByLayer
 62
  256
370
   -1
100
AcDbLine
 10
413.830127019
 20
148.6864622175099
 11
419.5
 21
148.7268816659979
  0
LINE
  5
186
100
AcDbEntity
  8
help-lines
  6
ByLayer
 62
  256
370
   -1
100
AcDbLine
 10
314.5451730611308
 20
297.224709437482
 11
314.5451730611308
 21
291.580151019
  0
LINE
  5
187
100
AcDbEntity
  8
help-lines
  6
ByLayer
 62
  256
370
   -1
100
AcDbLine
 10
314.4947345867757
 20
0.3389682416326533
 11
314.4947345867757
 21
5.91984898108
  0
LINE
  5
188
100
AcDbEntity
  8
schematic
  6
ByLayer
 62
  256
370
   -1
100
AcDbLine
 10
60
 20
80
 11
160
 21
80
  0
LINE
  5
189
100
AcDbEntity
  8
schematic
  6
ByLayer
 62
  256
370
   -1
100
AcDbLine
 10
160
 20
80
 11
230
 21
80
  0
MTEXT
  5
18A
100
AcDbEntity
  8
frame-title
  6
ByLayer
 62
  256
370
   -1
100
AcDbMText
 10
333.041577465
 20
52.2050704225
 30
0
 40
3
 41
59.50000154286238
 71
    1
 72
    1
  1
ECA Di Belardi\PVia Dei Crispolti 91-93, Roma\PTel. 0643535861
  7
standard
210
0
220
0
230
1
 50
0
 73
    2
 44
1
  0
INSERT
  5
18B
100
AcDbEntity
  8
schematic
  6
ByLayer
 62
  256
370
   -1
100
AcDbBlockReference
  2
ln1
 10
340
 20
135
 30
0
 41
1
 42
1
 43
0
 50
90
 70
    1
 71
    1
 44
0
 45
0
  0
MTEXT
  5
18C
100
AcDbEntity
  8
labels
  6
ByLayer
 62
  256
370
   -1
100
AcDbMText
 10
355
 20
147
 30
0
 40
3
 41
28.99999936399355
 71
    1
 72
    1
  1
SEGNALAZIONE\PPOSIZIONE
  7
standard
210
0
220
0
230
1
 50
0
 73
    2
 44
1
  0
LINE
  5
18D
100
AcDbEntity
  8
schematic
  6
ByLayer
 62
  256
370
   -1
100
AcDbLine
 10
230
 20
80
 11
340
 21
80
  0
LINE
  5
18E
100
AcDbEntity
  8
schematic
  6
ByLayer
 62
  256
370
   -1
100
AcDbLine
 10
340
 20
80
 11
340
 21
135
  0
INSERT
  5
18F
100
AcDbEntity
  8
schematic
  6
ByLayer
 62
  256
370
   -1
100
AcDbBlockReference
  2
ln1
 10
196.0010692356964
 20
135
 30
0
 41
1
 42
1
 43
0
 50
90
 70
    1
 71
    1
 44
0
 45
0
  0
INSERT
  5
190
100
AcDbEntity
  8
schematic
  6
ByLayer
 62
  256
370
   -1
100
AcDbBlockReference
  2
Terminal-in
 10
176.7997371435645
 20
144
 30
0
 41
1
 42
1
 43
0
 50
180
 70
    1
 71
    1
 44
0
 45
0
  0
LINE
  5
191
100
AcDbEntity
  8
schematic
  6
ByLayer
 62
  256
370
   -1
100
AcDbLine
 10
176.7997371435645
 20
80
 11
176.7997371435645
 21
120
  0
LINE
  5
192
100
AcDbEntity
  8
schematic
  6
ByLayer
 62
  256
370
   -1
100
AcDbLine
 10
176.7997371435645
 20
120
 11
173.7997371435645
 21
120
  0
LINE
  5
193
100
AcDbEntity
  8
schematic
  6
ByLayer
 62
  256
370
   -1
100
AcDbLine
 10
173.7997371435645
 20
120
 11
176.7997371435645
 21
124
  0
LINE
  5
194
100
AcDbEntity
  8
schematic
  6
ByLayer
 62
  256
370
   -1
100
AcDbLine
 10
176.7997371435645
 20
124
 11
179.7997371435645
 21
120
  0
LINE
  5
195
100
AcDbEntity
  8
schematic
  6
ByLayer
 62
  256
370
   -1
100
AcDbLine
 10
179.7997371435645
 20
120
 11
176.7997371435645
 21
120
  0
INSERT
  5
196
100
AcDbEntity
  8
schematic
  6
ByLayer
 62
  256
370
   -1
100
AcDbBlockReference
  2
Terminal-in
 10
99.64051088549782
 20
144
 30
0
 41
1
 42
1
 43
0
 50
180
 70
    1
 71
    1
 44
0
 45
0
  0
LINE
  5
197
100
AcDbEntity
  8
schematic
  6
ByLayer
 62
  256
370
   -1
100
AcDbLine
 10
99.64051088549782
 20
220
 11
99.64051088549782
 21
140
  0
INSERT
  5
198
100
AcDbEntity
  8
schematic
  6
ByLayer
 62
  256
370
   -1
100
AcDbBlockReference
  2
Terminal-in
 10
119.6405108854978
 20
144
 30
0
 41
1
 42
1
 43
0
 50
180
 70
    1
 71
    1
 44
0
 45
0
  0
LINE
  5
199
100
AcDbEntity
  8
schematic
  6
ByLayer
 62
  256
370
   -1
100
AcDbLine
 10
119.6405108854978
 20
220
 11
119.6405108854978
 21
140
  0
INSERT
  5
19A
100
AcDbEntity
  8
schematic
  6
ByLayer
 62
  256
370
   -1
100
AcDbBlockReference
  2
Terminal-in
 10
139.6405108854978
 20
144
 30
0
 41
1
 42
1
 43
0
 50
180
 70
    1
 71
    1
 44
0
 45
0
  0
LINE
  5
19B
100
AcDbEntity
  8
schematic
  6
ByLayer
 62
  256
370
   -1
100
AcDbLine
 10
139.6405108854978
 20
220
 11
139.6405108854978
 21
140
  0
INSERT
  5
19C
100
AcDbEntity
  8
schematic
  6
ByLayer
 62
  256
370
   -1
100
AcDbBlockReference
  2
mcp2014x-connector
 10
96.64051088549782
 20
221
 30
0
 41
1
 42
1
 43
0
 50
0
 70
    1
 71
    1
 44
1
 45
1
  0
INSERT
  5
19D
100
AcDbEntity
  8
schematic
  6
ByLayer
 62
  256
370
   -1
100
AcDbBlockReference
  2
mcp2014x-connector
 10
116.6405108854978
 20
221
 30
0
 41
1
 42
1
 43
0
 50
0
 70
    1
 71
    1
 44
1
 45
1
  0
INSERT
  5
19E
100
AcDbEntity
  8
schematic
  6
ByLayer
 62
  256
370
   -1
100
AcDbBlockReference
  2
mcp2014x-connector
 10
136.6405108854978
 20
221
 30
0
 41
1
 42
1
 43
0
 50
0
 70
    1
 71
    1
 44
1
 45
1
  0
INSERT
  5
19F
100
AcDbEntity
  8
schematic
  6
ByLayer
 62
  256
370
   -1
100
AcDbBlockReference
  2
Terminal-in
 10
159.6405108854978
 20
144
 30
0
 41
1
 42
1
 43
0
 50
180
 70
    1
 71
    1
 44
0
 45
0
  0
LINE
  5
1A0
100
AcDbEntity
  8
schematic
  6
ByLayer
 62
  256
370
   -1
100
AcDbLine
 10
159.6405108854978
 20
220
 11
159.6405108854978
 21
140
  0
INSERT
  5
1A1
100
AcDbEntity
  8
schematic
  6
ByLayer
 62
  256
370
   -1
100
AcDbBlockReference
  2
mcp2014x-connector
 10
156.6405108854978
 20
221
 30
0
 41
1
 42
1
 43
0
 50
0
 70
    1
 71
    1
 44
1
 45
1
  0
MTEXT
  5
1A2
100
AcDbEntity
  8
labels
  6
ByLayer
 62
  256
370
   -1
100
AcDbMText
 10
98.02691676304894
 20
225.4933263673473
 30
0
 40
3
 41
3.666666666666852
 71
    1
 72
    1
  1
30
  7
standard
210
0
220
0
230
1
 50
0
 73
    2
 44
1
  0
MTEXT
  5
1A3
100
AcDbEntity
  8
labels
  6
ByLayer
 62
  256
370
   -1
100
AcDbMText
 10
117.8883371712122
 20
225.3609168979595
 30
0
 40
3
 41
3.666666666666666
 71
    1
 72
    1
  1
29
  7
standard
210
0
220
0
230
1
 50
0
 73
    2
 44
1
  0
MTEXT
  5
1A4
100
AcDbEntity
  8
labels
  6
ByLayer
 62
  256
370
   -1
100
AcDbMText
 10
137.7497575793755
 20
225.4933263673473
 30
0
 40
3
 41
3.666666666666666
 71
    1
 72
    1
  1
28
  7
standard
210
0
220
0
230
1
 50
0
 73
    2
 44
1
  0
MTEXT
  5
1A5
100
AcDbEntity
  8
labels
  6
ByLayer
 62
  256
370
   -1
100
AcDbMText
 10
158.0084063957021
 20
225.4933263673473
 30
0
 40
3
 41
3.000000000000186
 71
    1
 72
    1
  1
31
  7
standard
210
0
220
0
230
1
 50
0
 73
    2
 44
1
  0
MTEXT
  5
1A6
100
AcDbEntity
  8
labels
  6
ByLayer
 62
  256
370
   -1
100
AcDbMText
 10
91.22438027325317
 20
266.922481632654
 30
0
 40
5
 41
31.11111111111142
 71
    1
 72
    1
  1
MCP2015X
  7
standard
210
0
220
0
230
1
 50
0
 73
    2
 44
1
  0
LINE
  5
1A7
100
AcDbEntity
  8
schematic
  6
ByLayer
 62
  256
370
   -1
100
AcDbLine
 10
159.6405108854978
 20
245
 11
159.6405108854978
 21
239
  0
LINE
  5
1A8
100
AcDbEntity
  8
schematic
  6
ByLayer
 62
  256
370
   -1
100
AcDbLine
 10
159.6405108854978
 20
227
 11
159.6405108854978
 21
232
  0
LINE
  5
1A9
100
AcDbEntity
  8
schematic
  6
ByLayer
 62
  256
370
   -1
100
AcDbLine
 10
159.6405108854978
 20
232
 11
162.6405108854978
 21
239
  0
LINE
  5
1AA
100
AcDbEntity
  8
schematic
  6
ByLayer
 62
  256
370
   -1
100
AcDbLine
 10
139.6405108854978
 20
245
 11
139.6405108854978
 21
239
  0
LINE
  5
1AB
100
AcDbEntity
  8
schematic
  6
ByLayer
 62
  256
370
   -1
100
AcDbLine
 10
139.6405108854978
 20
227
 11
139.6405108854978
 21
232
  0
LINE
  5
1AC
100
AcDbEntity
  8
schematic
  6
ByLayer
 62
  256
370
   -1
100
AcDbLine
 10
139.6405108854978
 20
232
 11
142.6405108854978
 21
239
  0
LINE
  5
1AD
100
AcDbEntity
  8
schematic
  6
ByLayer
 62
  256
370
   -1
100
AcDbLine
 10
119.6405108854978
 20
245
 11
119.6405108854978
 21
239
  0
LINE
  5
1AE
100
AcDbEntity
  8
schematic
  6
ByLayer
 62
  256
370
   -1
100
AcDbLine
 10
119.6405108854978
 20
227
 11
119.6405108854978
 21
232
  0
LINE
  5
1AF
100
AcDbEntity
  8
schematic
  6
ByLayer
 62
  256
370
   -1
100
AcDbLine
 10
119.6405108854978
 20
232
 11
122.6405108854978
 21
239
  0
LINE
  5
1B0
100
AcDbEntity
  8
schematic
  6
ByLayer
 62
  256
370
   -1
100
AcDbLine
 10
99.64051088549782
 20
245
 11
99.64051088549782
 21
239
  0
LINE
  5
1B1
100
AcDbEntity
  8
schematic
  6
ByLayer
 62
  256
370
   -1
100
AcDbLine
 10
99.64051088549782
 20
227
 11
99.64051088549782
 21
232
  0
LINE
  5
1B2
100
AcDbEntity
  8
schematic
  6
ByLayer
 62
  256
370
   -1
100
AcDbLine
 10
99.64051088549782
 20
232
 11
102.6405108854978
 21
239
  0
INSERT
  5
1B3
100
AcDbEntity
  8
schematic
  6
ByLayer
 62
  256
370
   -1
100
AcDbBlockReference
  2
junction
 10
99.64051088549782
 20
245
 30
0
 41
1
 42
1
 43
0
 50
0
 70
    1
 71
    1
 44
1
 45
1
  0
INSERT
  5
1B4
100
AcDbEntity
  8
schematic
  6
ByLayer
 62
  256
370
   -1
100
AcDbBlockReference
  2
junction
 10
119.6405108854978
 20
245
 30
0
 41
1
 42
1
 43
0
 50
0
 70
    1
 71
    1
 44
1
 45
1
  0
INSERT
  5
1B5
100
AcDbEntity
  8
schematic
  6
ByLayer
 62
  256
370
   -1
100
AcDbBlockReference
  2
junction
 10
139.6405108854978
 20
245
 30
0
 41
1
 42
1
 43
0
 50
0
 70
    1
 71
    1
 44
1
 45
1
  0
INSERT
  5
1B6
100
AcDbEntity
  8
schematic
  6
ByLayer
 62
  256
370
   -1
100
AcDbBlockReference
  2
rjconnector
 10
156.6405108854978
 20
257
 30
0
 41
1
 42
1
 43
0
 50
0
 70
    1
 71
    1
 44
1
 45
1
  0
MTEXT
  5
1B7
100
AcDbEntity
  8
labels
  6
ByLayer
 62
  256
370
   -1
100
AcDbMText
 10
145.6405108854978
 20
136
 30
0
 40
4
 41
9.333333333333581
 71
    1
 72
    1
  1
GON
  7
standard
210
0
220
0
230
1
 50
0
 73
    2
 44
1
  0
MTEXT
  5
1B8
100
AcDbEntity
  8
labels
  6
ByLayer
 62
  256
370
   -1
100
AcDbMText
 10
129.6405108854978
 20
136
 30
0
 40
4
 41
6.222221374213624
 71
    1
 72
    1
  1
SV
  7
standard
210
0
220
0
230
1
 50
0
 73
    2
 44
1
  0
MTEXT
  5
1B9
100
AcDbEntity
  8
labels
  6
ByLayer
 62
  256
370
   -1
100
AcDbMText
 10
109.6405108854978
 20
136
 30
0
 40
4
 41
5.333333333333581
 71
    1
 72
    1
  1
FD
  7
standard
210
0
220
0
230
1
 50
0
 73
    2
 44
1
  0
MTEXT
  5
1BA
100
AcDbEntity
  8
labels
  6
ByLayer
 62
  256
370
   -1
100
AcDbMText
 10
89.64051088549782
 20
136
 30
0
 40
4
 41
5.333332485324735
 71
    1
 72
    1
  1
FS
  7
standard
210
0
220
0
230
1
 50
0
 73
    2
 44
1
  0
INSERT
  5
1BB
100
AcDbEntity
  8
schematic
  6
ByLayer
 62
  256
370
   -1
100
AcDbBlockReference
  2
Terminal-in
 10
82.69309058488555
 20
144
 30
0
 41
1
 42
1
 43
0
 50
180
 70
    1
 71
    1
 44
0
 45
0
  0
LINE
  5
1BC
100
AcDbEntity
  8
schematic
  6
ByLayer
 62
  256
370
   -1
100
AcDbLine
 10
82.69309058488555
 20
220
 11
82.69309058488555
 21
140
  0
INSERT
  5
1BD
100
AcDbEntity
  8
schematic
  6
ByLayer
 62
  256
370
   -1
100
AcDbBlockReference
  2
mcp2014x-connector
 10
79.69309058488555
 20
221
 30
0
 41
1
 42
1
 43
0
 50
0
 70
    1
 71
    1
 44
1
 45
1
  0
MTEXT
  5
1BE
100
AcDbEntity
  8
labels
  6
ByLayer
 62
  256
370
   -1
100
AcDbMText
 10
81.09183670733458
 20
225.8905547755105
 30
0
 40
3
 41
3.666666666667038
 71
    1
 72
    1
  1
33
  7
standard
210
0
220
0
230
1
 50
0
 73
    2
 44
1
  0
LINE
  5
1BF
100
AcDbEntity
  8
schematic
  6
ByLayer
 62
  256
370
   -1
100
AcDbLine
 10
82.69309058488555
 20
227
 11
82.69309058488555
 21
245
  0
MTEXT
  5
1C0
100
AcDbEntity
  8
labels
  6
ByLayer
 62
  256
370
   -1
100
AcDbMText
 10
73.69309058488555
 20
135
 30
0
 40
4
 41
5.333333333333333
 71
    1
 72
    1
  1
PE
  7
standard
210
0
220
0
230
1
 50
0
 73
    2
 44
1
  0
INSERT
  5
1C1
100
AcDbEntity
  8
schematic
  6
ByLayer
 62
  256
370
   -1
100
AcDbBlockReference
  2
Terminal-in
 10
67.75110896801145
 20
144
 30
0
 41
1
 42
1
 43
0
 50
180
 70
    1
 71
    1
 44
0
 45
0
  0
LINE
  5
1C2
100
AcDbEntity
  8
schematic
  6
ByLayer
 62
  256
370
   -1
100
AcDbLine
 10
67.75110896801145
 20
220
 11
67.75110896801145
 21
140
  0
INSERT
  5
1C3
100
AcDbEntity
  8
schematic
  6
ByLayer
 62
  256
370
   -1
100
AcDbBlockReference
  2
mcp2014x-connector
 10
64.75110896801145
 20
221
 30
0
 41
1
 42
1
 43
0
 50
0
 70
    1
 71
    1
 44
1
 45
1
  0
LINE
  5
1C4
100
AcDbEntity
  8
schematic
  6
ByLayer
 62
  256
370
   -1
100
AcDbLine
 10
67.75110896801145
 20
245
 11
67.75110896801145
 21
239
  0
LINE
  5
1C5
100
AcDbEntity
  8
schematic
  6
ByLayer
 62
  256
370
   -1
100
AcDbLine
 10
67.75110896801145
 20
227
 11
67.75110896801145
 21
232
  0
LINE
  5
1C6
100
AcDbEntity
  8
schematic
  6
ByLayer
 62
  256
370
   -1
100
AcDbLine
 10
67.75110896801145
 20
232
 11
70.75110896801145
 21
239
  0
INSERT
  5
1C7
100
AcDbEntity
  8
schematic
  6
ByLayer
 62
  256
370
   -1
100
AcDbBlockReference
  2
junction
 10
67.75110896801145
 20
245
 30
0
 41
1
 42
1
 43
0
 50
0
 70
    1
 71
    1
 44
1
 45
1
  0
INSERT
  5
1C8
100
AcDbEntity
  8
schematic
  6
ByLayer
 62
  256
370
   -1
100
AcDbBlockReference
  2
Terminal-in
 10
55.0721901333482
 20
144
 30
0
 41
1
 42
1
 43
0
 50
180
 70
    1
 71
    1
 44
0
 45
0
  0
LINE
  5
1C9
100
AcDbEntity
  8
schematic
  6
ByLayer
 62
  256
370
   -1
100
AcDbLine
 10
55.0721901333482
 20
220
 11
55.0721901333482
 21
140
  0
INSERT
  5
1CA
100
AcDbEntity
  8
schematic
  6
ByLayer
 62
  256
370
   -1
100
AcDbBlockReference
  2
mcp2014x-connector
 10
52.0721901333482
 20
221
 30
0
 41
1
 42
1
 43
0
 50
0
 70
    1
 71
    1
 44
1
 45
1
  0
LINE
  5
1CB
100
AcDbEntity
  8
schematic
  6
ByLayer
 62
  256
370
   -1
100
AcDbLine
 10
55.0721901333482
 20
245
 11
55.0721901333482
 21
239
  0
LINE
  5
1CC
100
AcDbEntity
  8
schematic
  6
ByLayer
 62
  256
370
   -1
100
AcDbLine
 10
55.0721901333482
 20
227
 11
55.0721901333482
 21
232
  0
LINE
  5
1CD
100
AcDbEntity
  8
schematic
  6
ByLayer
 62
  256
370
   -1
100
AcDbLine
 10
55.0721901333482
 20
232
 11
58.0721901333482
 21
239
  0
INSERT
  5
1CE
100
AcDbEntity
  8
schematic
  6
ByLayer
 62
  256
370
   -1
100
AcDbBlockReference
  2
junction
 10
55.0721901333482
 20
245
 30
0
 41
1
 42
1
 43
0
 50
0
 70
    1
 71
    1
 44
1
 45
1
  0
INSERT
  5
1CF
100
AcDbEntity
  8
schematic
  6
ByLayer
 62
  256
370
   -1
100
AcDbBlockReference
  2
ln1
 10
68.18061161029773
 20
90
 30
0
 41
1
 42
1
 43
0
 50
90
 70
    1
 71
    1
 44
0
 45
0
  0
LINE
  5
1D0
100
AcDbEntity
  8
schematic
  6
ByLayer
 62
  256
370
   -1
100
AcDbLine
 10
68.18061161029773
 20
90
 11
68.18061161029773
 21
80
  0
LINE
  5
1D1
100
AcDbEntity
  8
schematic
  6
ByLayer
 62
  256
370
   -1
100
AcDbLine
 10
68.18061161029773
 20
105
 11
68.18061161029773
 21
120
  0
LINE
  5
1D2
100
AcDbEntity
  8
schematic
  6
ByLayer
 62
  256
370
   -1
100
AcDbLine
 10
68.18061161029773
 20
120
 11
65.18061161029773
 21
120
  0
LINE
  5
1D3
100
AcDbEntity
  8
schematic
  6
ByLayer
 62
  256
370
   -1
100
AcDbLine
 10
65.18061161029773
 20
120
 11
68.18061161029773
 21
124
  0
LINE
  5
1D4
100
AcDbEntity
  8
schematic
  6
ByLayer
 62
  256
370
   -1
100
AcDbLine
 10
68.18061161029773
 20
124
 11
71.18061161029773
 21
120
  0
LINE
  5
1D5
100
AcDbEntity
  8
schematic
  6
ByLayer
 62
  256
370
   -1
100
AcDbLine
 10
71.18061161029773
 20
120
 11
68.18061161029773
 21
120
  0
INSERT
  5
1D6
100
AcDbEntity
  8
schematic
  6
ByLayer
 62
  256
370
   -1
100
AcDbBlockReference
  2
junction
 10
68.18061161029773
 20
80
 30
0
 41
1
 42
1
 43
0
 50
0
 70
    1
 71
    1
 44
1
 45
1
  0
INSERT
  5
1D7
100
AcDbEntity
  8
schematic
  6
ByLayer
 62
  256
370
   -1
100
AcDbBlockReference
  2
ln1
 10
55.41427953472415
 20
90
 30
0
 41
1
 42
1
 43
0
 50
90
 70
    1
 71
    1
 44
0
 45
0
  0
LINE
  5
1D8
100
AcDbEntity
  8
schematic
  6
ByLayer
 62
  256
370
   -1
100
AcDbLine
 10
55.41427953472415
 20
90
 11
55.41427953472415
 21
80
  0
LINE
  5
1D9
100
AcDbEntity
  8
schematic
  6
ByLayer
 62
  256
370
   -1
100
AcDbLine
 10
55.41427953472415
 20
105
 11
55.41427953472415
 21
120
  0
LINE
  5
1DA
100
AcDbEntity
  8
schematic
  6
ByLayer
 62
  256
370
   -1
100
AcDbLine
 10
55.41427953472415
 20
120
 11
52.41427953472415
 21
120
  0
LINE
  5
1DB
100
AcDbEntity
  8
schematic
  6
ByLayer
 62
  256
370
   -1
100
AcDbLine
 10
52.41427953472415
 20
120
 11
55.41427953472415
 21
124
  0
LINE
  5
1DC
100
AcDbEntity
  8
schematic
  6
ByLayer
 62
  256
370
   -1
100
AcDbLine
 10
55.41427953472415
 20
124
 11
58.41427953472415
 21
120
  0
LINE
  5
1DD
100
AcDbEntity
  8
schematic
  6
ByLayer
 62
  256
370
   -1
100
AcDbLine
 10
58.41427953472415
 20
120
 11
55.41427953472415
 21
120
  0
INSERT
  5
1DE
100
AcDbEntity
  8
schematic
  6
ByLayer
 62
  256
370
   -1
100
AcDbBlockReference
  2
junction
 10
55.41427953472415
 20
80
 30
0
 41
1
 42
1
 43
0
 50
0
 70
    1
 71
    1
 44
1
 45
1
  0
INSERT
  5
1DF
100
AcDbEntity
  8
schematic
  6
ByLayer
 62
  256
370
   -1
100
AcDbBlockReference
  2
ln1
 10
140.1315236576353
 20
90
 30
0
 41
1
 42
1
 43
0
 50
90
 70
    1
 71
    1
 44
0
 45
0
  0
INSERT
  5
1E0
100
AcDbEntity
  8
schematic
  6
ByLayer
 62
  256
370
   -1
100
AcDbBlockReference
  2
ln1
 10
120.1315236576353
 20
90
 30
0
 41
1
 42
1
 43
0
 50
90
 70
    1
 71
    1
 44
0
 45
0
  0
INSERT
  5
1E1
100
AcDbEntity
  8
schematic
  6
ByLayer
 62
  256
370
   -1
100
AcDbBlockReference
  2
ln1
 10
100.1315236576353
 20
90
 30
0
 41
1
 42
1
 43
0
 50
90
 70
    1
 71
    1
 44
0
 45
0
  0
INSERT
  5
1E2
100
AcDbEntity
  8
schematic
  6
ByLayer
 62
  256
370
   -1
100
AcDbBlockReference
  2
buzzer
 10
160.1315236576353
 20
100
 30
0
 41
1
 42
1
 43
0
 50
0
 70
    1
 71
    1
 44
0
 45
0
  0
LINE
  5
1E3
100
AcDbEntity
  8
schematic
  6
ByLayer
 62
  256
370
   -1
100
AcDbLine
 10
100.1315236576353
 20
90
 11
100.1315236576353
 21
80
  0
LINE
  5
1E4
100
AcDbEntity
  8
schematic
  6
ByLayer
 62
  256
370
   -1
100
AcDbLine
 10
120.1315236576353
 20
90
 11
120.1315236576353
 21
80
  0
LINE
  5
1E5
100
AcDbEntity
  8
schematic
  6
ByLayer
 62
  256
370
   -1
100
AcDbLine
 10
140.1315236576353
 20
90
 11
140.1315236576353
 21
80
  0
LINE
  5
1E6
100
AcDbEntity
  8
schematic
  6
ByLayer
 62
  256
370
   -1
100
AcDbLine
 10
160.1315236576353
 20
96
 11
160.1315236576353
 21
80
  0
LINE
  5
1E7
100
AcDbEntity
  8
schematic
  6
ByLayer
 62
  256
370
   -1
100
AcDbLine
 10
100.1315236576353
 20
105
 11
100.1315236576353
 21
120
  0
LINE
  5
1E8
100
AcDbEntity
  8
schematic
  6
ByLayer
 62
  256
370
   -1
100
AcDbLine
 10
120.1315236576353
 20
105
 11
120.1315236576353
 21
120
  0
LINE
  5
1E9
100
AcDbEntity
  8
schematic
  6
ByLayer
 62
  256
370
   -1
100
AcDbLine
 10
140.1315236576353
 20
105
 11
140.1315236576353
 21
120
  0
LINE
  5
1EA
100
AcDbEntity
  8
schematic
  6
ByLayer
 62
  256
370
   -1
100
AcDbLine
 10
160.1315236576353
 20
100
 11
160.1315236576353
 21
120
  0
LINE
  5
1EB
100
AcDbEntity
  8
schematic
  6
ByLayer
 62
  256
370
   -1
100
AcDbLine
 10
100.1315236576353
 20
120
 11
97.13152365763526
 21
120
  0
LINE
  5
1EC
100
AcDbEntity
  8
schematic
  6
ByLayer
 62
  256
370
   -1
100
AcDbLine
 10
97.13152365763526
 20
120
 11
100.1315236576353
 21
124
  0
LINE
  5
1ED
100
AcDbEntity
  8
schematic
  6
ByLayer
 62
  256
370
   -1
100
AcDbLine
 10
100.1315236576353
 20
124
 11
103.1315236576353
 21
120
  0
LINE
  5
1EE
100
AcDbEntity
  8
schematic
  6
ByLayer
 62
  256
370
   -1
100
AcDbLine
 10
103.1315236576353
 20
120
 11
100.1315236576353
 21
120
  0
LINE
  5
1EF
100
AcDbEntity
  8
schematic
  6
ByLayer
 62
  256
370
   -1
100
AcDbLine
 10
120.1315236576353
 20
120
 11
117.1315236576353
 21
120
  0
LINE
  5
1F0
100
AcDbEntity
  8
schematic
  6
ByLayer
 62
  256
370
   -1
100
AcDbLine
 10
117.1315236576353
 20
120
 11
120.1315236576353
 21
124
  0
LINE
  5
1F1
100
AcDbEntity
  8
schematic
  6
ByLayer
 62
  256
370
   -1
100
AcDbLine
 10
120.1315236576353
 20
124
 11
123.1315236576353
 21
120
  0
LINE
  5
1F2
100
AcDbEntity
  8
schematic
  6
ByLayer
 62
  256
370
   -1
100
AcDbLine
 10
123.1315236576353
 20
120
 11
120.1315236576353
 21
120
  0
LINE
  5
1F3
100
AcDbEntity
  8
schematic
  6
ByLayer
 62
  256
370
   -1
100
AcDbLine
 10
140.1315236576353
 20
120
 11
137.1315236576353
 21
120
  0
LINE
  5
1F4
100
AcDbEntity
  8
schematic
  6
ByLayer
 62
  256
370
   -1
100
AcDbLine
 10
137.1315236576353
 20
120
 11
140.1315236576353
 21
124
  0
LINE
  5
1F5
100
AcDbEntity
  8
schematic
  6
ByLayer
 62
  256
370
   -1
100
AcDbLine
 10
140.1315236576353
 20
124
 11
143.1315236576353
 21
120
  0
LINE
  5
1F6
100
AcDbEntity
  8
schematic
  6
ByLayer
 62
  256
370
   -1
100
AcDbLine
 10
143.1315236576353
 20
120
 11
140.1315236576353
 21
120
  0
LINE
  5
1F7
100
AcDbEntity
  8
schematic
  6
ByLayer
 62
  256
370
   -1
100
AcDbLine
 10
160.1315236576353
 20
120
 11
157.1315236576353
 21
120
  0
LINE
  5
1F8
100
AcDbEntity
  8
schematic
  6
ByLayer
 62
  256
370
   -1
100
AcDbLine
 10
157.1315236576353
 20
120
 11
160.1315236576353
 21
124
  0
LINE
  5
1F9
100
AcDbEntity
  8
schematic
  6
ByLayer
 62
  256
370
   -1
100
AcDbLine
 10
160.1315236576353
 20
124
 11
163.1315236576353
 21
120
  0
LINE
  5
1FA
100
AcDbEntity
  8
schematic
  6
ByLayer
 62
  256
370
   -1
100
AcDbLine
 10
163.1315236576353
 20
120
 11
160.1315236576353
 21
120
  0
INSERT
  5
1FB
100
AcDbEntity
  8
schematic
  6
ByLayer
 62
  256
370
   -1
100
AcDbBlockReference
  2
junction
 10
160.1315236576353
 20
80
 30
0
 41
1
 42
1
 43
0
 50
0
 70
    1
 71
    1
 44
1
 45
1
  0
INSERT
  5
1FC
100
AcDbEntity
  8
schematic
  6
ByLayer
 62
  256
370
   -1
100
AcDbBlockReference
  2
junction
 10
140.1315236576353
 20
80
 30
0
 41
1
 42
1
 43
0
 50
0
 70
    1
 71
    1
 44
1
 45
1
  0
INSERT
  5
1FD
100
AcDbEntity
  8
schematic
  6
ByLayer
 62
  256
370
   -1
100
AcDbBlockReference
  2
junction
 10
120.1315236576353
 20
80
 30
0
 41
1
 42
1
 43
0
 50
0
 70
    1
 71
    1
 44
1
 45
1
  0
INSERT
  5
1FE
100
AcDbEntity
  8
schematic
  6
ByLayer
 62
  256
370
   -1
100
AcDbBlockReference
  2
junction
 10
100.1315236576353
 20
80
 30
0
 41
1
 42
1
 43
0
 50
0
 70
    1
 71
    1
 44
1
 45
1
  0
MTEXT
  5
1FF
100
AcDbEntity
  8
labels
  6
ByLayer
 62
  256
370
   -1
100
AcDbMText
 10
93.13152365763526
 20
76
 30
0
 40
3
 41
15
 71
    1
 72
    1
  1
FRECCIA\PSALITA
  7
standard
210
0
220
0
230
1
 50
0
 73
    2
 44
1
  0
MTEXT
  5
200
100
AcDbEntity
  8
labels
  6
ByLayer
 62
  256
370
   -1
100
AcDbMText
 10
112.1315236576353
 20
76
 30
0
 40
3
 41
15.66666539465396
 71
    1
 72
    1
  1
FRECCIA\PDISCESA
  7
standard
210
0
220
0
230
1
 50
0
 73
    2
 44
1
  0
MTEXT
  5
201
100
AcDbEntity
  8
labels
  6
ByLayer
 62
  256
370
   -1
100
AcDbMText
 10
131.1315236576353
 20
76
 30
0
 40
3
 41
18.66666603066022
 71
    1
 72
    1
  1
SOVRACC.
  7
standard
210
0
220
0
230
1
 50
0
 73
    2
 44
1
  0
MTEXT
  5
202
100
AcDbEntity
  8
labels
  6
ByLayer
 62
  256
370
   -1
100
AcDbMText
 10
155.1315236576353
 20
76
 30
0
 40
3
 41
9.666666666666853
 71
    1
 72
    1
  1
GONG
  7
standard
210
0
220
0
230
1
 50
0
 73
    2
 44
1
  0
LWPOLYLINE
  5
203
100
AcDbEntity
  8
schematic
  6
ByLayer
 62
  256
370
   -1
100
AcDbPolyline
 90
    4
 70
    1
 43
0
 10
170.4796344861211
 20
219.9737219175756
 10
33.38886850534629
 20
219.9737219175756
 10
33.38886850534629
 20
274.5743421792595
 10
170.4796344861211
 20
274.5743421792595
  0
LINE
  5
204
100
AcDbEntity
  8
schematic
  6
ByLayer
 62
  256
370
   -1
100
AcDbLine
 10
45.25173708018701
 20
245.3649743903473
 11
67.97816503601426
 21
245.3649743903473
  0
LINE
  5
205
100
AcDbEntity
  8
schematic
  6
ByLayer
 62
  256
370
   -1
100
AcDbLine
 10
82.6598397331416
 20
245.3649743903473
 11
159.6883521851933
 21
245.3649743903473
  0
MTEXT
  5
206
100
AcDbEntity
  8
labels
  6
ByLayer
 62
  256
370
   -1
100
AcDbMText
 10
53.45859601089933
 20
225.4933263673473
 30
0
 40
3
 41
3.666666666666853
 71
    1
 72
    1
  1
25
  7
standard
210
0
220
0
230
1
 50
0
 73
    2
 44
1
  0
MTEXT
  5
207
100
AcDbEntity
  8
labels
  6
ByLayer
 62
  256
370
   -1
100
AcDbMText
 10
66.13751484556258
 20
225.4933263673473
 30
0
 40
3
 41
3.666666666666853
 71
    1
 72
    1
  1
26
  7
standard
210
0
220
0
230
1
 50
0
 73
    2
 44
1
  0
MTEXT
  5
208
100
AcDbEntity
  8
schematic
  6
ByLayer
 62
  256
370
   -1
100
AcDbMText
 10
44.84949941725201
 20
141.9898950160535
 30
0
 40
4
 41
9.333333333333581
 71
    1
 72
    1
  1
FDX\P
  7
standard
210
0
220
0
230
1
 50
0
 73
    2
 44
1
  0
MTEXT
  5
209
100
AcDbEntity
  8
schematic
  6
ByLayer
 62
  256
370
   -1
100
AcDbMText
 10
57.72110463117187
 20
141.9898950160535
 30
0
 40
4
 41
9.333332485324735
 71
    1
 72
    1
  1
FSX
  7
standard
210
0
220
0
230
1
 50
0
 73
    2
 44
1
  0
INSERT
  5
20A
100
AcDbEntity
  8
schematic
  6
ByLayer
 62
  256
370
   -1
100
AcDbBlockReference
  2
Terminal-in
 10
39.57824108904076
 20
144
 30
0
 41
1
 42
1
 43
0
 50
180
 70
    1
 71
    1
 44
0
 45
0
  0
LINE
  5
20B
100
AcDbEntity
  8
schematic
  6
ByLayer
 62
  256
370
   -1
100
AcDbLine
 10
39.57824108904076
 20
220
 11
39.57824108904076
 21
140
  0
INSERT
  5
20C
100
AcDbEntity
  8
schematic
  6
ByLayer
 62
  256
370
   -1
100
AcDbBlockReference
  2
mcp2014x-connector
 10
36.57824108904076
 20
221
 30
0
 41
1
 42
1
 43
0
 50
0
 70
    1
 71
    1
 44
1
 45
1
  0
LINE
  5
20D
100
AcDbEntity
  8
schematic
  6
ByLayer
 62
  256
370
   -1
100
AcDbLine
 10
39.57824108904076
 20
227
 11
39.57824108904076
 21
245
  0
MTEXT
  5
20E
100
AcDbEntity
  8
labels
  6
ByLayer
 62
  256
370
   -1
100
AcDbMText
 10
30.57824108904076
 20
135
 30
0
 40
4
 41
5.333333333333333
 71
    1
 72
    1
  1
PE
  7
standard
210
0
220
0
230
1
 50
0
 73
    2
 44
1
  0
MTEXT
  5
20F
100
AcDbEntity
  8
labels
  6
ByLayer
 62
  256
370
   -1
100
AcDbMText
 10
37.97698721148979
 20
225.8905547755105
 30
0
 40
3
 41
4
 71
    1
 72
    1
  1
24
  7
standard
210
0
220
0
230
1
 50
0
 73
    2
 44
1
  0
LINE
  5
210
100
AcDbEntity
  8
schematic
  6
ByLayer
 62
  256
370
   -1
100
AcDbLine
 10
46.50872977685889
 20
245.427824025181
 11
39.59526994516364
 21
245.427824025181
  0
INSERT
  5
211
100
AcDbEntity
  8
schematic
  6
ByLayer
 62
  256
370
   -1
100
AcDbBlockReference
  2
junction
 10
176.9217220565645
 20
80.13328441283119
 30
0
 41
1
 42
1
 43
0
 50
0
 70
    1
 71
    1
 44
1
 45
1
  0
INSERT
  5
212
100
AcDbEntity
  8
schematic
  6
ByLayer
 62
  256
370
   -1
100
AcDbBlockReference
  2
junction
 10
196.0908606808104
 20
80.13328441283119
 30
0
 41
1
 42
1
 43
0
 50
0
 70
    1
 71
    1
 44
1
 45
1
  0
LINE
  5
213
100
AcDbEntity
  8
schematic
  6
ByLayer
 62
  256
370
   -1
100
AcDbLine
 10
60.96414578858529
 20
80.13328441283119
 11
54.99343047939395
 21
80.13328441283119
  0
MTEXT
  5
214
100
AcDbEntity
  8
schematic
  6
ByLayer
 62
  256
370
   -1
100
AcDbMText
 10
65.67786840110477
 20
76.3623063228156
 30
0
 40
3
 41
22.66666603066022
 71
    1
 72
    1
  1
FRECCIA\PPROS.PART.\PSALITA
  7
standard
210
0
220
0
230
1
 50
0
 73
    2
 44
1
  0
MTEXT
  5
215
100
AcDbEntity
  8
schematic
  6
ByLayer
 62
  256
370
   -1
100
AcDbMText
 10
39.28102177099568
 20
76.3623063228156
 30
0
 40
3
 41
22.66666603066022
 71
    1
 72
    1
  1
FRECCIA\PPROS.PART.\PDISCESA
  7
standard
210
0
220
0
230
1
 50
0
 73
    2
 44
1
  0
LINE
  5
216
100
AcDbEntity
  8
schematic
  6
ByLayer
 62
  256
370
   -1
100
AcDbLine
 10
400.8658536585365
 20
280
 11
400.8658536585365
 21
230
  0
INSERT
  5
217
100
AcDbEntity
  8
schematic
  6
ByLayer
 62
  256
370
   -1
100
AcDbBlockReference
  2
Terminal-in
 10
400.8658536585365
 20
230
 30
0
 41
1
 42
1
 43
0
 50
180
 70
    1
 71
    1
 44
1
 45
1
  0
MTEXT
  5
218
100
AcDbEntity
  8
labels
  6
ByLayer
 62
  256
370
   -1
100
AcDbMText
 10
390.8658536585365
 20
222
 30
0
 40
4
 41
5.333333333333333
 71
    1
 72
    1
  1
PE
  7
standard
210
0
220
0
230
1
 50
0
 73
    2
 44
1
  0
INSERT
  5
219
100
AcDbEntity
  8
schematic
  6
ByLayer
 62
  256
370
   -1
100
AcDbBlockReference
  2
rjconnector
 10
337.0060975609756
 20
250
 30
0
 41
1
 42
1
 43
0
 50
0
 70
    1
 71
    1
 44
1
 45
1
  0
INSERT
  5
21A
100
AcDbEntity
  8
schematic
  6
ByLayer
 62
  256
370
   -1
100
AcDbBlockReference
  2
rjconnector
 10
357.0060975609756
 20
250
 30
0
 41
1
 42
1
 43
0
 50
0
 70
    1
 71
    1
 44
1
 45
1
  0
LINE
  5
21B
100
AcDbEntity
  8
schematic
  6
ByLayer
 62
  256
370
   -1
100
AcDbLine
 10
373.0060975609756
 20
268
 11
373.0060975609756
 21
258
  0
LINE
  5
21C
100
AcDbEntity
  8
schematic
  6
ByLayer
 62
  256
370
   -1
100
AcDbLine
 10
373.0060975609756
 20
258
 11
386.0060975609756
 21
258
  0
LINE
  5
21D
100
AcDbEntity
  8
schematic
  6
ByLayer
 62
  256
370
   -1
100
AcDbLine
 10
386.0060975609756
 20
258
 11
386.0060975609756
 21
268
  0
LINE
  5
21E
100
AcDbEntity
  8
schematic
  6
ByLayer
 62
  256
370
   -1
100
AcDbLine
 10
386.0060975609756
 20
268
 11
373.0060975609756
 21
268
  0
CIRCLE
  5
21F
100
AcDbEntity
  8
schematic
  6
ByLayer
 62
  256
370
   -1
100
AcDbCircle
 10
376.0060975609756
 20
263
 40
2.23606797749979
  0
CIRCLE
  5
220
100
AcDbEntity
  8
schematic
  6
ByLayer
 62
  256
370
   -1
100
AcDbCircle
 10
383.0060975609756
 20
263
 40
2.23606797749979
  0
LINE
  5
221
100
AcDbEntity
  8
schematic
  6
ByLayer
 62
  256
370
   -1
100
AcDbLine
 10
383.0060975609756
 20
261
 11
383.0060975609756
 21
235
  0
LINE
  5
222
100
AcDbEntity
  8
schematic
  6
ByLayer
 62
  256
370
   -1
100
AcDbLine
 10
376.0060975609756
 20
265
 11
376.0060975609756
 21
280
  0
LINE
  5
223
100
AcDbEntity
  8
schematic
  6
ByLayer
 62
  256
370
   -1
100
AcDbLine
 10
383.0060975609756
 20
265
 11
383.0060975609756
 21
277
  0
LINE
  5
224
100
AcDbEntity
  8
schematic
  6
ByLayer
 62
  256
370
   -1
100
AcDbLine
 10
376.0060975609756
 20
230
 11
376.0060975609756
 21
261
  0
LINE
  5
225
100
AcDbEntity
  8
schematic
  6
ByLayer
 62
  256
370
   -1
100
AcDbLine
 10
359.2108660442073
 20
191.7795231516769
 11
386.2108660442073
 21
191.7795231516769
  0
LINE
  5
226
100
AcDbEntity
  8
schematic
  6
ByLayer
 62
  256
370
   -1
100
AcDbLine
 10
386.2108660442073
 20
191.7795231516769
 11
386.2108660442073
 21
202.7795231516769
  0
LINE
  5
227
100
AcDbEntity
  8
schematic
  6
ByLayer
 62
  256
370
   -1
100
AcDbLine
 10
386.2108660442073
 20
202.7795231516769
 11
359.2108660442073
 21
202.7795231516769
  0
LINE
  5
228
100
AcDbEntity
  8
schematic
  6
ByLayer
 62
  256
370
   -1
100
AcDbLine
 10
359.2108660442073
 20
202.7795231516769
 11
359.2108660442073
 21
191.7795231516769
  0
CIRCLE
  5
229
100
AcDbEntity
  8
schematic
  6
ByLayer
 62
  256
370
   -1
100
AcDbCircle
 10
362.2108660442073
 20
193.7795231516769
 40
1
  0
CIRCLE
  5
22A
100
AcDbEntity
  8
schematic
  6
ByLayer
 62
  256
370
   -1
100
AcDbCircle
 10
365.2108660442073
 20
193.7795231516769
 40
1
  0
CIRCLE
  5
22B
100
AcDbEntity
  8
schematic
  6
ByLayer
 62
  256
370
   -1
100
AcDbCircle
 10
368.2108660442073
 20
193.7795231516769
 40
1
  0
CIRCLE
  5
22C
100
AcDbEntity
  8
schematic
  6
ByLayer
 62
  256
370
   -1
100
AcDbCircle
 10
371.2108660442073
 20
193.7795231516769
 40
1
  0
CIRCLE
  5
22D
100
AcDbEntity
  8
schematic
  6
ByLayer
 62
  256
370
   -1
100
AcDbCircle
 10
374.2108660442073
 20
193.7795231516769
 40
1
  0
CIRCLE
  5
22E
100
AcDbEntity
  8
schematic
  6
ByLayer
 62
  256
370
   -1
100
AcDbCircle
 10
377.2108660442073
 20
193.7795231516769
 40
1
  0
CIRCLE
  5
22F
100
AcDbEntity
  8
schematic
  6
ByLayer
 62
  256
370
   -1
100
AcDbCircle
 10
380.2108660442073
 20
193.7795231516769
 40
1
  0
CIRCLE
  5
230
100
AcDbEntity
  8
schematic
  6
ByLayer
 62
  256
370
   -1
100
AcDbCircle
 10
383.2108660442073
 20
193.7795231516769
 40
1
  0
CIRCLE
  5
231
100
AcDbEntity
  8
schematic
  6
ByLayer
 62
  256
370
   -1
100
AcDbCircle
 10
362.2108660442073
 20
200.7795231516769
 40
1
  0
CIRCLE
  5
232
100
AcDbEntity
  8
schematic
  6
ByLayer
 62
  256
370
   -1
100
AcDbCircle
 10
365.2108660442073
 20
200.7795231516769
 40
1
  0
CIRCLE
  5
233
100
AcDbEntity
  8
schematic
  6
ByLayer
 62
  256
370
   -1
100
AcDbCircle
 10
368.2108660442073
 20
200.7795231516769
 40
1
  0
CIRCLE
  5
234
100
AcDbEntity
  8
schematic
  6
ByLayer
 62
  256
370
   -1
100
AcDbCircle
 10
371.2108660442073
 20
200.7795231516769
 40
1
  0
CIRCLE
  5
235
100
AcDbEntity
  8
schematic
  6
ByLayer
 62
  256
370
   -1
100
AcDbCircle
 10
374.2108660442073
 20
200.7795231516769
 40
1
  0
CIRCLE
  5
236
100
AcDbEntity
  8
schematic
  6
ByLayer
 62
  256
370
   -1
100
AcDbCircle
 10
377.2108660442073
 20
200.7795231516769
 40
1
  0
CIRCLE
  5
237
100
AcDbEntity
  8
schematic
  6
ByLayer
 62
  256
370
   -1
100
AcDbCircle
 10
380.2108660442073
 20
200.7795231516769
 40
1
  0
CIRCLE
  5
238
100
AcDbEntity
  8
schematic
  6
ByLayer
 62
  256
370
   -1
100
AcDbCircle
 10
383.2108660442073
 20
200.7795231516769
 40
1
  0
LINE
  5
239
100
AcDbEntity
  8
schematic
  6
ByLayer
 62
  256
370
   -1
100
AcDbLine
 10
362.2108660442073
 20
199.7795231516769
 11
362.2108660442073
 21
194.7795231516769
  0
LINE
  5
23A
100
AcDbEntity
  8
schematic
  6
ByLayer
 62
  256
370
   -1
100
AcDbLine
 10
365.2108660442073
 20
199.7795231516769
 11
365.2108660442073
 21
194.7795231516769
  0
LINE
  5
23B
100
AcDbEntity
  8
schematic
  6
ByLayer
 62
  256
370
   -1
100
AcDbLine
 10
368.2108660442073
 20
199.7795231516769
 11
368.2108660442073
 21
194.7795231516769
  0
LINE
  5
23C
100
AcDbEntity
  8
schematic
  6
ByLayer
 62
  256
370
   -1
100
AcDbLine
 10
371.2108660442073
 20
199.7795231516769
 11
371.2108660442073
 21
194.7795231516769
  0
LINE
  5
23D
100
AcDbEntity
  8
schematic
  6
ByLayer
 62
  256
370
   -1
100
AcDbLine
 10
374.2108660442073
 20
199.7795231516769
 11
374.2108660442073
 21
194.7795231516769
  0
LINE
  5
23E
100
AcDbEntity
  8
schematic
  6
ByLayer
 62
  256
370
   -1
100
AcDbLine
 10
377.2108660442073
 20
199.7795231516769
 11
377.2108660442073
 21
194.7795231516769
  0
LINE
  5
23F
100
AcDbEntity
  8
schematic
  6
ByLayer
 62
  256
370
   -1
100
AcDbLine
 10
380.2108660442073
 20
199.7795231516769
 11
380.2108660442073
 21
194.7795231516769
  0
LINE
  5
240
100
AcDbEntity
  8
schematic
  6
ByLayer
 62
  256
370
   -1
100
AcDbLine
 10
383.2108660442073
 20
199.7795231516769
 11
383.2108660442073
 21
194.7795231516769
  0
LINE
  5
241
100
AcDbEntity
  8
schematic
  6
ByLayer
 62
  256
370
   -1
100
AcDbLine
 10
362.2108660442073
 20
201.7795231516769
 11
362.2108660442073
 21
206.7795231516769
  0
LINE
  5
242
100
AcDbEntity
  8
schematic
  6
ByLayer
 62
  256
370
   -1
100
AcDbLine
 10
362.2108660442073
 20
206.7795231516769
 11
364.2108660442073
 21
210.7795231516769
  0
LINE
  5
243
100
AcDbEntity
  8
schematic
  6
ByLayer
 62
  256
370
   -1
100
AcDbLine
 10
362.2108660442073
 20
210.7795231516769
 11
362.2108660442073
 21
222.7795231516769
  0
LINE
  5
244
100
AcDbEntity
  8
schematic
  6
ByLayer
 62
  256
370
   -1
100
AcDbLine
 10
365.2108660442073
 20
201.7795231516769
 11
365.2108660442073
 21
206.7795231516769
  0
LINE
  5
245
100
AcDbEntity
  8
schematic
  6
ByLayer
 62
  256
370
   -1
100
AcDbLine
 10
365.2108660442073
 20
206.7795231516769
 11
367.2108660442073
 21
210.7795231516769
  0
LINE
  5
246
100
AcDbEntity
  8
schematic
  6
ByLayer
 62
  256
370
   -1
100
AcDbLine
 10
365.2108660442073
 20
210.7795231516769
 11
365.2108660442073
 21
222.7795231516769
  0
LINE
  5
247
100
AcDbEntity
  8
schematic
  6
ByLayer
 62
  256
370
   -1
100
AcDbLine
 10
368.2108660442073
 20
201.7795231516769
 11
368.2108660442073
 21
206.7795231516769
  0
LINE
  5
248
100
AcDbEntity
  8
schematic
  6
ByLayer
 62
  256
370
   -1
100
AcDbLine
 10
368.2108660442073
 20
206.7795231516769
 11
370.2108660442073
 21
210.7795231516769
  0
LINE
  5
249
100
AcDbEntity
  8
schematic
  6
ByLayer
 62
  256
370
   -1
100
AcDbLine
 10
368.2108660442073
 20
210.7795231516769
 11
368.2108660442073
 21
222.7795231516769
  0
LINE
  5
24A
100
AcDbEntity
  8
schematic
  6
ByLayer
 62
  256
370
   -1
100
AcDbLine
 10
371.2108660442073
 20
201.7795231516769
 11
371.2108660442073
 21
206.7795231516769
  0
LINE
  5
24B
100
AcDbEntity
  8
schematic
  6
ByLayer
 62
  256
370
   -1
100
AcDbLine
 10
371.2108660442073
 20
206.7795231516769
 11
373.2108660442073
 21
210.7795231516769
  0
LINE
  5
24C
100
AcDbEntity
  8
schematic
  6
ByLayer
 62
  256
370
   -1
100
AcDbLine
 10
371.2108660442073
 20
210.7795231516769
 11
371.2108660442073
 21
222.7795231516769
  0
LINE
  5
24D
100
AcDbEntity
  8
schematic
  6
ByLayer
 62
  256
370
   -1
100
AcDbLine
 10
374.2108660442073
 20
201.7795231516769
 11
374.2108660442073
 21
206.7795231516769
  0
LINE
  5
24E
100
AcDbEntity
  8
schematic
  6
ByLayer
 62
  256
370
   -1
100
AcDbLine
 10
374.2108660442073
 20
206.7795231516769
 11
376.2108660442073
 21
210.7795231516769
  0
LINE
  5
24F
100
AcDbEntity
  8
schematic
  6
ByLayer
 62
  256
370
   -1
100
AcDbLine
 10
374.2108660442073
 20
210.7795231516769
 11
374.2108660442073
 21
222.7795231516769
  0
LINE
  5
250
100
AcDbEntity
  8
schematic
  6
ByLayer
 62
  256
370
   -1
100
AcDbLine
 10
377.2108660442073
 20
201.7795231516769
 11
377.2108660442073
 21
206.7795231516769
  0
LINE
  5
251
100
AcDbEntity
  8
schematic
  6
ByLayer
 62
  256
370
   -1
100
AcDbLine
 10
377.2108660442073
 20
206.7795231516769
 11
379.2108660442073
 21
210.7795231516769
  0
LINE
  5
252
100
AcDbEntity
  8
schematic
  6
ByLayer
 62
  256
370
   -1
100
AcDbLine
 10
377.2108660442073
 20
210.7795231516769
 11
377.2108660442073
 21
222.7795231516769
  0
LINE
  5
253
100
AcDbEntity
  8
schematic
  6
ByLayer
 62
  256
370
   -1
100
AcDbLine
 10
380.2108660442073
 20
201.7795231516769
 11
380.2108660442073
 21
206.7795231516769
  0
LINE
  5
254
100
AcDbEntity
  8
schematic
  6
ByLayer
 62
  256
370
   -1
100
AcDbLine
 10
380.2108660442073
 20
206.7795231516769
 11
382.2108660442073
 21
210.7795231516769
  0
LINE
  5
255
100
AcDbEntity
  8
schematic
  6
ByLayer
 62
  256
370
   -1
100
AcDbLine
 10
380.2108660442073
 20
210.7795231516769
 11
380.2108660442073
 21
222.7795231516769
  0
LINE
  5
256
100
AcDbEntity
  8
schematic
  6
ByLayer
 62
  256
370
   -1
100
AcDbLine
 10
383.2108660442073
 20
201.7795231516769
 11
383.2108660442073
 21
206.7795231516769
  0
LINE
  5
257
100
AcDbEntity
  8
schematic
  6
ByLayer
 62
  256
370
   -1
100
AcDbLine
 10
383.2108660442073
 20
206.7795231516769
 11
385.2108660442073
 21
210.7795231516769
  0
LINE
  5
258
100
AcDbEntity
  8
schematic
  6
ByLayer
 62
  256
370
   -1
100
AcDbLine
 10
383.2108660442073
 20
210.7795231516769
 11
383.2108660442073
 21
222.7795231516769
  0
LINE
  5
259
100
AcDbEntity
  8
schematic
  6
ByLayer
 62
  256
370
   -1
100
AcDbLine
 10
383.2108660442073
 20
234.7795231516769
 11
383.2108660442073
 21
222.7795231516769
  0
LINE
  5
25A
100
AcDbEntity
  8
schematic
  6
ByLayer
 62
  256
370
   -1
100
AcDbLine
 10
383.2108660442073
 20
222.7795231516769
 11
362.2108660442073
 21
222.7795231516769
  0
INSERT
  5
25B
100
AcDbEntity
  8
schematic
  6
ByLayer
 62
  256
370
   -1
100
AcDbBlockReference
  2
junction
 10
365.2108660442073
 20
222.7795231516769
 30
0
 41
0.4899999999999999
 42
0.4899999999999999
 43
0
 50
0
 70
    1
 71
    1
 44
0.4899999999999999
 45
0.4899999999999999
  0
INSERT
  5
25C
100
AcDbEntity
  8
schematic
  6
ByLayer
 62
  256
370
   -1
100
AcDbBlockReference
  2
junction
 10
368.2108660442073
 20
222.7795231516769
 30
0
 41
0.4899999999999999
 42
0.4899999999999999
 43
0
 50
0
 70
    1
 71
    1
 44
0.4899999999999999
 45
0.4899999999999999
  0
INSERT
  5
25D
100
AcDbEntity
  8
schematic
  6
ByLayer
 62
  256
370
   -1
100
AcDbBlockReference
  2
junction
 10
371.2108660442073
 20
222.7795231516769
 30
0
 41
0.4899999999999999
 42
0.4899999999999999
 43
0
 50
0
 70
    1
 71
    1
 44
0.4899999999999999
 45
0.4899999999999999
  0
INSERT
  5
25E
100
AcDbEntity
  8
schematic
  6
ByLayer
 62
  256
370
   -1
100
AcDbBlockReference
  2
junction
 10
374.2108660442073
 20
222.7795231516769
 30
0
 41
0.4899999999999999
 42
0.4899999999999999
 43
0
 50
0
 70
    1
 71
    1
 44
0.4899999999999999
 45
0.4899999999999999
  0
INSERT
  5
25F
100
AcDbEntity
  8
schematic
  6
ByLayer
 62
  256
370
   -1
100
AcDbBlockReference
  2
junction
 10
377.2108660442073
 20
222.7795231516769
 30
0
 41
0.4899999999999999
 42
0.4899999999999999
 43
0
 50
0
 70
    1
 71
    1
 44
0.4899999999999999
 45
0.4899999999999999
  0
INSERT
  5
260
100
AcDbEntity
  8
schematic
  6
ByLayer
 62
  256
370
   -1
100
AcDbBlockReference
  2
junction
 10
380.2108660442073
 20
222.7795231516769
 30
0
 41
0.4899999999999999
 42
0.4899999999999999
 43
0
 50
0
 70
    1
 71
    1
 44
0.4899999999999999
 45
0.4899999999999999
  0
INSERT
  5
261
100
AcDbEntity
  8
schematic
  6
ByLayer
 62
  256
370
   -1
100
AcDbBlockReference
  2
junction
 10
383.2108660442073
 20
222.7795231516769
 30
0
 41
0.4899999999999999
 42
0.4899999999999999
 43
0
 50
0
 70
    1
 71
    1
 44
0.4899999999999999
 45
0.4899999999999999
  0
LINE
  5
262
100
AcDbEntity
  8
schematic
  6
ByLayer
 62
  256
370
   -1
100
AcDbLine
 10
329.9275557355183
 20
192
 11
356.9275557355183
 21
192
  0
LINE
  5
263
100
AcDbEntity
  8
schematic
  6
ByLayer
 62
  256
370
   -1
100
AcDbLine
 10
356.9275557355183
 20
192
 11
356.9275557355183
 21
203
  0
LINE
  5
264
100
AcDbEntity
  8
schematic
  6
ByLayer
 62
  256
370
   -1
100
AcDbLine
 10
356.9275557355183
 20
203
 11
329.9275557355183
 21
203
  0
LINE
  5
265
100
AcDbEntity
  8
schematic
  6
ByLayer
 62
  256
370
   -1
100
AcDbLine
 10
329.9275557355183
 20
203
 11
329.9275557355183
 21
192
  0
CIRCLE
  5
266
100
AcDbEntity
  8
schematic
  6
ByLayer
 62
  256
370
   -1
100
AcDbCircle
 10
332.9275557355183
 20
201
 40
1
  0
CIRCLE
  5
267
100
AcDbEntity
  8
schematic
  6
ByLayer
 62
  256
370
   -1
100
AcDbCircle
 10
335.9275557355183
 20
201
 40
1
  0
CIRCLE
  5
268
100
AcDbEntity
  8
schematic
  6
ByLayer
 62
  256
370
   -1
100
AcDbCircle
 10
338.9275557355183
 20
201
 40
1
  0
CIRCLE
  5
269
100
AcDbEntity
  8
schematic
  6
ByLayer
 62
  256
370
   -1
100
AcDbCircle
 10
341.9275557355183
 20
201
 40
1
  0
CIRCLE
  5
26A
100
AcDbEntity
  8
schematic
  6
ByLayer
 62
  256
370
   -1
100
AcDbCircle
 10
344.9275557355183
 20
201
 40
1
  0
CIRCLE
  5
26B
100
AcDbEntity
  8
schematic
  6
ByLayer
 62
  256
370
   -1
100
AcDbCircle
 10
347.9275557355183
 20
201
 40
1
  0
CIRCLE
  5
26C
100
AcDbEntity
  8
schematic
  6
ByLayer
 62
  256
370
   -1
100
AcDbCircle
 10
350.9275557355183
 20
201
 40
1
  0
CIRCLE
  5
26D
100
AcDbEntity
  8
schematic
  6
ByLayer
 62
  256
370
   -1
100
AcDbCircle
 10
353.9275557355183
 20
201
 40
1
  0
CIRCLE
  5
26E
100
AcDbEntity
  8
schematic
  6
ByLayer
 62
  256
370
   -1
100
AcDbCircle
 10
332.9275557355183
 20
194
 40
1
  0
CIRCLE
  5
26F
100
AcDbEntity
  8
schematic
  6
ByLayer
 62
  256
370
   -1
100
AcDbCircle
 10
335.9275557355183
 20
194
 40
1
  0
CIRCLE
  5
270
100
AcDbEntity
  8
schematic
  6
ByLayer
 62
  256
370
   -1
100
AcDbCircle
 10
338.9275557355183
 20
194
 40
1
  0
CIRCLE
  5
271
100
AcDbEntity
  8
schematic
  6
ByLayer
 62
  256
370
   -1
100
AcDbCircle
 10
341.9275557355183
 20
194
 40
1
  0
CIRCLE
  5
272
100
AcDbEntity
  8
schematic
  6
ByLayer
 62
  256
370
   -1
100
AcDbCircle
 10
344.9275557355183
 20
194
 40
1
  0
CIRCLE
  5
273
100
AcDbEntity
  8
schematic
  6
ByLayer
 62
  256
370
   -1
100
AcDbCircle
 10
347.9275557355183
 20
194
 40
1
  0
CIRCLE
  5
274
100
AcDbEntity
  8
schematic
  6
ByLayer
 62
  256
370
   -1
100
AcDbCircle
 10
350.9275557355183
 20
194
 40
1
  0
CIRCLE
  5
275
100
AcDbEntity
  8
schematic
  6
ByLayer
 62
  256
370
   -1
100
AcDbCircle
 10
353.9275557355183
 20
194
 40
1
  0
LINE
  5
276
100
AcDbEntity
  8
schematic
  6
ByLayer
 62
  256
370
   -1
100
AcDbLine
 10
332.9275557355183
 20
200
 11
332.9275557355183
 21
195
  0
LINE
  5
277
100
AcDbEntity
  8
schematic
  6
ByLayer
 62
  256
370
   -1
100
AcDbLine
 10
335.9275557355183
 20
200
 11
335.9275557355183
 21
195
  0
LINE
  5
278
100
AcDbEntity
  8
schematic
  6
ByLayer
 62
  256
370
   -1
100
AcDbLine
 10
338.9275557355183
 20
200
 11
338.9275557355183
 21
195
  0
LINE
  5
279
100
AcDbEntity
  8
schematic
  6
ByLayer
 62
  256
370
   -1
100
AcDbLine
 10
341.9275557355183
 20
200
 11
341.9275557355183
 21
195
  0
LINE
  5
27A
100
AcDbEntity
  8
schematic
  6
ByLayer
 62
  256
370
   -1
100
AcDbLine
 10
344.9275557355183
 20
200
 11
344.9275557355183
 21
195
  0
LINE
  5
27B
100
AcDbEntity
  8
schematic
  6
ByLayer
 62
  256
370
   -1
100
AcDbLine
 10
347.9275557355183
 20
195
 11
347.9275557355183
 21
200
  0
LINE
  5
27C
100
AcDbEntity
  8
schematic
  6
ByLayer
 62
  256
370
   -1
100
AcDbLine
 10
350.9275557355183
 20
200
 11
350.9275557355183
 21
195
  0
LINE
  5
27D
100
AcDbEntity
  8
schematic
  6
ByLayer
 62
  256
370
   -1
100
AcDbLine
 10
353.9275557355183
 20
200
 11
353.9275557355183
 21
195
  0
LINE
  5
27E
100
AcDbEntity
  8
schematic
  6
ByLayer
 62
  256
370
   -1
100
AcDbLine
 10
332.9275557355183
 20
202
 11
332.9275557355183
 21
207
  0
LINE
  5
27F
100
AcDbEntity
  8
schematic
  6
ByLayer
 62
  256
370
   -1
100
AcDbLine
 10
332.9275557355183
 20
207
 11
334.9275557355183
 21
211
  0
LINE
  5
280
100
AcDbEntity
  8
schematic
  6
ByLayer
 62
  256
370
   -1
100
AcDbLine
 10
332.9275557355183
 20
211
 11
332.9275557355183
 21
223
  0
LINE
  5
281
100
AcDbEntity
  8
schematic
  6
ByLayer
 62
  256
370
   -1
100
AcDbLine
 10
335.9275557355183
 20
202
 11
335.9275557355183
 21
207
  0
LINE
  5
282
100
AcDbEntity
  8
schematic
  6
ByLayer
 62
  256
370
   -1
100
AcDbLine
 10
335.9275557355183
 20
207
 11
337.9275557355183
 21
211
  0
LINE
  5
283
100
AcDbEntity
  8
schematic
  6
ByLayer
 62
  256
370
   -1
100
AcDbLine
 10
335.9275557355183
 20
211
 11
335.9275557355183
 21
223
  0
LINE
  5
284
100
AcDbEntity
  8
schematic
  6
ByLayer
 62
  256
370
   -1
100
AcDbLine
 10
338.9275557355183
 20
202
 11
338.9275557355183
 21
207
  0
LINE
  5
285
100
AcDbEntity
  8
schematic
  6
ByLayer
 62
  256
370
   -1
100
AcDbLine
 10
338.9275557355183
 20
207
 11
340.9275557355183
 21
211
  0
LINE
  5
286
100
AcDbEntity
  8
schematic
  6
ByLayer
 62
  256
370
   -1
100
AcDbLine
 10
338.9275557355183
 20
211
 11
338.9275557355183
 21
223
  0
LINE
  5
287
100
AcDbEntity
  8
schematic
  6
ByLayer
 62
  256
370
   -1
100
AcDbLine
 10
341.9275557355183
 20
202
 11
341.9275557355183
 21
207
  0
LINE
  5
288
100
AcDbEntity
  8
schematic
  6
ByLayer
 62
  256
370
   -1
100
AcDbLine
 10
341.9275557355183
 20
207
 11
343.9275557355183
 21
211
  0
LINE
  5
289
100
AcDbEntity
  8
schematic
  6
ByLayer
 62
  256
370
   -1
100
AcDbLine
 10
341.9275557355183
 20
211
 11
341.9275557355183
 21
223
  0
LINE
  5
28A
100
AcDbEntity
  8
schematic
  6
ByLayer
 62
  256
370
   -1
100
AcDbLine
 10
344.9275557355183
 20
202
 11
344.9275557355183
 21
207
  0
LINE
  5
28B
100
AcDbEntity
  8
schematic
  6
ByLayer
 62
  256
370
   -1
100
AcDbLine
 10
344.9275557355183
 20
207
 11
346.9275557355183
 21
211
  0
LINE
  5
28C
100
AcDbEntity
  8
schematic
  6
ByLayer
 62
  256
370
   -1
100
AcDbLine
 10
344.9275557355183
 20
211
 11
344.9275557355183
 21
223
  0
LINE
  5
28D
100
AcDbEntity
  8
schematic
  6
ByLayer
 62
  256
370
   -1
100
AcDbLine
 10
347.9275557355183
 20
202
 11
347.9275557355183
 21
207
  0
LINE
  5
28E
100
AcDbEntity
  8
schematic
  6
ByLayer
 62
  256
370
   -1
100
AcDbLine
 10
347.9275557355183
 20
207
 11
349.9275557355183
 21
211
  0
LINE
  5
28F
100
AcDbEntity
  8
schematic
  6
ByLayer
 62
  256
370
   -1
100
AcDbLine
 10
347.9275557355183
 20
211
 11
347.9275557355183
 21
223
  0
LINE
  5
290
100
AcDbEntity
  8
schematic
  6
ByLayer
 62
  256
370
   -1
100
AcDbLine
 10
350.9275557355183
 20
202
 11
350.9275557355183
 21
207
  0
LINE
  5
291
100
AcDbEntity
  8
schematic
  6
ByLayer
 62
  256
370
   -1
100
AcDbLine
 10
350.9275557355183
 20
207
 11
352.9275557355183
 21
211
  0
LINE
  5
292
100
AcDbEntity
  8
schematic
  6
ByLayer
 62
  256
370
   -1
100
AcDbLine
 10
350.9275557355183
 20
211
 11
350.9275557355183
 21
223
  0
LINE
  5
293
100
AcDbEntity
  8
schematic
  6
ByLayer
 62
  256
370
   -1
100
AcDbLine
 10
353.9275557355183
 20
202
 11
353.9275557355183
 21
207
  0
LINE
  5
294
100
AcDbEntity
  8
schematic
  6
ByLayer
 62
  256
370
   -1
100
AcDbLine
 10
353.9275557355183
 20
207
 11
355.9275557355183
 21
211
  0
LINE
  5
295
100
AcDbEntity
  8
schematic
  6
ByLayer
 62
  256
370
   -1
100
AcDbLine
 10
353.9275557355183
 20
211
 11
353.9275557355183
 21
223
  0
LINE
  5
296
100
AcDbEntity
  8
schematic
  6
ByLayer
 62
  256
370
   -1
100
AcDbLine
 10
332.9275557355183
 20
223
 11
353.9275557355183
 21
223
  0
LINE
  5
297
100
AcDbEntity
  8
schematic
  6
ByLayer
 62
  256
370
   -1
100
AcDbLine
 10
353.9275557355183
 20
223
 11
353.9275557355183
 21
230
  0
INSERT
  5
298
100
AcDbEntity
  8
schematic
  6
ByLayer
 62
  256
370
   -1
100
AcDbBlockReference
  2
junction
 10
335.9275557355183
 20
223
 30
0
 41
0.4899999999999999
 42
0.4899999999999999
 43
0
 50
0
 70
    1
 71
    1
 44
0.4899999999999999
 45
0.4899999999999999
  0
INSERT
  5
299
100
AcDbEntity
  8
schematic
  6
ByLayer
 62
  256
370
   -1
100
AcDbBlockReference
  2
junction
 10
338.9275557355183
 20
223
 30
0
 41
0.4899999999999999
 42
0.4899999999999999
 43
0
 50
0
 70
    1
 71
    1
 44
0.4899999999999999
 45
0.4899999999999999
  0
INSERT
  5
29A
100
AcDbEntity
  8
schematic
  6
ByLayer
 62
  256
370
   -1
100
AcDbBlockReference
  2
junction
 10
341.9275557355183
 20
223
 30
0
 41
0.4899999999999999
 42
0.4899999999999999
 43
0
 50
0
 70
    1
 71
    1
 44
0.4899999999999999
 45
0.4899999999999999
  0
INSERT
  5
29B
100
AcDbEntity
  8
schematic
  6
ByLayer
 62
  256
370
   -1
100
AcDbBlockReference
  2
junction
 10
344.9275557355183
 20
223
 30
0
 41
0.4899999999999999
 42
0.4899999999999999
 43
0
 50
0
 70
    1
 71
    1
 44
0.4899999999999999
 45
0.4899999999999999
  0
INSERT
  5
29C
100
AcDbEntity
  8
schematic
  6
ByLayer
 62
  256
370
   -1
100
AcDbBlockReference
  2
junction
 10
347.9275557355183
 20
223
 30
0
 41
0.4899999999999999
 42
0.4899999999999999
 43
0
 50
0
 70
    1
 71
    1
 44
0.4899999999999999
 45
0.4899999999999999
  0
INSERT
  5
29D
100
AcDbEntity
  8
schematic
  6
ByLayer
 62
  256
370
   -1
100
AcDbBlockReference
  2
junction
 10
350.9275557355183
 20
223
 30
0
 41
0.4899999999999999
 42
0.4899999999999999
 43
0
 50
0
 70
    1
 71
    1
 44
0.4899999999999999
 45
0.4899999999999999
  0
INSERT
  5
29E
100
AcDbEntity
  8
schematic
  6
ByLayer
 62
  256
370
   -1
100
AcDbBlockReference
  2
junction
 10
353.9275557355183
 20
223
 30
0
 41
0.4899999999999999
 42
0.4899999999999999
 43
0
 50
0
 70
    1
 71
    1
 44
0.4899999999999999
 45
0.4899999999999999
  0
LINE
  5
29F
100
AcDbEntity
  8
schematic
  6
ByLayer
 62
  256
370
   -1
100
AcDbLine
 10
353.8464772294208
 20
229.9573528010671
 11
376.114638910061
 21
229.9573528010671
  0
LWPOLYLINE
  5
2A0
100
AcDbEntity
  8
schematic
  6
ByLayer
 62
  256
370
   -1
100
AcDbPolyline
 90
    4
 70
    1
 43
0
 10
328.4916396722562
 20
270.0841391958842
 10
387.5794350228659
 20
270.0841391958842
 10
387.5794350228659
 20
190.7124737995427
 10
328.4916396722562
 20
190.7124737995427
  0
INSERT
  5
2A1
100
AcDbEntity
  8
schematic
  6
ByLayer
 62
  256
370
   -1
100
AcDbBlockReference
  2
rjconnector
 10
266.3780487804878
 20
250
 30
0
 41
1
 42
1
 43
0
 50
0
 70
    1
 71
    1
 44
1
 45
1
  0
INSERT
  5
2A2
100
AcDbEntity
  8
schematic
  6
ByLayer
 62
  256
370
   -1
100
AcDbBlockReference
  2
rjconnector
 10
286.3780487804878
 20
250
 30
0
 41
1
 42
1
 43
0
 50
0
 70
    1
 71
    1
 44
1
 45
1
  0
LINE
  5
2A3
100
AcDbEntity
  8
schematic
  6
ByLayer
 62
  256
370
   -1
100
AcDbLine
 10
302.3780487804878
 20
268
 11
302.3780487804878
 21
258
  0
LINE
  5
2A4
100
AcDbEntity
  8
schematic
  6
ByLayer
 62
  256
370
   -1
100
AcDbLine
 10
302.3780487804878
 20
258
 11
315.3780487804878
 21
258
  0
LINE
  5
2A5
100
AcDbEntity
  8
schematic
  6
ByLayer
 62
  256
370
   -1
100
AcDbLine
 10
315.3780487804878
 20
258
 11
315.3780487804878
 21
268
  0
LINE
  5
2A6
100
AcDbEntity
  8
schematic
  6
ByLayer
 62
  256
370
   -1
100
AcDbLine
 10
315.3780487804878
 20
268
 11
302.3780487804878
 21
268
  0
CIRCLE
  5
2A7
100
AcDbEntity
  8
schematic
  6
ByLayer
 62
  256
370
   -1
100
AcDbCircle
 10
305.3780487804878
 20
263
 40
2.23606797749979
  0
CIRCLE
  5
2A8
100
AcDbEntity
  8
schematic
  6
ByLayer
 62
  256
370
   -1
100
AcDbCircle
 10
312.3780487804878
 20
263
 40
2.23606797749979
  0
LINE
  5
2A9
100
AcDbEntity
  8
schematic
  6
ByLayer
 62
  256
370
   -1
100
AcDbLine
 10
312.3780487804878
 20
261
 11
312.3780487804878
 21
235
  0
LINE
  5
2AA
100
AcDbEntity
  8
schematic
  6
ByLayer
 62
  256
370
   -1
100
AcDbLine
 10
305.3780487804878
 20
265
 11
305.3780487804878
 21
280
  0
LINE
  5
2AB
100
AcDbEntity
  8
schematic
  6
ByLayer
 62
  256
370
   -1
100
AcDbLine
 10
312.3780487804878
 20
265
 11
312.3780487804878
 21
277
  0
LINE
  5
2AC
100
AcDbEntity
  8
schematic
  6
ByLayer
 62
  256
370
   -1
100
AcDbLine
 10
305.3780487804878
 20
230
 11
305.3780487804878
 21
261
  0
LINE
  5
2AD
100
AcDbEntity
  8
schematic
  6
ByLayer
 62
  256
370
   -1
100
AcDbLine
 10
288.5828172637195
 20
191.7795231516769
 11
315.5828172637195
 21
191.7795231516769
  0
LINE
  5
2AE
100
AcDbEntity
  8
schematic
  6
ByLayer
 62
  256
370
   -1
100
AcDbLine
 10
315.5828172637195
 20
191.7795231516769
 11
315.5828172637195
 21
202.7795231516769
  0
LINE
  5
2AF
100
AcDbEntity
  8
schematic
  6
ByLayer
 62
  256
370
   -1
100
AcDbLine
 10
315.5828172637195
 20
202.7795231516769
 11
288.5828172637195
 21
202.7795231516769
  0
LINE
  5
2B0
100
AcDbEntity
  8
schematic
  6
ByLayer
 62
  256
370
   -1
100
AcDbLine
 10
288.5828172637195
 20
202.7795231516769
 11
288.5828172637195
 21
191.7795231516769
  0
CIRCLE
  5
2B1
100
AcDbEntity
  8
schematic
  6
ByLayer
 62
  256
370
   -1
100
AcDbCircle
 10
291.5828172637195
 20
193.7795231516769
 40
1
  0
CIRCLE
  5
2B2
100
AcDbEntity
  8
schematic
  6
ByLayer
 62
  256
370
   -1
100
AcDbCircle
 10
294.5828172637195
 20
193.7795231516769
 40
1
  0
CIRCLE
  5
2B3
100
AcDbEntity
  8
schematic
  6
ByLayer
 62
  256
370
   -1
100
AcDbCircle
 10
297.5828172637195
 20
193.7795231516769
 40
1
  0
CIRCLE
  5
2B4
100
AcDbEntity
  8
schematic
  6
ByLayer
 62
  256
370
   -1
100
AcDbCircle
 10
300.5828172637195
 20
193.7795231516769
 40
1
  0
CIRCLE
  5
2B5
100
AcDbEntity
  8
schematic
  6
ByLayer
 62
  256
370
   -1
100
AcDbCircle
 10
303.5828172637195
 20
193.7795231516769
 40
1
  0
CIRCLE
  5
2B6
100
AcDbEntity
  8
schematic
  6
ByLayer
 62
  256
370
   -1
100
AcDbCircle
 10
306.5828172637195
 20
193.7795231516769
 40
1
  0
CIRCLE
  5
2B7
100
AcDbEntity
  8
schematic
  6
ByLayer
 62
  256
370
   -1
100
AcDbCircle
 10
309.5828172637195
 20
193.7795231516769
 40
1
  0
CIRCLE
  5
2B8
100
AcDbEntity
  8
schematic
  6
ByLayer
 62
  256
370
   -1
100
AcDbCircle
 10
312.5828172637195
 20
193.7795231516769
 40
1
  0
CIRCLE
  5
2B9
100
AcDbEntity
  8
schematic
  6
ByLayer
 62
  256
370
   -1
100
AcDbCircle
 10
291.5828172637195
 20
200.7795231516769
 40
1
  0
CIRCLE
  5
2BA
100
AcDbEntity
  8
schematic
  6
ByLayer
 62
  256
370
   -1
100
AcDbCircle
 10
294.5828172637195
 20
200.7795231516769
 40
1
  0
CIRCLE
  5
2BB
100
AcDbEntity
  8
schematic
  6
ByLayer
 62
  256
370
   -1
100
AcDbCircle
 10
297.5828172637195
 20
200.7795231516769
 40
1
  0
CIRCLE
  5
2BC
100
AcDbEntity
  8
schematic
  6
ByLayer
 62
  256
370
   -1
100
AcDbCircle
 10
300.5828172637195
 20
200.7795231516769
 40
1
  0
CIRCLE
  5
2BD
100
AcDbEntity
  8
schematic
  6
ByLayer
 62
  256
370
   -1
100
AcDbCircle
 10
303.5828172637195
 20
200.7795231516769
 40
1
  0
CIRCLE
  5
2BE
100
AcDbEntity
  8
schematic
  6
ByLayer
 62
  256
370
   -1
100
AcDbCircle
 10
306.5828172637195
 20
200.7795231516769
 40
1
  0
CIRCLE
  5
2BF
100
AcDbEntity
  8
schematic
  6
ByLayer
 62
  256
370
   -1
100
AcDbCircle
 10
309.5828172637195
 20
200.7795231516769
 40
1
  0
CIRCLE
  5
2C0
100
AcDbEntity
  8
schematic
  6
ByLayer
 62
  256
370
   -1
100
AcDbCircle
 10
312.5828172637195
 20
200.7795231516769
 40
1
  0
LINE
  5
2C1
100
AcDbEntity
  8
schematic
  6
ByLayer
 62
  256
370
   -1
100
AcDbLine
 10
291.5828172637195
 20
199.7795231516769
 11
291.5828172637195
 21
194.7795231516769
  0
LINE
  5
2C2
100
AcDbEntity
  8
schematic
  6
ByLayer
 62
  256
370
   -1
100
AcDbLine
 10
294.5828172637195
 20
199.7795231516769
 11
294.5828172637195
 21
194.7795231516769
  0
LINE
  5
2C3
100
AcDbEntity
  8
schematic
  6
ByLayer
 62
  256
370
   -1
100
AcDbLine
 10
297.5828172637195
 20
199.7795231516769
 11
297.5828172637195
 21
194.7795231516769
  0
LINE
  5
2C4
100
AcDbEntity
  8
schematic
  6
ByLayer
 62
  256
370
   -1
100
AcDbLine
 10
300.5828172637195
 20
199.7795231516769
 11
300.5828172637195
 21
194.7795231516769
  0
LINE
  5
2C5
100
AcDbEntity
  8
schematic
  6
ByLayer
 62
  256
370
   -1
100
AcDbLine
 10
303.5828172637195
 20
199.7795231516769
 11
303.5828172637195
 21
194.7795231516769
  0
LINE
  5
2C6
100
AcDbEntity
  8
schematic
  6
ByLayer
 62
  256
370
   -1
100
AcDbLine
 10
306.5828172637195
 20
199.7795231516769
 11
306.5828172637195
 21
194.7795231516769
  0
LINE
  5
2C7
100
AcDbEntity
  8
schematic
  6
ByLayer
 62
  256
370
   -1
100
AcDbLine
 10
309.5828172637195
 20
199.7795231516769
 11
309.5828172637195
 21
194.7795231516769
  0
LINE
  5
2C8
100
AcDbEntity
  8
schematic
  6
ByLayer
 62
  256
370
   -1
100
AcDbLine
 10
312.5828172637195
 20
199.7795231516769
 11
312.5828172637195
 21
194.7795231516769
  0
LINE
  5
2C9
100
AcDbEntity
  8
schematic
  6
ByLayer
 62
  256
370
   -1
100
AcDbLine
 10
291.5828172637195
 20
201.7795231516769
 11
291.5828172637195
 21
206.7795231516769
  0
LINE
  5
2CA
100
AcDbEntity
  8
schematic
  6
ByLayer
 62
  256
370
   -1
100
AcDbLine
 10
291.5828172637195
 20
206.7795231516769
 11
293.5828172637195
 21
210.7795231516769
  0
LINE
  5
2CB
100
AcDbEntity
  8
schematic
  6
ByLayer
 62
  256
370
   -1
100
AcDbLine
 10
291.5828172637195
 20
210.7795231516769
 11
291.5828172637195
 21
222.7795231516769
  0
LINE
  5
2CC
100
AcDbEntity
  8
schematic
  6
ByLayer
 62
  256
370
   -1
100
AcDbLine
 10
294.5828172637195
 20
201.7795231516769
 11
294.5828172637195
 21
206.7795231516769
  0
LINE
  5
2CD
100
AcDbEntity
  8
schematic
  6
ByLayer
 62
  256
370
   -1
100
AcDbLine
 10
294.5828172637195
 20
206.7795231516769
 11
296.5828172637195
 21
210.7795231516769
  0
LINE
  5
2CE
100
AcDbEntity
  8
schematic
  6
ByLayer
 62
  256
370
   -1
100
AcDbLine
 10
294.5828172637195
 20
210.7795231516769
 11
294.5828172637195
 21
222.7795231516769
  0
LINE
  5
2CF
100
AcDbEntity
  8
schematic
  6
ByLayer
 62
  256
370
   -1
100
AcDbLine
 10
297.5828172637195
 20
201.7795231516769
 11
297.5828172637195
 21
206.7795231516769
  0
LINE
  5
2D0
100
AcDbEntity
  8
schematic
  6
ByLayer
 62
  256
370
   -1
100
AcDbLine
 10
297.5828172637195
 20
206.7795231516769
 11
299.5828172637195
 21
210.7795231516769
  0
LINE
  5
2D1
100
AcDbEntity
  8
schematic
  6
ByLayer
 62
  256
370
   -1
100
AcDbLine
 10
297.5828172637195
 20
210.7795231516769
 11
297.5828172637195
 21
222.7795231516769
  0
LINE
  5
2D2
100
AcDbEntity
  8
schematic
  6
ByLayer
 62
  256
370
   -1
100
AcDbLine
 10
300.5828172637195
 20
201.7795231516769
 11
300.5828172637195
 21
206.7795231516769
  0
LINE
  5
2D3
100
AcDbEntity
  8
schematic
  6
ByLayer
 62
  256
370
   -1
100
AcDbLine
 10
300.5828172637195
 20
206.7795231516769
 11
302.5828172637195
 21
210.7795231516769
  0
LINE
  5
2D4
100
AcDbEntity
  8
schematic
  6
ByLayer
 62
  256
370
   -1
100
AcDbLine
 10
300.5828172637195
 20
210.7795231516769
 11
300.5828172637195
 21
222.7795231516769
  0
LINE
  5
2D5
100
AcDbEntity
  8
schematic
  6
ByLayer
 62
  256
370
   -1
100
AcDbLine
 10
303.5828172637195
 20
201.7795231516769
 11
303.5828172637195
 21
206.7795231516769
  0
LINE
  5
2D6
100
AcDbEntity
  8
schematic
  6
ByLayer
 62
  256
370
   -1
100
AcDbLine
 10
303.5828172637195
 20
206.7795231516769
 11
305.5828172637195
 21
210.7795231516769
  0
LINE
  5
2D7
100
AcDbEntity
  8
schematic
  6
ByLayer
 62
  256
370
   -1
100
AcDbLine
 10
303.5828172637195
 20
210.7795231516769
 11
303.5828172637195
 21
222.7795231516769
  0
LINE
  5
2D8
100
AcDbEntity
  8
schematic
  6
ByLayer
 62
  256
370
   -1
100
AcDbLine
 10
306.5828172637195
 20
201.7795231516769
 11
306.5828172637195
 21
206.7795231516769
  0
LINE
  5
2D9
100
AcDbEntity
  8
schematic
  6
ByLayer
 62
  256
370
   -1
100
AcDbLine
 10
306.5828172637195
 20
206.7795231516769
 11
308.5828172637195
 21
210.7795231516769
  0
LINE
  5
2DA
100
AcDbEntity
  8
schematic
  6
ByLayer
 62
  256
370
   -1
100
AcDbLine
 10
306.5828172637195
 20
210.7795231516769
 11
306.5828172637195
 21
222.7795231516769
  0
LINE
  5
2DB
100
AcDbEntity
  8
schematic
  6
ByLayer
 62
  256
370
   -1
100
AcDbLine
 10
309.5828172637195
 20
201.7795231516769
 11
309.5828172637195
 21
206.7795231516769
  0
LINE
  5
2DC
100
AcDbEntity
  8
schematic
  6
ByLayer
 62
  256
370
   -1
100
AcDbLine
 10
309.5828172637195
 20
206.7795231516769
 11
311.5828172637195
 21
210.7795231516769
  0
LINE
  5
2DD
100
AcDbEntity
  8
schematic
  6
ByLayer
 62
  256
370
   -1
100
AcDbLine
 10
309.5828172637195
 20
210.7795231516769
 11
309.5828172637195
 21
222.7795231516769
  0
LINE
  5
2DE
100
AcDbEntity
  8
schematic
  6
ByLayer
 62
  256
370
   -1
100
AcDbLine
 10
312.5828172637195
 20
201.7795231516769
 11
312.5828172637195
 21
206.7795231516769
  0
LINE
  5
2DF
100
AcDbEntity
  8
schematic
  6
ByLayer
 62
  256
370
   -1
100
AcDbLine
 10
312.5828172637195
 20
206.7795231516769
 11
314.5828172637195
 21
210.7795231516769
  0
LINE
  5
2E0
100
AcDbEntity
  8
schematic
  6
ByLayer
 62
  256
370
   -1
100
AcDbLine
 10
312.5828172637195
 20
210.7795231516769
 11
312.5828172637195
 21
222.7795231516769
  0
LINE
  5
2E1
100
AcDbEntity
  8
schematic
  6
ByLayer
 62
  256
370
   -1
100
AcDbLine
 10
312.5828172637195
 20
234.7795231516769
 11
312.5828172637195
 21
222.7795231516769
  0
LINE
  5
2E2
100
AcDbEntity
  8
schematic
  6
ByLayer
 62
  256
370
   -1
100
AcDbLine
 10
312.5828172637195
 20
222.7795231516769
 11
291.5828172637195
 21
222.7795231516769
  0
INSERT
  5
2E3
100
AcDbEntity
  8
schematic
  6
ByLayer
 62
  256
370
   -1
100
AcDbBlockReference
  2
junction
 10
294.5828172637195
 20
222.7795231516769
 30
0
 41
0.4899999999999999
 42
0.4899999999999999
 43
0
 50
0
 70
    1
 71
    1
 44
0.4899999999999999
 45
0.4899999999999999
  0
INSERT
  5
2E4
100
AcDbEntity
  8
schematic
  6
ByLayer
 62
  256
370
   -1
100
AcDbBlockReference
  2
junction
 10
297.5828172637195
 20
222.7795231516769
 30
0
 41
0.4899999999999999
 42
0.4899999999999999
 43
0
 50
0
 70
    1
 71
    1
 44
0.4899999999999999
 45
0.4899999999999999
  0
INSERT
  5
2E5
100
AcDbEntity
  8
schematic
  6
ByLayer
 62
  256
370
   -1
100
AcDbBlockReference
  2
junction
 10
300.5828172637195
 20
222.7795231516769
 30
0
 41
0.4899999999999999
 42
0.4899999999999999
 43
0
 50
0
 70
    1
 71
    1
 44
0.4899999999999999
 45
0.4899999999999999
  0
INSERT
  5
2E6
100
AcDbEntity
  8
schematic
  6
ByLayer
 62
  256
370
   -1
100
AcDbBlockReference
  2
junction
 10
303.5828172637195
 20
222.7795231516769
 30
0
 41
0.4899999999999999
 42
0.4899999999999999
 43
0
 50
0
 70
    1
 71
    1
 44
0.4899999999999999
 45
0.4899999999999999
  0
INSERT
  5
2E7
100
AcDbEntity
  8
schematic
  6
ByLayer
 62
  256
370
   -1
100
AcDbBlockReference
  2
junction
 10
306.5828172637195
 20
222.7795231516769
 30
0
 41
0.4899999999999999
 42
0.4899999999999999
 43
0
 50
0
 70
    1
 71
    1
 44
0.4899999999999999
 45
0.4899999999999999
  0
INSERT
  5
2E8
100
AcDbEntity
  8
schematic
  6
ByLayer
 62
  256
370
   -1
100
AcDbBlockReference
  2
junction
 10
309.5828172637195
 20
222.7795231516769
 30
0
 41
0.4899999999999999
 42
0.4899999999999999
 43
0
 50
0
 70
    1
 71
    1
 44
0.4899999999999999
 45
0.4899999999999999
  0
INSERT
  5
2E9
100
AcDbEntity
  8
schematic
  6
ByLayer
 62
  256
370
   -1
100
AcDbBlockReference
  2
junction
 10
312.5828172637195
 20
222.7795231516769
 30
0
 41
0.4899999999999999
 42
0.4899999999999999
 43
0
 50
0
 70
    1
 71
    1
 44
0.4899999999999999
 45
0.4899999999999999
  0
LINE
  5
2EA
100
AcDbEntity
  8
schematic
  6
ByLayer
 62
  256
370
   -1
100
AcDbLine
 10
259.2995069550305
 20
192
 11
286.2995069550305
 21
192
  0
LINE
  5
2EB
100
AcDbEntity
  8
schematic
  6
ByLayer
 62
  256
370
   -1
100
AcDbLine
 10
286.2995069550305
 20
192
 11
286.2995069550305
 21
203
  0
LINE
  5
2EC
100
AcDbEntity
  8
schematic
  6
ByLayer
 62
  256
370
   -1
100
AcDbLine
 10
286.2995069550305
 20
203
 11
259.2995069550305
 21
203
  0
LINE
  5
2ED
100
AcDbEntity
  8
schematic
  6
ByLayer
 62
  256
370
   -1
100
AcDbLine
 10
259.2995069550305
 20
203
 11
259.2995069550305
 21
192
  0
CIRCLE
  5
2EE
100
AcDbEntity
  8
schematic
  6
ByLayer
 62
  256
370
   -1
100
AcDbCircle
 10
262.2995069550305
 20
201
 40
1
  0
CIRCLE
  5
2EF
100
AcDbEntity
  8
schematic
  6
ByLayer
 62
  256
370
   -1
100
AcDbCircle
 10
265.2995069550305
 20
201
 40
1
  0
CIRCLE
  5
2F0
100
AcDbEntity
  8
schematic
  6
ByLayer
 62
  256
370
   -1
100
AcDbCircle
 10
268.2995069550305
 20
201
 40
1
  0
CIRCLE
  5
2F1
100
AcDbEntity
  8
schematic
  6
ByLayer
 62
  256
370
   -1
100
AcDbCircle
 10
271.2995069550305
 20
201
 40
1
  0
CIRCLE
  5
2F2
100
AcDbEntity
  8
schematic
  6
ByLayer
 62
  256
370
   -1
100
AcDbCircle
 10
274.2995069550305
 20
201
 40
1
  0
CIRCLE
  5
2F3
100
AcDbEntity
  8
schematic
  6
ByLayer
 62
  256
370
   -1
100
AcDbCircle
 10
277.2995069550305
 20
201
 40
1
  0
CIRCLE
  5
2F4
100
AcDbEntity
  8
schematic
  6
ByLayer
 62
  256
370
   -1
100
AcDbCircle
 10
280.2995069550305
 20
201
 40
1
  0
CIRCLE
  5
2F5
100
AcDbEntity
  8
schematic
  6
ByLayer
 62
  256
370
   -1
100
AcDbCircle
 10
283.2995069550305
 20
201
 40
1
  0
CIRCLE
  5
2F6
100
AcDbEntity
  8
schematic
  6
ByLayer
 62
  256
370
   -1
100
AcDbCircle
 10
262.2995069550305
 20
194
 40
1
  0
CIRCLE
  5
2F7
100
AcDbEntity
  8
schematic
  6
ByLayer
 62
  256
370
   -1
100
AcDbCircle
 10
265.2995069550305
 20
194
 40
1
  0
CIRCLE
  5
2F8
100
AcDbEntity
  8
schematic
  6
ByLayer
 62
  256
370
   -1
100
AcDbCircle
 10
268.2995069550305
 20
194
 40
1
  0
CIRCLE
  5
2F9
100
AcDbEntity
  8
schematic
  6
ByLayer
 62
  256
370
   -1
100
AcDbCircle
 10
271.2995069550305
 20
194
 40
1
  0
CIRCLE
  5
2FA
100
AcDbEntity
  8
schematic
  6
ByLayer
 62
  256
370
   -1
100
AcDbCircle
 10
274.2995069550305
 20
194
 40
1
  0
CIRCLE
  5
2FB
100
AcDbEntity
  8
schematic
  6
ByLayer
 62
  256
370
   -1
100
AcDbCircle
 10
277.2995069550305
 20
194
 40
1
  0
CIRCLE
  5
2FC
100
AcDbEntity
  8
schematic
  6
ByLayer
 62
  256
370
   -1
100
AcDbCircle
 10
280.2995069550305
 20
194
 40
1
  0
CIRCLE
  5
2FD
100
AcDbEntity
  8
schematic
  6
ByLayer
 62
  256
370
   -1
100
AcDbCircle
 10
283.2995069550305
 20
194
 40
1
  0
LINE
  5
2FE
100
AcDbEntity
  8
schematic
  6
ByLayer
 62
  256
370
   -1
100
AcDbLine
 10
262.2995069550305
 20
200
 11
262.2995069550305
 21
195
  0
LINE
  5
2FF
100
AcDbEntity
  8
schematic
  6
ByLayer
 62
  256
370
   -1
100
AcDbLine
 10
265.2995069550305
 20
200
 11
265.2995069550305
 21
195
  0
LINE
  5
300
100
AcDbEntity
  8
schematic
  6
ByLayer
 62
  256
370
   -1
100
AcDbLine
 10
268.2995069550305
 20
200
 11
268.2995069550305
 21
195
  0
LINE
  5
301
100
AcDbEntity
  8
schematic
  6
ByLayer
 62
  256
370
   -1
100
AcDbLine
 10
271.2995069550305
 20
200
 11
271.2995069550305
 21
195
  0
LINE
  5
302
100
AcDbEntity
  8
schematic
  6
ByLayer
 62
  256
370
   -1
100
AcDbLine
 10
274.2995069550305
 20
200
 11
274.2995069550305
 21
195
  0
LINE
  5
303
100
AcDbEntity
  8
schematic
  6
ByLayer
 62
  256
370
   -1
100
AcDbLine
 10
277.2995069550305
 20
195
 11
277.2995069550305
 21
200
  0
LINE
  5
304
100
AcDbEntity
  8
schematic
  6
ByLayer
 62
  256
370
   -1
100
AcDbLine
 10
280.2995069550305
 20
200
 11
280.2995069550305
 21
195
  0
LINE
  5
305
100
AcDbEntity
  8
schematic
  6
ByLayer
 62
  256
370
   -1
100
AcDbLine
 10
283.2995069550305
 20
200
 11
283.2995069550305
 21
195
  0
LINE
  5
306
100
AcDbEntity
  8
schematic
  6
ByLayer
 62
  256
370
   -1
100
AcDbLine
 10
262.2995069550305
 20
202
 11
262.2995069550305
 21
207
  0
LINE
  5
307
100
AcDbEntity
  8
schematic
  6
ByLayer
 62
  256
370
   -1
100
AcDbLine
 10
262.2995069550305
 20
207
 11
264.2995069550305
 21
211
  0
LINE
  5
308
100
AcDbEntity
  8
schematic
  6
ByLayer
 62
  256
370
   -1
100
AcDbLine
 10
262.2995069550305
 20
211
 11
262.2995069550305
 21
223
  0
LINE
  5
309
100
AcDbEntity
  8
schematic
  6
ByLayer
 62
  256
370
   -1
100
AcDbLine
 10
265.2995069550305
 20
202
 11
265.2995069550305
 21
207
  0
LINE
  5
30A
100
AcDbEntity
  8
schematic
  6
ByLayer
 62
  256
370
   -1
100
AcDbLine
 10
265.2995069550305
 20
207
 11
267.2995069550305
 21
211
  0
LINE
  5
30B
100
AcDbEntity
  8
schematic
  6
ByLayer
 62
  256
370
   -1
100
AcDbLine
 10
265.2995069550305
 20
211
 11
265.2995069550305
 21
223
  0
LINE
  5
30C
100
AcDbEntity
  8
schematic
  6
ByLayer
 62
  256
370
   -1
100
AcDbLine
 10
268.2995069550305
 20
202
 11
268.2995069550305
 21
207
  0
LINE
  5
30D
100
AcDbEntity
  8
schematic
  6
ByLayer
 62
  256
370
   -1
100
AcDbLine
 10
268.2995069550305
 20
207
 11
270.2995069550305
 21
211
  0
LINE
  5
30E
100
AcDbEntity
  8
schematic
  6
ByLayer
 62
  256
370
   -1
100
AcDbLine
 10
268.2995069550305
 20
211
 11
268.2995069550305
 21
223
  0
LINE
  5
30F
100
AcDbEntity
  8
schematic
  6
ByLayer
 62
  256
370
   -1
100
AcDbLine
 10
271.2995069550305
 20
202
 11
271.2995069550305
 21
207
  0
LINE
  5
310
100
AcDbEntity
  8
schematic
  6
ByLayer
 62
  256
370
   -1
100
AcDbLine
 10
271.2995069550305
 20
207
 11
273.2995069550305
 21
211
  0
LINE
  5
311
100
AcDbEntity
  8
schematic
  6
ByLayer
 62
  256
370
   -1
100
AcDbLine
 10
271.2995069550305
 20
211
 11
271.2995069550305
 21
223
  0
LINE
  5
312
100
AcDbEntity
  8
schematic
  6
ByLayer
 62
  256
370
   -1
100
AcDbLine
 10
274.2995069550305
 20
202
 11
274.2995069550305
 21
207
  0
LINE
  5
313
100
AcDbEntity
  8
schematic
  6
ByLayer
 62
  256
370
   -1
100
AcDbLine
 10
274.2995069550305
 20
207
 11
276.2995069550305
 21
211
  0
LINE
  5
314
100
AcDbEntity
  8
schematic
  6
ByLayer
 62
  256
370
   -1
100
AcDbLine
 10
274.2995069550305
 20
211
 11
274.2995069550305
 21
223
  0
LINE
  5
315
100
AcDbEntity
  8
schematic
  6
ByLayer
 62
  256
370
   -1
100
AcDbLine
 10
277.2995069550305
 20
202
 11
277.2995069550305
 21
207
  0
LINE
  5
316
100
AcDbEntity
  8
schematic
  6
ByLayer
 62
  256
370
   -1
100
AcDbLine
 10
277.2995069550305
 20
207
 11
279.2995069550305
 21
211
  0
LINE
  5
317
100
AcDbEntity
  8
schematic
  6
ByLayer
 62
  256
370
   -1
100
AcDbLine
 10
277.2995069550305
 20
211
 11
277.2995069550305
 21
223
  0
LINE
  5
318
100
AcDbEntity
  8
schematic
  6
ByLayer
 62
  256
370
   -1
100
AcDbLine
 10
280.2995069550305
 20
202
 11
280.2995069550305
 21
207
  0
LINE
  5
319
100
AcDbEntity
  8
schematic
  6
ByLayer
 62
  256
370
   -1
100
AcDbLine
 10
280.2995069550305
 20
207
 11
282.2995069550305
 21
211
  0
LINE
  5
31A
100
AcDbEntity
  8
schematic
  6
ByLayer
 62
  256
370
   -1
100
AcDbLine
 10
280.2995069550305
 20
211
 11
280.2995069550305
 21
223
  0
LINE
  5
31B
100
AcDbEntity
  8
schematic
  6
ByLayer
 62
  256
370
   -1
100
AcDbLine
 10
283.2995069550305
 20
202
 11
283.2995069550305
 21
207
  0
LINE
  5
31C
100
AcDbEntity
  8
schematic
  6
ByLayer
 62
  256
370
   -1
100
AcDbLine
 10
283.2995069550305
 20
207
 11
285.2995069550305
 21
211
  0
LINE
  5
31D
100
AcDbEntity
  8
schematic
  6
ByLayer
 62
  256
370
   -1
100
AcDbLine
 10
283.2995069550305
 20
211
 11
283.2995069550305
 21
223
  0
LINE
  5
31E
100
AcDbEntity
  8
schematic
  6
ByLayer
 62
  256
370
   -1
100
AcDbLine
 10
262.2995069550305
 20
223
 11
283.2995069550305
 21
223
  0
LINE
  5
31F
100
AcDbEntity
  8
schematic
  6
ByLayer
 62
  256
370
   -1
100
AcDbLine
 10
283.2995069550305
 20
223
 11
283.2995069550305
 21
230
  0
INSERT
  5
320
100
AcDbEntity
  8
schematic
  6
ByLayer
 62
  256
370
   -1
100
AcDbBlockReference
  2
junction
 10
265.2995069550305
 20
223
 30
0
 41
0.4899999999999999
 42
0.4899999999999999
 43
0
 50
0
 70
    1
 71
    1
 44
0.4899999999999999
 45
0.4899999999999999
  0
INSERT
  5
321
100
AcDbEntity
  8
schematic
  6
ByLayer
 62
  256
370
   -1
100
AcDbBlockReference
  2
junction
 10
268.2995069550305
 20
223
 30
0
 41
0.4899999999999999
 42
0.4899999999999999
 43
0
 50
0
 70
    1
 71
    1
 44
0.4899999999999999
 45
0.4899999999999999
  0
INSERT
  5
322
100
AcDbEntity
  8
schematic
  6
ByLayer
 62
  256
370
   -1
100
AcDbBlockReference
  2
junction
 10
271.2995069550305
 20
223
 30
0
 41
0.4899999999999999
 42
0.4899999999999999
 43
0
 50
0
 70
    1
 71
    1
 44
0.4899999999999999
 45
0.4899999999999999
  0
INSERT
  5
323
100
AcDbEntity
  8
schematic
  6
ByLayer
 62
  256
370
   -1
100
AcDbBlockReference
  2
junction
 10
274.2995069550305
 20
223
 30
0
 41
0.4899999999999999
 42
0.4899999999999999
 43
0
 50
0
 70
    1
 71
    1
 44
0.4899999999999999
 45
0.4899999999999999
  0
INSERT
  5
324
100
AcDbEntity
  8
schematic
  6
ByLayer
 62
  256
370
   -1
100
AcDbBlockReference
  2
junction
 10
277.2995069550305
 20
223
 30
0
 41
0.4899999999999999
 42
0.4899999999999999
 43
0
 50
0
 70
    1
 71
    1
 44
0.4899999999999999
 45
0.4899999999999999
  0
INSERT
  5
325
100
AcDbEntity
  8
schematic
  6
ByLayer
 62
  256
370
   -1
100
AcDbBlockReference
  2
junction
 10
280.2995069550305
 20
223
 30
0
 41
0.4899999999999999
 42
0.4899999999999999
 43
0
 50
0
 70
    1
 71
    1
 44
0.4899999999999999
 45
0.4899999999999999
  0
INSERT
  5
326
100
AcDbEntity
  8
schematic
  6
ByLayer
 62
  256
370
   -1
100
AcDbBlockReference
  2
junction
 10
283.2995069550305
 20
223
 30
0
 41
0.4899999999999999
 42
0.4899999999999999
 43
0
 50
0
 70
    1
 71
    1
 44
0.4899999999999999
 45
0.4899999999999999
  0
LINE
  5
327
100
AcDbEntity
  8
schematic
  6
ByLayer
 62
  256
370
   -1
100
AcDbLine
 10
283.218428448933
 20
229.9573528010671
 11
305.4865901295732
 21
229.9573528010671
  0
LWPOLYLINE
  5
328
100
AcDbEntity
  8
schematic
  6
ByLayer
 62
  256
370
   -1
100
AcDbPolyline
 90
    4
 70
    1
 43
0
 10
257.8635908917684
 20
270.0841391958842
 10
316.9513862423781
 20
270.0841391958842
 10
316.9513862423781
 20
190.7124737995427
 10
257.8635908917684
 20
190.7124737995427
  0
INSERT
  5
329
100
AcDbEntity
  8
schematic
  6
ByLayer
 62
  256
370
   -1
100
AcDbBlockReference
  2
rjconnector
 10
193.9390243902439
 20
250
 30
0
 41
1
 42
1
 43
0
 50
0
 70
    1
 71
    1
 44
1
 45
1
  0
INSERT
  5
32A
100
AcDbEntity
  8
schematic
  6
ByLayer
 62
  256
370
   -1
100
AcDbBlockReference
  2
rjconnector
 10
213.9390243902439
 20
250
 30
0
 41
1
 42
1
 43
0
 50
0
 70
    1
 71
    1
 44
1
 45
1
  0
LINE
  5
32B
100
AcDbEntity
  8
schematic
  6
ByLayer
 62
  256
370
   -1
100
AcDbLine
 10
229.9390243902439
 20
268
 11
229.9390243902439
 21
258
  0
LINE
  5
32C
100
AcDbEntity
  8
schematic
  6
ByLayer
 62
  256
370
   -1
100
AcDbLine
 10
229.9390243902439
 20
258
 11
242.9390243902439
 21
258
  0
LINE
  5
32D
100
AcDbEntity
  8
schematic
  6
ByLayer
 62
  256
370
   -1
100
AcDbLine
 10
242.9390243902439
 20
258
 11
242.9390243902439
 21
268
  0
LINE
  5
32E
100
AcDbEntity
  8
schematic
  6
ByLayer
 62
  256
370
   -1
100
AcDbLine
 10
242.9390243902439
 20
268
 11
229.9390243902439
 21
268
  0
CIRCLE
  5
32F
100
AcDbEntity
  8
schematic
  6
ByLayer
 62
  256
370
   -1
100
AcDbCircle
 10
232.9390243902439
 20
263
 40
2.23606797749979
  0
CIRCLE
  5
330
100
AcDbEntity
  8
schematic
  6
ByLayer
 62
  256
370
   -1
100
AcDbCircle
 10
239.9390243902439
 20
263
 40
2.23606797749979
  0
LINE
  5
331
100
AcDbEntity
  8
schematic
  6
ByLayer
 62
  256
370
   -1
100
AcDbLine
 10
239.9390243902439
 20
261
 11
239.9390243902439
 21
235
  0
LINE
  5
332
100
AcDbEntity
  8
schematic
  6
ByLayer
 62
  256
370
   -1
100
AcDbLine
 10
232.9390243902439
 20
265
 11
232.9390243902439
 21
280
  0
LINE
  5
333
100
AcDbEntity
  8
schematic
  6
ByLayer
 62
  256
370
   -1
100
AcDbLine
 10
239.9390243902439
 20
265
 11
239.9390243902439
 21
277
  0
LINE
  5
334
100
AcDbEntity
  8
schematic
  6
ByLayer
 62
  256
370
   -1
100
AcDbLine
 10
232.9390243902439
 20
230
 11
232.9390243902439
 21
261
  0
LINE
  5
335
100
AcDbEntity
  8
schematic
  6
ByLayer
 62
  256
370
   -1
100
AcDbLine
 10
216.1437928734756
 20
191.7795231516769
 11
243.1437928734756
 21
191.7795231516769
  0
LINE
  5
336
100
AcDbEntity
  8
schematic
  6
ByLayer
 62
  256
370
   -1
100
AcDbLine
 10
243.1437928734756
 20
191.7795231516769
 11
243.1437928734756
 21
202.7795231516769
  0
LINE
  5
337
100
AcDbEntity
  8
schematic
  6
ByLayer
 62
  256
370
   -1
100
AcDbLine
 10
243.1437928734756
 20
202.7795231516769
 11
216.1437928734756
 21
202.7795231516769
  0
LINE
  5
338
100
AcDbEntity
  8
schematic
  6
ByLayer
 62
  256
370
   -1
100
AcDbLine
 10
216.1437928734756
 20
202.7795231516769
 11
216.1437928734756
 21
191.7795231516769
  0
CIRCLE
  5
339
100
AcDbEntity
  8
schematic
  6
ByLayer
 62
  256
370
   -1
100
AcDbCircle
 10
219.1437928734756
 20
193.7795231516769
 40
1
  0
CIRCLE
  5
33A
100
AcDbEntity
  8
schematic
  6
ByLayer
 62
  256
370
   -1
100
AcDbCircle
 10
222.1437928734756
 20
193.7795231516769
 40
1
  0
CIRCLE
  5
33B
100
AcDbEntity
  8
schematic
  6
ByLayer
 62
  256
370
   -1
100
AcDbCircle
 10
225.1437928734756
 20
193.7795231516769
 40
1
  0
CIRCLE
  5
33C
100
AcDbEntity
  8
schematic
  6
ByLayer
 62
  256
370
   -1
100
AcDbCircle
 10
228.1437928734756
 20
193.7795231516769
 40
1
  0
CIRCLE
  5
33D
100
AcDbEntity
  8
schematic
  6
ByLayer
 62
  256
370
   -1
100
AcDbCircle
 10
231.1437928734756
 20
193.7795231516769
 40
1
  0
CIRCLE
  5
33E
100
AcDbEntity
  8
schematic
  6
ByLayer
 62
  256
370
   -1
100
AcDbCircle
 10
234.1437928734756
 20
193.7795231516769
 40
1
  0
CIRCLE
  5
33F
100
AcDbEntity
  8
schematic
  6
ByLayer
 62
  256
370
   -1
100
AcDbCircle
 10
237.1437928734756
 20
193.7795231516769
 40
1
  0
CIRCLE
  5
340
100
AcDbEntity
  8
schematic
  6
ByLayer
 62
  256
370
   -1
100
AcDbCircle
 10
240.1437928734756
 20
193.7795231516769
 40
1
  0
CIRCLE
  5
341
100
AcDbEntity
  8
schematic
  6
ByLayer
 62
  256
370
   -1
100
AcDbCircle
 10
219.1437928734756
 20
200.7795231516769
 40
1
  0
CIRCLE
  5
342
100
AcDbEntity
  8
schematic
  6
ByLayer
 62
  256
370
   -1
100
AcDbCircle
 10
222.1437928734756
 20
200.7795231516769
 40
1
  0
CIRCLE
  5
343
100
AcDbEntity
  8
schematic
  6
ByLayer
 62
  256
370
   -1
100
AcDbCircle
 10
225.1437928734756
 20
200.7795231516769
 40
1
  0
CIRCLE
  5
344
100
AcDbEntity
  8
schematic
  6
ByLayer
 62
  256
370
   -1
100
AcDbCircle
 10
228.1437928734756
 20
200.7795231516769
 40
1
  0
CIRCLE
  5
345
100
AcDbEntity
  8
schematic
  6
ByLayer
 62
  256
370
   -1
100
AcDbCircle
 10
231.1437928734756
 20
200.7795231516769
 40
1
  0
CIRCLE
  5
346
100
AcDbEntity
  8
schematic
  6
ByLayer
 62
  256
370
   -1
100
AcDbCircle
 10
234.1437928734756
 20
200.7795231516769
 40
1
  0
CIRCLE
  5
347
100
AcDbEntity
  8
schematic
  6
ByLayer
 62
  256
370
   -1
100
AcDbCircle
 10
237.1437928734756
 20
200.7795231516769
 40
1
  0
CIRCLE
  5
348
100
AcDbEntity
  8
schematic
  6
ByLayer
 62
  256
370
   -1
100
AcDbCircle
 10
240.1437928734756
 20
200.7795231516769
 40
1
  0
LINE
  5
349
100
AcDbEntity
  8
schematic
  6
ByLayer
 62
  256
370
   -1
100
AcDbLine
 10
219.1437928734756
 20
199.7795231516769
 11
219.1437928734756
 21
194.7795231516769
  0
LINE
  5
34A
100
AcDbEntity
  8
schematic
  6
ByLayer
 62
  256
370
   -1
100
AcDbLine
 10
222.1437928734756
 20
199.7795231516769
 11
222.1437928734756
 21
194.7795231516769
  0
LINE
  5
34B
100
AcDbEntity
  8
schematic
  6
ByLayer
 62
  256
370
   -1
100
AcDbLine
 10
225.1437928734756
 20
199.7795231516769
 11
225.1437928734756
 21
194.7795231516769
  0
LINE
  5
34C
100
AcDbEntity
  8
schematic
  6
ByLayer
 62
  256
370
   -1
100
AcDbLine
 10
228.1437928734756
 20
199.7795231516769
 11
228.1437928734756
 21
194.7795231516769
  0
LINE
  5
34D
100
AcDbEntity
  8
schematic
  6
ByLayer
 62
  256
370
   -1
100
AcDbLine
 10
231.1437928734756
 20
199.7795231516769
 11
231.1437928734756
 21
194.7795231516769
  0
LINE
  5
34E
100
AcDbEntity
  8
schematic
  6
ByLayer
 62
  256
370
   -1
100
AcDbLine
 10
234.1437928734756
 20
199.7795231516769
 11
234.1437928734756
 21
194.7795231516769
  0
LINE
  5
34F
100
AcDbEntity
  8
schematic
  6
ByLayer
 62
  256
370
   -1
100
AcDbLine
 10
237.1437928734756
 20
199.7795231516769
 11
237.1437928734756
 21
194.7795231516769
  0
LINE
  5
350
100
AcDbEntity
  8
schematic
  6
ByLayer
 62
  256
370
   -1
100
AcDbLine
 10
240.1437928734756
 20
199.7795231516769
 11
240.1437928734756
 21
194.7795231516769
  0
LINE
  5
351
100
AcDbEntity
  8
schematic
  6
ByLayer
 62
  256
370
   -1
100
AcDbLine
 10
219.1437928734756
 20
201.7795231516769
 11
219.1437928734756
 21
206.7795231516769
  0
LINE
  5
352
100
AcDbEntity
  8
schematic
  6
ByLayer
 62
  256
370
   -1
100
AcDbLine
 10
219.1437928734756
 20
206.7795231516769
 11
221.1437928734756
 21
210.7795231516769
  0
LINE
  5
353
100
AcDbEntity
  8
schematic
  6
ByLayer
 62
  256
370
   -1
100
AcDbLine
 10
219.1437928734756
 20
210.7795231516769
 11
219.1437928734756
 21
222.7795231516769
  0
LINE
  5
354
100
AcDbEntity
  8
schematic
  6
ByLayer
 62
  256
370
   -1
100
AcDbLine
 10
222.1437928734756
 20
201.7795231516769
 11
222.1437928734756
 21
206.7795231516769
  0
LINE
  5
355
100
AcDbEntity
  8
schematic
  6
ByLayer
 62
  256
370
   -1
100
AcDbLine
 10
222.1437928734756
 20
206.7795231516769
 11
224.1437928734756
 21
210.7795231516769
  0
LINE
  5
356
100
AcDbEntity
  8
schematic
  6
ByLayer
 62
  256
370
   -1
100
AcDbLine
 10
222.1437928734756
 20
210.7795231516769
 11
222.1437928734756
 21
222.7795231516769
  0
LINE
  5
357
100
AcDbEntity
  8
schematic
  6
ByLayer
 62
  256
370
   -1
100
AcDbLine
 10
225.1437928734756
 20
201.7795231516769
 11
225.1437928734756
 21
206.7795231516769
  0
LINE
  5
358
100
AcDbEntity
  8
schematic
  6
ByLayer
 62
  256
370
   -1
100
AcDbLine
 10
225.1437928734756
 20
206.7795231516769
 11
227.1437928734756
 21
210.7795231516769
  0
LINE
  5
359
100
AcDbEntity
  8
schematic
  6
ByLayer
 62
  256
370
   -1
100
AcDbLine
 10
225.1437928734756
 20
210.7795231516769
 11
225.1437928734756
 21
222.7795231516769
  0
LINE
  5
35A
100
AcDbEntity
  8
schematic
  6
ByLayer
 62
  256
370
   -1
100
AcDbLine
 10
228.1437928734756
 20
201.7795231516769
 11
228.1437928734756
 21
206.7795231516769
  0
LINE
  5
35B
100
AcDbEntity
  8
schematic
  6
ByLayer
 62
  256
370
   -1
100
AcDbLine
 10
228.1437928734756
 20
206.7795231516769
 11
230.1437928734756
 21
210.7795231516769
  0
LINE
  5
35C
100
AcDbEntity
  8
schematic
  6
ByLayer
 62
  256
370
   -1
100
AcDbLine
 10
228.1437928734756
 20
210.7795231516769
 11
228.1437928734756
 21
222.7795231516769
  0
LINE
  5
35D
100
AcDbEntity
  8
schematic
  6
ByLayer
 62
  256
370
   -1
100
AcDbLine
 10
231.1437928734756
 20
201.7795231516769
 11
231.1437928734756
 21
206.7795231516769
  0
LINE
  5
35E
100
AcDbEntity
  8
schematic
  6
ByLayer
 62
  256
370
   -1
100
AcDbLine
 10
231.1437928734756
 20
206.7795231516769
 11
233.1437928734756
 21
210.7795231516769
  0
LINE
  5
35F
100
AcDbEntity
  8
schematic
  6
ByLayer
 62
  256
370
   -1
100
AcDbLine
 10
231.1437928734756
 20
210.7795231516769
 11
231.1437928734756
 21
222.7795231516769
  0
LINE
  5
360
100
AcDbEntity
  8
schematic
  6
ByLayer
 62
  256
370
   -1
100
AcDbLine
 10
234.1437928734756
 20
201.7795231516769
 11
234.1437928734756
 21
206.7795231516769
  0
LINE
  5
361
100
AcDbEntity
  8
schematic
  6
ByLayer
 62
  256
370
   -1
100
AcDbLine
 10
234.1437928734756
 20
206.7795231516769
 11
236.1437928734756
 21
210.7795231516769
  0
LINE
  5
362
100
AcDbEntity
  8
schematic
  6
ByLayer
 62
  256
370
   -1
100
AcDbLine
 10
234.1437928734756
 20
210.7795231516769
 11
234.1437928734756
 21
222.7795231516769
  0
LINE
  5
363
100
AcDbEntity
  8
schematic
  6
ByLayer
 62
  256
370
   -1
100
AcDbLine
 10
237.1437928734756
 20
201.7795231516769
 11
237.1437928734756
 21
206.7795231516769
  0
LINE
  5
364
100
AcDbEntity
  8
schematic
  6
ByLayer
 62
  256
370
   -1
100
AcDbLine
 10
237.1437928734756
 20
206.7795231516769
 11
239.1437928734756
 21
210.7795231516769
  0
LINE
  5
365
100
AcDbEntity
  8
schematic
  6
ByLayer
 62
  256
370
   -1
100
AcDbLine
 10
237.1437928734756
 20
210.7795231516769
 11
237.1437928734756
 21
222.7795231516769
  0
LINE
  5
366
100
AcDbEntity
  8
schematic
  6
ByLayer
 62
  256
370
   -1
100
AcDbLine
 10
240.1437928734756
 20
201.7795231516769
 11
240.1437928734756
 21
206.7795231516769
  0
LINE
  5
367
100
AcDbEntity
  8
schematic
  6
ByLayer
 62
  256
370
   -1
100
AcDbLine
 10
240.1437928734756
 20
206.7795231516769
 11
242.1437928734756
 21
210.7795231516769
  0
LINE
  5
368
100
AcDbEntity
  8
schematic
  6
ByLayer
 62
  256
370
   -1
100
AcDbLine
 10
240.1437928734756
 20
210.7795231516769
 11
240.1437928734756
 21
222.7795231516769
  0
LINE
  5
369
100
AcDbEntity
  8
schematic
  6
ByLayer
 62
  256
370
   -1
100
AcDbLine
 10
240.1437928734756
 20
234.7795231516769
 11
240.1437928734756
 21
222.7795231516769
  0
LINE
  5
36A
100
AcDbEntity
  8
schematic
  6
ByLayer
 62
  256
370
   -1
100
AcDbLine
 10
240.1437928734756
 20
222.7795231516769
 11
219.1437928734756
 21
222.7795231516769
  0
INSERT
  5
36B
100
AcDbEntity
  8
schematic
  6
ByLayer
 62
  256
370
   -1
100
AcDbBlockReference
  2
junction
 10
222.1437928734756
 20
222.7795231516769
 30
0
 41
0.4899999999999999
 42
0.4899999999999999
 43
0
 50
0
 70
    1
 71
    1
 44
0.4899999999999999
 45
0.4899999999999999
  0
INSERT
  5
36C
100
AcDbEntity
  8
schematic
  6
ByLayer
 62
  256
370
   -1
100
AcDbBlockReference
  2
junction
 10
225.1437928734756
 20
222.7795231516769
 30
0
 41
0.4899999999999999
 42
0.4899999999999999
 43
0
 50
0
 70
    1
 71
    1
 44
0.4899999999999999
 45
0.4899999999999999
  0
INSERT
  5
36D
100
AcDbEntity
  8
schematic
  6
ByLayer
 62
  256
370
   -1
100
AcDbBlockReference
  2
junction
 10
228.1437928734756
 20
222.7795231516769
 30
0
 41
0.4899999999999999
 42
0.4899999999999999
 43
0
 50
0
 70
    1
 71
    1
 44
0.4899999999999999
 45
0.4899999999999999
  0
INSERT
  5
36E
100
AcDbEntity
  8
schematic
  6
ByLayer
 62
  256
370
   -1
100
AcDbBlockReference
  2
junction
 10
231.1437928734756
 20
222.7795231516769
 30
0
 41
0.4899999999999999
 42
0.4899999999999999
 43
0
 50
0
 70
    1
 71
    1
 44
0.4899999999999999
 45
0.4899999999999999
  0
INSERT
  5
36F
100
AcDbEntity
  8
schematic
  6
ByLayer
 62
  256
370
   -1
100
AcDbBlockReference
  2
junction
 10
234.1437928734756
 20
222.7795231516769
 30
0
 41
0.4899999999999999
 42
0.4899999999999999
 43
0
 50
0
 70
    1
 71
    1
 44
0.4899999999999999
 45
0.4899999999999999
  0
INSERT
  5
370
100
AcDbEntity
  8
schematic
  6
ByLayer
 62
  256
370
   -1
100
AcDbBlockReference
  2
junction
 10
237.1437928734756
 20
222.7795231516769
 30
0
 41
0.4899999999999999
 42
0.4899999999999999
 43
0
 50
0
 70
    1
 71
    1
 44
0.4899999999999999
 45
0.4899999999999999
  0
INSERT
  5
371
100
AcDbEntity
  8
schematic
  6
ByLayer
 62
  256
370
   -1
100
AcDbBlockReference
  2
junction
 10
240.1437928734756
 20
222.7795231516769
 30
0
 41
0.4899999999999999
 42
0.4899999999999999
 43
0
 50
0
 70
    1
 71
    1
 44
0.4899999999999999
 45
0.4899999999999999
  0
LINE
  5
372
100
AcDbEntity
  8
schematic
  6
ByLayer
 62
  256
370
   -1
100
AcDbLine
 10
186.8604825647866
 20
192
 11
213.8604825647866
 21
192
  0
LINE
  5
373
100
AcDbEntity
  8
schematic
  6
ByLayer
 62
  256
370
   -1
100
AcDbLine
 10
213.8604825647866
 20
192
 11
213.8604825647866
 21
203
  0
LINE
  5
374
100
AcDbEntity
  8
schematic
  6
ByLayer
 62
  256
370
   -1
100
AcDbLine
 10
213.8604825647866
 20
203
 11
186.8604825647866
 21
203
  0
LINE
  5
375
100
AcDbEntity
  8
schematic
  6
ByLayer
 62
  256
370
   -1
100
AcDbLine
 10
186.8604825647866
 20
203
 11
186.8604825647866
 21
192
  0
CIRCLE
  5
376
100
AcDbEntity
  8
schematic
  6
ByLayer
 62
  256
370
   -1
100
AcDbCircle
 10
189.8604825647866
 20
201
 40
1
  0
CIRCLE
  5
377
100
AcDbEntity
  8
schematic
  6
ByLayer
 62
  256
370
   -1
100
AcDbCircle
 10
192.8604825647866
 20
201
 40
1
  0
CIRCLE
  5
378
100
AcDbEntity
  8
schematic
  6
ByLayer
 62
  256
370
   -1
100
AcDbCircle
 10
195.8604825647866
 20
201
 40
1
  0
CIRCLE
  5
379
100
AcDbEntity
  8
schematic
  6
ByLayer
 62
  256
370
   -1
100
AcDbCircle
 10
198.8604825647866
 20
201
 40
1
  0
CIRCLE
  5
37A
100
AcDbEntity
  8
schematic
  6
ByLayer
 62
  256
370
   -1
100
AcDbCircle
 10
201.8604825647866
 20
201
 40
1
  0
CIRCLE
  5
37B
100
AcDbEntity
  8
schematic
  6
ByLayer
 62
  256
370
   -1
100
AcDbCircle
 10
204.8604825647866
 20
201
 40
1
  0
CIRCLE
  5
37C
100
AcDbEntity
  8
schematic
  6
ByLayer
 62
  256
370
   -1
100
AcDbCircle
 10
207.8604825647866
 20
201
 40
1
  0
CIRCLE
  5
37D
100
AcDbEntity
  8
schematic
  6
ByLayer
 62
  256
370
   -1
100
AcDbCircle
 10
210.8604825647866
 20
201
 40
1
  0
CIRCLE
  5
37E
100
AcDbEntity
  8
schematic
  6
ByLayer
 62
  256
370
   -1
100
AcDbCircle
 10
189.8604825647866
 20
194
 40
1
  0
CIRCLE
  5
37F
100
AcDbEntity
  8
schematic
  6
ByLayer
 62
  256
370
   -1
100
AcDbCircle
 10
192.8604825647866
 20
194
 40
1
  0
CIRCLE
  5
380
100
AcDbEntity
  8
schematic
  6
ByLayer
 62
  256
370
   -1
100
AcDbCircle
 10
195.8604825647866
 20
194
 40
1
  0
CIRCLE
  5
381
100
AcDbEntity
  8
schematic
  6
ByLayer
 62
  256
370
   -1
100
AcDbCircle
 10
198.8604825647866
 20
194
 40
1
  0
CIRCLE
  5
382
100
AcDbEntity
  8
schematic
  6
ByLayer
 62
  256
370
   -1
100
AcDbCircle
 10
201.8604825647866
 20
194
 40
1
  0
CIRCLE
  5
383
100
AcDbEntity
  8
schematic
  6
ByLayer
 62
  256
370
   -1
100
AcDbCircle
 10
204.8604825647866
 20
194
 40
1
  0
CIRCLE
  5
384
100
AcDbEntity
  8
schematic
  6
ByLayer
 62
  256
370
   -1
100
AcDbCircle
 10
207.8604825647866
 20
194
 40
1
  0
CIRCLE
  5
385
100
AcDbEntity
  8
schematic
  6
ByLayer
 62
  256
370
   -1
100
AcDbCircle
 10
210.8604825647866
 20
194
 40
1
  0
LINE
  5
386
100
AcDbEntity
  8
schematic
  6
ByLayer
 62
  256
370
   -1
100
AcDbLine
 10
189.8604825647866
 20
200
 11
189.8604825647866
 21
195
  0
LINE
  5
387
100
AcDbEntity
  8
schematic
  6
ByLayer
 62
  256
370
   -1
100
AcDbLine
 10
192.8604825647866
 20
200
 11
192.8604825647866
 21
195
  0
LINE
  5
388
100
AcDbEntity
  8
schematic
  6
ByLayer
 62
  256
370
   -1
100
AcDbLine
 10
195.8604825647866
 20
200
 11
195.8604825647866
 21
195
  0
LINE
  5
389
100
AcDbEntity
  8
schematic
  6
ByLayer
 62
  256
370
   -1
100
AcDbLine
 10
198.8604825647866
 20
200
 11
198.8604825647866
 21
195
  0
LINE
  5
38A
100
AcDbEntity
  8
schematic
  6
ByLayer
 62
  256
370
   -1
100
AcDbLine
 10
201.8604825647866
 20
200
 11
201.8604825647866
 21
195
  0
LINE
  5
38B
100
AcDbEntity
  8
schematic
  6
ByLayer
 62
  256
370
   -1
100
AcDbLine
 10
204.8604825647866
 20
195
 11
204.8604825647866
 21
200
  0
LINE
  5
38C
100
AcDbEntity
  8
schematic
  6
ByLayer
 62
  256
370
   -1
100
AcDbLine
 10
207.8604825647866
 20
200
 11
207.8604825647866
 21
195
  0
LINE
  5
38D
100
AcDbEntity
  8
schematic
  6
ByLayer
 62
  256
370
   -1
100
AcDbLine
 10
210.8604825647866
 20
200
 11
210.8604825647866
 21
195
  0
LINE
  5
38E
100
AcDbEntity
  8
schematic
  6
ByLayer
 62
  256
370
   -1
100
AcDbLine
 10
189.8604825647866
 20
202
 11
189.8604825647866
 21
207
  0
LINE
  5
38F
100
AcDbEntity
  8
schematic
  6
ByLayer
 62
  256
370
   -1
100
AcDbLine
 10
189.8604825647866
 20
207
 11
191.8604825647866
 21
211
  0
LINE
  5
390
100
AcDbEntity
  8
schematic
  6
ByLayer
 62
  256
370
   -1
100
AcDbLine
 10
189.8604825647866
 20
211
 11
189.8604825647866
 21
223
  0
LINE
  5
391
100
AcDbEntity
  8
schematic
  6
ByLayer
 62
  256
370
   -1
100
AcDbLine
 10
192.8604825647866
 20
202
 11
192.8604825647866
 21
207
  0
LINE
  5
392
100
AcDbEntity
  8
schematic
  6
ByLayer
 62
  256
370
   -1
100
AcDbLine
 10
192.8604825647866
 20
207
 11
194.8604825647866
 21
211
  0
LINE
  5
393
100
AcDbEntity
  8
schematic
  6
ByLayer
 62
  256
370
   -1
100
AcDbLine
 10
192.8604825647866
 20
211
 11
192.8604825647866
 21
223
  0
LINE
  5
394
100
AcDbEntity
  8
schematic
  6
ByLayer
 62
  256
370
   -1
100
AcDbLine
 10
195.8604825647866
 20
202
 11
195.8604825647866
 21
207
  0
LINE
  5
395
100
AcDbEntity
  8
schematic
  6
ByLayer
 62
  256
370
   -1
100
AcDbLine
 10
195.8604825647866
 20
207
 11
197.8604825647866
 21
211
  0
LINE
  5
396
100
AcDbEntity
  8
schematic
  6
ByLayer
 62
  256
370
   -1
100
AcDbLine
 10
195.8604825647866
 20
211
 11
195.8604825647866
 21
223
  0
LINE
  5
397
100
AcDbEntity
  8
schematic
  6
ByLayer
 62
  256
370
   -1
100
AcDbLine
 10
198.8604825647866
 20
202
 11
198.8604825647866
 21
207
  0
LINE
  5
398
100
AcDbEntity
  8
schematic
  6
ByLayer
 62
  256
370
   -1
100
AcDbLine
 10
198.8604825647866
 20
207
 11
200.8604825647866
 21
211
  0
LINE
  5
399
100
AcDbEntity
  8
schematic
  6
ByLayer
 62
  256
370
   -1
100
AcDbLine
 10
198.8604825647866
 20
211
 11
198.8604825647866
 21
223
  0
LINE
  5
39A
100
AcDbEntity
  8
schematic
  6
ByLayer
 62
  256
370
   -1
100
AcDbLine
 10
201.8604825647866
 20
202
 11
201.8604825647866
 21
207
  0
LINE
  5
39B
100
AcDbEntity
  8
schematic
  6
ByLayer
 62
  256
370
   -1
100
AcDbLine
 10
201.8604825647866
 20
207
 11
203.8604825647866
 21
211
  0
LINE
  5
39C
100
AcDbEntity
  8
schematic
  6
ByLayer
 62
  256
370
   -1
100
AcDbLine
 10
201.8604825647866
 20
211
 11
201.8604825647866
 21
223
  0
LINE
  5
39D
100
AcDbEntity
  8
schematic
  6
ByLayer
 62
  256
370
   -1
100
AcDbLine
 10
204.8604825647866
 20
202
 11
204.8604825647866
 21
207
  0
LINE
  5
39E
100
AcDbEntity
  8
schematic
  6
ByLayer
 62
  256
370
   -1
100
AcDbLine
 10
204.8604825647866
 20
207
 11
206.8604825647866
 21
211
  0
LINE
  5
39F
100
AcDbEntity
  8
schematic
  6
ByLayer
 62
  256
370
   -1
100
AcDbLine
 10
204.8604825647866
 20
211
 11
204.8604825647866
 21
223
  0
LINE
  5
3A0
100
AcDbEntity
  8
schematic
  6
ByLayer
 62
  256
370
   -1
100
AcDbLine
 10
207.8604825647866
 20
202
 11
207.8604825647866
 21
207
  0
LINE
  5
3A1
100
AcDbEntity
  8
schematic
  6
ByLayer
 62
  256
370
   -1
100
AcDbLine
 10
207.8604825647866
 20
207
 11
209.8604825647866
 21
211
  0
LINE
  5
3A2
100
AcDbEntity
  8
schematic
  6
ByLayer
 62
  256
370
   -1
100
AcDbLine
 10
207.8604825647866
 20
211
 11
207.8604825647866
 21
223
  0
LINE
  5
3A3
100
AcDbEntity
  8
schematic
  6
ByLayer
 62
  256
370
   -1
100
AcDbLine
 10
210.8604825647866
 20
202
 11
210.8604825647866
 21
207
  0
LINE
  5
3A4
100
AcDbEntity
  8
schematic
  6
ByLayer
 62
  256
370
   -1
100
AcDbLine
 10
210.8604825647866
 20
207
 11
212.8604825647866
 21
211
  0
LINE
  5
3A5
100
AcDbEntity
  8
schematic
  6
ByLayer
 62
  256
370
   -1
100
AcDbLine
 10
210.8604825647866
 20
211
 11
210.8604825647866
 21
223
  0
LINE
  5
3A6
100
AcDbEntity
  8
schematic
  6
ByLayer
 62
  256
370
   -1
100
AcDbLine
 10
189.8604825647866
 20
223
 11
210.8604825647866
 21
223
  0
LINE
  5
3A7
100
AcDbEntity
  8
schematic
  6
ByLayer
 62
  256
370
   -1
100
AcDbLine
 10
210.8604825647866
 20
223
 11
210.8604825647866
 21
230
  0
INSERT
  5
3A8
100
AcDbEntity
  8
schematic
  6
ByLayer
 62
  256
370
   -1
100
AcDbBlockReference
  2
junction
 10
192.8604825647866
 20
223
 30
0
 41
0.4899999999999999
 42
0.4899999999999999
 43
0
 50
0
 70
    1
 71
    1
 44
0.4899999999999999
 45
0.4899999999999999
  0
INSERT
  5
3A9
100
AcDbEntity
  8
schematic
  6
ByLayer
 62
  256
370
   -1
100
AcDbBlockReference
  2
junction
 10
195.8604825647866
 20
223
 30
0
 41
0.4899999999999999
 42
0.4899999999999999
 43
0
 50
0
 70
    1
 71
    1
 44
0.4899999999999999
 45
0.4899999999999999
  0
INSERT
  5
3AA
100
AcDbEntity
  8
schematic
  6
ByLayer
 62
  256
370
   -1
100
AcDbBlockReference
  2
junction
 10
198.8604825647866
 20
223
 30
0
 41
0.4899999999999999
 42
0.4899999999999999
 43
0
 50
0
 70
    1
 71
    1
 44
0.4899999999999999
 45
0.4899999999999999
  0
INSERT
  5
3AB
100
AcDbEntity
  8
schematic
  6
ByLayer
 62
  256
370
   -1
100
AcDbBlockReference
  2
junction
 10
201.8604825647866
 20
223
 30
0
 41
0.4899999999999999
 42
0.4899999999999999
 43
0
 50
0
 70
    1
 71
    1
 44
0.4899999999999999
 45
0.4899999999999999
  0
INSERT
  5
3AC
100
AcDbEntity
  8
schematic
  6
ByLayer
 62
  256
370
   -1
100
AcDbBlockReference
  2
junction
 10
204.8604825647866
 20
223
 30
0
 41
0.4899999999999999
 42
0.4899999999999999
 43
0
 50
0
 70
    1
 71
    1
 44
0.4899999999999999
 45
0.4899999999999999
  0
INSERT
  5
3AD
100
AcDbEntity
  8
schematic
  6
ByLayer
 62
  256
370
   -1
100
AcDbBlockReference
  2
junction
 10
207.8604825647866
 20
223
 30
0
 41
0.4899999999999999
 42
0.4899999999999999
 43
0
 50
0
 70
    1
 71
    1
 44
0.4899999999999999
 45
0.4899999999999999
  0
INSERT
  5
3AE
100
AcDbEntity
  8
schematic
  6
ByLayer
 62
  256
370
   -1
100
AcDbBlockReference
  2
junction
 10
210.8604825647866
 20
223
 30
0
 41
0.4899999999999999
 42
0.4899999999999999
 43
0
 50
0
 70
    1
 71
    1
 44
0.4899999999999999
 45
0.4899999999999999
  0
LINE
  5
3AF
100
AcDbEntity
  8
schematic
  6
ByLayer
 62
  256
370
   -1
100
AcDbLine
 10
210.7794040586891
 20
229.9573528010671
 11
233.0475657393293
 21
229.9573528010671
  0
LWPOLYLINE
  5
3B0
100
AcDbEntity
  8
schematic
  6
ByLayer
 62
  256
370
   -1
100
AcDbPolyline
 90
    4
 70
    1
 43
0
 10
185.4245665015245
 20
270.0841391958842
 10
244.5123618521342
 20
270.0841391958842
 10
244.5123618521342
 20
190.7124737995427
 10
185.4245665015245
 20
190.7124737995427
  0
LINE
  5
3B1
100
AcDbEntity
  8
schematic
  6
CONTINUOUS
 62
  256
370
   -1
100
AcDbLine
 10
196.001
 20
80
 11
196.001
 21
135
  0
MTEXT
  5
3B2
100
AcDbEntity
  8
labels
  6
ByLayer
 62
  256
370
   -1
100
AcDbMText
 10
169.8233225336355
 20
143.6718869092988
 30
0
 40
4
 41
4.888888888889136
 71
    1
 72
    1
  1
CL
  7
standard
210
0
220
0
230
1
 50
0
 73
    2
 44
1
  0
LINE
  5
3B3
100
AcDbEntity
  8
schematic
  6
ByLayer
 62
  256
370
   -1
100
AcDbLine
 10
340.1203196455793
 20
150.596298589939
 11
340.1203196455793
 21
159.9730492568598
  0
LEADER
  5
3B4
100
AcDbEntity
  8
schematic
  6
ByLayer
 62
  256
370
   -1
100
AcDbLeader
  3
Standard
 71
    1
 72
    0
 73
    3
 74
    0
 75
    0
 40
1
 41
10
 76
0
 76
0
  0
LEADER
  5
3B5
100
AcDbEntity
  8
schematic
  6
ByLayer
 62
  256
370
   -1
100
AcDbLeader
  3
Standard
 71
    1
 72
    0
 73
    3
 74
    0
 75
    0
 40
1
 41
10
 76
2
 76
2
 10
384.7991158536589
 20
188.7625152439026
 30
0
 10
384.7991158536589
 20
184.7617682926831
 30
0
  0
LEADER
  5
3B6
100
AcDbEntity
  8
schematic
  6
ByLayer
 62
  256
370
   -1
100
AcDbLeader
  3
Standard
 71
    1
 72
    0
 73
    3
 74
    0
 75
    0
 40
1
 41
10
 76
2
 76
2
 10
340.0634908536592
 20
164.8034965701223
 30
0
 10
340.0634908536592
 20
157.5294112042686
 30
0
  0
LINE
  5
3B7
100
AcDbEntity
  8
schematic
  6
ByLayer
 62
  256
370
   -1
100
AcDbLine
 10
232.9980468750008
 20
280.0522865853668
 11
400.7566406250014
 21
280.0522865853668
  0
LINE
  5
3B8
100
AcDbEntity
  8
schematic
  6
ByLayer
 62
  256
370
   -1
100
AcDbLine
 10
240.0448170731715
 20
275.7332983993912
 11
240.0448170731715
 21
280.0522865853668
  0
LINE
  5
3B9
100
AcDbEntity
  8
schematic
  6
ByLayer
 62
  256
370
   -1
100
AcDbLine
 10
312.3310403963425
 20
275.7332983993912
 11
312.3310403963425
 21
280.0522865853668
  0
LINE
  5
3BA
100
AcDbEntity
  8
schematic
  6
ByLayer
 62
  256
370
   -1
100
AcDbLine
 10
383.026057545733
 20
275.7332983993912
 11
383.026057545733
 21
280.0522865853668
  0
LINE
  5
3BB
100
AcDbEntity
  8
schematic
  6
ByLayer
 62
  256
370
   -1
100
AcDbLine
 10
279.0558022103659
 20
110
 11
319.0558022103659
 21
110
  0
LINE
  5
3BC
100
AcDbEntity
  8
schematic
  6
ByLayer
 62
  256
370
   -1
100
AcDbLine
 10
319.0558022103659
 20
110
 11
319.0558022103659
 21
113
  0
LINE
  5
3BD
100
AcDbEntity
  8
schematic
  6
ByLayer
 62
  256
370
   -1
100
AcDbLine
 10
319.0558022103659
 20
113
 11
323.0558022103659
 21
110
  0
LINE
  5
3BE
100
AcDbEntity
  8
schematic
  6
ByLayer
 62
  256
370
   -1
100
AcDbLine
 10
323.0558022103659
 20
110
 11
319.0558022103659
 21
107
  0
LINE
  5
3BF
100
AcDbEntity
  8
schematic
  6
ByLayer
 62
  256
370
   -1
100
AcDbLine
 10
319.0558022103659
 20
107
 11
319.0558022103659
 21
110
  0
LINE
  5
3C0
100
AcDbEntity
  8
schematic
  6
ByLayer
 62
  256
370
   -1
100
AcDbLine
 10
279.0558022103659
 20
110
 11
229.0558022103659
 21
110
  0
MTEXT
  5
3C1
100
AcDbEntity
  8
labels
  6
ByLayer
 62
  256
370
   -1
100
AcDbMText
 10
329.0558022103659
 20
112
 30
0
 40
4
 41
5.33333333333358
 71
    1
 72
    1
  1
CB\P
  7
standard
210
0
220
0
230
1
 50
0
 73
    2
 44
1
  0
INSERT
  5
3C2
100
AcDbEntity
  8
schematic
  6
ByLayer
 62
  256
370
   35
100
AcDbBlockReference
  2
Switch-button-mk-0
 10
249.0558022103659
 20
110
 30
0
 41
1
 42
1
 43
0
 50
90
 70
    1
 71
    1
 44
0
 45
0
  0
INSERT
  5
3C3
100
AcDbEntity
  8
schematic
  6
ByLayer
 62
  256
370
   -1
100
AcDbBlockReference
  2
ln1
 10
224.1494781533793
 20
115.9623547065549
 30
0
 41
1
 42
1
 43
0
 50
90
 70
    1
 71
    1
 44
0
 45
0
  0
LINE
  5
3C4
100
AcDbEntity
  8
schematic
  6
ByLayer
 62
  256
370
   -1
100
AcDbLine
 10
224.2077410442073
 20
130.9903653772866
 11
224.2077410442073
 21
139.798828125
  0
LINE
  5
3C5
100
AcDbEntity
  8
schematic
  6
ByLayer
 62
  256
370
   -1
100
AcDbLine
 10
224.2077410442073
 20
115.9307355182927
 11
224.2077410442073
 21
80.1285966082317
  0
INSERT
  5
3C6
100
AcDbEntity
  8
schematic
  6
ByLayer
 62
  256
370
   -1
100
AcDbBlockReference
  2
junction
 10
224.2077410442073
 20
80.1285966082317
 30
0
 41
1
 42
1
 43
0
 50
0
 70
    1
 71
    1
 44
1
 45
1
  0
INSERT
  5
3C7
100
AcDbEntity
  8
schematic
  6
ByLayer
 62
  256
370
   35
100
AcDbBlockReference
  2
Switch-button-mk
 10
296.2477896341464
 20
120
 30
0
 41
1
 42
1
 43
0
 50
90
 70
    1
 71
    1
 44
0
 45
0
  0
LINE
  5
3C8
100
AcDbEntity
  8
schematic
  6
ByLayer
 62
  256
370
   -1
100
AcDbLine
 10
296.2944740853659
 20
150.0280106707317
 11
296.2944740853659
 21
159.9730492568598
  0
LINE
  5
3C9
100
AcDbEntity
  8
schematic
  6
ByLayer
 62
  256
370
   -1
100
AcDbLine
 10
296.2944740853659
 20
119.9087509527439
 11
296.2944740853659
 21
110.2478563262195
  0
LEADER
  5
3CA
100
AcDbEntity
  8
schematic
  6
ByLayer
 62
  256
370
   -1
100
AcDbLeader
  3
Standard
 71
    1
 72
    0
 73
    3
 74
    0
 75
    0
 40
1
 41
10
 76
2
 76
2
 10
296.2944740853664
 20
164.5761814024393
 30
0
 10
296.2944740853664
 20
157.7567263719515
 30
0
  0
INSERT
  5
3CB
100
AcDbEntity
  8
schematic
  6
ByLayer
 62
  256
370
   35
100
AcDbBlockReference
  2
Switch-button-mk
 10
272.2674542682927
 20
120
 30
0
 41
1
 42
1
 43
0
 50
90
 70
    1
 71
    1
 44
0
 45
0
  0
LINE
  5
3CC
100
AcDbEntity
  8
schematic
  6
ByLayer
 62
  256
370
   -1
100
AcDbLine
 10
272.3141387195122
 20
150.0280106707317
 11
272.3141387195122
 21
159.9730492568598
  0
LINE
  5
3CD
100
AcDbEntity
  8
schematic
  6
ByLayer
 62
  256
370
   -1
100
AcDbLine
 10
272.3141387195122
 20
119.9087509527439
 11
272.3141387195122
 21
110.2478563262195
  0
LEADER
  5
3CE
100
AcDbEntity
  8
schematic
  6
ByLayer
 62
  256
370
   -1
100
AcDbLeader
  3
Standard
 71
    1
 72
    0
 73
    3
 74
    0
 75
    0
 40
1
 41
10
 76
2
 76
2
 10
272.3141387195127
 20
164.5761814024393
 30
0
 10
272.3141387195127
 20
157.7567263719515
 30
0
  0
INSERT
  5
3CF
100
AcDbEntity
  8
schematic
  6
ByLayer
 62
  256
370
   -1
100
AcDbBlockReference
  2
ln1
 10
209.589988824111
 20
115.9623547065549
 30
0
 41
1
 42
1
 43
0
 50
90
 70
    1
 71
    1
 44
0
 45
0
  0
LINE
  5
3D0
100
AcDbEntity
  8
schematic
  6
ByLayer
 62
  256
370
   -1
100
AcDbLine
 10
209.648251714939
 20
115.9307355182927
 11
209.648251714939
 21
80.1285966082317
  0
INSERT
  5
3D1
100
AcDbEntity
  8
schematic
  6
ByLayer
 62
  256
370
   -1
100
AcDbBlockReference
  2
junction
 10
209.648251714939
 20
80.1285966082317
 30
0
 41
1
 42
1
 43
0
 50
0
 70
    1
 71
    1
 44
1
 45
1
  0
LINE
  5
3D2
100
AcDbEntity
  8
schematic
  6
ByLayer
 62
  256
370
   -1
100
AcDbLine
 10
248.8416920731707
 20
140
 11
248.8416920731707
 21
160
  0
LEADER
  5
3D3
100
AcDbEntity
  8
schematic
  6
ByLayer
 62
  256
370
   -1
100
AcDbLeader
  3
Standard
 71
    1
 72
    0
 73
    3
 74
    0
 75
    0
 40
1
 41
10
 76
2
 76
2
 10
249.1119569359761
 20
164.5761814024393
 30
0
 10
248.8846417682932
 20
157.7567263719515
 30
0
  0
LINE
  5
3D4
100
AcDbEntity
  8
schematic
  6
ByLayer
 62
  256
370
   -1
100
AcDbLine
 10
209.6138243140246
 20
130.8212938262197
 11
209.6138243140246
 21
144.7384527439026
  0
MTEXT
  5
3D5
100
AcDbEntity
  8
labels
  6
ByLayer
 62
  256
370
   -1
100
AcDbMText
 10
264.8466082317074
 20
107.8711890243902
 30
0
 40
3
 41
38.83333269732707
 71
    1
 72
    1
  1
PULSANTI DI PIANO
  7
standard
210
0
220
0
230
1
 50
0
 73
    2
 44
1
  0
MTEXT
  5
3D6
100
AcDbEntity
  8
labels
  6
ByLayer
 62
  256
370
   -1
100
AcDbMText
 10
227.5838605182927
 20
100.7647413300305
 30
0
 40
3
 41
41.49999936399374
 71
    1
 72
    1
  1
PULSANTI DI CABINA
  7
standard
210
0
220
0
230
1
 50
0
 73
    2
 44
1
  0
MTEXT
  5
3D7
100
AcDbEntity
  8
schematic
  6
ByLayer
 62
  256
370
   -1
100
AcDbMText
 10
195.3202797063282
 20
75.10236259960367
 30
0
 40
3
 41
28.99999936399355
 71
    1
 72
    1
  1
SEGNALAZIONE\PPRENOTATO
  7
standard
210
0
220
0
230
1
 50
0
 73
    2
 44
1
  0
LEADER
  5
3D8
100
AcDbEntity
  8
schematic
  6
ByLayer
 62
  256
370
   -1
100
AcDbLeader
  3
Standard
 71
    1
 72
    0
 73
    3
 74
    0
 75
    0
 40
1
 41
10
 76
2
 76
2
 10
187.8765366961188
 20
188.6737497231179
 30
0
 10
187.8765366961188
 20
181.2330948044597
 30
0
  0
LINE
  5
3D9
100
AcDbEntity
  8
schematic
  6
DASHEDTINY
 62
  256
370
   -1
100
AcDbLine
 10
187.877
 20
183.359
 11
187.877
 21
166.618
  0
LINE
  5
3DA
100
AcDbEntity
  8
schematic
  6
DASHEDTINY
 62
  256
370
   -1
100
AcDbLine
 10
187.877
 20
166.618
 11
384.788
 21
166.618
  0
LINE
  5
3DB
100
AcDbEntity
  8
schematic
  6
DASHEDTINY
 62
  256
370
   -1
100
AcDbLine
 10
384.788
 20
166.618
 11
384.788
 21
184.688
  0
MTEXT
  5
3DC
100
AcDbEntity
  8
schematic
  6
ByLayer
 62
  256
370
   -1
100
AcDbMText
 10
192.1283395067806
 20
186.547848317787
 30
0
 40
3
 41
142.416663486635
 71
    1
 72
    1
  1
CONNESSIONI CHIAMATE E POSIZIONI DIRETTE SU SCHEDE PERIFERICHE
  7
standard
210
0
220
0
230
1
 50
0
 73
    2
 44
1
  0
MTEXT
  5
3DD
100
AcDbEntity
  8
schematic
  6
ByLayer
 62
  256
370
   -1
100
AcDbMText
 10
192.1283395067806
 20
182.2960455071252
 30
0
 40
3
 41
80.99999809198101
 71
    1
 72
    1
  1
SIGLE DI IDENTIFICAZIONE SU MORSETTI:\P
  7
standard
210
0
220
0
230
1
 50
0
 73
    2
 44
1
  0
MTEXT
  5
3DE
100
AcDbEntity
  8
schematic
  6
ByLayer
 62
  256
370
   -1
100
AcDbMText
 10
192.394077182447
 20
178.3099803721297
 30
0
 40
3
 41
76.00000000000018
 71
    1
 72
    1
  1
CABINA 0...7 = PRENOTAZIONI CABINA
  7
standard
210
0
220
0
230
1
 50
0
 73
    2
 44
1
  0
MTEXT
  5
3DF
100
AcDbEntity
  8
schematic
  6
ByLayer
 62
  256
370
   -1
100
AcDbMText
 10
192.1283395067806
 20
170.6035877778052
 30
0
 40
3
 41
98.41666539465395
 71
    1
 72
    1
  1
SALITA  0...7 = PRENOTAZIONI DI PIANO SALITA
  7
standard
210
0
220
0
230
1
 50
0
 73
    2
 44
1
  0
MTEXT
  5
3E0
100
AcDbEntity
  8
schematic
  6
ByLayer
 62
  256
370
   -1
100
AcDbMText
 10
192.394077182447
 20
174.5896529128006
 30
0
 40
3
 41
102.4166641226414
 71
    1
 72
    1
  1
DISCESA  0...7 = PRENOTAZIONI DI PIANO DISCESA
  7
standard
210
0
220
0
230
1
 50
0
 73
    2
 44
1
  0
MTEXT
  5
3E1
100
AcDbEntity
  8
schematic
  6
ByLayer
 62
  256
370
   -1
100
AcDbMText
 10
288.5911157736704
 20
178.5757180477961
 30
0
 40
3
 41
94.24999745597438
 71
    1
 72
    1
  1
POSIZIONE  0...7 = USCITE POSIZIONE-DISPLAY
  7
standard
210
0
220
0
230
1
 50
0
 73
    2
 44
1
  0
LINE
  5
3E2
100
AcDbEntity
  8
schematic
  6
CONTINUOUS
 62
  256
370
   -1
100
AcDbLine
 10
210
 20
150
 11
196
 21
150
  0
INSERT
  5
3E3
100
AcDbEntity
  8
0
  6
ByLayer
 62
  256
370
   -1
100
AcDbBlockReference
  2
vd1
 10
210
 20
150
 30
0
 41
1
 42
1
 43
0
 50
0
 70
    1
 71
    1
 44
0
 45
0
  0
LINE
  5
3E4
100
AcDbEntity
  8
schematic
  6
ByLayer
 62
  256
370
   -1
100
AcDbLine
 10
220
 20
150
 11
296.1143197408539
 21
149.8770960365855
  0
LINE
  5
3E5
100
AcDbEntity
  8
schematic
  6
ByLayer
 62
  256
370
   -1
100
AcDbLine
 10
236
 20
140
 11
248.7205244855183
 21
140
  0
INSERT
  5
3E6
100
AcDbEntity
  8
0
  6
ByLayer
 62
  256
370
   -1
100
AcDbBlockReference
  2
vd1
 10
226
 20
140
 30
0
 41
1
 42
1
 43
0
 50
0
 70
    1
 71
    1
 44
1
 45
1
  0
INSERT
  5
3E7
100
AcDbEntity
  8
0
  6
ByLayer
 62
  256
370
   -1
100
AcDbBlockReference
  2
vd1
 10
219
 20
145
 30
0
 41
1
 42
1
 43
0
 50
0
 70
    1
 71
    1
 44
1
 45
1
  0
LINE
  5
3E8
100
AcDbEntity
  8
schematic
  6
ByLayer
 62
  256
370
   -1
100
AcDbLine
 10
229
 20
145
 11
272
 21
145
  0
LINE
  5
3E9
100
AcDbEntity
  8
schematic
  6
ByLayer
 62
  256
370
   -1
100
AcDbLine
 10
224.2
 20
139.8
 11
224.2
 21
140
  0
LINE
  5
3EA
100
AcDbEntity
  8
schematic
  6
ByLayer
 62
  256
370
   -1
100
AcDbLine
 10
224.2
 20
140
 11
226
 21
140
  0
LINE
  5
3EB
100
AcDbEntity
  8
schematic
  6
ByLayer
 62
  256
370
   -1
100
AcDbLine
 10
219
 20
145
 11
209.6
 21
145
  0
LINE
  5
3EC
100
AcDbEntity
  8
schematic
  6
ByLayer
 62
  256
370
   -1
100
AcDbLine
 10
209.6
 20
145
 11
209.6
 21
144.8
  0
INSERT
  5
3ED
100
AcDbEntity
  8
schematic
  6
ByLayer
 62
  256
370
   -1
100
AcDbBlockReference
  2
junction
 10
296.3
 20
149.9
 30
0
 41
1
 42
1
 43
0
 50
0
 70
    1
 71
    1
 44
1
 45
1
  0
INSERT
  5
3EE
100
AcDbEntity
  8
schematic
  6
ByLayer
 62
  256
370
   -1
100
AcDbBlockReference
  2
junction
 10
272.3
 20
145
 30
0
 41
1
 42
1
 43
0
 50
0
 70
    1
 71
    1
 44
1
 45
1
  0
INSERT
  5
3EF
100
AcDbEntity
  8
schematic
  6
ByLayer
 62
  256
370
   -1
100
AcDbBlockReference
  2
junction
 10
248.9
 20
140
 30
0
 41
1
 42
1
 43
0
 50
0
 70
    1
 71
    1
 44
1
 45
1
  0
MTEXT
  5
3F0
100
AcDbEntity
  8
labels
  6
ByLayer
 62
  256
370
   -1
100
AcDbMText
 10
206.9390243902439
 20
247
 30
0
 40
5
 41
39.99999893998987
 71
    2
 72
    1
  1
PER16B-SMD
  7
standard
210
0
220
0
230
1
 50
0
 73
    2
 44
1
  0
MTEXT
  5
3F1
100
AcDbEntity
  8
labels
  6
ByLayer
 62
  256
370
   -1
100
AcDbMText
 10
279.3780487804878
 20
247
 30
0
 40
5
 41
39.99999893998987
 71
    2
 72
    1
  1
PER16B-SMD
  7
standard
210
0
220
0
230
1
 50
0
 73
    2
 44
1
  0
MTEXT
  5
3F2
100
AcDbEntity
  8
labels
  6
ByLayer
 62
  256
370
   -1
100
AcDbMText
 10
350.0060975609756
 20
247
 30
0
 40
5
 41
39.99999893998987
 71
    2
 72
    1
  1
PER16B-SMD
  7
standard
210
0
220
0
230
1
 50
0
 73
    2
 44
1
  0
MTEXT
  5
3F3
100
AcDbEntity
  8
frame-title
  6
ByLayer
 62
  256
370
   -1
100
AcDbMText
 10
303
 20
35
 30
0
 40
3
 41
53.58333269732749
 71
    1
 72
    1
  1
Schema: MC-POL48MIAE-06\PFoglio: 6 di 18
  7
standard
210
0
220
0
230
1
 50
0
 73
    2
 44
1
  0
ENDSEC
  0
SECTION
  2
OBJECTS
  0
DICTIONARY
  5
C
330
0
100
AcDbDictionary
281
    1
  3
ACAD_GROUP
350
D
  0
DICTIONARY
  5
D
330
C
100
AcDbDictionary
281
    1
  0
ENDSEC
  0
EOF
